<?xml version="1.0" encoding="UTF-8" standalone="no"?>
<svg
   id="mdi-account-remove"
   viewBox="0 0 24 24"
   version="1.1"
   sodipodi:docname="account-remove-red.svg"
   inkscape:version="1.4 (e7c3feb1, 2024-10-09)"
   xmlns:inkscape="http://www.inkscape.org/namespaces/inkscape"
   xmlns:sodipodi="http://sodipodi.sourceforge.net/DTD/sodipodi-0.dtd"
   xmlns="http://www.w3.org/2000/svg"
   xmlns:svg="http://www.w3.org/2000/svg">
  <defs
     id="defs1" />
  <sodipodi:namedview
     id="namedview1"
     pagecolor="#ffffff"
     bordercolor="#000000"
     borderopacity="0.25"
     inkscape:showpageshadow="2"
     inkscape:pageopacity="0.0"
     inkscape:pagecheckerboard="0"
     inkscape:deskcolor="#d1d1d1"
     inkscape:zoom="1.75"
     inkscape:cx="12"
     inkscape:cy="12.285714"
     inkscape:window-width="1464"
     inkscape:window-height="818"
     inkscape:window-x="0"
     inkscape:window-y="38"
     inkscape:window-maximized="0"
     inkscape:current-layer="mdi-account-remove" />
  <path
     d="M 5,9.59 7.12,7.46 8.54,8.88 6.41,11 8.54,13.12 7.12,14.54 5,12.41 2.88,14.54 1.46,13.12 3.59,11 1.46,8.88 2.88,7.46 Z"
     id="path3" />
  <path
     id="path1"
     style="fill:#ff0000"
     d="m 15,14 c 2.67,0 8,1.33 8,4 v 2 H 7 v -2 c 0,-2.67 5.33,-4 8,-4 m 0,-2 a 4,4 0 0 1 -4,-4 4,4 0 0 1 4,-4 4,4 0 0 1 4,4 4,4 0 0 1 -4,4" />
</svg>
