<?xml version="1.0" encoding="UTF-8" standalone="no"?>
<svg
   id="mdi-account-alert-outline"
   viewBox="0 0 24 24"
   version="1.1"
   sodipodi:docname="account-alert-outline-yellow.svg"
   inkscape:version="1.4 (e7c3feb1, 2024-10-09)"
   xmlns:inkscape="http://www.inkscape.org/namespaces/inkscape"
   xmlns:sodipodi="http://sodipodi.sourceforge.net/DTD/sodipodi-0.dtd"
   xmlns="http://www.w3.org/2000/svg"
   xmlns:svg="http://www.w3.org/2000/svg">
  <defs
     id="defs1">
    <clipPath
       clipPathUnits="userSpaceOnUse"
       id="clipPath8">
      <path
         d="m 10,13 c 2.67,0 8,1.34 8,4 v 3 H 2 v -3 c 0,-2.66 5.33,-4 8,-4"
         id="path8"
         style="fill:#000000;fill-opacity:1" />
    </clipPath>
    <clipPath
       clipPathUnits="userSpaceOnUse"
       id="clipPath9">
      <path
         d="M 10,4 A 4,4 0 0 1 14,8 4,4 0 0 1 10,12 4,4 0 0 1 6,8 4,4 0 0 1 10,4"
         id="path10" />
    </clipPath>
  </defs>
  <sodipodi:namedview
     id="namedview1"
     pagecolor="#ffffff"
     bordercolor="#000000"
     borderopacity="0.25"
     inkscape:showpageshadow="2"
     inkscape:pageopacity="0.0"
     inkscape:pagecheckerboard="0"
     inkscape:deskcolor="#d1d1d1"
     inkscape:zoom="11.42"
     inkscape:cx="11.996497"
     inkscape:cy="11.996497"
     inkscape:window-width="1408"
     inkscape:window-height="833"
     inkscape:window-x="0"
     inkscape:window-y="38"
     inkscape:window-maximized="0"
     inkscape:current-layer="mdi-account-alert-outline" />
  <path
     d="M 10,5.9 A 2.1,2.1 0 0 0 7.9,8 2.1,2.1 0 0 0 10,10.1 2.1,2.1 0 0 0 12.1,8 2.1,2.1 0 0 0 10,5.9 Z"
     id="path6" />
  <path
     d="m 10,14.9 c -2.97,0 -6.1,1.46 -6.1,2.1 v 1.1 H 16.1 V 17 c 0,-0.64 -3.13,-2.1 -6.1,-2.1"
     id="path5" />
  <path
     d="M 10,4 A 4,4 0 0 1 14,8 4,4 0 0 1 10,12 4,4 0 0 1 6,8 4,4 0 0 1 10,4"
     id="path9"
     style="fill:#ffff00;stroke:#000000;stroke-opacity:1;stroke-width:2;stroke-dasharray:none"
     clip-path="url(#clipPath9)" />
  <path
     d="m 10,13 c 2.67,0 8,1.34 8,4 v 3 H 2 v -3 c 0,-2.66 5.33,-4 8,-4"
     id="path7"
     style="fill:#ffff00;fill-opacity:1;stroke:#000000;stroke-opacity:1;stroke-width:2;stroke-dasharray:none"
     clip-path="url(#clipPath8)" />
  <path
     d="m 20,17 h 2 v -2 h -2"
     id="path2" />
  <path
     d="M 20,12 V 7 h 2 v 6 h -2"
     id="path1" />
</svg>
