<?xml version="1.0" encoding="UTF-8" standalone="no"?>
<svg
   id="mdi-account-cash"
   viewBox="0 0 24 24"
   version="1.1"
   sodipodi:docname="account-cash-green.svg"
   inkscape:version="1.4 (e7c3feb1, 2024-10-09)"
   xmlns:inkscape="http://www.inkscape.org/namespaces/inkscape"
   xmlns:sodipodi="http://sodipodi.sourceforge.net/DTD/sodipodi-0.dtd"
   xmlns="http://www.w3.org/2000/svg"
   xmlns:svg="http://www.w3.org/2000/svg">
  <defs
     id="defs1" />
  <sodipodi:namedview
     id="namedview1"
     pagecolor="#ffffff"
     bordercolor="#000000"
     borderopacity="0.25"
     inkscape:showpageshadow="2"
     inkscape:pageopacity="0.0"
     inkscape:pagecheckerboard="0"
     inkscape:deskcolor="#d1d1d1"
     inkscape:zoom="3.52"
     inkscape:rotation="1"
     inkscape:cx="12.003653"
     inkscape:cy="12.150312"
     inkscape:window-width="1352"
     inkscape:window-height="722"
     inkscape:window-x="0"
     inkscape:window-y="38"
     inkscape:window-maximized="0"
     inkscape:current-layer="mdi-account-cash" />
  <path
     d="M 24,20 H 13 V 3 h 11 v 17"
     id="path3" />
  <path
     d="M 11,14.72 V 20 H 0 v -2 c 0,-2.21 3.13,-4 7,-4 1.5,0 2.87,0.27 4,0.72"
     id="path2" />
  <path
     d="M 22,7 C 20.9,7 20,6.11 20,5 h -3 c 0,1.11 -0.89,2 -2,2 v 9 c 1.11,0 2,0.9 2,2 h 3 c 0,-1.1 0.9,-2 2,-2 z"
     id="path5"
     style="fill:#00ff00" />
  <path
     d="M 11,8 C 11,10.21 9.21,12 7,12 4.79,12 3,10.21 3,8 3,5.79 4.79,4 7,4 c 2.21,0 4,1.79 4,4"
     id="path1" />
  <path
     d="M 16,11.5 C 16,10.12 17.12,9 18.5,9 19.88,9 21,10.12 21,11.5 21,12.88 19.88,14 18.5,14 17.12,14 16,12.88 16,11.5"
     id="path4" />
</svg>
