<?xml version="1.0" encoding="UTF-8" standalone="no"?>
<svg
   id="mdi-account-cash-outline"
   viewBox="0 0 24 24"
   version="1.1"
   sodipodi:docname="account-cash-outline-green.svg"
   inkscape:version="1.4 (e7c3feb1, 2024-10-09)"
   xmlns:inkscape="http://www.inkscape.org/namespaces/inkscape"
   xmlns:sodipodi="http://sodipodi.sourceforge.net/DTD/sodipodi-0.dtd"
   xmlns="http://www.w3.org/2000/svg"
   xmlns:svg="http://www.w3.org/2000/svg">
  <defs
     id="defs1" />
  <sodipodi:namedview
     id="namedview1"
     pagecolor="#ffffff"
     bordercolor="#000000"
     borderopacity="0.25"
     inkscape:showpageshadow="2"
     inkscape:pageopacity="0.0"
     inkscape:pagecheckerboard="0"
     inkscape:deskcolor="#d1d1d1"
     inkscape:zoom="8.08"
     inkscape:cx="12.00495"
     inkscape:cy="11.943069"
     inkscape:window-width="1312"
     inkscape:window-height="748"
     inkscape:window-x="0"
     inkscape:window-y="38"
     inkscape:window-maximized="0"
     inkscape:current-layer="mdi-account-cash-outline" />
  <path
     d="m 7,14 c -3.87,0 -7,1.79 -7,4 v 2 H 11 V 18 H 2 c 0,-0.58 1.75,-2 5,-2 1.83,0 3.17,0.45 4,0.95 V 14.72 C 9.87,14.27 8.5,14 7,14 Z"
     id="path10" />
  <path
     d="M 7,4 C 4.79,4 3,5.79 3,8 c 0,2.21 1.79,4 4,4 2.21,0 4,-1.79 4,-4 C 11,5.79 9.21,4 7,4"
     id="path9" />
  <path
     d="M 7,6 C 8.1,6 9,6.9 9,8 9,9.1 8.1,10 7,10 5.9,10 5,9.1 5,8 5,6.9 5.9,6 7,6"
     id="path8"
     style="fill:#f9f9f9" />
  <path
     d="M 13,3 V 20 H 24 V 3 H 13"
     id="path6" />
  <path
     d="m 22,16 c -1.1,0 -2,0.9 -2,2 h -3 c 0,-1.1 -0.89,-2 -2,-2 V 7 c 1.11,0 2,-0.89 2,-2 h 3 c 0,1.11 0.9,2 2,2 v 9"
     id="path7"
     style="fill:#00ff00" />
  <path
     d="M 16,11.5 C 16,10.12 17.12,9 18.5,9 19.88,9 21,10.12 21,11.5 21,12.88 19.88,14 18.5,14 17.12,14 16,12.88 16,11.5"
     id="path1"
     style="fill:#1a1a1a" />
</svg>
