<?xml version="1.0" encoding="UTF-8" standalone="no"?>
<svg
   id="mdi-air-humidifier-off"
   viewBox="0 0 24 24"
   version="1.1"
   sodipodi:docname="air-humidifier-off-color.svg"
   inkscape:version="1.4 (e7c3feb1, 2024-10-09)"
   xmlns:inkscape="http://www.inkscape.org/namespaces/inkscape"
   xmlns:sodipodi="http://sodipodi.sourceforge.net/DTD/sodipodi-0.dtd"
   xmlns="http://www.w3.org/2000/svg"
   xmlns:svg="http://www.w3.org/2000/svg">
  <defs
     id="defs1" />
  <sodipodi:namedview
     id="namedview1"
     pagecolor="#ffffff"
     bordercolor="#000000"
     borderopacity="0.25"
     inkscape:showpageshadow="2"
     inkscape:pageopacity="0.0"
     inkscape:pagecheckerboard="0"
     inkscape:deskcolor="#d1d1d1"
     inkscape:zoom="14.06"
     inkscape:cx="12.019915"
     inkscape:cy="12.019915"
     inkscape:window-width="1416"
     inkscape:window-height="785"
     inkscape:window-x="29"
     inkscape:window-y="53"
     inkscape:window-maximized="0"
     inkscape:current-layer="mdi-air-humidifier-off" />
  <rect
     style="fill:#0000ff;stroke:none;stroke-width:2.34046;stroke-linejoin:bevel;stroke-miterlimit:1"
     id="rect1"
     width="14.936693"
     height="17.975296"
     x="3.0329707"
     y="3.9889162"
     ry="4.0540543" />
  <path
     d="M22.1 21.5L2.4 1.7L1.1 3L3.8 5.7C3.3 6.3 3 7.1 3 8V22H18V19.9L20.8 22.7L22.1 21.5M9.6 11.5L12.4 14.3C12.1 14.7 11.6 15 11 15C9.9 15 9 14.1 9 13C9 12.4 9.3 11.9 9.6 11.5M16 17.9V20H5V8C5 7.7 5.1 7.4 5.2 7.1L8.2 10.1C7.5 10.8 7 11.9 7 13C7 15.2 8.8 17 11 17C12.1 17 13.2 16.5 13.9 15.8L16 17.9M17 13.8C17.1 12.5 19 10.5 19 10.5S21 12.7 21 14C21 15 20.2 15.9 19.2 16L17 13.8M9.2 6L7.2 4H14C16.2 4 18 5.8 18 8V9H16V8C16 6.9 15.1 6 14 6H9.2Z"
     id="path1" />
</svg>
