<?xml version="1.0" encoding="UTF-8" standalone="no"?>
<svg
   id="mdi-air-humidifier"
   viewBox="0 0 24 24"
   version="1.1"
   sodipodi:docname="air-humidifier-color.svg"
   inkscape:version="1.4 (e7c3feb1, 2024-10-09)"
   xmlns:inkscape="http://www.inkscape.org/namespaces/inkscape"
   xmlns:sodipodi="http://sodipodi.sourceforge.net/DTD/sodipodi-0.dtd"
   xmlns="http://www.w3.org/2000/svg"
   xmlns:svg="http://www.w3.org/2000/svg">
  <defs
     id="defs1" />
  <sodipodi:namedview
     id="namedview1"
     pagecolor="#ffffff"
     bordercolor="#000000"
     borderopacity="0.25"
     inkscape:showpageshadow="2"
     inkscape:pageopacity="0.0"
     inkscape:pagecheckerboard="0"
     inkscape:deskcolor="#d1d1d1"
     inkscape:zoom="15.07"
     inkscape:cx="12.010617"
     inkscape:cy="11.911082"
     inkscape:window-width="1440"
     inkscape:window-height="782"
     inkscape:window-x="72"
     inkscape:window-y="38"
     inkscape:window-maximized="0"
     inkscape:current-layer="mdi-air-humidifier" />
  <rect
     style="fill:#2a7fff;stroke:none;stroke-width:2.34046;stroke-linejoin:bevel;stroke-miterlimit:1"
     id="rect1"
     width="14.936693"
     height="17.975296"
     x="3"
     y="4.004643"
     ry="4.0540543" />
  <path
     d="M11 9C8.79 9 7 10.79 7 13S8.79 17 11 17 15 15.21 15 13 13.21 9 11 9M11 15C9.9 15 9 14.11 9 13S9.9 11 11 11 13 11.9 13 13 12.11 15 11 15M7 4H14C16.21 4 18 5.79 18 8V9H16V8C16 6.9 15.11 6 14 6H7C5.9 6 5 6.9 5 8V20H16V18H18V22H3V8C3 5.79 4.79 4 7 4M19 10.5C19 10.5 21 12.67 21 14C21 15.1 20.1 16 19 16S17 15.1 17 14C17 12.67 19 10.5 19 10.5"
     id="path1" />
</svg>
