<?xml version="1.0" encoding="UTF-8" standalone="no"?>
<svg
   id="mdi-alarm-light-off"
   viewBox="0 0 24 24"
   version="1.1"
   sodipodi:docname="alarm-light-off-yellow.svg"
   inkscape:version="1.4 (e7c3feb1, 2024-10-09)"
   xmlns:inkscape="http://www.inkscape.org/namespaces/inkscape"
   xmlns:sodipodi="http://sodipodi.sourceforge.net/DTD/sodipodi-0.dtd"
   xmlns="http://www.w3.org/2000/svg"
   xmlns:svg="http://www.w3.org/2000/svg">
  <defs
     id="defs1" />
  <sodipodi:namedview
     id="namedview1"
     pagecolor="#ffffff"
     bordercolor="#000000"
     borderopacity="0.25"
     inkscape:showpageshadow="2"
     inkscape:pageopacity="0.0"
     inkscape:pagecheckerboard="0"
     inkscape:deskcolor="#d1d1d1"
     inkscape:zoom="16.15"
     inkscape:cx="12.012384"
     inkscape:cy="12.848297"
     inkscape:window-width="1424"
     inkscape:window-height="722"
     inkscape:window-x="17"
     inkscape:window-y="69"
     inkscape:window-maximized="0"
     inkscape:current-layer="mdi-alarm-light-off" />
  <path
     d="m 13,1 h -2 v 3 h 2 z"
     id="path6" />
  <path
     d="M 1.1,3 6.6,8.5 C 6.2,9.2 6,10.1 6,11 v 8 h 11.1 l 1,1 H 6 c -1.1,0 -2,0.9 -2,2 h 16.1 l 0.7,0.7 1.3,-1.3 L 2.4,1.7 1.1,3"
     id="path5"
     style="fill:#ffff00" />
  <path
     d="M 1.133127,2.9811145 20.83312,22.68112 l 1.3,-1.3 -19.699993,-19.7000055 -1.3,1.3"
     id="path5-6"
     sodipodi:nodetypes="ccccc" />
  <path
     d="m 4.5,10.5 h -3 v 2 h 3 v -2"
     id="path4" />
  <path
     d="m 19.5,10.5 v 2 h 3 v -2 h -3"
     id="path3" />
  <path
     d="M 20.1,4.8 18.7,3.4 16.6,5.5 18,6.9 20.1,4.8"
     id="path2" />
  <path
     d="M 18,14.8 9,5.8 C 9.9,5.3 10.9,5 12,5 c 3.3,0 6,2.7 6,6 v 3.8"
     id="path1"
     style="fill:#ffff00" />
</svg>
