<?xml version="1.0" encoding="UTF-8" standalone="no"?>
<svg
   id="mdi-alarm-light-off-outline"
   viewBox="0 0 24 24"
   version="1.1"
   sodipodi:docname="alarm-light-off-outline-yellow.svg"
   inkscape:version="1.4 (e7c3feb1, 2024-10-09)"
   xmlns:inkscape="http://www.inkscape.org/namespaces/inkscape"
   xmlns:sodipodi="http://sodipodi.sourceforge.net/DTD/sodipodi-0.dtd"
   xmlns="http://www.w3.org/2000/svg"
   xmlns:svg="http://www.w3.org/2000/svg">
  <defs
     id="defs1" />
  <sodipodi:namedview
     id="namedview1"
     pagecolor="#ffffff"
     bordercolor="#000000"
     borderopacity="0.25"
     inkscape:showpageshadow="2"
     inkscape:pageopacity="0.0"
     inkscape:pagecheckerboard="0"
     inkscape:deskcolor="#d1d1d1"
     inkscape:zoom="24.48"
     inkscape:cx="12.030229"
     inkscape:cy="11.151961"
     inkscape:window-width="1480"
     inkscape:window-height="791"
     inkscape:window-x="0"
     inkscape:window-y="38"
     inkscape:window-maximized="0"
     inkscape:current-layer="mdi-alarm-light-off-outline" />
  <g
     id="g1"
     transform="translate(0.2,0.15)">
    <g
       id="g2"
       style="fill:#ffff00">
      <rect
         style="fill:#ffff00;stroke-width:1.9781;stroke-linejoin:bevel;stroke-miterlimit:1"
         id="rect1"
         width="11.913575"
         height="13.960477"
         x="6.0538297"
         y="5.0176249"
         ry="6.0208693"
         rx="5.9567876" />
      <rect
         style="fill:#ffff00;stroke-width:1.77859;stroke-linejoin:bevel;stroke-miterlimit:1"
         id="rect2"
         width="4.8440619"
         height="8.0291977"
         x="13.138687"
         y="10.948905"
         rx="0"
         ry="0" />
    </g>
    <path
       d="M 10.5,7.3 9,5.8 C 9.9,5.3 10.9,5 12,5 c 3.3,0 6,2.7 6,6 v 3.8 l -2,-2 V 11 C 16,8.8 14.2,7 12,7 11.5,7 11,7.1 10.5,7.3 M 20.1,4.8 18.7,3.4 16.6,5.5 18,6.9 20.1,4.8 m -0.6,5.7 v 2 h 3 v -2 h -3 m -15,0 h -3 v 2 h 3 v -2 M 2.4,1.7 22.1,21.4 20.8,22.7 20.1,22 H 4 c 0,-1.1 0.9,-2 2,-2 h 12.1 l -1,-1 H 6 V 11 C 6,10.1 6.2,9.2 6.6,8.5 L 1.1,3 2.4,1.7 M 8,17 h 7.1 l -7,-7 C 8.1,10.3 8,10.7 8,11 v 6 M 13,1 h -2 v 3 h 2 z"
       id="path1"
       sodipodi:nodetypes="ccssccsscccccccccccccccccccccscccsccccccscccccc" />
  </g>
</svg>
