<?xml version="1.0" encoding="UTF-8" standalone="no"?>
<svg
   id="mdi-alarm-light-outline"
   viewBox="0 0 24 24"
   version="1.1"
   sodipodi:docname="alarm-light-outline-green.svg"
   inkscape:version="1.4 (e7c3feb1, 2024-10-09)"
   xmlns:inkscape="http://www.inkscape.org/namespaces/inkscape"
   xmlns:sodipodi="http://sodipodi.sourceforge.net/DTD/sodipodi-0.dtd"
   xmlns="http://www.w3.org/2000/svg"
   xmlns:svg="http://www.w3.org/2000/svg">
  <defs
     id="defs1" />
  <sodipodi:namedview
     id="namedview1"
     pagecolor="#ffffff"
     bordercolor="#000000"
     borderopacity="0.25"
     inkscape:showpageshadow="2"
     inkscape:pageopacity="0.0"
     inkscape:pagecheckerboard="0"
     inkscape:deskcolor="#d1d1d1"
     inkscape:zoom="11.42"
     inkscape:cx="11.996497"
     inkscape:cy="11.996497"
     inkscape:window-width="1456"
     inkscape:window-height="771"
     inkscape:window-x="0"
     inkscape:window-y="38"
     inkscape:window-maximized="0"
     inkscape:current-layer="mdi-alarm-light-outline" />
  <g
     id="g2"
     style="fill:#00ff00"
     transform="translate(-0.0538297,-0.0176249)">
    <rect
       style="fill:#00ff00;stroke-width:1.9781;stroke-linejoin:bevel;stroke-miterlimit:1"
       id="rect1"
       width="11.913575"
       height="13.960477"
       x="6.0538297"
       y="5.0176249"
       ry="6.0208693"
       rx="5.9567876" />
    <rect
       style="fill:#00ff00;stroke-width:1.77859;stroke-linejoin:bevel;stroke-miterlimit:1"
       id="rect2"
       width="4.8440619"
       height="8.0291977"
       x="13.138687"
       y="10.948905"
       rx="0"
       ry="0" />
  </g>
  <path
     d="M6,6.9L3.87,4.78L5.28,3.37L7.4,5.5L6,6.9M13,1V4H11V1H13M20.13,4.78L18,6.9L16.6,5.5L18.72,3.37L20.13,4.78M4.5,10.5V12.5H1.5V10.5H4.5M19.5,10.5H22.5V12.5H19.5V10.5M6,20H18A2,2 0 0,1 20,22H4A2,2 0 0,1 6,20M12,5A6,6 0 0,1 18,11V19H6V11A6,6 0 0,1 12,5M12,7A4,4 0 0,0 8,11V17H16V11A4,4 0 0,0 12,7Z"
     id="path1" />
</svg>
