<?xml version="1.0" encoding="UTF-8" standalone="no"?>
<svg
   id="mdi-alarm-light-outline"
   viewBox="0 0 24 24"
   version="1.1"
   sodipodi:docname="alarm-light-outline-red.svg"
   inkscape:version="1.4 (e7c3feb1, 2024-10-09)"
   xmlns:inkscape="http://www.inkscape.org/namespaces/inkscape"
   xmlns:sodipodi="http://sodipodi.sourceforge.net/DTD/sodipodi-0.dtd"
   xmlns="http://www.w3.org/2000/svg"
   xmlns:svg="http://www.w3.org/2000/svg">
  <defs
     id="defs1" />
  <sodipodi:namedview
     id="namedview1"
     pagecolor="#ffffff"
     bordercolor="#000000"
     borderopacity="0.25"
     inkscape:showpageshadow="2"
     inkscape:pageopacity="0.0"
     inkscape:pagecheckerboard="0"
     inkscape:deskcolor="#d1d1d1"
     inkscape:zoom="11.42"
     inkscape:cx="12.04028"
     inkscape:cy="11.996497"
     inkscape:window-width="1456"
     inkscape:window-height="771"
     inkscape:window-x="0"
     inkscape:window-y="38"
     inkscape:window-maximized="0"
     inkscape:current-layer="mdi-alarm-light-outline" />
  <g
     id="g1"
     transform="translate(0,0.5)">
    <g
       id="g2"
       style="fill:#ff0000"
       transform="translate(-0.0538297,-0.0176249)">
      <rect
         style="fill:#ff0000;stroke-width:1.9781;stroke-linejoin:bevel;stroke-miterlimit:1"
         id="rect1"
         width="11.913575"
         height="13.960477"
         x="6.0538297"
         y="5.0176249"
         ry="6.0208693"
         rx="5.9567876" />
      <rect
         style="fill:#ff0000;stroke-width:1.77859;stroke-linejoin:bevel;stroke-miterlimit:1"
         id="rect2"
         width="4.8440619"
         height="8.0291977"
         x="13.138687"
         y="10.948905"
         rx="0"
         ry="0" />
    </g>
    <path
       d="M 6,6.9 3.87,4.78 5.28,3.37 7.4,5.5 6,6.9 M 13,1 V 4 H 11 V 1 h 2 M 20.13,4.78 18,6.9 16.6,5.5 18.72,3.37 20.13,4.78 M 4.5,10.5 v 2 h -3 v -2 h 3 m 15,0 h 3 v 2 h -3 v -2 M 6,20 h 12 a 2,2 0 0 1 2,2 H 4 A 2,2 0 0 1 6,20 M 12,5 a 6,6 0 0 1 6,6 v 8 H 6 v -8 a 6,6 0 0 1 6,-6 m 0,2 a 4,4 0 0 0 -4,4 v 6 h 8 V 11 A 4,4 0 0 0 12,7 Z"
       id="path1" />
  </g>
</svg>
