<?xml version="1.0" encoding="UTF-8" standalone="no"?>
<svg
   id="mdi-alarm-light"
   viewBox="0 0 24 24"
   version="1.1"
   sodipodi:docname="alarm-light-green.svg"
   inkscape:version="1.4 (e7c3feb1, 2024-10-09)"
   xmlns:inkscape="http://www.inkscape.org/namespaces/inkscape"
   xmlns:sodipodi="http://sodipodi.sourceforge.net/DTD/sodipodi-0.dtd"
   xmlns="http://www.w3.org/2000/svg"
   xmlns:svg="http://www.w3.org/2000/svg">
  <defs
     id="defs1" />
  <sodipodi:namedview
     id="namedview1"
     pagecolor="#ffffff"
     bordercolor="#000000"
     borderopacity="0.25"
     inkscape:showpageshadow="2"
     inkscape:pageopacity="0.0"
     inkscape:pagecheckerboard="0"
     inkscape:deskcolor="#d1d1d1"
     inkscape:zoom="11.42"
     inkscape:cx="11.996497"
     inkscape:cy="11.996497"
     inkscape:window-width="1384"
     inkscape:window-height="773"
     inkscape:window-x="0"
     inkscape:window-y="38"
     inkscape:window-maximized="0"
     inkscape:current-layer="mdi-alarm-light" />
  <g
     id="g7"
     style="fill:#00ff00">
    <path
       d="m 12,5 a 6,6 0 0 1 6,6 v 8 H 6 v -8 a 6,6 0 0 1 6,-6 z"
       id="path7"
       style="fill:#00ff00" />
    <path
       d="m 6,20 h 12 a 2,2 0 0 1 2,2 H 4 a 2,2 0 0 1 2,-2"
       id="path6"
       style="fill:#00ff00" />
  </g>
  <path
     d="m 19.5,10.5 h 3 v 2 h -3 v -2"
     id="path5" />
  <path
     d="m 4.5,10.5 v 2 h -3 v -2 h 3"
     id="path4" />
  <path
     d="M 20.13,4.78 18,6.9 16.6,5.5 18.72,3.37 20.13,4.78"
     id="path3" />
  <path
     d="M 13,1 V 4 H 11 V 1 h 2"
     id="path2" />
  <path
     d="M 6,6.9 3.87,4.78 5.28,3.37 7.4,5.5 6,6.9"
     id="path1" />
</svg>
