<?xml version="1.0" encoding="UTF-8" standalone="no"?>
<svg
   id="mdi-alarm-light"
   viewBox="0 0 24 24"
   version="1.1"
   sodipodi:docname="alarm-light-green.svg"
   inkscape:version="1.4 (e7c3feb1, 2024-10-09)"
   xmlns:inkscape="http://www.inkscape.org/namespaces/inkscape"
   xmlns:sodipodi="http://sodipodi.sourceforge.net/DTD/sodipodi-0.dtd"
   xmlns="http://www.w3.org/2000/svg"
   xmlns:svg="http://www.w3.org/2000/svg">
  <defs
     id="defs1" />
  <sodipodi:namedview
     id="namedview1"
     pagecolor="#ffffff"
     bordercolor="#000000"
     borderopacity="0.25"
     inkscape:showpageshadow="2"
     inkscape:pageopacity="0.0"
     inkscape:pagecheckerboard="0"
     inkscape:deskcolor="#d1d1d1"
     inkscape:zoom="11.42"
     inkscape:cx="12.04028"
     inkscape:cy="11.996497"
     inkscape:window-width="1384"
     inkscape:window-height="773"
     inkscape:window-x="0"
     inkscape:window-y="38"
     inkscape:window-maximized="0"
     inkscape:current-layer="mdi-alarm-light" />
  <path
     id="path1"
     style="fill:#00ff00;fill-opacity:1"
     d="M 6,7.4 3.87,5.28 5.28,3.87 7.4,6 6,7.4 m 7,-5.9 v 3 h -2 v -3 h 2 M 20.13,5.28 18,7.4 16.6,6 18.72,3.87 20.13,5.28 M 4.5,11 v 2 h -3 v -2 h 3 m 15,0 h 3 v 2 h -3 V 11 M 6,20.5 h 12 a 2,2 0 0 1 2,2 H 4 a 2,2 0 0 1 2,-2 m 6,-15 a 6,6 0 0 1 6,6 v 8 H 6 v -8 a 6,6 0 0 1 6,-6 z" />
</svg>
