<?xml version="1.0" encoding="UTF-8" standalone="no"?>
<svg
   id="mdi-alert-rhombus-outline"
   viewBox="0 0 24 24"
   version="1.1"
   sodipodi:docname="alert-rhombus-outline-orange.svg"
   inkscape:version="1.4 (e7c3feb1, 2024-10-09)"
   xmlns:inkscape="http://www.inkscape.org/namespaces/inkscape"
   xmlns:sodipodi="http://sodipodi.sourceforge.net/DTD/sodipodi-0.dtd"
   xmlns="http://www.w3.org/2000/svg"
   xmlns:svg="http://www.w3.org/2000/svg">
  <defs
     id="defs1" />
  <sodipodi:namedview
     id="namedview1"
     pagecolor="#ffffff"
     bordercolor="#000000"
     borderopacity="0.25"
     inkscape:showpageshadow="2"
     inkscape:pageopacity="0.0"
     inkscape:pagecheckerboard="0"
     inkscape:deskcolor="#d1d1d1"
     inkscape:zoom="7.52"
     inkscape:cx="11.968085"
     inkscape:cy="11.968085"
     inkscape:window-width="1424"
     inkscape:window-height="837"
     inkscape:window-x="0"
     inkscape:window-y="38"
     inkscape:window-maximized="0"
     inkscape:current-layer="mdi-alert-rhombus-outline" />
  <path
     style="fill:#ff6600;stroke-width:0.265957;stroke-linejoin:bevel;stroke-miterlimit:1"
     d="M 11.613822,3.6395134 C 8.9602551,6.3127967 6.2242388,8.9365231 3.6426535,11.662955 c -0.3740131,0.820159 0.7944789,1.272633 1.1834374,1.856285 2.3105263,2.267167 4.5486618,4.638284 6.9038721,6.841285 0.820282,0.374069 1.272798,-0.794481 1.856324,-1.183659 2.244797,-2.288624 4.592859,-4.505414 6.773359,-6.838765 0.37366,-0.820436 -0.794589,-1.272699 -1.183819,-1.856278 -2.310479,-2.266137 -4.548487,-4.6364533 -6.903696,-6.8382904 -0.224185,-0.1921132 -0.41287,-0.07289 -0.658309,-0.00402 z m 0.354263,3.9418322 c 0.936452,-0.116936 0.258335,1.380697 0.463867,1.9946809 0,0.9741385 0,1.9482765 0,2.9224155 -1.152495,0.355661 -0.954812,-0.638855 -0.927734,-1.462766 0,-1.1514437 0,-2.302887 0,-3.4543304 0.154622,0 0.309245,0 0.463867,0 z m 0,7.9787234 c 0.91031,-0.13729 0.511747,1.449958 -0.398936,0.927734 -0.05513,-0.271571 -0.311641,-1.203276 0.398936,-0.927734 z"
     id="path2" />
  <path
     d="M12 2C11.5 2 11 2.19 10.59 2.59L2.59 10.59C1.8 11.37 1.8 12.63 2.59 13.41L10.59 21.41C11.37 22.2 12.63 22.2 13.41 21.41L21.41 13.41C22.2 12.63 22.2 11.37 21.41 10.59L13.41 2.59C13 2.19 12.5 2 12 2M12 4L20 12L12 20L4 12M11 7V13H13V7M11 15V17H13V15Z"
     id="path1" />
</svg>
