<?xml version="1.0" encoding="UTF-8" standalone="no"?>
<svg
   id="mdi-alert-remove"
   viewBox="0 0 24 24"
   version="1.1"
   sodipodi:docname="alert-remove-yellow.svg"
   inkscape:version="1.4 (e7c3feb1, 2024-10-09)"
   xmlns:inkscape="http://www.inkscape.org/namespaces/inkscape"
   xmlns:sodipodi="http://sodipodi.sourceforge.net/DTD/sodipodi-0.dtd"
   xmlns="http://www.w3.org/2000/svg"
   xmlns:svg="http://www.w3.org/2000/svg">
  <defs
     id="defs1" />
  <sodipodi:namedview
     id="namedview1"
     pagecolor="#ffffff"
     bordercolor="#000000"
     borderopacity="0.25"
     inkscape:showpageshadow="2"
     inkscape:pageopacity="0.0"
     inkscape:pagecheckerboard="0"
     inkscape:deskcolor="#d1d1d1"
     inkscape:zoom="6.11"
     inkscape:cx="11.947627"
     inkscape:cy="11.865794"
     inkscape:window-width="1432"
     inkscape:window-height="808"
     inkscape:window-x="0"
     inkscape:window-y="38"
     inkscape:window-maximized="0"
     inkscape:current-layer="mdi-alert-remove" />
  <path
     d="M 23.54,16.88 21.41,19 23.54,21.12 22.12,22.54 20,20.41 17.88,22.54 16.47,21.12 18.59,19 16.47,16.88 17.88,15.47 20,17.59 22.12,15.46 Z"
     id="path4" />
  <path
     id="path3"
     d="M 12 2 L 1 21 L 14.349609 21 C 14.129609 20.37 14 19.7 14 19 C 14 16.21 15.91 13.869219 18.5 13.199219 L 12 2 z M 11 10 L 13 10 L 13 14 L 11 14 L 11 10 z M 11 16 L 13 16 L 13 18 L 11 18 L 11 16 z "
     style="fill:#ffff00" />
</svg>
