<?xml version="1.0" encoding="UTF-8" standalone="no"?>
<svg
   id="mdi-alert-circle-check"
   viewBox="0 0 24 24"
   version="1.1"
   sodipodi:docname="alert-circle-check-orange.svg"
   inkscape:version="1.4 (e7c3feb1, 2024-10-09)"
   xmlns:inkscape="http://www.inkscape.org/namespaces/inkscape"
   xmlns:sodipodi="http://sodipodi.sourceforge.net/DTD/sodipodi-0.dtd"
   xmlns="http://www.w3.org/2000/svg"
   xmlns:svg="http://www.w3.org/2000/svg">
  <defs
     id="defs1" />
  <sodipodi:namedview
     id="namedview1"
     pagecolor="#ffffff"
     bordercolor="#000000"
     borderopacity="0.25"
     inkscape:showpageshadow="2"
     inkscape:pageopacity="0.0"
     inkscape:pagecheckerboard="0"
     inkscape:deskcolor="#d1d1d1"
     inkscape:zoom="8.06"
     inkscape:cx="12.034739"
     inkscape:cy="11.848635"
     inkscape:window-width="1400"
     inkscape:window-height="798"
     inkscape:window-x="0"
     inkscape:window-y="38"
     inkscape:window-maximized="0"
     inkscape:current-layer="mdi-alert-circle-check" />
  <path
     id="path4"
     d="M 12 2 C 6.5 2 2 6.5 2 12 C 2 17.5 6.5 22 12 22 C 12.91 22 13.779141 21.880391 14.619141 21.650391 C 14.219141 20.850391 14 19.95 14 19 C 14 15.69 16.69 13 20 13 C 20.67 13 21.310156 13.110547 21.910156 13.310547 L 22 12 C 22 6.5 17.5 2 12 2 z M 11 7 L 13 7 L 13 13 L 11 13 L 11 7 z M 11 15 L 13 15 L 13 17 L 11 17 L 11 15 z "
     style="fill:#ff6600" />
  <path
     d="M 18.75,22.16 16,19.16 17.16,18 18.75,19.59 22.34,16 23.5,17.41 18.75,22.16"
     id="path1" />
</svg>
