<?xml version="1.0" encoding="UTF-8" standalone="no"?>
<svg
   id="mdi-alert-remove-outline"
   viewBox="0 0 24 24"
   version="1.1"
   sodipodi:docname="alert-remove-outline-red.svg"
   inkscape:version="1.4 (e7c3feb1, 2024-10-09)"
   xmlns:inkscape="http://www.inkscape.org/namespaces/inkscape"
   xmlns:sodipodi="http://sodipodi.sourceforge.net/DTD/sodipodi-0.dtd"
   xmlns="http://www.w3.org/2000/svg"
   xmlns:svg="http://www.w3.org/2000/svg">
  <defs
     id="defs1" />
  <sodipodi:namedview
     id="namedview1"
     pagecolor="#ffffff"
     bordercolor="#000000"
     borderopacity="0.25"
     inkscape:showpageshadow="2"
     inkscape:pageopacity="0.0"
     inkscape:pagecheckerboard="0"
     inkscape:deskcolor="#d1d1d1"
     inkscape:zoom="11.4"
     inkscape:cx="12.017544"
     inkscape:cy="12.017544"
     inkscape:window-width="1432"
     inkscape:window-height="819"
     inkscape:window-x="0"
     inkscape:window-y="38"
     inkscape:window-maximized="0"
     inkscape:current-layer="mdi-alert-remove-outline" />
  <path
     id="path2"
     style="fill:#ff0000;stroke-width:2;stroke-linejoin:bevel;stroke-miterlimit:1"
     d="M 11.947266 5.2382812 C 9.2079144 10.037932 5.8449738 14.513731 3.6015625 19.558594 C 5.2040793 19.329657 10.0815 19.423931 13.994141 19.476562 A 5.7456141 5.7456141 0 0 1 13.947266 18.816406 A 5.7456141 5.7456141 0 0 1 16.814453 13.857422 C 15.401582 10.864937 13.852158 7.9349528 11.947266 5.2382812 z " />
  <path
     d="M11 15.5H13V17.5H11V15.5M14 19C14 18.86 14 18.73 14 18.6H5.4L12 7.3L16.11 14.44C16.62 14 17.2 13.65 17.84 13.41L12 3.3L2 20.6H14.22C14.08 20.09 14 19.56 14 19M13 10.5H11V14.5H13V10.5M22.12 15.46L20 17.59L17.88 15.46L16.47 16.88L18.59 19L16.47 21.12L17.88 22.54L20 20.41L22.12 22.54L23.54 21.12L21.41 19L23.54 16.88L22.12 15.46Z"
     id="path1" />
</svg>
