<?xml version="1.0" encoding="UTF-8" standalone="no"?>
<svg
   id="mdi-alert-outline"
   viewBox="0 0 24 24"
   version="1.1"
   sodipodi:docname="alert-outline-red.svg"
   inkscape:version="1.4 (e7c3feb1, 2024-10-09)"
   xmlns:inkscape="http://www.inkscape.org/namespaces/inkscape"
   xmlns:sodipodi="http://sodipodi.sourceforge.net/DTD/sodipodi-0.dtd"
   xmlns="http://www.w3.org/2000/svg"
   xmlns:svg="http://www.w3.org/2000/svg">
  <defs
     id="defs1" />
  <sodipodi:namedview
     id="namedview1"
     pagecolor="#ffffff"
     bordercolor="#000000"
     borderopacity="0.25"
     inkscape:showpageshadow="2"
     inkscape:pageopacity="0.0"
     inkscape:pagecheckerboard="0"
     inkscape:deskcolor="#d1d1d1"
     inkscape:zoom="15.08"
     inkscape:cx="12.201592"
     inkscape:cy="11.870027"
     inkscape:window-width="1448"
     inkscape:window-height="805"
     inkscape:window-x="0"
     inkscape:window-y="38"
     inkscape:window-maximized="0"
     inkscape:current-layer="mdi-alert-outline" />
  <path
     style="fill:#ff0000;stroke-width:0.711569;stroke-linejoin:bevel;stroke-miterlimit:1"
     d="M 12.067035,5.9765443 C 10.078286,7.2018571 9.3811853,9.9186647 8.0423885,11.791712 6.8354794,14.239666 5.0640637,16.503957 4.2135599,19.06958 c 1.858368,0.962584 4.3940289,0.131907 6.5081401,0.409402 2.88729,-0.119224 5.873876,0.228977 8.705065,-0.28142 0.530651,-1.626199 -1.454919,-3.086794 -1.890298,-4.61583 -1.718977,-2.809306 -3.059862,-5.9687171 -5.066515,-8.5422575 -0.125404,-0.058505 -0.266663,-0.080638 -0.402917,-0.06293 z m -0.178923,4.0897617 c 1.201741,0.0288 0.49456,2.485956 0.519695,3.459752 -1.874872,0.378688 -0.859279,-2.365365 -1.143193,-3.459752 h 0.349651 z m 0,6.154441 c 0.950112,-0.499894 0.939236,1.805428 -0.0075,1.291133 -0.931063,0.552994 -0.899931,-1.876211 0.0075,-1.291133 z"
     id="path2" />
  <path
     d="M12,2L1,21H23M12,6L19.53,19H4.47M11,10V14H13V10M11,16V18H13V16"
     id="path1" />
</svg>
