<?xml version="1.0" encoding="UTF-8" standalone="no"?>
<svg
   id="mdi-alert-octagon-outline"
   viewBox="0 0 24 24"
   version="1.1"
   sodipodi:docname="alert-octagon-outline-red.svg"
   inkscape:version="1.4 (e7c3feb1, 2024-10-09)"
   xmlns:inkscape="http://www.inkscape.org/namespaces/inkscape"
   xmlns:sodipodi="http://sodipodi.sourceforge.net/DTD/sodipodi-0.dtd"
   xmlns="http://www.w3.org/2000/svg"
   xmlns:svg="http://www.w3.org/2000/svg">
  <defs
     id="defs1" />
  <sodipodi:namedview
     id="namedview1"
     pagecolor="#ffffff"
     bordercolor="#000000"
     borderopacity="0.25"
     inkscape:showpageshadow="2"
     inkscape:pageopacity="0.0"
     inkscape:pagecheckerboard="0"
     inkscape:deskcolor="#d1d1d1"
     inkscape:zoom="6.11"
     inkscape:cx="11.947627"
     inkscape:cy="11.865794"
     inkscape:window-width="1368"
     inkscape:window-height="728"
     inkscape:window-x="0"
     inkscape:window-y="38"
     inkscape:window-maximized="0"
     inkscape:current-layer="mdi-alert-octagon-outline" />
  <path
     style="fill:#ff0000;stroke-width:0.327332;stroke-linejoin:bevel;stroke-miterlimit:1"
     d="M 8.8418065,4.6353954 C 7.4409079,6.0917013 5.9010193,7.4536416 4.5844787,8.9675867 4.3208459,10.867101 4.5511585,12.869161 4.4736472,14.807309 c 0.6887197,1.263287 2.0126767,2.10992 2.9532575,3.208024 0.7743225,0.686043 1.4129257,1.885418 2.6337673,1.56994 1.675494,-0.08322 3.413971,0.164691 5.051111,-0.120175 1.487037,-1.392421 3.001718,-2.859984 4.362658,-4.373765 0.263633,-1.899514 0.03332,-3.901574 0.110832,-5.8397219 C 18.896553,7.9883236 17.572596,7.1416908 16.632015,6.0435868 15.857693,5.3575436 15.219089,4.1581685 13.998248,4.4736472 12.322753,4.5568628 10.584276,4.308956 8.947137,4.5938218 Z M 12.02946,7.4739797 c 0.973838,0.017322 0.232185,1.7501352 0.463827,2.5096537 -0.246716,0.7444436 0.533637,2.5159576 -0.463827,2.5096536 -0.973838,-0.01732 -0.232186,-1.750135 -0.463827,-2.5096536 0.24727,-0.6714553 -0.534273,-2.6349157 0.463827,-2.5096537 z m 0,8.0196403 c 1.527894,0.118887 -0.682993,1.938223 -0.463827,0.300161 -0.115186,-0.439712 0.183346,-0.272715 0.463827,-0.300161 z"
     id="path2" />
  <path
     d="M8.27,3L3,8.27V15.73L8.27,21H15.73C17.5,19.24 21,15.73 21,15.73V8.27L15.73,3M9.1,5H14.9L19,9.1V14.9L14.9,19H9.1L5,14.9V9.1M11,15H13V17H11V15M11,7H13V13H11V7"
     id="path1" />
</svg>
