<?xml version="1.0" encoding="UTF-8" standalone="no"?>
<svg
   id="mdi-alert-plus-outline"
   viewBox="0 0 24 24"
   version="1.1"
   sodipodi:docname="alert-plus-outline-red.svg"
   inkscape:version="1.4 (e7c3feb1, 2024-10-09)"
   xmlns:inkscape="http://www.inkscape.org/namespaces/inkscape"
   xmlns:sodipodi="http://sodipodi.sourceforge.net/DTD/sodipodi-0.dtd"
   xmlns="http://www.w3.org/2000/svg"
   xmlns:svg="http://www.w3.org/2000/svg">
  <defs
     id="defs1" />
  <sodipodi:namedview
     id="namedview1"
     pagecolor="#ffffff"
     bordercolor="#000000"
     borderopacity="0.25"
     inkscape:showpageshadow="2"
     inkscape:pageopacity="0.0"
     inkscape:pagecheckerboard="0"
     inkscape:deskcolor="#d1d1d1"
     inkscape:zoom="12.22"
     inkscape:cx="12.02946"
     inkscape:cy="12.02946"
     inkscape:window-width="1512"
     inkscape:window-height="871"
     inkscape:window-x="0"
     inkscape:window-y="38"
     inkscape:window-maximized="0"
     inkscape:current-layer="mdi-alert-plus-outline" />
  <path
     id="path2"
     style="fill:#ff0000;stroke-width:2;stroke-linejoin:bevel;stroke-miterlimit:1"
     d="M 12.357422 5.8925781 C 9.8797957 6.3478659 3.683554 19.306532 3.6816406 19.3125 C 6.7595944 21.034289 10.565467 19.404137 13.947266 19.525391 A 5.9328971 5.9328971 0 0 1 13.912109 19.025391 A 5.9328971 5.9328971 0 0 1 17.351562 13.644531 C 16.546175 10.959092 14.059753 8.1186837 12.357422 5.8925781 z " />
  <path
     d="M11 15.5H13V17.5H11V15.5M14 19C14 18.86 14 18.73 14 18.6H5.4L12 7.3L16.11 14.44C16.62 14 17.2 13.65 17.84 13.41L12 3.3L2 20.6H14.22C14.08 20.09 14 19.56 14 19M13 10.5H11V14.5H13V10.5M19 15V18H16V20H19V23H21V20H24V18H21V15H19Z"
     id="path1" />
</svg>
