<?xml version="1.0" encoding="UTF-8" standalone="no"?>
<svg
   id="mdi-alert-minus-outline"
   viewBox="0 0 24 24"
   version="1.1"
   sodipodi:docname="alert-minus-outline-red.svg"
   inkscape:version="1.4 (e7c3feb1, 2024-10-09)"
   xmlns:inkscape="http://www.inkscape.org/namespaces/inkscape"
   xmlns:sodipodi="http://sodipodi.sourceforge.net/DTD/sodipodi-0.dtd"
   xmlns="http://www.w3.org/2000/svg"
   xmlns:svg="http://www.w3.org/2000/svg">
  <defs
     id="defs1" />
  <sodipodi:namedview
     id="namedview1"
     pagecolor="#ffffff"
     bordercolor="#000000"
     borderopacity="0.25"
     inkscape:showpageshadow="2"
     inkscape:pageopacity="0.0"
     inkscape:pagecheckerboard="0"
     inkscape:deskcolor="#d1d1d1"
     inkscape:zoom="18.647909"
     inkscape:cx="11.690319"
     inkscape:cy="11.475818"
     inkscape:window-width="1504"
     inkscape:window-height="807"
     inkscape:window-x="0"
     inkscape:window-y="38"
     inkscape:window-maximized="0"
     inkscape:current-layer="mdi-alert-minus-outline" />
  <path
     id="path3"
     style="fill:#ff0000"
     d="M 12.033203 5.4882812 L 3.578125 20.089844 L 14.050781 19.693359 A 5.8987846 5.8987846 0 0 1 13.996094 18.929688 A 5.8987846 5.8987846 0 0 1 16.439453 14.166016 C 14.445061 10.071832 12.033203 5.4882812 12.033203 5.4882812 z " />
  <path
     d="M11 15.5H13V17.5H11V15.5M14 19C14 18.86 14 18.73 14 18.6H5.4L12 7.3L16.11 14.44C16.62 14 17.2 13.65 17.84 13.41L12 3.3L2 20.6H14.22C14.08 20.09 14 19.56 14 19M13 10.5H11V14.5H13V10.5M16 18V20H24V18H16Z"
     id="path1" />
</svg>
