<?xml version="1.0" encoding="UTF-8" standalone="no"?>
<svg
   id="mdi-alert-circle-outline"
   viewBox="0 0 24 24"
   version="1.1"
   sodipodi:docname="alert-circle-outline-orange.svg"
   inkscape:version="1.4 (e7c3feb1, 2024-10-09)"
   xmlns:inkscape="http://www.inkscape.org/namespaces/inkscape"
   xmlns:sodipodi="http://sodipodi.sourceforge.net/DTD/sodipodi-0.dtd"
   xmlns="http://www.w3.org/2000/svg"
   xmlns:svg="http://www.w3.org/2000/svg">
  <defs
     id="defs1" />
  <sodipodi:namedview
     id="namedview1"
     pagecolor="#ffffff"
     bordercolor="#000000"
     borderopacity="0.25"
     inkscape:showpageshadow="2"
     inkscape:pageopacity="0.0"
     inkscape:pagecheckerboard="0"
     inkscape:deskcolor="#d1d1d1"
     inkscape:zoom="9.26"
     inkscape:cx="11.987041"
     inkscape:cy="11.825054"
     inkscape:window-width="1416"
     inkscape:window-height="818"
     inkscape:window-x="0"
     inkscape:window-y="38"
     inkscape:window-maximized="0"
     inkscape:current-layer="mdi-alert-circle-outline" />
  <path
     style="fill:#ff6600;fill-opacity:1;stroke-width:0.215983;stroke-linejoin:bevel;stroke-miterlimit:1"
     d="M 11.958567,3.5230072 C 9.5069882,3.4120859 7.1313099,4.6148314 5.5635245,6.4650187 4.1323117,8.01534 3.3996104,10.149476 3.5200543,12.252168 c -0.033918,1.877246 0.7207181,3.744069 1.92676,5.163337 1.5590534,1.815686 3.8102084,3.05664 6.2278537,3.136811 3.866845,0.13827 7.594924,-2.62154 8.575885,-6.367593 C 21.082013,11.231563 20.09884,7.8852149 17.818997,5.8342755 16.602739,4.5774071 14.909425,3.7962257 13.18507,3.5637149 12.777761,3.5216487 12.367676,3.5153655 11.958567,3.5230072 Z m 0.02847,3.9885091 c 0.877414,-0.2135057 0.327766,1.0000494 0.479844,1.5118791 0,1.1478296 0,2.2956596 0,3.4434896 -0.827065,0.183196 -1.149929,-0.13781 -0.959688,-0.971922 0,-1.327815 0,-2.655631 0,-3.9834467 0.159948,0 0.319896,0 0.479844,0 z m 0,7.9913607 c 0.700149,-0.368184 0.717756,1.272187 0.04788,0.959689 -0.710823,0.407506 -0.763471,-1.121535 -0.203749,-0.959689 h 0.107991 z"
     id="path2" />
  <path
     d="M11,15H13V17H11V15M11,7H13V13H11V7M12,2C6.47,2 2,6.5 2,12A10,10 0 0,0 12,22A10,10 0 0,0 22,12A10,10 0 0,0 12,2M12,20A8,8 0 0,1 4,12A8,8 0 0,1 12,4A8,8 0 0,1 20,12A8,8 0 0,1 12,20Z"
     id="path1" />
</svg>
