<?xml version="1.0" encoding="UTF-8" standalone="no"?>
<svg
   id="mdi-alert-outline"
   viewBox="0 0 24 24"
   version="1.1"
   sodipodi:docname="alert-outline-yellow.svg"
   inkscape:version="1.4 (e7c3feb1, 2024-10-09)"
   xmlns:inkscape="http://www.inkscape.org/namespaces/inkscape"
   xmlns:sodipodi="http://sodipodi.sourceforge.net/DTD/sodipodi-0.dtd"
   xmlns="http://www.w3.org/2000/svg"
   xmlns:svg="http://www.w3.org/2000/svg">
  <defs
     id="defs1" />
  <sodipodi:namedview
     id="namedview1"
     pagecolor="#ffffff"
     bordercolor="#000000"
     borderopacity="0.25"
     inkscape:showpageshadow="2"
     inkscape:pageopacity="0.0"
     inkscape:pagecheckerboard="0"
     inkscape:deskcolor="#d1d1d1"
     inkscape:zoom="2.86"
     inkscape:cx="12.062937"
     inkscape:cy="11.888112"
     inkscape:window-width="1448"
     inkscape:window-height="805"
     inkscape:window-x="0"
     inkscape:window-y="38"
     inkscape:window-maximized="0"
     inkscape:current-layer="mdi-alert-outline" />
  <path
     style="fill:#ffff00;stroke-width:0.699301;stroke-linejoin:bevel;stroke-miterlimit:1"
     d="m 12.067035,6.4405321 c -1.988749,1.1834265 -2.6858497,3.8073619 -4.0246465,5.6163799 -1.2069091,2.364273 -2.9783248,4.551161 -3.8288286,7.02908 1.858368,0.929678 4.3940289,0.127397 6.5081401,0.395406 2.88729,-0.115147 5.873876,0.221151 8.705065,-0.271799 0.530651,-1.570608 -1.454919,-2.981275 -1.890298,-4.458042 C 15.81749,12.038286 14.476605,8.9868769 12.469952,6.5013112 12.344548,6.4448062 12.203289,6.4234294 12.067035,6.4405321 Z m -0.178923,3.9499559 c 1.201741,0.02782 0.49456,2.400975 0.519695,3.341483 -1.874872,0.365743 -0.859279,-2.284506 -1.143193,-3.341483 h 0.349651 z m 0,5.944056 c 0.950112,-0.482806 0.939236,1.743711 -0.0075,1.246996 -0.931063,0.534091 -0.899931,-1.812074 0.0075,-1.246996 z"
     id="path2" />
  <path
     d="M12,2L1,21H23M12,6L19.53,19H4.47M11,10V14H13V10M11,16V18H13V16"
     id="path1" />
</svg>
