<?xml version="1.0" encoding="UTF-8" standalone="no"?>
<svg
   id="mdi-alert-circle-check-outline"
   viewBox="0 0 24 24"
   version="1.1"
   sodipodi:docname="alert-circle-check-outline-red.svg"
   inkscape:version="1.4 (e7c3feb1, 2024-10-09)"
   xmlns:inkscape="http://www.inkscape.org/namespaces/inkscape"
   xmlns:sodipodi="http://sodipodi.sourceforge.net/DTD/sodipodi-0.dtd"
   xmlns="http://www.w3.org/2000/svg"
   xmlns:svg="http://www.w3.org/2000/svg">
  <defs
     id="defs1" />
  <sodipodi:namedview
     id="namedview1"
     pagecolor="#ffffff"
     bordercolor="#000000"
     borderopacity="0.25"
     inkscape:showpageshadow="2"
     inkscape:pageopacity="0.0"
     inkscape:pagecheckerboard="0"
     inkscape:deskcolor="#d1d1d1"
     inkscape:zoom="13.1"
     inkscape:cx="11.984733"
     inkscape:cy="11.984733"
     inkscape:window-width="1464"
     inkscape:window-height="803"
     inkscape:window-x="0"
     inkscape:window-y="38"
     inkscape:window-maximized="0"
     inkscape:current-layer="mdi-alert-circle-check-outline" />
  <path
     id="path3"
     style="display:inline;fill:#ff0000;fill-opacity:1;stroke-width:2.13878;stroke-linejoin:bevel;stroke-miterlimit:1"
     d="M 11.984375 1.984375 A 10 10 0 0 0 1.984375 11.984375 A 10 10 0 0 0 11.984375 21.984375 A 10 10 0 0 0 14.482422 21.650391 A 6.2213745 6.2213745 0 0 1 13.96875 19.199219 A 6.2213745 6.2213745 0 0 1 20.191406 12.976562 A 6.2213745 6.2213745 0 0 1 21.896484 13.216797 A 10 10 0 0 0 21.984375 11.984375 A 10 10 0 0 0 11.984375 1.984375 z " />
  <path
     d="M18.75 22.16L16 19.16L17.16 18L18.75 19.59L22.34 16L23.5 17.41L18.75 22.16M11 15H13V17H11V15M11 7H13V13H11V7M12 2C17.5 2 22 6.5 22 12L21.92 13.31C21.31 13.11 20.67 13 19.94 13L20 12C20 7.58 16.42 4 12 4C7.58 4 4 7.58 4 12C4 16.42 7.58 20 12 20C12.71 20 13.39 19.91 14.05 19.74C14.13 20.42 14.33 21.06 14.62 21.65C13.78 21.88 12.9 22 12 22C6.47 22 2 17.5 2 12C2 6.5 6.47 2 12 2Z"
     id="path1" />
  <ellipse
     style="fill:#2a7fff;fill-opacity:0;stroke-width:2;stroke-linejoin:bevel;stroke-miterlimit:1"
     id="path2"
     cx="11.641221"
     cy="11.488549"
     rx="7.6717558"
     ry="8.282443" />
</svg>
