<?xml version="1.0" encoding="UTF-8" standalone="no"?>
<svg
   id="mdi-alert-decagram-outline"
   viewBox="0 0 24 24"
   version="1.1"
   sodipodi:docname="alert-decagram-outline-orange.svg"
   inkscape:version="1.4 (e7c3feb1, 2024-10-09)"
   xmlns:inkscape="http://www.inkscape.org/namespaces/inkscape"
   xmlns:sodipodi="http://sodipodi.sourceforge.net/DTD/sodipodi-0.dtd"
   xmlns="http://www.w3.org/2000/svg"
   xmlns:svg="http://www.w3.org/2000/svg">
  <defs
     id="defs1">
    <linearGradient
       id="swatch2"
       inkscape:swatch="solid">
      <stop
         style="stop-color:#ff0000;stop-opacity:0;"
         offset="0"
         id="stop2" />
    </linearGradient>
  </defs>
  <sodipodi:namedview
     id="namedview1"
     pagecolor="#ffffff"
     bordercolor="#000000"
     borderopacity="0.25"
     inkscape:showpageshadow="2"
     inkscape:pageopacity="0.0"
     inkscape:pagecheckerboard="0"
     inkscape:deskcolor="#d1d1d1"
     inkscape:zoom="9.92"
     inkscape:cx="11.995968"
     inkscape:cy="11.844758"
     inkscape:window-width="1424"
     inkscape:window-height="760"
     inkscape:window-x="0"
     inkscape:window-y="38"
     inkscape:window-maximized="0"
     inkscape:current-layer="mdi-alert-decagram-outline" />
  <path
     style="fill:#ff6600;fill-opacity:1;stroke-width:0.201613;stroke-linejoin:bevel;stroke-miterlimit:1"
     d="M 9.5669654,3.6288354 C 8.7042667,3.7569269 8.4785184,4.809517 8.0150102,5.4069322 7.8437185,6.1217045 7.1695358,6.1360964 6.5671583,6.2504918 5.935211,6.4848739 4.7837975,6.2999602 4.7077794,7.1921072 4.7596019,8.0490463 4.962028,8.9668793 4.8673296,9.7867362 4.3478774,10.490515 3.607755,11.074192 3.2307537,11.860032 c -0.1133225,0.704217 0.7143402,1.114362 1.0505693,1.657964 0.4613828,0.421871 0.8028892,0.88369 0.5896485,1.528207 0.031527,0.721536 -0.3365605,1.539039 -0.00333,2.191265 0.6672798,0.468835 1.5950535,0.394351 2.366606,0.644406 0.6953731,0.01067 0.7527924,0.903021 1.1421512,1.338983 0.2772437,0.566797 0.7316252,1.404908 1.5010578,1.077073 0.7436505,-0.228248 1.4414945,-0.695091 2.1850585,-0.849767 0.859396,0.258906 1.682076,0.86205 2.603706,0.89952 0.686429,-0.295778 0.873685,-1.16465 1.303899,-1.728737 0.181263,-0.719841 0.839971,-0.779116 1.465999,-0.883604 0.639219,-0.239398 1.842413,-0.05623 1.875994,-0.980798 -0.142721,-0.835868 -0.160639,-1.686127 -0.22012,-2.530399 0.551024,-0.660422 1.18978,-1.258902 1.668425,-1.974586 0.176691,-0.759695 -0.674002,-1.19059 -1.028398,-1.752736 C 19.231576,10.072039 18.95715,9.5694383 19.142988,8.9083764 19.121696,8.2246668 19.351713,7.5434539 19.249504,6.870196 18.67328,6.281078 17.712891,6.4221434 16.968852,6.1567211 16.2764,6.2194106 16.098057,5.576234 15.808957,5.087097 15.466632,4.4358509 14.97966,3.4278474 14.068406,3.7286574 13.35333,3.9575856 12.680646,4.3733001 11.963087,4.5520413 11.152621,4.2863015 10.404629,3.7852915 9.5669654,3.6288354 Z m 2.4290026,3.8763231 c 0.828124,-0.2048442 0.319679,0.9268816 0.458551,1.4112903 0,1.1793572 0,2.3587132 0,3.5380702 -0.774125,0.166005 -1.101966,-0.114274 -0.917102,-0.907258 0,-1.347368 0,-2.6947351 0,-4.0421025 0.15285,0 0.3057,0 0.458551,0 z m 0,8.0645155 c 0.665112,-0.349789 0.684612,1.202187 0.05532,0.917103 -0.684096,0.389796 -0.73959,-1.052948 -0.211457,-0.917103 h 0.100806 z"
     id="path2" />
  <path
     d="M23,12L20.56,14.78L20.9,18.46L17.29,19.28L15.4,22.46L12,21L8.6,22.47L6.71,19.29L3.1,18.47L3.44,14.78L1,12L3.44,9.21L3.1,5.53L6.71,4.72L8.6,1.54L12,3L15.4,1.54L17.29,4.72L20.9,5.54L20.56,9.22L23,12M20.33,12L18.5,9.89L18.74,7.1L16,6.5L14.58,4.07L12,5.18L9.42,4.07L8,6.5L5.26,7.09L5.5,9.88L3.67,12L5.5,14.1L5.26,16.9L8,17.5L9.42,19.93L12,18.81L14.58,19.92L16,17.5L18.74,16.89L18.5,14.1L20.33,12M11,15H13V17H11V15M11,7H13V13H11V7"
     id="path1" />
</svg>
