<?xml version="1.0" encoding="UTF-8" standalone="no"?>
<svg
   id="mdi-alert-octagram-outline"
   viewBox="0 0 24 24"
   version="1.1"
   sodipodi:docname="alert-octagram-outline-orange.svg"
   inkscape:version="1.4 (e7c3feb1, 2024-10-09)"
   xmlns:inkscape="http://www.inkscape.org/namespaces/inkscape"
   xmlns:sodipodi="http://sodipodi.sourceforge.net/DTD/sodipodi-0.dtd"
   xmlns="http://www.w3.org/2000/svg"
   xmlns:svg="http://www.w3.org/2000/svg">
  <defs
     id="defs1" />
  <sodipodi:namedview
     id="namedview1"
     pagecolor="#ffffff"
     bordercolor="#000000"
     borderopacity="0.25"
     inkscape:showpageshadow="2"
     inkscape:pageopacity="0.0"
     inkscape:pagecheckerboard="0"
     inkscape:deskcolor="#d1d1d1"
     inkscape:zoom="5.32"
     inkscape:cx="12.030075"
     inkscape:cy="11.93609"
     inkscape:window-width="1432"
     inkscape:window-height="714"
     inkscape:window-x="0"
     inkscape:window-y="38"
     inkscape:window-maximized="0"
     inkscape:current-layer="mdi-alert-octagram-outline" />
  <path
     style="fill:#ff6600;stroke-width:0.37594;stroke-linejoin:bevel;stroke-miterlimit:1"
     d="M 14.849257,4.4345483 C 13.811981,4.6398372 12.836455,5.3869892 11.83248,5.445081 10.849105,5.246264 9.8584823,4.1794141 8.8547786,4.5887424 8.0043697,5.3601104 7.9455167,6.7442859 7.2246148,7.5153716 6.3454264,7.9946769 5.0117249,8.0495904 4.4899847,8.9961231 c -0.00635,1.1319249 0.9432008,2.1444349 0.9538643,3.2153029 -0.2455051,0.975863 -1.2986019,2.113713 -0.6858603,3.108857 0.7754036,0.697912 2.0081169,0.783381 2.7242613,1.437624 0.5491844,0.884633 0.5441333,2.39374 1.5182374,2.842265 1.3589276,-0.115562 2.6842436,-1.592937 4.0620326,-0.680906 0.813978,0.269598 2.212852,1.349411 2.569858,0.0083 0.528736,-1.072603 0.599738,-2.594358 2.038263,-2.773128 0.685192,-0.364468 2.169315,-0.59585 1.747166,-1.698338 -0.230166,-1.191549 -1.401528,-2.311471 -0.50644,-3.470279 0.196021,-0.789669 1.210774,-1.9982185 0.153629,-2.5502655 C 18.006752,7.8145355 16.327488,7.827543 16.154012,6.3442014 15.770973,5.7310846 15.767762,4.4596467 14.849257,4.4345483 Z m -2.819182,3.0262423 c 1.102563,0.0326 0.275034,1.9952906 0.527931,2.8775554 0.105964,0.980434 0.164851,2.90106 -1.055862,1.937706 0,-1.605088 0,-3.2101744 0,-4.8152614 0.175977,0 0.351954,0 0.527931,0 z m 0,8.0827064 c 1.701416,0.108725 -0.757312,1.874288 -0.527931,0.245977 -0.147276,-0.41626 0.316189,-0.19013 0.527931,-0.245977 z"
     id="path2" />
  <path
     d="M2.2,16.06L3.88,12L2.2,7.94L6.26,6.26L7.94,2.2L12,3.88L16.06,2.2L17.74,6.26L21.8,7.94L20.12,12L21.8,16.06L17.74,17.74L16.06,21.8L12,20.12L7.94,21.8L6.26,17.74L2.2,16.06M4.81,9L6.05,12L4.81,15L7.79,16.21L9,19.19L12,17.95L15,19.19L16.21,16.21L19.19,15L17.95,12L19.19,9L16.21,7.79L15,4.81L12,6.05L9,4.81L7.79,7.79L4.81,9M11,15H13V17H11V15M11,7H13V13H11V7"
     id="path1" />
</svg>
