<?xml version="1.0" encoding="UTF-8" standalone="no"?>
<svg
   id="mdi-alert-outline"
   viewBox="0 0 24 24"
   version="1.1"
   sodipodi:docname="alert-outline-orange.svg"
   inkscape:version="1.4 (e7c3feb1, 2024-10-09)"
   xmlns:inkscape="http://www.inkscape.org/namespaces/inkscape"
   xmlns:sodipodi="http://sodipodi.sourceforge.net/DTD/sodipodi-0.dtd"
   xmlns="http://www.w3.org/2000/svg"
   xmlns:svg="http://www.w3.org/2000/svg">
  <defs
     id="defs1" />
  <sodipodi:namedview
     id="namedview1"
     pagecolor="#ffffff"
     bordercolor="#000000"
     borderopacity="0.25"
     inkscape:showpageshadow="2"
     inkscape:pageopacity="0.0"
     inkscape:pagecheckerboard="0"
     inkscape:deskcolor="#d1d1d1"
     inkscape:zoom="9.28"
     inkscape:cx="12.176724"
     inkscape:cy="11.853448"
     inkscape:window-width="1448"
     inkscape:window-height="805"
     inkscape:window-x="0"
     inkscape:window-y="38"
     inkscape:window-maximized="0"
     inkscape:current-layer="mdi-alert-outline" />
  <path
     style="fill:#ff6600;stroke-width:0.713521;stroke-linejoin:bevel;stroke-miterlimit:1"
     d="M 12.067035,5.9019747 C 10.078286,7.1340194 9.3811853,9.8657528 8.0423885,11.74909 c -1.2069091,2.461403 -2.9783248,4.738134 -3.8288286,7.317853 1.858368,0.967871 4.3940289,0.13263 6.5081401,0.41165 2.88729,-0.119878 5.873876,0.230236 8.705065,-0.282965 0.530651,-1.635133 -1.454919,-3.103754 -1.890298,-4.64119 C 15.81749,11.729699 14.476605,8.5529299 12.469952,5.9652508 12.344548,5.9064244 12.203289,5.8841694 12.067035,5.9019747 Z m -0.178923,4.1122303 c 1.201741,0.02896 0.49456,2.499613 0.519695,3.47876 -1.874872,0.380768 -0.859279,-2.37836 -1.143193,-3.47876 h 0.349651 z m 0,6.188253 c 0.950112,-0.502641 0.939236,1.815347 -0.0075,1.298226 -0.931063,0.556033 -0.899931,-1.886519 0.0075,-1.298226 z"
     id="path2" />
  <path
     d="M12,2L1,21H23M12,6L19.53,19H4.47M11,10V14H13V10M11,16V18H13V16"
     id="path1" />
</svg>
