<?xml version="1.0" encoding="UTF-8" standalone="no"?>
<svg
   id="mdi-alien-outline"
   viewBox="0 0 24 24"
   version="1.1"
   sodipodi:docname="alien-outline-color.svg"
   inkscape:version="1.4 (e7c3feb1, 2024-10-09)"
   xmlns:inkscape="http://www.inkscape.org/namespaces/inkscape"
   xmlns:sodipodi="http://sodipodi.sourceforge.net/DTD/sodipodi-0.dtd"
   xmlns="http://www.w3.org/2000/svg"
   xmlns:svg="http://www.w3.org/2000/svg">
  <defs
     id="defs1" />
  <sodipodi:namedview
     id="namedview1"
     pagecolor="#ffffff"
     bordercolor="#000000"
     borderopacity="0.25"
     inkscape:showpageshadow="2"
     inkscape:pageopacity="0.0"
     inkscape:pagecheckerboard="0"
     inkscape:deskcolor="#d1d1d1"
     inkscape:zoom="9.95"
     inkscape:cx="11.959799"
     inkscape:cy="11.909548"
     inkscape:window-width="1408"
     inkscape:window-height="742"
     inkscape:window-x="0"
     inkscape:window-y="38"
     inkscape:window-maximized="0"
     inkscape:current-layer="mdi-alien-outline" />
  <path
     style="fill:#00ff00;stroke-width:0.201005;stroke-linejoin:bevel;stroke-miterlimit:1"
     d="M 11.826123,3.4873587 C 8.4357094,3.446546 5.0442136,5.5644977 3.8498649,8.7788697 3.0095304,10.9963 3.7022423,13.500983 5.0818546,15.343319 c 1.4660347,1.998625 3.2931809,3.850804 5.5761224,4.8887 1.611109,0.756294 3.361464,-0.159558 4.643531,-1.141841 2.21857,-1.651256 4.058013,-3.907463 4.999018,-6.522849 C 20.870989,10.361111 20.198287,7.9091336 18.615932,6.2711998 16.91001,4.4049474 14.341719,3.3961717 11.826123,3.4873587 Z M 7.4381674,9.6036825 C 9.3180734,9.8150802 10.68485,11.886418 10.370799,13.709367 10.251762,14.589105 9.3830801,15.202248 8.5091473,14.984492 6.6054334,14.586168 5.2596828,12.256649 6.0054177,10.425173 6.2512829,9.8771281 6.8442182,9.553274 7.4381674,9.6036825 Z m 9.2796016,0.00294 c 1.03764,8.025e-4 1.666323,1.1426995 1.45166,2.0797945 -0.054,1.512809 -1.229433,2.994771 -2.730319,3.299642 -1.080173,0.263015 -1.924974,-0.797813 -1.866167,-1.802764 0.0012,-1.698652 1.357316,-3.5314785 3.144826,-3.5766725 z m -5.605764,8.6120055 c 0.582659,0.08524 1.284069,0.05894 1.79982,0.0047 -0.58981,0.24678 -1.306233,0.269704 -1.885993,-0.01688 z"
     id="path2" />
  <path
     d="M10.31 10.93C11.33 12.57 11.18 14.5 9.96 15.28C8.74 16.04 6.92 15.33 5.89 13.69C4.87 12.05 5.03 10.1 6.25 9.34C7.47 8.58 9.29 9.29 10.31 10.93M12 17.75C14 17.75 14.5 17 14.5 17C14.5 17 14 19 12 19C10 19 9.5 17.03 9.5 17C9.5 17 10 17.75 12 17.75M17.75 9.34C18.97 10.1 19.13 12.05 18.11 13.69C17.08 15.33 15.26 16.04 14.04 15.28C12.82 14.5 12.67 12.57 13.69 10.93C14.71 9.29 16.53 8.58 17.75 9.34M12 20C14.5 20 20 14.86 20 11C20 7.14 16.41 4 12 4C7.59 4 4 7.14 4 11C4 14.86 9.5 20 12 20M12 2C17.5 2 22 6.04 22 11C22 15.08 16.32 22 12 22C7.68 22 2 15.08 2 11C2 6.04 6.5 2 12 2Z"
     id="path1" />
</svg>
