<?xml version="1.0" encoding="UTF-8" standalone="no"?>
<svg
   id="mdi-alien"
   viewBox="0 0 24 24"
   version="1.1"
   sodipodi:docname="alien-color.svg"
   inkscape:version="1.4 (e7c3feb1, 2024-10-09)"
   xmlns:inkscape="http://www.inkscape.org/namespaces/inkscape"
   xmlns:sodipodi="http://sodipodi.sourceforge.net/DTD/sodipodi-0.dtd"
   xmlns="http://www.w3.org/2000/svg"
   xmlns:svg="http://www.w3.org/2000/svg">
  <defs
     id="defs1" />
  <sodipodi:namedview
     id="namedview1"
     pagecolor="#ffffff"
     bordercolor="#000000"
     borderopacity="0.25"
     inkscape:showpageshadow="2"
     inkscape:pageopacity="0.0"
     inkscape:pagecheckerboard="0"
     inkscape:deskcolor="#d1d1d1"
     inkscape:zoom="6.55"
     inkscape:cx="11.832061"
     inkscape:cy="11.832061"
     inkscape:window-width="1384"
     inkscape:window-height="624"
     inkscape:window-x="0"
     inkscape:window-y="38"
     inkscape:window-maximized="0"
     inkscape:current-layer="mdi-alien" />
  <path
     d="M12,3C16.97,3 21,6.58 21,11C21,15.42 15,21 12,21C9,21 3,15.42 3,11C3,6.58 7.03,3 12,3M10.31,10.93C9.29,9.29 7.47,8.58 6.25,9.34C5.03,10.1 4.87,12.05 5.89,13.69C6.92,15.33 8.74,16.04 9.96,15.28C11.18,14.5 11.33,12.57 10.31,10.93M13.69,10.93C12.67,12.57 12.82,14.5 14.04,15.28C15.26,16.04 17.08,15.33 18.11,13.69C19.13,12.05 18.97,10.1 17.75,9.34C16.53,8.58 14.71,9.29 13.69,10.93M12,17.75C10,17.75 9.5,17 9.5,17C9.5,17.03 10,19 12,19C14,19 14.5,17 14.5,17C14.5,17 14,17.75 12,17.75Z"
     id="path1"
     style="fill:#00ff00" />
</svg>
