<?xml version="1.0" encoding="UTF-8" standalone="no"?>
<svg
   id="mdi-ambulance"
   viewBox="0 0 24 24"
   version="1.1"
   sodipodi:docname="ambulance-color.svg"
   inkscape:version="1.4 (e7c3feb1, 2024-10-09)"
   xmlns:inkscape="http://www.inkscape.org/namespaces/inkscape"
   xmlns:sodipodi="http://sodipodi.sourceforge.net/DTD/sodipodi-0.dtd"
   xmlns="http://www.w3.org/2000/svg"
   xmlns:svg="http://www.w3.org/2000/svg">
  <defs
     id="defs1">
    <linearGradient
       id="swatch4"
       inkscape:swatch="solid">
      <stop
         style="stop-color:#ff0000;stop-opacity:0;"
         offset="0"
         id="stop4" />
    </linearGradient>
  </defs>
  <sodipodi:namedview
     id="namedview1"
     pagecolor="#ffffff"
     bordercolor="#000000"
     borderopacity="0.25"
     inkscape:showpageshadow="2"
     inkscape:pageopacity="0.0"
     inkscape:pagecheckerboard="0"
     inkscape:deskcolor="#d1d1d1"
     inkscape:zoom="13.1"
     inkscape:cx="11.984733"
     inkscape:cy="11.984733"
     inkscape:window-width="1392"
     inkscape:window-height="699"
     inkscape:window-x="0"
     inkscape:window-y="38"
     inkscape:window-maximized="0"
     inkscape:current-layer="mdi-ambulance" />
  <path
     style="fill:#ff0000;fill-opacity:1;stroke-width:0.152672;stroke-linejoin:bevel;stroke-miterlimit:1"
     d="M 7.686516,5.5286856 C 7.1857882,6.0121402 7.5057545,6.7868678 7.4153149,7.4045802 7.3302911,7.7811498 7.6761989,8.5886512 7.0336355,8.4076813 6.2615084,8.458273 5.4583869,8.296611 4.7094167,8.5057848 4.2086889,8.9892394 4.5286552,9.763967 4.4382156,10.381679 c -0.06419,0.495434 0.016942,1.249319 0.6762882,1.21064 0.766937,0 1.5338741,0 2.3008111,0 0.054984,0.898712 -0.1167941,1.830537 0.098103,2.705898 0.4834546,0.500727 1.2581822,0.180762 1.8758946,0.271201 0.4954338,0.06419 1.2493195,-0.01694 1.2106395,-0.676288 0,-0.766937 0,-1.533874 0,-2.300811 0.898713,-0.05498 1.830538,0.116794 2.705898,-0.0981 0.500728,-0.483454 0.180762,-1.258182 0.271202,-1.8758944 0.06419,-0.4954338 -0.01694,-1.2493188 -0.676289,-1.2106393 -0.766937,0 -1.533874,0 -2.300811,0 C 10.544968,7.5089691 10.716746,6.577144 10.501849,5.7017832 10.018394,5.2010553 9.2436666,5.5210216 8.6259542,5.4305821 8.3069888,5.4342474 7.9866104,5.3954035 7.686516,5.5286856 Z"
     id="path4" />
  <path
     d="M18,18.5A1.5,1.5 0 0,0 19.5,17A1.5,1.5 0 0,0 18,15.5A1.5,1.5 0 0,0 16.5,17A1.5,1.5 0 0,0 18,18.5M19.5,9.5H17V12H21.46L19.5,9.5M6,18.5A1.5,1.5 0 0,0 7.5,17A1.5,1.5 0 0,0 6,15.5A1.5,1.5 0 0,0 4.5,17A1.5,1.5 0 0,0 6,18.5M20,8L23,12V17H21A3,3 0 0,1 18,20A3,3 0 0,1 15,17H9A3,3 0 0,1 6,20A3,3 0 0,1 3,17H1V6C1,4.89 1.89,4 3,4H17V8H20M8,6V9H5V11H8V14H10V11H13V9H10V6H8Z"
     id="path1" />
</svg>
