<?xml version="1.0" encoding="UTF-8" standalone="no"?>
<svg
   id="mdi-angular"
   viewBox="0 0 24 24"
   version="1.1"
   sodipodi:docname="angular-color.svg"
   xml:space="preserve"
   inkscape:version="1.4 (e7c3feb1, 2024-10-09)"
   xmlns:inkscape="http://www.inkscape.org/namespaces/inkscape"
   xmlns:sodipodi="http://sodipodi.sourceforge.net/DTD/sodipodi-0.dtd"
   xmlns="http://www.w3.org/2000/svg"
   xmlns:svg="http://www.w3.org/2000/svg"><defs
     id="defs1" /><sodipodi:namedview
     id="namedview1"
     pagecolor="#ffffff"
     bordercolor="#000000"
     borderopacity="0.25"
     inkscape:showpageshadow="2"
     inkscape:pageopacity="0.0"
     inkscape:pagecheckerboard="0"
     inkscape:deskcolor="#d1d1d1"
     inkscape:zoom="19.85"
     inkscape:cx="12.040302"
     inkscape:cy="11.86398"
     inkscape:window-width="1392"
     inkscape:window-height="776"
     inkscape:window-x="0"
     inkscape:window-y="38"
     inkscape:window-maximized="0"
     inkscape:current-layer="mdi-angular" /><path
     d="M 12,2.5 20.84,5.65 19.5,17.35 12,21.5 4.5,17.35 3.16,5.65 12,2.5 M 12,4.6 6.47,17 h 2.06 l 1.11,-2.78 h 4.7 L 15.45,17 H 17.5 L 12,4.6 m 1.62,7.9 H 10.39 L 12,8.63 Z"
     id="path1"
     style="display:inline;fill:#b72833;fill-opacity:1" /><path
     id="path2"
     style="display:none;fill:#e42939;fill-opacity:1"
     d="M 11.990245,8.6534488 12,8.63 13.62,12.5 v 0 h -1.629655" /><path
     id="path12"
     style="fill:none;fill-opacity:1"
     d="M 11.99 14.22 L 14.34 14.22 L 15.45 17 L 17.5 17 L 11.990388 4.6215528 " /><path
     id="path9"
     style="display:inline;fill:#e42939;fill-opacity:1"
     d="M 11.990041,21.494489 4.5,17.35 3.16,5.65 11.990099,2.5035279" /><path
     id="path11"
     style="fill:#f9f9f9;fill-opacity:1"
     d="M 11.990388 4.6215528 L 6.47 17 L 8.53 17 L 9.64 14.22 L 11.99 14.22 " /><path
     id="path13"
     style="fill:#e42939;fill-opacity:1"
     d="M 11.990345 12.5 L 10.39 12.5 L 11.990245 8.6534488 " /></svg>
