<?xml version="1.0" encoding="UTF-8" standalone="no"?>
<svg
   id="mdi-apple"
   viewBox="0 0 24 24"
   version="1.1"
   sodipodi:docname="apple-classic.svg"
   xml:space="preserve"
   inkscape:version="1.4 (e7c3feb1, 2024-10-09)"
   xmlns:inkscape="http://www.inkscape.org/namespaces/inkscape"
   xmlns:sodipodi="http://sodipodi.sourceforge.net/DTD/sodipodi-0.dtd"
   xmlns="http://www.w3.org/2000/svg"
   xmlns:svg="http://www.w3.org/2000/svg"><defs
     id="defs1" /><sodipodi:namedview
     id="namedview1"
     pagecolor="#ffffff"
     bordercolor="#000000"
     borderopacity="0.25"
     inkscape:showpageshadow="2"
     inkscape:pageopacity="0.0"
     inkscape:pagecheckerboard="0"
     inkscape:deskcolor="#d1d1d1"
     inkscape:zoom="24.43"
     inkscape:cx="12.034384"
     inkscape:cy="11.850184"
     inkscape:window-width="1448"
     inkscape:window-height="812"
     inkscape:window-x="0"
     inkscape:window-y="38"
     inkscape:window-maximized="0"
     inkscape:current-layer="mdi-apple" /><g
     inkscape:groupmode="layer"
     id="layer1"
     inkscape:label="Layer 1"><path
       id="rect13"
       style="fill:#1f51d4;fill-rule:evenodd;fill-opacity:1"
       d="M 5.5097656 18.748047 C 5.6555567 19.002103 5.8066757 19.247881 5.9609375 19.470703 C 6.8009375 20.680703 7.7896094 22.05 9.0996094 22 C 10.369609 21.95 10.839141 21.179688 12.369141 21.179688 C 13.889141 21.179688 14.320156 22.000703 15.660156 21.970703 C 17.000156 21.950703 17.880937 20.74 18.710938 19.5 C 18.887028 19.245036 19.036751 18.993765 19.175781 18.748047 L 5.5097656 18.748047 z "
       inkscape:label="Blue" /><path
       id="rect12"
       style="fill:#b9214a;fill-rule:evenodd;stroke-width:0.862044;fill-opacity:1"
       d="M 4.4257812 16.25 C 4.8120052 17.475994 5.3603548 18.603195 5.9609375 19.470703 C 5.9830195 19.502512 6.0070045 19.534405 6.0292969 19.566406 L 18.666016 19.566406 C 18.680957 19.544161 18.69603 19.522271 18.710938 19.5 C 19.670938 18.11 20.059844 16.739922 20.089844 16.669922 C 20.07941 16.666444 19.753093 16.537907 19.333984 16.25 L 4.4257812 16.25 z "
       inkscape:label="Purple" /><path
       id="rect11"
       style="fill:#ff201b;fill-rule:evenodd;fill-opacity:1"
       d="M 3.875 13.261719 C 3.9300612 14.506071 4.2239899 15.764919 4.6503906 16.90625 L 20.009766 16.90625 C 20.051377 16.784306 20.083411 16.684932 20.089844 16.669922 C 20.062044 16.660655 17.812975 15.792113 17.458984 13.261719 L 3.875 13.261719 z "
       inkscape:label="Red" /><path
       id="rect10"
       style="fill:#f35a0e;fill-rule:evenodd;fill-opacity:1"
       d="M 4.1914062 10.560547 C 3.8224879 11.737655 3.7944508 13.043073 3.9824219 14.326172 L 17.751953 14.326172 C 17.552134 13.847694 17.416711 13.29072 17.410156 12.630859 C 17.403599 11.801403 17.623076 11.113679 17.923828 10.560547 L 4.1914062 10.560547 z "
       inkscape:label="Orange" /><path
       id="rect9"
       style="fill:#ffc122;fill-rule:evenodd;fill-opacity:1"
       d="M 5.4453125 8.390625 C 5.1617142 8.6877414 4.9098654 9.0225986 4.6992188 9.390625 C 4.2923372 10.098044 4.0511693 10.884454 3.9394531 11.707031 L 17.501953 11.707031 C 17.900674 9.8024649 19.482296 8.8724798 19.560547 8.8203125 C 19.454213 8.6639928 19.340315 8.5232988 19.224609 8.390625 L 5.4453125 8.390625 z "
       inkscape:label="Yellow" /><g
       id="g9"
       inkscape:label="Green"><path
         id="path9"
         style="fill:#268f19;fill-rule:evenodd;stroke-width:0.909888;fill-opacity:1"
         d="M 19.130859 9.1289062 C 19.363153 8.9422696 19.536357 8.836439 19.560547 8.8203125 C 18.390547 7.1003125 16.569922 6.8698438 15.919922 6.8398438 C 14.369922 6.6798437 12.889375 7.75 12.109375 7.75 C 11.319375 7.75 10.100312 6.8608594 8.8203125 6.8808594 C 7.2291376 6.9091051 5.7526761 7.7606453 4.859375 9.1289062 L 19.130859 9.1289062 z " /><path
         id="rect1"
         style="fill:#268f19;fill-rule:evenodd;stroke-width:0.909888;fill-opacity:1"
         d="M 15.939453 2 C 14.939453 2.04 13.73 2.67 13 3.5 C 12.36 4.26 11.799219 5.459375 11.949219 6.609375 C 13.069219 6.699375 14.210391 6.0394531 14.900391 5.1894531 C 15.600391 4.3494531 16.069453 3.17 15.939453 2 z " /></g></g></svg>
