<?xml version="1.0" encoding="UTF-8" standalone="no"?>
<svg
   id="mdi-apple-finder"
   viewBox="0 0 24 24"
   version="1.1"
   sodipodi:docname="apple-finder-color.svg"
   xml:space="preserve"
   inkscape:version="1.4 (e7c3feb1, 2024-10-09)"
   xmlns:inkscape="http://www.inkscape.org/namespaces/inkscape"
   xmlns:sodipodi="http://sodipodi.sourceforge.net/DTD/sodipodi-0.dtd"
   xmlns="http://www.w3.org/2000/svg"
   xmlns:svg="http://www.w3.org/2000/svg"><defs
     id="defs1" /><sodipodi:namedview
     id="namedview1"
     pagecolor="#ffffff"
     bordercolor="#000000"
     borderopacity="0.25"
     inkscape:showpageshadow="2"
     inkscape:pageopacity="0.0"
     inkscape:pagecheckerboard="0"
     inkscape:deskcolor="#d1d1d1"
     inkscape:zoom="7.02"
     inkscape:cx="11.894587"
     inkscape:cy="11.894587"
     inkscape:window-width="1496"
     inkscape:window-height="864"
     inkscape:window-x="0"
     inkscape:window-y="38"
     inkscape:window-maximized="0"
     inkscape:current-layer="layer1" /><g
     inkscape:groupmode="layer"
     id="layer1"
     inkscape:label="Layer 1"><path
       style="fill:#4d66cc;stroke-width:0.2849;stroke-linejoin:bevel;stroke-miterlimit:1;fill-opacity:1"
       d="M 3.6625267,4.6073718 C 3.2142903,5.6616469 3.5764654,6.9136373 3.4597022,8.048433 c 0.033609,3.982451 -0.067242,7.989518 0.050467,11.956573 0.4070816,0.861464 1.6300993,0.311571 2.4015116,0.466916 2.3680279,-0.03355 4.7606332,0.06715 7.1132682,-0.05047 0.798031,-0.373448 0.397728,-1.496009 0.338262,-2.213727 -0.125813,-1.196684 -1.505177,-0.654099 -2.315256,-0.825471 -1.695836,-0.244528 -3.6098101,-0.889045 -4.5188976,-2.43918 0.051657,-0.461122 0.646905,-0.573084 0.9011642,-0.165265 1.4900539,1.31223 3.6047244,1.960108 5.5472084,1.613971 0.491438,-0.911727 0.106252,-2.061825 0.229535,-3.072694 -0.351306,-1.12215 -1.772797,-0.314867 -2.596099,-0.700009 C 10.043587,12.080331 10.465527,11.153738 10.437533,10.470085 10.654716,8.6784234 11.006502,6.9285185 11.444979,5.1999866 11.213018,4.1660888 9.8642249,4.5671059 9.1020687,4.461234 7.3382752,4.5174468 5.5259597,4.3239951 3.7934075,4.5577874 Z M 7.9688613,7.5237046 C 8.7408031,7.6435972 8.3437009,8.6121123 8.4448171,9.1287712 8.4288966,9.5706179 8.6233019,10.645016 7.8508947,10.41611 7.2181556,9.9890222 7.6364345,8.9479279 7.5134104,8.3809094 7.4963164,8.0154795 7.5334009,7.5992442 7.9688613,7.5237046 Z"
       id="path2" /><path
       style="fill:#89a1d4;stroke-width:0.2849;stroke-linejoin:bevel;stroke-miterlimit:1;fill-opacity:1"
       d="m 12.25099,4.6073718 c -0.946412,2.2166167 -1.138388,4.6935004 -1.523827,7.0626892 0.166689,1.120435 1.555584,0.541265 2.341803,0.692219 0.930826,-0.03112 0.580048,1.170673 0.648345,1.737777 0.04623,0.673079 -0.202249,2.043398 0.863518,1.933653 0.936123,-0.280326 1.566309,-1.163656 2.428052,-1.523271 0.716922,0.151152 0.361852,1.022527 -0.122418,1.228911 -0.778847,0.746319 -1.864013,1.01344 -2.733819,1.589487 -0.594562,0.784421 -0.164098,1.891167 -0.0394,2.749372 0.533445,0.75553 1.71007,0.243181 2.520868,0.393713 1.204907,-0.08706 2.475638,0.185418 3.634982,-0.150519 0.448237,-1.054275 0.08606,-2.306265 0.202825,-3.441061 -0.03361,-3.982451 0.06724,-7.9895185 -0.05047,-11.9565727 -0.407082,-0.8614638 -1.6301,-0.3115716 -2.401512,-0.4669161 -1.87319,0.067329 -3.795828,-0.1354318 -5.638072,0.1009342 z m 3.722623,2.9171675 c 0.778161,0.1951269 0.324765,1.1844359 0.447772,1.7466806 0.03296,0.4318328 0.09461,1.4002631 -0.612758,1.1351521 -0.636349,-0.4741941 -0.172374,-1.4209835 -0.276094,-2.0970652 0.02315,-0.3363193 -0.03332,-0.7871357 0.44108,-0.7847675 z"
       id="path3" /></g><path
     d="M8 11C7.45 11 7 10.55 7 10V8C7 7.45 7.45 7 8 7C8.55 7 9 7.45 9 8V10C9 10.55 8.55 11 8 11M17 10V8C17 7.45 16.55 7 16 7C15.45 7 15 7.45 15 8V10C15 10.55 15.45 11 16 11C16.55 11 17 10.55 17 10M22 5V20C22 21.1 21.1 22 20 22H4C2.9 22 2 21.1 2 20V5C2 3.9 2.9 3 4 3H20C21.1 3 22 3.9 22 5M4 20L13.06 20C12.96 19.35 12.89 18.64 12.83 17.94C12.56 17.96 12.3 18 12 18C8.24 18 6.31 15.73 6.23 15.63C5.88 15.21 5.94 14.58 6.36 14.22C6.78 13.87 7.41 13.93 7.77 14.35C7.83 14.43 9.23 16 12 16C12.27 16 12.5 15.97 12.74 15.95C12.71 14.75 12.73 13.74 12.74 13.26H10.93C10.28 13.26 9.75 12.7 9.75 12C9.77 11.75 10.07 7.82 11 5H4L4 20M20 20L20 5H12.6C11.74 7.19 11.37 10.73 11.27 11.76H13.08C13.72 11.76 14.25 12.32 14.25 13C14.25 13.04 14.21 14.15 14.24 15.6C15.54 15.11 16.22 14.35 16.23 14.34C16.58 13.92 17.21 13.85 17.63 14.2C18.06 14.55 18.12 15.18 17.77 15.61C17.71 15.68 16.55 17.05 14.32 17.68C14.38 18.5 14.46 19.29 14.58 20H20Z"
     id="path1" /></svg>
