<?xml version="1.0" encoding="UTF-8" standalone="no"?>
<svg
   id="mdi-atlassian"
   viewBox="0 0 24 24"
   version="1.1"
   sodipodi:docname="atlassian-color.svg"
   xml:space="preserve"
   inkscape:version="1.4 (e7c3feb1, 2024-10-09)"
   xmlns:inkscape="http://www.inkscape.org/namespaces/inkscape"
   xmlns:sodipodi="http://sodipodi.sourceforge.net/DTD/sodipodi-0.dtd"
   xmlns="http://www.w3.org/2000/svg"
   xmlns:svg="http://www.w3.org/2000/svg"><defs
     id="defs1" /><sodipodi:namedview
     id="namedview1"
     pagecolor="#ffffff"
     bordercolor="#000000"
     borderopacity="0.25"
     inkscape:showpageshadow="2"
     inkscape:pageopacity="0.0"
     inkscape:pagecheckerboard="0"
     inkscape:deskcolor="#d1d1d1"
     inkscape:zoom="1.0833333"
     inkscape:cx="11.538462"
     inkscape:cy="12"
     inkscape:window-width="1400"
     inkscape:window-height="677"
     inkscape:window-x="0"
     inkscape:window-y="38"
     inkscape:window-maximized="0"
     inkscape:current-layer="mdi-atlassian" /><path
     d="M7.93,11.24C7.74,11 7.38,10.94 7.13,11.13C7.06,11.19 7,11.26 6.96,11.34L2.06,21.15C1.91,21.44 2.03,21.79 2.32,21.94C2.4,22 2.5,22 2.59,22H9.41C9.63,22 9.84,21.88 9.94,21.68C11.41,18.63 10.5,14 7.93,11.24M11.53,2.31C9.05,6.14 8.76,11 10.77,15.09L14.06,21.68C14.17,21.88 14.37,22 14.59,22H21.41A0.59,0.59 0 0,0 22,21.41C22,21.32 22,21.23 21.94,21.15C21.94,21.15 12.76,2.77 12.5,2.31C12.39,2.04 12.06,1.92 11.78,2.06C11.67,2.11 11.58,2.2 11.53,2.31Z"
     id="path1"
     style="fill:#0052cc;fill-opacity:1" /></svg>
