<?xml version="1.0" encoding="UTF-8" standalone="no"?>
<svg
   id="mdi-aws"
   viewBox="0 0 24 24"
   version="1.1"
   sodipodi:docname="aws-color.svg"
   xml:space="preserve"
   inkscape:version="1.4 (e7c3feb1, 2024-10-09)"
   xmlns:inkscape="http://www.inkscape.org/namespaces/inkscape"
   xmlns:sodipodi="http://sodipodi.sourceforge.net/DTD/sodipodi-0.dtd"
   xmlns="http://www.w3.org/2000/svg"
   xmlns:svg="http://www.w3.org/2000/svg"><defs
     id="defs1" /><sodipodi:namedview
     id="namedview1"
     pagecolor="#ffffff"
     bordercolor="#000000"
     borderopacity="0.25"
     inkscape:showpageshadow="2"
     inkscape:pageopacity="0.0"
     inkscape:pagecheckerboard="0"
     inkscape:deskcolor="#d1d1d1"
     inkscape:zoom="4.74"
     inkscape:cx="2.2151899"
     inkscape:cy="21.308017"
     inkscape:window-width="1432"
     inkscape:window-height="699"
     inkscape:window-x="0"
     inkscape:window-y="38"
     inkscape:window-maximized="0"
     inkscape:current-layer="mdi-aws" /><path
     id="path5"
     d="M 20.08,15.53 C 17.89,17.14 14.71,18 12,18 8.15,18 4.7,16.58 2.09,14.23 1.88,14.04 2.07,13.79 2.32,13.94 c 2.82,1.63 6.29,2.62 9.89,2.62 2.43,0 5.1,-0.5 7.55,-1.56 0.37,-0.15 0.68,0.26 0.32,0.53 M 21,14.5 c -0.29,-0.37 -1.86,-0.18 -2.57,-0.1 -0.21,0.03 -0.24,-0.16 -0.05,-0.3 1.25,-0.87 3.31,-0.6 3.54,-0.33 0.24,0.3 -0.06,2.36 -1.23,3.34 -0.19,0.15 -0.36,0.07 -0.28,-0.11 0.27,-0.68 0.86,-2.16 0.59,-2.5 z"
     style="fill:#ff9900;fill-opacity:1" /><path
     id="path2"
     d="m 5.3300781,6.0507812 c -0.37,10e-8 -0.7110156,0.038906 -1.0410156,0.1289063 -0.33,0.08 -0.5998438,0.1803125 -0.8398437,0.3203125 -0.09,0.03 -0.1496876,0.069141 -0.1796876,0.1191406 -0.04,0.05 -0.048828,0.1304688 -0.048828,0.2304688 v 0.3300781 c 0,0.14 0.048672,0.2011719 0.1386719,0.2011719 0.03,0 0.061328,-0.00148 0.1113281,-0.021484 0.03,-0.01 0.1185156,-0.040078 0.2285157,-0.080078 0.2299999,-0.1 0.4707031,-0.1685156 0.7207031,-0.2285157 0.24,-0.05 0.4807031,-0.080078 0.7207031,-0.080078 0.51,0 0.8600781,0.088828 1.0800781,0.2988281 0.21,0.2300001 0.3085938,0.5603126 0.3085938,1.0703126 v 0.4804687 c -0.26,-0.06 -0.5297656,-0.110625 -0.7597657,-0.140625 -0.2699999,-0.04 -0.4789843,-0.060547 -0.7089843,-0.060547 -0.68,0 -1.2208594,0.1814844 -1.6308594,0.5214844 -0.4,0.36 -0.5996094,0.809375 -0.5996094,1.359375 0,0.54 0.1702344,0.969063 0.4902344,1.289062 0.33,0.320001 0.7700781,0.480469 1.3300781,0.480469 0.79,0 1.4389844,-0.309922 1.9589844,-0.919922 0.07,0.15 0.1411719,0.280625 0.2011719,0.390625 0.07,0.11 0.1502344,0.210547 0.2402343,0.310547 0.07,0.06 0.1292188,0.09961 0.1992188,0.09961 0.05,0 0.1099219,-0.02055 0.1699219,-0.06055 l 0.4199219,-0.279297 c 0.09,-0.07 0.1308593,-0.131172 0.1308593,-0.201172 0,-0.05 -0.010781,-0.108438 -0.050781,-0.148437 C 7.8299219,11.280937 7.7609375,11.12 7.7109375,11 7.6609375,10.83 7.640625,10.630859 7.640625,10.380859 H 7.6191406 V 8.2304688 c 0,-0.73 -0.1788281,-1.280625 -0.5488281,-1.640625 -0.37,-0.3600001 -0.9502344,-0.5390626 -1.7402344,-0.5390626 z m -0.1035156,3.359375 c 0.027117,-7.031e-4 0.055859,0 0.083984,0 0.19,0 0.4091406,0.019063 0.6191406,0.039063 0.22,0.05 0.4210937,0.051094 0.6210937,0.1210937 V 9.8398438 C 6.5507813,10.069844 6.5,10.259922 6.5,10.419922 c -0.06,0.16 -0.14,0.299687 -0.25,0.429687 -0.18,0.2 -0.3908594,0.349688 -0.6308594,0.429688 -0.24,0.08 -0.4596875,0.121094 -0.6796875,0.121094 -0.31,0 -0.5392187,-0.08 -0.6992187,-0.25 C 4.0702344,11.000391 4,10.759453 4,10.439453 c 0,-0.33 0.1003125,-0.5797655 0.3203125,-0.7597655 0.20625,-0.16875 0.4994995,-0.2589844 0.90625,-0.2695313 z M 10.28,12.11 C 10.16,12.11 10.08,12.09 10,12.05 9.97,12 9.92,11.91 9.88,11.79 L 8.32,6.65 C 8.28,6.5 8.26,6.43 8.26,6.38 8.26,6.27 8.31,6.21 8.42,6.21 h 0.65 c 0.13,0 0.22,0.02 0.26,0.07 0.06,0.04 0.1,0.13 0.14,0.26 l 1.11,4.4 1.04,-4.4 C 11.65,6.41 11.69,6.32 11.75,6.28 11.8,6.24 11.89,6.21 12,6.21 h 0.55 c 0.12,0 0.21,0.02 0.26,0.07 0.05,0.04 0.1,0.13 0.13,0.26 L 14,11 15.14,6.54 c 0.04,-0.13 0.09,-0.22 0.13,-0.26 0.06,-0.04 0.14,-0.07 0.26,-0.07 h 0.62 c 0.11,0 0.17,0.06 0.17,0.17 0,0.03 -0.01,0.07 -0.02,0.12 0,0 -0.02,0.08 -0.04,0.15 l -1.61,5.14 c -0.04,0.14 -0.08,0.21 -0.15,0.26 -0.04,0.04 -0.13,0.07 -0.24,0.07 H 13.69 C 13.56,12.12 13.5,12.1 13.42,12.05 13.37,12 13.32,11.92 13.3,11.79 L 12.27,7.5 11.24,11.78 c -0.03,0.13 -0.07,0.22 -0.12,0.27 -0.06,0.04 -0.15,0.06 -0.27,0.06 h -0.57 m 8.55,0.18 c -0.33,0 -0.7,-0.04 -1.03,-0.12 C 17.47,12.09 17.21,12 17.04,11.91 16.93,11.85 16.86,11.78 16.83,11.72 16.8,11.66 16.79,11.6 16.79,11.54 V 11.2 c 0,-0.14 0.05,-0.2 0.15,-0.2 0.06,0 0.06,0 0.12,0 0.04,0 0.1,0.05 0.17,0.08 0.22,0.1 0.47,0.18 0.73,0.23 0.27,0.05 0.54,0.08 0.79,0.08 0.42,0 0.75,-0.07 0.97,-0.22 C 19.95,11 20.07,10.81 20.07,10.54 20.07,10.35 20,10.2 19.89,10.07 19.77,9.95 19.54,9.83 19.22,9.73 L 18.25,9.43 C 17.77,9.27 17.41,9.05 17.19,8.75 16.97,8.46 16.86,8.13 16.86,7.78 c 0,-0.28 0.06,-0.52 0.18,-0.73 0.12,-0.22 0.28,-0.4 0.46,-0.55 0.22,-0.15 0.44,-0.26 0.71,-0.34 0.26,-0.08 0.54,-0.12 0.84,-0.12 0.14,0 0.29,0.01 0.45,0.03 0.14,0.02 0.28,0.05 0.42,0.07 0.14,0.04 0.26,0.07 0.38,0.11 0.12,0.04 0.2,0.08 0.28,0.12 0.09,0.05 0.16,0.1 0.2,0.16 0.04,0.06 0.06,0.13 0.06,0.22 v 0.32 c 0,0.14 -0.05,0.21 -0.15,0.21 -0.05,0 -0.14,-0.03 -0.26,-0.08 -0.37,-0.17 -0.8,-0.26 -1.27,-0.26 -0.38,0 -0.66,0.06 -0.89,0.19 -0.2,0.12 -0.31,0.32 -0.31,0.59 0,0.19 0.07,0.35 0.2,0.47 0.13,0.13 0.38,0.25 0.73,0.37 l 0.95,0.3 c 0.48,0.14 0.82,0.36 1.03,0.64 0.2,0.27 0.3,0.58 0.3,0.93 0,0.28 -0.06,0.54 -0.17,0.77 -0.12,0.22 -0.28,0.42 -0.5,0.58 -0.19,0.17 -0.44,0.29 -0.72,0.38 -0.28,0.09 -0.62,0.13 -0.95,0.13"
     style="fill:#252f3e;fill-opacity:1" /></svg>
