<?xml version="1.0" encoding="UTF-8" standalone="no"?>
<svg
   id="mdi-bacteria-outline"
   viewBox="0 0 24 24"
   version="1.1"
   sodipodi:docname="bacteria-outline-color.svg"
   inkscape:version="1.4 (e7c3feb1, 2024-10-09)"
   xmlns:inkscape="http://www.inkscape.org/namespaces/inkscape"
   xmlns:sodipodi="http://sodipodi.sourceforge.net/DTD/sodipodi-0.dtd"
   xmlns="http://www.w3.org/2000/svg"
   xmlns:svg="http://www.w3.org/2000/svg">
  <defs
     id="defs1" />
  <sodipodi:namedview
     id="namedview1"
     pagecolor="#ffffff"
     bordercolor="#000000"
     borderopacity="0.25"
     inkscape:showpageshadow="2"
     inkscape:pageopacity="0.0"
     inkscape:pagecheckerboard="0"
     inkscape:deskcolor="#d1d1d1"
     inkscape:zoom="10.64"
     inkscape:cx="11.889098"
     inkscape:cy="11.889098"
     inkscape:window-width="1464"
     inkscape:window-height="702"
     inkscape:window-x="31"
     inkscape:window-y="41"
     inkscape:window-maximized="0"
     inkscape:current-layer="mdi-bacteria-outline" />
  <path
     style="fill:#668000;stroke-width:0.18797;stroke-linejoin:bevel;stroke-miterlimit:1"
     d="M 8.0157057,5.4549827 C 6.7167785,5.3874816 5.4703823,6.4385059 5.4760926,7.7713816 5.3874597,10.63675 5.8824162,13.770538 7.9441995,15.918727 c 2.2468765,2.37941 5.8549385,3.032829 8.9654015,2.372274 1.12595,-0.25657 2.563528,-0.889009 2.608249,-2.228567 0.09976,-1.380038 -0.444765,-3.132246 -1.956796,-3.484236 C 16.254721,12.32949 14.829988,12.391629 13.68399,11.603472 12.456875,10.852929 11.645534,9.5164147 11.554634,8.0793024 11.474214,6.8727296 10.547756,5.8261567 9.3532012,5.6203707 8.9155836,5.5168806 8.4664623,5.4474084 8.0157057,5.4549827 Z M 8.5098611,8.5902623 C 9.3661418,8.4762074 9.7065945,9.7556402 9.118377,10.234265 8.5560451,10.663158 7.5332621,10.341566 7.6036038,9.5457148 7.5390425,8.9993519 7.9391336,8.514317 8.5098611,8.5902623 Z M 10.992386,12.56645 c 0.494185,-0.04273 0.603614,0.743226 0.12464,0.828059 -0.50191,0.187667 -0.762457,-0.597247 -0.300128,-0.791897 0.05459,-0.02574 0.115204,-0.03796 0.175488,-0.03616 z m 4.534774,2.025083 c 0.945785,-0.07915 1.270276,1.432906 0.373553,1.75873 -0.704466,0.329906 -1.566018,-0.394177 -1.279627,-1.132592 0.120157,-0.395079 0.481073,-0.68239 0.906074,-0.626138 z"
     id="path2" />
  <path
     d="M9,2H7V4.1C6.29,4.25 5.73,4.54 5.32,4.91L2.7,2.29L1.29,3.71L4.24,6.65C4,7.39 4,8 4,8H2V10H4.04C4.1,10.63 4.21,11.36 4.4,12.15L1.68,13.05L2.31,14.95L5,14.05C5.24,14.56 5.5,15.08 5.82,15.58L3.44,17.17L4.55,18.83L7.07,17.15C7.63,17.71 8.29,18.21 9.06,18.64L8.1,20.55L9.89,21.45L10.89,19.45L10.73,19.36C11.68,19.68 12.76,19.9 14,19.97V22H16V19.93C16.76,19.84 17.81,19.64 18.77,19.19L20.29,20.71L21.7,19.29L20.37,17.95C20.75,17.44 21,16.8 21,16C21,15.5 20.95,15.08 20.88,14.68L22.45,13.9L21.55,12.1L20.18,12.79C19.63,11.96 18.91,11.5 18.29,11.28L18.95,9.32L17.05,8.68L16.29,10.96C14.96,10.83 14.17,10.32 13.7,9.77L15.45,8.9L14.55,7.1L13,7.89C12.97,7.59 12.86,6.72 12.28,5.87L13.83,3.55L12.17,2.44L10.76,4.56C10.28,4.33 9.7,4.15 9,4.06M15,18C12.06,18 9.81,17.18 8.31,15.56C5.68,12.72 6,8.2 6,8.17V8.11L6,8.03C6,7.1 6.39,6 8,6C10.63,6 10.97,7.43 11,8C11,10 12.6,13 17,13C17.33,13 19,13.15 19,16C19,17.89 15.03,18 15,18M8.5,8A1.5,1.5 0 0,0 7,9.5A1.5,1.5 0 0,0 8.5,11A1.5,1.5 0 0,0 10,9.5A1.5,1.5 0 0,0 8.5,8M11,12A1,1 0 0,0 10,13A1,1 0 0,0 11,14A1,1 0 0,0 12,13A1,1 0 0,0 11,12M15.5,14A1.5,1.5 0 0,0 14,15.5A1.5,1.5 0 0,0 15.5,17A1.5,1.5 0 0,0 17,15.5A1.5,1.5 0 0,0 15.5,14Z"
     id="path1" />
</svg>
