<?xml version="1.0" encoding="UTF-8" standalone="no"?>
<svg
   id="mdi-badminton"
   viewBox="0 0 24 24"
   version="1.1"
   sodipodi:docname="badminton-color.svg"
   inkscape:version="1.4 (e7c3feb1, 2024-10-09)"
   xmlns:inkscape="http://www.inkscape.org/namespaces/inkscape"
   xmlns:sodipodi="http://sodipodi.sourceforge.net/DTD/sodipodi-0.dtd"
   xmlns="http://www.w3.org/2000/svg"
   xmlns:svg="http://www.w3.org/2000/svg">
  <defs
     id="defs1" />
  <sodipodi:namedview
     id="namedview1"
     pagecolor="#ffffff"
     bordercolor="#000000"
     borderopacity="0.25"
     inkscape:showpageshadow="2"
     inkscape:pageopacity="0.0"
     inkscape:pagecheckerboard="0"
     inkscape:deskcolor="#d1d1d1"
     inkscape:zoom="10.64"
     inkscape:cx="12.030075"
     inkscape:cy="11.889098"
     inkscape:window-width="1432"
     inkscape:window-height="742"
     inkscape:window-x="0"
     inkscape:window-y="38"
     inkscape:window-maximized="0"
     inkscape:current-layer="mdi-badminton" />
  <path
     d="m 20.28,16.04 -4.24,4.24 0.85,0.85 c 0.76,0.75 1.86,1.04 2.89,0.77 1.03,-0.28 1.84,-1.09 2.12,-2.12 0.27,-1.03 -0.02,-2.13 -0.77,-2.89 z"
     id="path5"
     style="fill:#d40000" />
  <path
     id="path4"
     d="M 12.300781 2 C 11.330781 2.03 10.579375 2.8407813 10.609375 3.8007812 C 10.619375 4.0407813 10.669531 4.27 10.769531 4.5 L 11.060547 5.140625 C 11.100547 5.270625 11.030625 5.4092187 10.890625 5.4492188 C 10.800625 5.4992187 10.700859 5.4491406 10.630859 5.3691406 L 10.210938 4.8203125 C 9.8809375 4.4003125 9.3796094 4.1408594 8.8496094 4.1308594 C 7.8796094 4.1108594 7.0805469 4.8798438 7.0605469 5.8398438 C 7.0505469 6.2598437 7.1892188 6.66 7.4492188 7 L 7.8691406 7.5 L 7.8808594 7.5 C 7.9608594 7.63 7.9303125 7.7891406 7.8203125 7.8691406 C 7.7303125 7.9391406 7.6092969 7.9391406 7.5292969 7.8691406 L 7 7.4492188 C 6.66 7.1892188 6.2498438 7.0505469 5.8398438 7.0605469 C 4.8798438 7.0805469 4.1108594 7.8796094 4.1308594 8.8496094 C 4.1408594 9.3796094 4.4003125 9.8809375 4.8203125 10.210938 L 5.390625 10.650391 C 5.500625 10.750391 5.5008594 10.91 5.3808594 11 C 5.3108594 11.07 5.2091406 11.090781 5.1191406 11.050781 L 5.109375 11.050781 L 4.5 10.769531 C 4.27 10.679531 4.0407813 10.619375 3.8007812 10.609375 C 2.8407813 10.579375 2.03 11.340547 2 12.310547 C 2 13.030547 2.4005469 13.690703 3.0605469 13.970703 L 14.449219 19.039062 L 19.039062 14.449219 L 13.970703 3.0605469 C 13.690703 2.3905469 13.000781 1.97 12.300781 2 z M 13.130859 6.0996094 C 13.550859 6.0896094 13.929844 6.3309375 14.089844 6.7109375 L 17.140625 13.550781 L 13.189453 9.609375 L 12.259766 7.5 C 11.959766 6.87 12.420859 6.1196094 13.130859 6.0996094 z M 9.8496094 8.8496094 C 10.119609 8.8496094 10.370547 8.9503906 10.560547 9.1503906 L 15.369141 13.960938 C 15.769141 14.340938 15.780391 14.969141 15.400391 15.369141 C 15.000391 15.769141 14.380937 15.779141 13.960938 15.369141 L 9.1503906 10.560547 C 8.7503906 10.180547 8.7408594 9.5403906 9.1308594 9.1503906 C 9.3208594 8.9503906 9.5796094 8.8496094 9.8496094 8.8496094 z M 7.1308594 12.169922 C 7.2608594 12.169922 7.4 12.209766 7.5 12.259766 L 9.6308594 13.199219 L 13.570312 17.140625 L 6.7109375 14.089844 C 5.6909375 13.649844 6.0308594 12.139922 7.1308594 12.169922 z "
     style="fill:#f9f9f9" />
</svg>
