<?xml version="1.0" encoding="UTF-8" standalone="no"?>
<svg
   id="mdi-baseball-diamond"
   viewBox="0 0 24 24"
   version="1.1"
   sodipodi:docname="baseball-diamond-color.svg"
   inkscape:version="1.4 (e7c3feb1, 2024-10-09)"
   xmlns:inkscape="http://www.inkscape.org/namespaces/inkscape"
   xmlns:sodipodi="http://sodipodi.sourceforge.net/DTD/sodipodi-0.dtd"
   xmlns="http://www.w3.org/2000/svg"
   xmlns:svg="http://www.w3.org/2000/svg">
  <defs
     id="defs1" />
  <sodipodi:namedview
     id="namedview1"
     pagecolor="#ffffff"
     bordercolor="#000000"
     borderopacity="0.25"
     inkscape:showpageshadow="2"
     inkscape:pageopacity="0.0"
     inkscape:pagecheckerboard="0"
     inkscape:deskcolor="#d1d1d1"
     inkscape:zoom="13.1"
     inkscape:cx="11.870229"
     inkscape:cy="11.984733"
     inkscape:window-width="1384"
     inkscape:window-height="729"
     inkscape:window-x="0"
     inkscape:window-y="38"
     inkscape:window-maximized="0"
     inkscape:current-layer="mdi-baseball-diamond" />
  <path
     id="path4"
     d="M 12 9.4101562 L 7.2109375 14.210938 L 9.8007812 16.800781 C 10.400781 16.310781 11.16 16 12 16 C 12.84 16 13.599219 16.310781 14.199219 16.800781 L 16.789062 14.210938 L 12 9.4101562 z M 12 13 C 12.55 13 13 13.45 13 14 C 13 14.55 12.55 15 12 15 C 11.45 15 11 14.55 11 14 C 11 13.45 11.45 13 12 13 z "
     style="fill:#c87137" />
  <path
     d="m 13.5,18 h -3 v 2 l 1.5,1 1.5,-1 v -2"
     id="path2"
     style="fill:#f9f9f9" />
  <path
     d="M 5.79,12.79 2,9 C 2,9 6,3 12,3 18,3 22,9 22,9 L 18.21,12.79 12,6.59 5.79,12.79"
     id="path1"
     style="fill:#008000" />
</svg>
