<?xml version="1.0" encoding="UTF-8" standalone="no"?>
<svg
   id="mdi-basketball"
   viewBox="0 0 24 24"
   version="1.1"
   sodipodi:docname="basketball-color-alt.svg"
   inkscape:version="1.4 (e7c3feb1, 2024-10-09)"
   xmlns:inkscape="http://www.inkscape.org/namespaces/inkscape"
   xmlns:sodipodi="http://sodipodi.sourceforge.net/DTD/sodipodi-0.dtd"
   xmlns="http://www.w3.org/2000/svg"
   xmlns:svg="http://www.w3.org/2000/svg">
  <defs
     id="defs1" />
  <sodipodi:namedview
     id="namedview1"
     pagecolor="#ffffff"
     bordercolor="#000000"
     borderopacity="0.25"
     inkscape:showpageshadow="2"
     inkscape:pageopacity="0.0"
     inkscape:pagecheckerboard="0"
     inkscape:deskcolor="#d1d1d1"
     inkscape:zoom="13.102454"
     inkscape:cx="16.370979"
     inkscape:cy="16.867069"
     inkscape:window-width="1416"
     inkscape:window-height="659"
     inkscape:window-x="22"
     inkscape:window-y="60"
     inkscape:window-maximized="0"
     inkscape:current-layer="mdi-basketball" />
  <path
     id="path1-3"
     style="fill:#1a1a1a"
     d="m 12.042969,2 c -1.876465,4.26e-5 -3.6294351,0.5158103 -5.1308596,1.4121094 0.021167,-0.00251 0.043239,-0.00298 0.064453,-0.00391 l 0.00781,-0.00195 c 0.2324209,-0.00774 0.2402416,0.2288681 0.00781,0.2363281 h -0.00586 c -0.015042,5.7e-4 -0.029986,6.64e-5 -0.044922,0.00195 -0.020753,0.0028 -0.042551,0.00713 -0.0625,0.013672 -0.030797,0.00892 -0.060768,0.013834 -0.091797,0.021484 -0.029503,0.0085 -0.057043,0.022843 -0.085937,0.033203 -0.032108,0.013031 -0.065455,0.023936 -0.095703,0.041016 C 6.5696504,3.771217 6.534167,3.792168 6.5,3.8125 6.463033,3.834323 6.431386,3.8618637 6.3964844,3.8867188 c -0.043375,0.031237 -0.08764,0.062317 -0.1308594,0.09375 -0.026214,0.021846 -0.048342,0.046491 -0.076172,0.066406 -0.016347,0.01296 -0.034162,0.024524 -0.050781,0.037109 -0.00426,0.00481 -0.00718,0.010471 -0.011719,0.015625 -0.028545,0.034873 -0.058751,0.067084 -0.089844,0.099609 -0.016359,0.018979 -0.036132,0.035946 -0.052734,0.054687 -0.026569,0.027361 -0.057669,0.04481 -0.09375,0.056641 -0.014711,0.00441 -0.02972,0.00648 -0.044922,0.00781 0.01127,0.011817 0.022368,0.024774 0.035156,0.035156 0.1805428,0.1465675 0.011571,0.316151 -0.1660156,0.1660156 -0.027228,-0.023019 -0.05124,-0.050502 -0.076172,-0.076172 -0.00214,-0.00244 -0.00373,-0.00535 -0.00586,-0.00781 0.018177,0.055528 0.017145,0.094941 -0.064453,0.060547 -0.023937,-0.01009 -0.047192,-0.023183 -0.064453,-0.042969 -0.00265,-0.00315 -0.00743,-0.00921 -0.011719,-0.015625 -0.3710195,0.3203103 -0.7202476,0.6665237 -1.0410156,1.0371094 0.00135,0.00384 0.00274,0.00776 0.00391,0.011719 0.00498,0.018258 0.00673,0.035872 0.00781,0.054687 -5.5e-4,0.022945 1.996e-4,0.030712 0.00195,0.039063 6.069e-4,0.00457 9.246e-4,0.00908 0.00195,0.013672 0.01339,-0.015521 0.02558,-0.033561 0.039063,-0.048828 l 5.7207022,6.5957032 -1.4531241,1.699219 c -0.93,-0.83 -1.8698438,-1.256094 -3.0898437,-1.496094 -1.22,-0.23 -2.4364063,0.170779 -3.5664063,0.550781 -0.018357,-0.134617 -0.033279,-0.259036 -0.044922,-0.429687 -0.015575,0.03158 -0.035332,0.05752 -0.056641,0.07813 0.036625,0.746672 0.1568531,1.47106 0.3476562,2.166015 0.00886,-0.0077 0.017989,-0.01432 0.029297,-0.01758 0.0028,-8.09e-4 0.00509,-0.0013 0.00781,-0.002 -0.00143,-0.0049 -0.00247,-0.0088 -0.00391,-0.01367 0.6,-0.22 1.2208591,-0.330078 1.8808594,-0.330078 1.3399998,0 1.9453124,0.419766 2.9453124,1.259766 l -2.9511718,2.292969 c -0.2929751,-0.33167 -0.5302218,-0.609928 -0.734375,-0.873047 0.024464,0.04409 0.050134,0.08775 0.076172,0.130859 0.069426,0.112733 0.1461052,0.220635 0.2285157,0.324219 0.031692,0.0161 0.061878,0.0494 0.082031,0.101562 0.079404,0.09643 0.1569168,0.194272 0.2382813,0.289063 0.026048,0.0277 0.05224,0.05431 0.080078,0.08008 0.027051,0.03752 0.04931,0.07645 0.0625,0.121094 0.011722,0.04047 0.020213,0.08223 0.037109,0.121093 0.011605,0.03536 0.026003,0.0695 0.044922,0.101563 0.017285,0.02309 0.03698,0.0453 0.056641,0.06641 0.011809,-0.01707 0.023947,-0.03325 0.035156,-0.05078 0.1252807,-0.195914 0.3243871,-0.06258 0.1953125,0.130859 -0.014041,0.02105 -0.028714,0.04159 -0.042969,0.0625 0.00417,0.01414 0.00723,0.02835 0.00781,0.04297 6.25e-4,0.01569 -0.00947,0.04408 -0.019531,0.06055 -0.00373,0.0061 -0.010401,0.01676 -0.011719,0.01758 -0.00898,0.01834 -0.01969,0.0354 -0.033203,0.05078 l -0.00195,0.002 c -0.00444,0.0074 -0.01035,0.01332 -0.015625,0.01953 -0.00116,0.0014 -0.00272,0.0026 -0.00391,0.0039 -9.261e-4,10e-4 -0.00101,0.0029 -0.00195,0.0039 0.021951,-0.02635 0.00823,-0.0034 -0.00391,0.01563 0.3257824,0.36544 0.6771847,0.708864 1.0527344,1.023438 0.013145,-0.0082 0.014041,-0.0078 0.03125,-0.01563 0.02202,-0.0095 0.00776,3.52e-4 0.033203,-0.01758 0.032445,-0.02121 0.067565,-0.03662 0.1035156,-0.05078 0.014558,-0.0096 0.029661,-0.01689 0.044922,-0.02539 0.021738,-0.01369 0.046013,-0.02325 0.070312,-0.03125 0.017452,-0.0055 0.034645,-0.0078 0.052734,-0.0098 l 2.796875,-2.4375 c 0.4212216,1.264443 0.7947023,3.165672 0.5641798,4.478342 0.1420741,-0.05801 1.3270886,0.255528 1.7429886,0.322317 1.509743,-1.463936 2.007872,-0.43213 0.21625,-2.132699 0,-0.62 -0.139924,-1.349688 -0.419921,-2.179688 -0.28,-0.83 -0.608516,-1.509062 -0.9785161,-2.039062 l 2.3886721,-2.339844 5.041015,6.330078 c -0.871273,0.762866 -0.301119,0.969395 -1.292968,1.376953 1.478158,-0.588883 2.699768,-1.478123 3.646484,-2.582031 -0.187581,0.0608 -0.353167,-0.1278 -0.199219,-0.419922 0.06671,-0.12658 0.146366,-0.244449 0.228516,-0.361328 0.120211,-0.186597 0.248006,-0.369368 0.373047,-0.552734 0.08123,-0.118708 0.151372,-0.242755 0.226562,-0.365235 0.04629,-0.07955 0.08859,-0.16143 0.128907,-0.24414 0.06318,-0.132845 0.144359,-0.256253 0.21875,-0.382813 0.04103,-0.07696 0.08324,-0.151558 0.138671,-0.21875 -0.02059,0.01109 0.0094,-0.107012 0.0098,-0.109375 0.02649,-0.189904 0.09422,-0.370503 0.162109,-0.548828 0.04002,-0.103417 0.08539,-0.204529 0.132813,-0.304688 7.1e-4,-0.0019 0.0012,-0.0039 0.002,-0.0059 0.01859,-0.05071 0.0372,-0.102574 0.05859,-0.152344 0.03827,-0.09901 0.0703,-0.200108 0.109375,-0.298828 0.0438,-0.136368 0.09295,-0.271202 0.140625,-0.40625 0.06315,-0.186717 0.129036,-0.371599 0.191406,-0.558593 0.0074,-0.02205 0.01415,-0.04436 0.02148,-0.06641 -0.0087,-0.03657 -0.01841,-0.07238 -0.02539,-0.109375 -0.01773,-0.09314 -0.0245,-0.18672 -0.0293,-0.28125 -0.0033,-0.07205 -0.0049,-0.144677 -0.0059,-0.216797 -0.0029,-0.079 0.01696,-0.156875 0.0293,-0.234375 0.0086,-0.06847 0.03093,-0.133729 0.04492,-0.201172 0.0092,-0.05984 0.0244,-0.118811 0.04492,-0.175781 0.009,-0.02503 0.01067,-0.04989 0.01367,-0.07617 0.0017,-0.05498 0.02716,-0.10499 0.04297,-0.15625 0.0036,-0.0227 0.0063,-0.04537 0.0078,-0.06836 -4.4e-4,-0.05381 0.0049,-0.105093 0.01367,-0.158203 -0.0047,0.01077 0.04148,-0.111054 0.03125,-0.08594 0.0024,-0.01361 0.003,-0.02915 0.0039,-0.04297 0.06477,-0.161733 0.121246,-0.269694 0.169922,-0.339844 -0.05046,-0.867332 -0.210635,-1.6997215 -0.46289,-2.4863283 -0.05418,0.093716 -0.135484,0.136625 -0.212891,0.1269531 0.03057,0.1032032 0.05982,0.1950967 0.0918,0.3027343 -0.6,0.2100002 -0.845859,0.035156 -1.505859,0.035156 -1.09,0 -2.138672,0.1990625 -3.138672,-0.4609375 l 2.90039,-2.8632812 C 19.559581,5.7283427 19.791594,5.8892684 19.8906,5.8514744 19.569385,5.460317 18.980184,4.8411171 18.601537,4.5057713 c -0.0013,0.00134 -0.236981,0.2838262 -0.238281,0.2851562 -0.08327,0.078595 0.122893,-0.1813552 0.01563,-0.1445312 -0.11744,0.04808 -0.233834,0.09779 -0.355468,0.1347656 -0.02782,0.00846 -0.05493,0.015385 -0.08008,0.019531 L 15.664041,7.2577242 C 14.407384,5.7103452 14.22124,4.568109 14.796854,2.8319429 c -0.0053,-0.00332 -0.01027,-0.00631 -0.01563,-0.00977 -0.05751,-0.049963 -0.09034,-0.113917 -0.107422,-0.1875 -0.0074,-0.033339 -0.01002,-0.06757 -0.01172,-0.1015625 0.01104,-0.044225 0.01539,-0.090854 0.0332,-0.1328125 0.0071,-0.016705 0.01781,-0.031162 0.0293,-0.044922 C 13.874285,2.1264709 12.976239,2.0000212 12.042969,2 Z m 0.07031,0.041016 c 0.352461,0.00408 0.382344,0.025703 0.746094,0.064453 -0.22,0.66 -0.566406,1.3801562 -0.566406,2.1601562 0,0.72 0.298907,1.7169532 0.628906,2.6269531 0.330001,0.9000001 0.47656,1.2922656 0.976563,1.8222657 L 12.246094,10.636719 6.2148438,4.4003906 C 8.1135936,2.7378905 9.6460572,2.0124413 12.113281,2.0410156 Z m 3.746094,1.0878906 c 0.212361,0.2000382 0.444608,0.4127783 0.769531,0.5996094 0.60096,0.3423187 0.848327,0.4420442 1.152344,0.6582032 0.03624,-0.023039 0.07876,-0.043893 0.128906,-0.060547 0.02803,-0.00931 0.05636,-0.018676 0.08398,-0.029297 -0.01549,-0.00825 -0.02898,-0.011141 -0.04492,-0.021484 C 17.853478,4.2132439 17.768871,4.135867 17.681641,4.0625 17.557754,3.9539501 17.435896,3.8436838 17.314453,3.7324219 17.224796,3.6494429 17.127226,3.5762078 17.035156,3.4960938 c -0.03817,-0.0311 -0.08399,-0.050765 -0.126953,-0.074219 -0.02514,-0.017758 -0.04551,-0.027031 -0.07227,-0.037109 0.02349,0.00637 -0.02299,0.00208 -0.02539,0.00195 -0.07618,0.00198 -0.146927,-0.021683 -0.216797,-0.048828 -0.05815,-0.025523 -0.116205,-0.051262 -0.171875,-0.082031 -9.75e-4,-0.0019 -0.07144,-0.038786 -0.0918,-0.048828 v 0.00195 c -0.101295,-0.00528 -0.202544,-0.028132 -0.302734,-0.044922 -0.05623,-0.011858 -0.111873,-0.023752 -0.167969,-0.035156 z M 4.2265625,5.8320312 c -0.00127,0.029456 -0.00706,0.055217 -0.015625,0.076172 0.013123,-0.017125 0.027818,-0.031863 0.041016,-0.048828 -0.00833,-0.00925 -0.01691,-0.017943 -0.025391,-0.027344 z M 15.617188,9.8457031 c 1.969999,1.4699999 4.005156,2.0644529 6.285156,1.3144529 0.03,0.21 -1.021485,0.354766 -1.021485,0.884766 0,1.03 -0.531953,1.991719 -1.001953,3.261719 -0.47,1.26 -0.296562,1.528828 -0.976562,2.298828 l -5.625,-5.371094 z M 2.2792969,10.242188 c -0.031477,0.04797 -0.064065,0.09535 -0.09375,0.144531 -0.01691,0.08164 -0.031321,0.163866 -0.044922,0.246093 -0.010915,0.06053 -0.018392,0.120829 -0.025391,0.181641 v 0.02344 0.193359 c 0.0069,-1.62e-4 0.01301,6.29e-4 0.019531,0.002 0.036068,-0.257643 0.082723,-0.520538 0.1445313,-0.791015 z m 18.1503911,7.080078 c -0.08642,0.126724 -0.172686,0.253216 -0.257813,0.380859 0.08816,-0.125455 0.17601,-0.251001 0.257813,-0.380859 z M 8.0429688,21.15625 c -0.00271,0.0031 -0.00501,0.0067 -0.00781,0.0098 0.00385,-5.48e-4 0.00798,-0.0014 0.011719,-0.002 -0.00114,-0.0027 -0.00277,-0.0051 -0.00391,-0.0078 z m 6.5488282,0.583984 c -0.09691,0.02474 -0.195373,0.04263 -0.292969,0.06445 -6.26e-4,0.0022 -0.0028,0.0041 -0.0039,0.0059 0.09951,-0.02211 0.198226,-0.04455 0.296875,-0.07031 z"
     sodipodi:nodetypes="ccccccccccccccccccccccsccscccccccccccccccsccscccccccccccccccsscccccccccccccccccsscccccscccccccccccccccccccccccccccccccsccccccscccccccccccsccccccsccsccccccccccccccsccccccsccccccccccccccccccccccccc" />
  <path
     d="M2.34,14.63C2.94,14.41 3.56,14.3 4.22,14.3C5.56,14.3 6.73,14.72 7.73,15.56L4.59,18.7C3.53,17.5 2.78,16.13 2.34,14.63M15.56,9.8C17.53,11.27 19.66,11.63 21.94,10.88C21.97,11.09 22,11.47 22,12C22,13.03 21.75,14.18 21.28,15.45C20.81,16.71 20.23,17.73 19.55,18.5L13.22,12.19L15.56,9.8M8.77,16.64C9.83,18.17 10.05,19.84 9.42,21.66C8,21.25 6.73,20.61 5.67,19.73L8.77,16.64M12.19,13.22L18.5,19.55C16.33,21.45 13.78,22.25 10.88,21.94C11.09,21.28 11.2,20.56 11.2,19.78C11.2,19.16 11.06,18.43 10.78,17.6C10.5,16.77 10.17,16.09 9.8,15.56L12.19,13.22M8.81,14.5C7.88,13.67 6.8,13.15 5.58,12.91C4.36,12.68 3.19,12.75 2.06,13.13C2.03,12.91 2,12.53 2,12C2,10.97 2.25,9.82 2.72,8.55C3.19,7.29 3.77,6.27 4.45,5.5L11.11,12.19L8.81,14.5M15.56,7.73C14.22,6.08 13.91,4.28 14.63,2.34C15.25,2.5 15.96,2.8 16.76,3.26C17.55,3.71 18.2,4.16 18.7,4.59L15.56,7.73M21.66,9.38C21.06,9.59 20.44,9.7 19.78,9.7C18.69,9.7 17.64,9.38 16.64,8.72L19.73,5.67C20.61,6.77 21.25,8 21.66,9.38M12.19,11.11L5.5,4.45C7.67,2.55 10.22,1.75 13.13,2.06C12.91,2.72 12.8,3.44 12.8,4.22C12.8,4.94 12.96,5.75 13.29,6.66C13.62,7.56 14,8.28 14.5,8.81L12.19,11.11Z"
     id="path1"
     style="fill:#ff6600" />
</svg>
