<?xml version="1.0" encoding="UTF-8" standalone="no"?>
<svg
   id="mdi-battery-10-bluetooth"
   viewBox="0 0 24 24"
   version="1.1"
   sodipodi:docname="battery-10-bluetooth-color.svg"
   inkscape:version="1.4 (e7c3feb1, 2024-10-09)"
   xmlns:inkscape="http://www.inkscape.org/namespaces/inkscape"
   xmlns:sodipodi="http://sodipodi.sourceforge.net/DTD/sodipodi-0.dtd"
   xmlns="http://www.w3.org/2000/svg"
   xmlns:svg="http://www.w3.org/2000/svg">
  <defs
     id="defs1" />
  <sodipodi:namedview
     id="namedview1"
     pagecolor="#ffffff"
     bordercolor="#000000"
     borderopacity="0.25"
     inkscape:showpageshadow="2"
     inkscape:pageopacity="0.0"
     inkscape:pagecheckerboard="0"
     inkscape:deskcolor="#d1d1d1"
     inkscape:zoom="21.28"
     inkscape:cx="11.865602"
     inkscape:cy="12.030075"
     inkscape:window-width="1320"
     inkscape:window-height="707"
     inkscape:window-x="149"
     inkscape:window-y="123"
     inkscape:window-maximized="0"
     inkscape:current-layer="mdi-battery-10-bluetooth" />
  <path
     d="m 19,8 v 3.79 L 16.71,9.5 16,10.21 18.79,13 16,15.79 16.71,16.5 19,14.21 V 18 h 0.5 L 22.35,15.14 20.21,13 22.35,10.85 19.5,8 H 19"
     id="path3" />
  <path
     d="M 5,2 V 4 H 3.33 A 1.33,1.33 0 0 0 2,5.33 V 20.67 C 2,21.4 2.6,22 3.33,22 h 9.34 C 13.4,22 14,21.4 14,20.67 V 5.33 A 1.33,1.33 0 0 0 12.67,4 H 11 V 2 H 5"
     id="path1"
     style="fill:#ff0000" />
  <path
     d="M 12.013168,20 H 4.0131575 V 6 h 8.0000105 m 0.67,-2 h -1.67 V 2 H 5.0131575 v 2 h -1.67 a 1.33,1.33 0 0 0 -1.33,1.33 v 15.34 c 0,0.73 0.6,1.33 1.33,1.33 h 9.3400105 a 1.33,1.33 0 0 0 1.33,-1.33 V 5.33 c 0,-0.73 -0.6,-1.33 -1.33,-1.33 z"
     id="path1-8" />
  <path
     d="m 4,6 h 8 V 18 H 4 V 6"
     id="path2"
     style="fill:#f9f9f9" />
  <path
     d="M 20,9.91 20.94,10.85 20,11.79 V 9.91"
     id="path4"
     style="fill:#f9f9f9" />
  <path
     d="M 20,14.21 20.94,15.14 20,16.08 Z"
     id="path5"
     style="fill:#f9f9f9" />
</svg>
