<?xml version="1.0" encoding="UTF-8" standalone="no"?>
<svg
   id="mdi-battery-charging-wireless-40"
   viewBox="0 0 24 24"
   version="1.1"
   sodipodi:docname="battery-charging-wireless-40-color.svg"
   inkscape:version="1.4 (e7c3feb1, 2024-10-09)"
   xmlns:inkscape="http://www.inkscape.org/namespaces/inkscape"
   xmlns:sodipodi="http://sodipodi.sourceforge.net/DTD/sodipodi-0.dtd"
   xmlns="http://www.w3.org/2000/svg"
   xmlns:svg="http://www.w3.org/2000/svg">
  <defs
     id="defs1" />
  <sodipodi:namedview
     id="namedview1"
     pagecolor="#ffffff"
     bordercolor="#000000"
     borderopacity="0.25"
     inkscape:showpageshadow="2"
     inkscape:pageopacity="0.0"
     inkscape:pagecheckerboard="0"
     inkscape:deskcolor="#d1d1d1"
     inkscape:zoom="17.29"
     inkscape:cx="11.885483"
     inkscape:cy="11.885483"
     inkscape:window-width="1320"
     inkscape:window-height="624"
     inkscape:window-x="0"
     inkscape:window-y="38"
     inkscape:window-maximized="0"
     inkscape:current-layer="mdi-battery-charging-wireless-40" />
  <path
     d="M 13,4 H 11 V 2 H 5 V 4 L 3.6940428,4.6940428 C 3.2063506,4.9532238 1.9978564,4.4477194 2,5 l 0.057837,14.901099 C 2.0599805,20.453379 2.4477153,22 3,22 h 10 c 0.552285,0 1,-2.182822 1,-2.735107 V 5 C 14,4.4477153 12.511221,4.4626952 11.958936,4.4626952"
     id="path3"
     style="fill:#ffbf00;fill-opacity:1"
     sodipodi:nodetypes="cccccsssssssc" />
  <path
     d="m 17.24,7.76 -1.41,1.41 c 1.56,1.56 1.56,4.09 0,5.66 l 1.41,1.41 c 2.34,-2.34 2.34,-6.14 0,-8.48"
     id="path2" />
  <path
     d="m 20.07,4.93 -1.41,1.41 c 3.13,3.12 3.13,8.19 0,11.32 l 1.41,1.41 c 3.9,-3.9 3.9,-10.23 0,-14.14"
     id="path1" />
  <path
     d="M 12,14.5 H 4 V 6 h 8 z"
     id="path4"
     style="fill:#f9f9f9" />
  <path
     d="M 12,19.964909 H 4 V 5.9649123 h 8 m 0.67,-2 H 11 v -2 H 5 v 2 H 3.33 a 1.33,1.33 0 0 0 -1.33,1.33 V 20.634909 c 0,0.73 0.6,1.33 1.33,1.33 h 9.34 a 1.33,1.33 0 0 0 1.33,-1.33 V 5.2949123 c 0,-0.73 -0.6,-1.33 -1.33,-1.33 z"
     id="path1-3" />
</svg>
