<?xml version="1.0" encoding="UTF-8" standalone="no"?>
<svg
   id="mdi-battery-60"
   viewBox="0 0 24 24"
   version="1.1"
   sodipodi:docname="battery-60-color.svg"
   inkscape:version="1.4 (e7c3feb1, 2024-10-09)"
   xmlns:inkscape="http://www.inkscape.org/namespaces/inkscape"
   xmlns:sodipodi="http://sodipodi.sourceforge.net/DTD/sodipodi-0.dtd"
   xmlns="http://www.w3.org/2000/svg"
   xmlns:svg="http://www.w3.org/2000/svg">
  <defs
     id="defs1" />
  <sodipodi:namedview
     id="namedview1"
     pagecolor="#ffffff"
     bordercolor="#000000"
     borderopacity="0.25"
     inkscape:showpageshadow="2"
     inkscape:pageopacity="0.0"
     inkscape:pagecheckerboard="0"
     inkscape:deskcolor="#d1d1d1"
     inkscape:zoom="18.52"
     inkscape:cx="12.041037"
     inkscape:cy="12.041037"
     inkscape:window-width="1384"
     inkscape:window-height="609"
     inkscape:window-x="0"
     inkscape:window-y="38"
     inkscape:window-maximized="0"
     inkscape:current-layer="mdi-battery-60" />
  <path
     d="M16,12H8V6H16M16.67,4H15V2H9V4H7.33A1.33,1.33 0 0,0 6,5.33V20.67C6,21.4 6.6,22 7.33,22H16.67A1.33,1.33 0 0,0 18,20.67V5.33C18,4.6 17.4,4 16.67,4Z"
     id="path1"
     style="fill:#ccff00;fill-opacity:1" />
  <path
     d="M 15.971928,19.971928 H 7.9719226 V 5.9719226 h 8.0000054 m 0.67,-2 h -1.67 v -2 H 8.9719226 v 2 h -1.67 a 1.33,1.33 0 0 0 -1.33,1.33 V 20.641928 c 0,0.73 0.6,1.33 1.33,1.33 h 9.3400054 a 1.33,1.33 0 0 0 1.33,-1.33 V 5.3019226 c 0,-0.73 -0.6,-1.33 -1.33,-1.33 z"
     id="path1-4"
     style="fill:#1a1a1a" />
</svg>
