<?xml version="1.0" encoding="UTF-8" standalone="no"?>
<svg
   id="mdi-battery-70"
   viewBox="0 0 24 24"
   version="1.1"
   sodipodi:docname="battery-70-color.svg"
   inkscape:version="1.4 (e7c3feb1, 2024-10-09)"
   xmlns:inkscape="http://www.inkscape.org/namespaces/inkscape"
   xmlns:sodipodi="http://sodipodi.sourceforge.net/DTD/sodipodi-0.dtd"
   xmlns="http://www.w3.org/2000/svg"
   xmlns:svg="http://www.w3.org/2000/svg">
  <defs
     id="defs1" />
  <sodipodi:namedview
     id="namedview1"
     pagecolor="#ffffff"
     bordercolor="#000000"
     borderopacity="0.25"
     inkscape:showpageshadow="2"
     inkscape:pageopacity="0.0"
     inkscape:pagecheckerboard="0"
     inkscape:deskcolor="#d1d1d1"
     inkscape:zoom="12.22"
     inkscape:cx="12.02946"
     inkscape:cy="11.824877"
     inkscape:window-width="1360"
     inkscape:window-height="582"
     inkscape:window-x="0"
     inkscape:window-y="38"
     inkscape:window-maximized="0"
     inkscape:current-layer="mdi-battery-70" />
  <path
     d="M16,10H8V6H16M16.67,4H15V2H9V4H7.33A1.33,1.33 0 0,0 6,5.33V20.67C6,21.4 6.6,22 7.33,22H16.67A1.33,1.33 0 0,0 18,20.67V5.33C18,4.6 17.4,4 16.67,4Z"
     id="path1"
     style="fill:#66ff00;fill-opacity:1" />
  <path
     d="M 16,20.018004 H 8 V 6.0180028 h 8 m 0.67,-2 H 15 v -2 H 9 v 2 H 7.33 a 1.33,1.33 0 0 0 -1.33,1.33 V 20.688004 c 0,0.73 0.6,1.33 1.33,1.33 h 9.34 a 1.33,1.33 0 0 0 1.33,-1.33 V 5.3480028 c 0,-0.73 -0.6,-1.33 -1.33,-1.33 z"
     id="path1-4"
     style="fill:#1a1a1a" />
</svg>
