<?xml version="1.0" encoding="UTF-8" standalone="no"?>
<svg
   id="mdi-battery-charging-10"
   viewBox="0 0 24 24"
   version="1.1"
   sodipodi:docname="battery-charging-10-color.svg"
   inkscape:version="1.4 (e7c3feb1, 2024-10-09)"
   xmlns:inkscape="http://www.inkscape.org/namespaces/inkscape"
   xmlns:sodipodi="http://sodipodi.sourceforge.net/DTD/sodipodi-0.dtd"
   xmlns="http://www.w3.org/2000/svg"
   xmlns:svg="http://www.w3.org/2000/svg">
  <defs
     id="defs1" />
  <sodipodi:namedview
     id="namedview1"
     pagecolor="#ffffff"
     bordercolor="#000000"
     borderopacity="0.25"
     inkscape:showpageshadow="2"
     inkscape:pageopacity="0.0"
     inkscape:pagecheckerboard="0"
     inkscape:deskcolor="#d1d1d1"
     inkscape:zoom="15.04"
     inkscape:cx="12.034574"
     inkscape:cy="11.868351"
     inkscape:window-width="1104"
     inkscape:window-height="572"
     inkscape:window-x="367"
     inkscape:window-y="106"
     inkscape:window-maximized="0"
     inkscape:current-layer="mdi-battery-charging-10" />
  <path
     d="M 12.72,4 H 11.05 V 2 h -6 V 4 H 3.38 A 1.33,1.33 0 0 0 2.05,5.33 v 15.34 c 0,0.73 0.6,1.33 1.33,1.33 h 9.34 c 0.73,0 1.33,-0.6 1.33,-1.33 V 5.33 A 1.33,1.33 0 0 0 12.72,4 Z"
     id="path3"
     style="fill:#ff0000" />
  <path
     d="M 12,18 H 4 L 4.05,6 h 8"
     id="path2"
     style="fill:#ffffff" />
  <path
     d="m 23.05,11 h -3 V 4 l -5,10 h 3 v 8"
     id="path1" />
  <path
     d="M 12.063831,19.997342 H 4.0638297 V 5.9973403 h 8.0000013 m 0.67,-2 h -1.67 v -2 H 5.0638297 v 2 h -1.67 a 1.33,1.33 0 0 0 -1.33,1.33 V 20.667342 c 0,0.73 0.6,1.33 1.33,1.33 h 9.3400013 a 1.33,1.33 0 0 0 1.33,-1.33 V 5.3273403 c 0,-0.73 -0.6,-1.33 -1.33,-1.33 z"
     id="path1-7" />
</svg>
