<?xml version="1.0" encoding="UTF-8" standalone="no"?>
<svg
   id="mdi-battery-charging-wireless-10"
   viewBox="0 0 24 24"
   version="1.1"
   sodipodi:docname="battery-charging-wireless-10-color.svg"
   inkscape:version="1.4 (e7c3feb1, 2024-10-09)"
   xmlns:inkscape="http://www.inkscape.org/namespaces/inkscape"
   xmlns:sodipodi="http://sodipodi.sourceforge.net/DTD/sodipodi-0.dtd"
   xmlns="http://www.w3.org/2000/svg"
   xmlns:svg="http://www.w3.org/2000/svg">
  <defs
     id="defs1" />
  <sodipodi:namedview
     id="namedview1"
     pagecolor="#ffffff"
     bordercolor="#000000"
     borderopacity="0.25"
     inkscape:showpageshadow="2"
     inkscape:pageopacity="0.0"
     inkscape:pagecheckerboard="0"
     inkscape:deskcolor="#d1d1d1"
     inkscape:zoom="24.35"
     inkscape:cx="11.848049"
     inkscape:cy="12.073922"
     inkscape:window-width="1392"
     inkscape:window-height="789"
     inkscape:window-x="36"
     inkscape:window-y="38"
     inkscape:window-maximized="0"
     inkscape:current-layer="mdi-battery-charging-wireless-10" />
  <path
     d="M 13,4 H 11 V 2 H 5 V 4 H 4.3963039 C 3.8440192,4 2,4.4477153 2,5 V 19.932238 C 2,20.484523 3.3922738,22 3.9445585,22 h 7.7823405 c 0.552285,0 2.230493,-1.720818 2.232033,-2.273101 L 14,5 C 14.00154,4.4477174 12.607726,4 12.055441,4"
     id="path3"
     style="fill:#ff0000;fill-opacity:1"
     sodipodi:nodetypes="cccccsssssssc" />
  <path
     d="m 17.24,7.76 -1.41,1.41 c 1.56,1.56 1.56,4.09 0,5.66 l 1.41,1.41 c 2.34,-2.34 2.34,-6.14 0,-8.48"
     id="path2" />
  <path
     d="m 20.07,4.93 -1.41,1.41 c 3.13,3.12 3.13,8.19 0,11.32 l 1.41,1.41 c 3.9,-3.9 3.9,-10.23 0,-14.14"
     id="path1" />
  <path
     d="M 12,18.5 H 4 V 6 h 8 z"
     id="path4"
     style="fill:#f9f9f9" />
  <g
     inkscape:groupmode="layer"
     id="layer1"
     inkscape:label="Layer 1"
     style="display:inline">
    <path
       d="M 12,20.024644 H 4 V 6.0246486 h 8 m 0.67,-2 H 11 V 2.0246482 H 5 V 4.0246486 H 3.33 a 1.33,1.33 0 0 0 -1.33,1.33 V 20.694644 c 0,0.73 0.6,1.33 1.33,1.33 h 9.34 a 1.33,1.33 0 0 0 1.33,-1.33 V 5.3546486 c 0,-0.73 -0.6,-1.33 -1.33,-1.33 z"
       id="path1-3" />
  </g>
</svg>
