<?xml version="1.0" encoding="UTF-8" standalone="no"?>
<svg
   id="mdi-battery-charging-wireless-80"
   viewBox="0 0 24 24"
   version="1.1"
   sodipodi:docname="battery-charging-wireless-80-color.svg"
   inkscape:version="1.4 (e7c3feb1, 2024-10-09)"
   xmlns:inkscape="http://www.inkscape.org/namespaces/inkscape"
   xmlns:sodipodi="http://sodipodi.sourceforge.net/DTD/sodipodi-0.dtd"
   xmlns="http://www.w3.org/2000/svg"
   xmlns:svg="http://www.w3.org/2000/svg">
  <defs
     id="defs1" />
  <sodipodi:namedview
     id="namedview1"
     pagecolor="#ffffff"
     bordercolor="#000000"
     borderopacity="0.25"
     inkscape:showpageshadow="2"
     inkscape:pageopacity="0.0"
     inkscape:pagecheckerboard="0"
     inkscape:deskcolor="#d1d1d1"
     inkscape:zoom="24.45"
     inkscape:cx="11.90184"
     inkscape:cy="11.840491"
     inkscape:window-width="1344"
     inkscape:window-height="758"
     inkscape:window-x="168"
     inkscape:window-y="152"
     inkscape:window-maximized="0"
     inkscape:current-layer="mdi-battery-charging-wireless-80"
     showguides="false" />
  <path
     id="path1"
     d="m 20.07,4.93 -1.41,1.41 c 3.13,3.12 3.13,8.19 0,11.32 l 1.41,1.41 c 3.9,-3.9 3.9,-10.23 0,-14.14 m -2.83,2.83 -1.41,1.41 c 1.56,1.56 1.56,4.09 0,5.66 l 1.41,1.41 c 2.34,-2.34 2.34,-6.14 0,-8.48"
     inkscape:label="Logo"
     style="display:inline" />
  <g
     id="g2">
    <rect
       style="fill:#66ff00;fill-opacity:1;fill-rule:evenodd;stroke-width:1.8643"
       id="rect10"
       width="8.2208586"
       height="11.124745"
       x="3.8854814"
       y="9.0388546"
       inkscape:label="Battery Fill" />
    <path
       d="M 12.003325,20 H 4.003322 V 6 h 8.000003 m 0.67,-2 h -1.67 V 2 H 5.003322 v 2 h -1.67 a 1.33,1.33 0 0 0 -1.33,1.33 v 15.34 c 0,0.73 0.6,1.33 1.33,1.33 h 9.340003 a 1.33,1.33 0 0 0 1.33,-1.33 V 5.33 c 0,-0.73 -0.6,-1.33 -1.33,-1.33 z"
       id="path1-4"
       style="display:inline;fill:#1a1a1a"
       inkscape:label="Battery Outline" />
  </g>
</svg>
