<?xml version="1.0" encoding="UTF-8" standalone="no"?>
<svg
   id="mdi-battery-10-bluetooth"
   viewBox="0 0 24 24"
   version="1.1"
   sodipodi:docname="battery-bluetooth-80-color.svg"
   inkscape:version="1.4 (e7c3feb1, 2024-10-09)"
   xmlns:inkscape="http://www.inkscape.org/namespaces/inkscape"
   xmlns:sodipodi="http://sodipodi.sourceforge.net/DTD/sodipodi-0.dtd"
   xmlns="http://www.w3.org/2000/svg"
   xmlns:svg="http://www.w3.org/2000/svg">
  <defs
     id="defs1" />
  <sodipodi:namedview
     id="namedview1"
     pagecolor="#ffffff"
     bordercolor="#000000"
     borderopacity="0.25"
     inkscape:showpageshadow="2"
     inkscape:pageopacity="0.0"
     inkscape:pagecheckerboard="0"
     inkscape:deskcolor="#d1d1d1"
     inkscape:zoom="21.28"
     inkscape:cx="11.912594"
     inkscape:cy="12.006579"
     inkscape:window-width="1192"
     inkscape:window-height="730"
     inkscape:window-x="388"
     inkscape:window-y="44"
     inkscape:window-maximized="0"
     inkscape:current-layer="g1" />
  <path
     id="path3"
     d="m 19,8 v 3.789062 L 16.710938,9.5 16,10.210938 18.789062,13 16,15.789062 16.710938,16.5 19,14.210938 V 18 h 0.5 L 22.349609,15.140625 20.210938,13 22.349609,10.849609 19.5,8 Z M 20,9.9101562 20.939453,10.849609 20,11.789062 Z m 0,4.3007818 0.939453,0.929687 L 20,16.080078 Z"
     inkscape:label="Logo" />
  <g
     id="g1"
     inkscape:label="Battery">
    <rect
       style="display:inline;fill:#66ff00;fill-opacity:1;fill-rule:evenodd;stroke-width:0.897782"
       id="rect1-6"
       width="8.4441881"
       height="11.162522"
       x="3.7314966"
       y="9.0225563"
       inkscape:label="Fill Level" />
    <path
       d="M 12.013164,20 H 4.0131623 V 6 h 8.0000017 m 0.67,-2 h -1.67 V 2 H 5.0131623 v 2 h -1.67 a 1.33,1.33 0 0 0 -1.33,1.33 v 15.34 c 0,0.73 0.6,1.33 1.33,1.33 h 9.3400017 a 1.33,1.33 0 0 0 1.33,-1.33 V 5.33 c 0,-0.73 -0.6,-1.33 -1.33,-1.33 z"
       id="path1-1-9"
       style="display:inline;fill:#1a1a1a"
       inkscape:label="Battery Outline" />
  </g>
</svg>
