<?xml version="1.0" encoding="UTF-8" standalone="no"?>
<svg
   id="mdi-battery-charging-wireless-30"
   viewBox="0 0 24 24"
   version="1.1"
   sodipodi:docname="battery-charging-wireless-30-color.svg"
   inkscape:version="1.4 (e7c3feb1, 2024-10-09)"
   xmlns:inkscape="http://www.inkscape.org/namespaces/inkscape"
   xmlns:sodipodi="http://sodipodi.sourceforge.net/DTD/sodipodi-0.dtd"
   xmlns="http://www.w3.org/2000/svg"
   xmlns:svg="http://www.w3.org/2000/svg">
  <defs
     id="defs1" />
  <sodipodi:namedview
     id="namedview1"
     pagecolor="#ffffff"
     bordercolor="#000000"
     borderopacity="0.25"
     inkscape:showpageshadow="2"
     inkscape:pageopacity="0.0"
     inkscape:pagecheckerboard="0"
     inkscape:deskcolor="#d1d1d1"
     inkscape:zoom="17.22"
     inkscape:cx="11.875726"
     inkscape:cy="11.875726"
     inkscape:window-width="1488"
     inkscape:window-height="606"
     inkscape:window-x="0"
     inkscape:window-y="38"
     inkscape:window-maximized="0"
     inkscape:current-layer="mdi-battery-charging-wireless-30" />
  <path
     d="M 13,4 10.593496,4.29036 11,2 H 5 L 5.8130081,4.4645761 4.6260163,4.174216 C 4.0895489,4.0429863 2,4.4477153 2,5 V 19.722416 C 2,20.274701 2.4477153,22 3,22 h 10 c 0.552285,0 0.879465,-1.841461 0.883856,-2.393728 L 14,5 c 0.0044,-0.5522672 -1.841443,-1 -2.393728,-1"
     id="path3"
     style="fill:#ff8000;fill-opacity:1"
     sodipodi:nodetypes="cccccsssssssc" />
  <path
     d="m 17.24,7.76 -1.41,1.41 c 1.56,1.56 1.56,4.09 0,5.66 l 1.41,1.41 c 2.34,-2.34 2.34,-6.14 0,-8.48"
     id="path2" />
  <path
     d="m 20.07,4.93 -1.41,1.41 c 3.13,3.12 3.13,8.19 0,11.32 l 1.41,1.41 c 3.9,-3.9 3.9,-10.23 0,-14.14"
     id="path1" />
  <path
     d="M 12,16 H 4 V 6 h 8 z"
     id="path4"
     style="fill:#f9f9f9" />
  <path
     d="M 12.01112,20.01112 H 4.011122 V 6.011122 h 7.999998 m 0.67,-2 h -1.67 v -2 H 5.011122 v 2 h -1.67 a 1.33,1.33 0 0 0 -1.33,1.33 V 20.68112 c 0,0.73 0.6,1.33 1.33,1.33 h 9.339998 a 1.33,1.33 0 0 0 1.33,-1.33 V 5.341122 c 0,-0.73 -0.6,-1.33 -1.33,-1.33 z"
     id="path1-4" />
</svg>
