<?xml version="1.0" encoding="UTF-8" standalone="no"?>
<svg
   id="mdi-battery-charging-40"
   viewBox="0 0 24 24"
   version="1.1"
   sodipodi:docname="battery-charging-40-color.svg"
   inkscape:version="1.4 (e7c3feb1, 2024-10-09)"
   xmlns:inkscape="http://www.inkscape.org/namespaces/inkscape"
   xmlns:sodipodi="http://sodipodi.sourceforge.net/DTD/sodipodi-0.dtd"
   xmlns="http://www.w3.org/2000/svg"
   xmlns:svg="http://www.w3.org/2000/svg">
  <defs
     id="defs1" />
  <sodipodi:namedview
     id="namedview1"
     pagecolor="#ffffff"
     bordercolor="#000000"
     borderopacity="0.25"
     inkscape:showpageshadow="2"
     inkscape:pageopacity="0.0"
     inkscape:pagecheckerboard="0"
     inkscape:deskcolor="#d1d1d1"
     inkscape:zoom="18.53"
     inkscape:cx="12.034539"
     inkscape:cy="12.034539"
     inkscape:window-width="1320"
     inkscape:window-height="613"
     inkscape:window-x="0"
     inkscape:window-y="38"
     inkscape:window-maximized="0"
     inkscape:current-layer="mdi-battery-charging-40" />
  <path
     d="M 23,11 H 20 V 4 l -5,10 h 3 v 8"
     id="path3" />
  <path
     d="M 13,4 H 11 V 2 H 5 V 4 L 4.1872639,4.8634647 C 3.776028,5.3003686 1.9933209,4.4000372 2,5 L 2.1618996,19.542903 C 2.1685787,20.142866 2.4,22 3,22 h 10 c 0.6,0 0.607265,-1.263651 0.622234,-1.863465 L 14,5 C 14.01497,4.4001868 12.574636,4.5936319 11.974636,4.5936319"
     id="path1"
     style="fill:#ffbf00;fill-opacity:1"
     sodipodi:nodetypes="cccccsssssssc" />
  <path
     d="M 12,14.5 H 4 V 6 h 8 v 8.5"
     id="path2"
     style="fill:#f9f9f9" />
  <path
     d="M 12,20 H 4 V 6 h 8 M 12.67,4 H 11 V 2 H 5 V 4 H 3.33 A 1.33,1.33 0 0 0 2,5.33 V 20.67 C 2,21.4 2.6,22 3.33,22 h 9.34 A 1.33,1.33 0 0 0 14,20.67 V 5.33 C 14,4.6 13.4,4 12.67,4 Z"
     id="path1-4" />
</svg>
