<?xml version="1.0" encoding="UTF-8" standalone="no"?>
<svg
   id="mdi-battery-charging-90"
   viewBox="0 0 24 24"
   version="1.1"
   sodipodi:docname="battery-charging-90-color.svg"
   inkscape:version="1.4 (e7c3feb1, 2024-10-09)"
   xmlns:inkscape="http://www.inkscape.org/namespaces/inkscape"
   xmlns:sodipodi="http://sodipodi.sourceforge.net/DTD/sodipodi-0.dtd"
   xmlns="http://www.w3.org/2000/svg"
   xmlns:svg="http://www.w3.org/2000/svg">
  <defs
     id="defs1" />
  <sodipodi:namedview
     id="namedview1"
     pagecolor="#ffffff"
     bordercolor="#000000"
     borderopacity="0.25"
     inkscape:showpageshadow="2"
     inkscape:pageopacity="0.0"
     inkscape:pagecheckerboard="0"
     inkscape:deskcolor="#d1d1d1"
     inkscape:zoom="13.1"
     inkscape:cx="11.984733"
     inkscape:cy="11.984733"
     inkscape:window-width="1400"
     inkscape:window-height="621"
     inkscape:window-x="0"
     inkscape:window-y="38"
     inkscape:window-maximized="0"
     inkscape:current-layer="mdi-battery-charging-90" />
  <path
     d="M 12.67,4 H 11 V 2 H 5 V 4 H 3.33 A 1.33,1.33 0 0 0 2,5.33 V 20.67 C 2,21.4 2.6,22 3.33,22 h 9.34 C 13.4,22 14,21.4 14,20.67 V 5.33 A 1.33,1.33 0 0 0 12.67,4 Z"
     id="path3"
     style="fill:#33ff00;fill-opacity:1" />
  <path
     d="M 12,8 H 4 V 6 h 8"
     id="path2"
     style="fill:#f9f9f9" />
  <path
     d="M 23,11 H 20 V 4 l -5,10 h 3 v 8"
     id="path1" />
  <path
     d="M 11.992368,20 H 3.9923667 V 6 h 8.0000013 m 0.67,-2 h -1.67 V 2 H 4.9923667 v 2 h -1.67 a 1.33,1.33 0 0 0 -1.33,1.33 v 15.34 c 0,0.73 0.6,1.33 1.33,1.33 h 9.3400013 a 1.33,1.33 0 0 0 1.33,-1.33 V 5.33 c 0,-0.73 -0.6,-1.33 -1.33,-1.33 z"
     id="path1-2"
     style="fill:#1a1a1a" />
</svg>
