<?xml version="1.0" encoding="UTF-8" standalone="no"?>
<svg
   id="mdi-battery-10"
   viewBox="0 0 24 24"
   version="1.1"
   sodipodi:docname="battery-10-color.svg"
   inkscape:version="1.4 (e7c3feb1, 2024-10-09)"
   xmlns:inkscape="http://www.inkscape.org/namespaces/inkscape"
   xmlns:sodipodi="http://sodipodi.sourceforge.net/DTD/sodipodi-0.dtd"
   xmlns="http://www.w3.org/2000/svg"
   xmlns:svg="http://www.w3.org/2000/svg">
  <defs
     id="defs1" />
  <sodipodi:namedview
     id="namedview1"
     pagecolor="#ffffff"
     bordercolor="#000000"
     borderopacity="0.25"
     inkscape:showpageshadow="2"
     inkscape:pageopacity="0.0"
     inkscape:pagecheckerboard="0"
     inkscape:deskcolor="#d1d1d1"
     inkscape:zoom="19.854942"
     inkscape:cx="12.037305"
     inkscape:cy="12.037305"
     inkscape:window-width="1104"
     inkscape:window-height="783"
     inkscape:window-x="165"
     inkscape:window-y="38"
     inkscape:window-maximized="0"
     inkscape:current-layer="mdi-battery-10" />
  <path
     d="M16,18H8V6H16M16.67,4H15V2H9V4H7.33A1.33,1.33 0 0,0 6,5.33V20.67C6,21.4 6.6,22 7.33,22H16.67A1.33,1.33 0 0,0 18,20.67V5.33C18,4.6 17.4,4 16.67,4Z"
     id="path1"
     style="fill:#ff0000" />
  <path
     d="M 16,20 H 8 V 6 h 8 M 16.67,4 H 15 V 2 H 9 V 4 H 7.33 A 1.33,1.33 0 0 0 6,5.33 V 20.67 C 6,21.4 6.6,22 7.33,22 h 9.34 A 1.33,1.33 0 0 0 18,20.67 V 5.33 C 18,4.6 17.4,4 16.67,4 Z"
     id="path1-9" />
</svg>
