<?xml version="1.0" encoding="UTF-8" standalone="no"?>
<svg
   id="mdi-beer-outline"
   viewBox="0 0 24 24"
   version="1.1"
   sodipodi:docname="beer-outline-color.svg"
   inkscape:version="1.4 (e7c3feb1, 2024-10-09)"
   xmlns:inkscape="http://www.inkscape.org/namespaces/inkscape"
   xmlns:sodipodi="http://sodipodi.sourceforge.net/DTD/sodipodi-0.dtd"
   xmlns="http://www.w3.org/2000/svg"
   xmlns:svg="http://www.w3.org/2000/svg">
  <defs
     id="defs1" />
  <sodipodi:namedview
     id="namedview1"
     pagecolor="#ffffff"
     bordercolor="#000000"
     borderopacity="0.25"
     inkscape:showpageshadow="2"
     inkscape:pageopacity="0.0"
     inkscape:pagecheckerboard="0"
     inkscape:deskcolor="#d1d1d1"
     inkscape:zoom="14.06"
     inkscape:cx="12.019915"
     inkscape:cy="11.913229"
     inkscape:window-width="1440"
     inkscape:window-height="816"
     inkscape:window-x="0"
     inkscape:window-y="38"
     inkscape:window-maximized="0"
     inkscape:current-layer="mdi-beer-outline" />
  <path
     style="fill:#ffdd55;stroke-width:0.153729;stroke-linejoin:bevel;stroke-miterlimit:1"
     d="M 7.4189989,20.256668 C 7.4024465,20.204044 7.141373,17.628998 6.8388358,14.534361 6.5362986,11.439715 6.281778,8.8398751 6.2732337,8.7569338 6.2501281,8.5326339 7.3778448,7.8509062 7.982551,7.7236164 8.6465156,7.5838528 8.8960456,7.6565784 9.5406847,8.1777429 10.24113,8.7440221 10.798971,9.0411871 11.585603,9.2670821 c 0.543404,0.1560469 0.775843,0.1761096 2.003888,0.1729629 1.149687,-0.00292 1.51456,-0.032557 2.116434,-0.171743 0.399989,-0.092502 0.745212,-0.1503689 0.767163,-0.1285958 0.03066,0.030421 -0.833335,8.9594038 -1.049792,10.8490298 l -0.04167,0.363622 h -3.966273 c -3.1055179,0 -3.9728062,-0.02073 -3.9963706,-0.09565 z"
     id="path2" />
  <path
     d="M4 2L6 22H17L19 2H4M6.2 4H16.8L16.5 7.23C13.18 8.5 11.85 7.67 11.38 7.31C11.13 7.12 10.77 6.69 10.11 6.39C9.45 6.08 8.55 6 7.5 6.32C7.09 6.43 6.77 6.61 6.5 6.79L6.2 4M8.86 8.11C9.05 8.11 9.16 8.15 9.27 8.2C9.5 8.3 9.71 8.55 10.17 8.9C11.03 9.56 13.03 10.36 16.26 9.41L15.2 20H7.8L6.71 9.06C6.76 9 6.91 8.89 7.17 8.71C7.5 8.5 7.91 8.28 8 8.25L8 8.25H8.03C8.41 8.14 8.67 8.1 8.86 8.11Z"
     id="path1" />
</svg>
