<?xml version="1.0" encoding="UTF-8" standalone="no"?>
<svg
   id="mdi-blender-software"
   viewBox="0 0 24 24"
   version="1.1"
   sodipodi:docname="blender-software-color.svg"
   xml:space="preserve"
   inkscape:version="1.4 (e7c3feb1, 2024-10-09)"
   xmlns:inkscape="http://www.inkscape.org/namespaces/inkscape"
   xmlns:sodipodi="http://sodipodi.sourceforge.net/DTD/sodipodi-0.dtd"
   xmlns="http://www.w3.org/2000/svg"
   xmlns:svg="http://www.w3.org/2000/svg"><defs
     id="defs1" /><sodipodi:namedview
     id="namedview1"
     pagecolor="#ffffff"
     bordercolor="#000000"
     borderopacity="0.25"
     inkscape:showpageshadow="2"
     inkscape:pageopacity="0.0"
     inkscape:pagecheckerboard="0"
     inkscape:deskcolor="#d1d1d1"
     inkscape:zoom="7.02"
     inkscape:cx="11.965812"
     inkscape:cy="11.965812"
     inkscape:window-width="1392"
     inkscape:window-height="775"
     inkscape:window-x="0"
     inkscape:window-y="38"
     inkscape:window-maximized="0"
     inkscape:current-layer="mdi-blender-software" /><path
     id="path2"
     d="M 12.580078 3.1191406 L 12.580078 3.1308594 C 12.270078 3.1308594 11.960937 3.220625 11.710938 3.390625 C 11.210938 3.740625 11.149609 4.3194531 11.599609 4.6894531 L 14.460938 7 L 5.7304688 7.0292969 L 5.7207031 7.0292969 C 5.0007031 7.0292969 4.3001562 7.4996094 4.1601562 8.0996094 C 4.0001562 8.7096094 4.4997656 9.2207031 5.2597656 9.2207031 L 9.6894531 9.2109375 L 1.7597656 15.300781 C 0.99976562 15.870781 0.77023438 16.819922 1.2402344 17.419922 C 1.7202344 18.029922 2.73 18.029922 3.5 17.419922 L 7.8007812 13.890625 C 7.8007812 13.890625 7.7302344 14.370391 7.7402344 14.650391 C 7.7402344 14.940391 7.8407031 15.499687 7.9707031 15.929688 C 8.2607031 16.859687 8.7496875 17.710938 9.4296875 18.460938 C 10.129687 19.230937 11 19.849063 12 20.289062 C 13.03 20.759062 14.169844 21 15.339844 21 C 16.499844 21 17.649453 20.749297 18.689453 20.279297 C 19.689453 19.839297 20.55 19.209453 21.25 18.439453 C 21.93 17.689453 22.420938 16.830156 22.710938 15.910156 C 22.850938 15.440156 22.94 14.97 23 14.5 C 23 14.03 22.999453 13.559844 22.939453 13.089844 C 22.809453 12.179844 22.5 11.319062 22 10.539062 C 21.56 9.8290625 21.000547 9.1999219 20.310547 8.6699219 L 13.419922 3.3808594 C 13.189922 3.2108594 12.890078 3.1191406 12.580078 3.1191406 z M 15.339844 9.2109375 C 16.499844 9.2109375 17.590938 9.5890625 18.460938 10.289062 C 18.900938 10.649062 19.25 11.069063 19.5 11.539062 C 19.77 11.999063 19.94 12.549375 20 13.109375 C 20.04 13.669375 19.959531 14.229531 19.769531 14.769531 C 19.569531 15.309531 19.250313 15.809766 18.820312 16.259766 C 17.930312 17.159766 16.689844 17.679687 15.339844 17.679688 C 13.999844 17.679688 12.749375 17.169531 11.859375 16.269531 C 11.429375 15.829531 11.110156 15.319297 10.910156 14.779297 C 10.720156 14.249297 10.639453 13.689141 10.689453 13.119141 C 10.739453 12.559141 10.909922 12.030781 11.169922 11.550781 C 11.429922 11.080781 11.790469 10.660781 12.230469 10.300781 C 13.090469 9.5907813 14.189844 9.2109375 15.339844 9.2109375 z "
     style="fill:#ea7600;fill-opacity:1" /><path
     d="m 15.44,10.61 c -0.78,0 -1.5,0.28 -2.03,0.73 -0.54,0.46 -0.91,1.1 -0.94,1.84 -0.04,0.75 0.26,1.45 0.79,1.97 0.54,0.53 1.32,0.85 2.18,0.85 0.86,0 1.63,-0.32 2.18,-0.85 0.53,-0.52 0.83,-1.22 0.79,-1.97 C 18.37,12.44 18,11.8 17.47,11.34 16.94,10.89 16.22,10.61 15.44,10.61 Z"
     id="path3"
     style="fill:#265787;fill-opacity:1" /></svg>
