<?xml version="1.0" encoding="UTF-8" standalone="no"?>
<svg
   id="mdi-carrot"
   viewBox="0 0 24 24"
   version="1.1"
   sodipodi:docname="carrot-color.svg"
   inkscape:version="1.4 (e7c3feb1, 2024-10-09)"
   xmlns:inkscape="http://www.inkscape.org/namespaces/inkscape"
   xmlns:sodipodi="http://sodipodi.sourceforge.net/DTD/sodipodi-0.dtd"
   xmlns="http://www.w3.org/2000/svg"
   xmlns:svg="http://www.w3.org/2000/svg">
  <defs
     id="defs1">
    <inkscape:path-effect
       effect="fillet_chamfer"
       id="path-effect2"
       is_visible="true"
       lpeversion="1"
       nodesatellites_param="F,0,0,1,0,0,0,1 @ F,0,0,1,0,0,0,1 @ F,0,0,1,0,0,0,1 @ F,0,0,1,0,0,0,1 @ F,0,0,1,0,0,0,1 @ F,0,0,1,0,0,0,1 @ F,0,0,1,0,0,0,1 @ F,0,0,1,0,0,0,1 @ F,0,0,1,0,0,0,1 @ F,0,0,1,0,0,0,1 @ F,0,0,1,0,0,0,1 @ F,0,0,1,0,0,0,1 @ F,0,0,1,0,0,0,1"
       radius="0"
       unit="px"
       method="auto"
       mode="F"
       chamfer_steps="1"
       flexible="false"
       use_knot_distance="true"
       apply_no_radius="true"
       apply_with_radius="true"
       only_selected="false"
       hide_knots="false" />
  </defs>
  <sodipodi:namedview
     id="namedview1"
     pagecolor="#ffffff"
     bordercolor="#000000"
     borderopacity="0.25"
     inkscape:showpageshadow="2"
     inkscape:pageopacity="0.0"
     inkscape:pagecheckerboard="0"
     inkscape:deskcolor="#d1d1d1"
     inkscape:zoom="17.28"
     inkscape:cx="11.834491"
     inkscape:cy="12.037037"
     inkscape:window-width="1448"
     inkscape:window-height="815"
     inkscape:window-x="0"
     inkscape:window-y="38"
     inkscape:window-maximized="0"
     inkscape:current-layer="mdi-carrot" />
  <path
     d="M16,10L15.8,11H13.5A0.5,0.5 0 0,0 13,11.5A0.5,0.5 0 0,0 13.5,12H15.6L14.6,17H12.5A0.5,0.5 0 0,0 12,17.5A0.5,0.5 0 0,0 12.5,18H14.4L14,20A2,2 0 0,1 12,22A2,2 0 0,1 10,20L9,15H10.5A0.5,0.5 0 0,0 11,14.5A0.5,0.5 0 0,0 10.5,14H8.8L8,10C8,8.8 8.93,7.77 10.29,7.29L8.9,5.28C8.59,4.82 8.7,4.2 9.16,3.89C9.61,3.57 10.23,3.69 10.55,4.14L11,4.8V3A1,1 0 0,1 12,2A1,1 0 0,1 13,3V5.28L14.5,3.54C14.83,3.12 15.47,3.07 15.89,3.43C16.31,3.78 16.36,4.41 16,4.84L13.87,7.35C15.14,7.85 16,8.85 16,10Z"
     id="path1"
     style="fill:#ff6600" />
  <path
     d="M 10.29,7.29 8.9,5.28 C 8.59,4.82 8.7,4.2 9.16,3.89 9.61,3.57 10.23,3.69 10.55,4.14 L 11,4.8 V 3 c 0,-0.5522847 0.447715,-1 1,-1 0.552285,0 1,0.4477153 1,1 v 2.28 l 1.5,-1.74 c 0.33,-0.42 0.97,-0.47 1.39,-0.11 0.42,0.35 0.47,0.98 0.11,1.41 l -2.13,2.51 c 1.091677,0.2719185 -3.649844,0.779695 -3.58,-0.06 z"
     id="path2"
     sodipodi:nodetypes="cccccssscccccc"
     style="fill:#008000"
     inkscape:path-effect="#path-effect2"
     inkscape:original-d="M 10.29,7.29 8.9,5.28 C 8.59,4.82 8.7,4.2 9.16,3.89 9.61,3.57 10.23,3.69 10.55,4.14 L 11,4.8 V 3 c 0,-0.5522847 0.447715,-1 1,-1 0.552285,0 1,0.4477153 1,1 v 2.28 l 1.5,-1.74 c 0.33,-0.42 0.97,-0.47 1.39,-0.11 0.42,0.35 0.47,0.98 0.11,1.41 l -2.13,2.51 c 1.091677,0.2719185 -3.649844,0.779695 -3.58,-0.06 z" />
</svg>
