<?xml version="1.0" encoding="UTF-8" standalone="no"?>
<svg
   id="mdi-cash-sync"
   viewBox="0 0 24 24"
   version="1.1"
   sodipodi:docname="cash-sync-color.svg"
   inkscape:version="1.4 (e7c3feb1, 2024-10-09)"
   xmlns:inkscape="http://www.inkscape.org/namespaces/inkscape"
   xmlns:sodipodi="http://sodipodi.sourceforge.net/DTD/sodipodi-0.dtd"
   xmlns="http://www.w3.org/2000/svg"
   xmlns:svg="http://www.w3.org/2000/svg">
  <defs
     id="defs1" />
  <sodipodi:namedview
     id="namedview1"
     pagecolor="#ffffff"
     bordercolor="#000000"
     borderopacity="0.25"
     inkscape:showpageshadow="2"
     inkscape:pageopacity="0.0"
     inkscape:pagecheckerboard="0"
     inkscape:deskcolor="#d1d1d1"
     showguides="true"
     inkscape:zoom="21.31"
     inkscape:cx="11.262318"
     inkscape:cy="13.444392"
     inkscape:window-width="1456"
     inkscape:window-height="782"
     inkscape:window-x="19"
     inkscape:window-y="38"
     inkscape:window-maximized="0"
     inkscape:current-layer="mdi-cash-sync" />
  <path
     id="rect1"
     style="fill:#00ff00;stroke-width:1.97023;stroke-linejoin:bevel;stroke-miterlimit:1"
     d="M 3.1445312 6.0527344 L 3.1445312 18.019531 L 13.332031 18.019531 A 6.0769587 6.0769587 0 0 1 12.998047 16.072266 A 6.0769587 6.0769587 0 0 1 19.076172 9.9960938 A 6.0769587 6.0769587 0 0 1 20.929688 10.287109 L 20.929688 6.0527344 L 3.1445312 6.0527344 z " />
  <path
     d="M3 6V18H13.32C13.1 17.33 13 16.66 13 16H7C7 14.9 6.11 14 5 14V10C6.11 10 7 9.11 7 8H17C17 9.11 17.9 10 19 10V10.06C19.67 10.06 20.34 10.18 21 10.4V6H3M12 9C10.3 9.03 9 10.3 9 12S10.3 14.94 12 15C12.38 15 12.77 14.92 13.14 14.77C13.41 13.67 13.86 12.63 14.97 11.61C14.85 10.28 13.59 8.97 12 9M19 11L21.25 13.25L19 15.5V14C17.15 14 15.94 15.96 16.76 17.62L15.67 18.71C13.91 16.05 15.81 12.5 19 12.5V11M19 22L16.75 19.75L19 17.5V19C20.85 19 22.06 17.04 21.24 15.38L22.33 14.29C24.09 16.95 22.19 20.5 19 20.5V22"
     id="path1" />
</svg>
