<?xml version="1.0" encoding="UTF-8" standalone="no"?>
<svg
   id="mdi-cash-100"
   viewBox="0 0 24 24"
   version="1.1"
   sodipodi:docname="cash-100-color.svg"
   inkscape:version="1.4 (e7c3feb1, 2024-10-09)"
   xmlns:inkscape="http://www.inkscape.org/namespaces/inkscape"
   xmlns:sodipodi="http://sodipodi.sourceforge.net/DTD/sodipodi-0.dtd"
   xmlns="http://www.w3.org/2000/svg"
   xmlns:svg="http://www.w3.org/2000/svg">
  <defs
     id="defs1" />
  <sodipodi:namedview
     id="namedview1"
     pagecolor="#ffffff"
     bordercolor="#000000"
     borderopacity="0.25"
     inkscape:showpageshadow="2"
     inkscape:pageopacity="0.0"
     inkscape:pagecheckerboard="0"
     inkscape:deskcolor="#d1d1d1"
     inkscape:zoom="13.12"
     inkscape:cx="12.042683"
     inkscape:cy="11.928354"
     inkscape:window-width="1472"
     inkscape:window-height="746"
     inkscape:window-x="0"
     inkscape:window-y="38"
     inkscape:window-maximized="0"
     inkscape:current-layer="mdi-cash-100" />
  <rect
     style="fill:#00ff00;stroke-width:2;stroke-linejoin:bevel;stroke-miterlimit:1"
     id="rect1"
     width="17.682926"
     height="12.652439"
     x="3.2012196"
     y="6.1737804" />
  <path
     d="M2,5H22V20H2V5M20,18V7H4V18H20M17,8A2,2 0 0,0 19,10V15A2,2 0 0,0 17,17H7A2,2 0 0,0 5,15V10A2,2 0 0,0 7,8H17M17,13V12C17,10.9 16.33,10 15.5,10C14.67,10 14,10.9 14,12V13C14,14.1 14.67,15 15.5,15C16.33,15 17,14.1 17,13M15.5,11A0.5,0.5 0 0,1 16,11.5V13.5A0.5,0.5 0 0,1 15.5,14A0.5,0.5 0 0,1 15,13.5V11.5A0.5,0.5 0 0,1 15.5,11M13,13V12C13,10.9 12.33,10 11.5,10C10.67,10 10,10.9 10,12V13C10,14.1 10.67,15 11.5,15C12.33,15 13,14.1 13,13M11.5,11A0.5,0.5 0 0,1 12,11.5V13.5A0.5,0.5 0 0,1 11.5,14A0.5,0.5 0 0,1 11,13.5V11.5A0.5,0.5 0 0,1 11.5,11M8,15H9V10H8L7,10.5V11.5L8,11V15Z"
     id="path1" />
</svg>
