<?xml version="1.0" encoding="UTF-8" standalone="no"?>
<svg
   id="mdi-cash-multiple"
   viewBox="0 0 24 24"
   version="1.1"
   sodipodi:docname="cash-multiple-color.svg"
   inkscape:version="1.4 (e7c3feb1, 2024-10-09)"
   xmlns:inkscape="http://www.inkscape.org/namespaces/inkscape"
   xmlns:sodipodi="http://sodipodi.sourceforge.net/DTD/sodipodi-0.dtd"
   xmlns="http://www.w3.org/2000/svg"
   xmlns:svg="http://www.w3.org/2000/svg">
  <defs
     id="defs1" />
  <sodipodi:namedview
     id="namedview1"
     pagecolor="#ffffff"
     bordercolor="#000000"
     borderopacity="0.25"
     inkscape:showpageshadow="2"
     inkscape:pageopacity="0.0"
     inkscape:pagecheckerboard="0"
     inkscape:deskcolor="#d1d1d1"
     inkscape:zoom="14.06"
     inkscape:cx="12.019915"
     inkscape:cy="12.019915"
     inkscape:window-width="1456"
     inkscape:window-height="787"
     inkscape:window-x="0"
     inkscape:window-y="38"
     inkscape:window-maximized="0"
     inkscape:current-layer="mdi-cash-multiple" />
  <rect
     style="fill:#00ff00;stroke-width:2;stroke-linejoin:bevel;stroke-miterlimit:1"
     id="rect1"
     width="16.145092"
     height="9.8150778"
     x="5.9743953"
     y="6.8990045" />
  <path
     d="M5,6H23V18H5V6M14,9A3,3 0 0,1 17,12A3,3 0 0,1 14,15A3,3 0 0,1 11,12A3,3 0 0,1 14,9M9,8A2,2 0 0,1 7,10V14A2,2 0 0,1 9,16H19A2,2 0 0,1 21,14V10A2,2 0 0,1 19,8H9M1,10H3V20H19V22H1V10Z"
     id="path1" />
</svg>
