<?xml version="1.0" encoding="UTF-8" standalone="no"?>
<svg
   id="mdi-cash"
   viewBox="0 0 24 24"
   version="1.1"
   sodipodi:docname="cash-color.svg"
   inkscape:version="1.4 (e7c3feb1, 2024-10-09)"
   xmlns:inkscape="http://www.inkscape.org/namespaces/inkscape"
   xmlns:sodipodi="http://sodipodi.sourceforge.net/DTD/sodipodi-0.dtd"
   xmlns="http://www.w3.org/2000/svg"
   xmlns:svg="http://www.w3.org/2000/svg">
  <defs
     id="defs1" />
  <sodipodi:namedview
     id="namedview1"
     pagecolor="#ffffff"
     bordercolor="#000000"
     borderopacity="0.25"
     inkscape:showpageshadow="2"
     inkscape:pageopacity="0.0"
     inkscape:pagecheckerboard="0"
     inkscape:deskcolor="#d1d1d1"
     inkscape:zoom="14.06"
     inkscape:cx="12.019915"
     inkscape:cy="11.913229"
     inkscape:window-width="1496"
     inkscape:window-height="816"
     inkscape:window-x="0"
     inkscape:window-y="38"
     inkscape:window-maximized="0"
     inkscape:current-layer="mdi-cash" />
  <rect
     style="fill:#00ff00;stroke-width:2;stroke-linejoin:bevel;stroke-miterlimit:1"
     id="rect1"
     width="16.642958"
     height="10.668563"
     x="3.6984353"
     y="6.6856332" />
  <path
     d="M3,6H21V18H3V6M12,9A3,3 0 0,1 15,12A3,3 0 0,1 12,15A3,3 0 0,1 9,12A3,3 0 0,1 12,9M7,8A2,2 0 0,1 5,10V14A2,2 0 0,1 7,16H17A2,2 0 0,1 19,14V10A2,2 0 0,1 17,8H7Z"
     id="path1" />
</svg>
