<?xml version="1.0" encoding="UTF-8" standalone="no"?>
<svg
   id="mdi-cash-remove"
   viewBox="0 0 24 24"
   version="1.1"
   sodipodi:docname="cash-remove-color.svg"
   inkscape:version="1.4 (e7c3feb1, 2024-10-09)"
   xmlns:inkscape="http://www.inkscape.org/namespaces/inkscape"
   xmlns:sodipodi="http://sodipodi.sourceforge.net/DTD/sodipodi-0.dtd"
   xmlns="http://www.w3.org/2000/svg"
   xmlns:svg="http://www.w3.org/2000/svg">
  <defs
     id="defs1" />
  <sodipodi:namedview
     id="namedview1"
     pagecolor="#ffffff"
     bordercolor="#000000"
     borderopacity="0.25"
     inkscape:showpageshadow="2"
     inkscape:pageopacity="0.0"
     inkscape:pagecheckerboard="0"
     inkscape:deskcolor="#d1d1d1"
     inkscape:zoom="18.55"
     inkscape:cx="12.021563"
     inkscape:cy="11.940701"
     inkscape:window-width="1456"
     inkscape:window-height="748"
     inkscape:window-x="0"
     inkscape:window-y="38"
     inkscape:window-maximized="0"
     inkscape:current-layer="mdi-cash-remove" />
  <path
     id="rect1"
     style="fill:#00ff00;stroke-width:1.97023;stroke-linejoin:bevel;stroke-miterlimit:1"
     d="M 3.1617251,6.0539084 V 18.020705 H 13.349225 A 6.0769587,6.0769587 0 0 1 13.015241,16.07344 6.0769587,6.0769587 0 0 1 19.093366,9.9972678 6.0769587,6.0769587 0 0 1 20.946882,10.288283 V 6.0539084 Z" />
  <path
     d="M15.46 18.12L16.88 19.54L19 17.41L21.12 19.54L22.54 18.12L20.41 16L22.54 13.88L21.12 12.46L19 14.59L16.88 12.46L15.46 13.88L17.59 16M14.97 11.62C14.86 10.28 13.58 8.97 12 9C10.3 9.04 9 10.3 9 12C9 13.7 10.3 14.94 12 15C12.39 15 12.77 14.92 13.14 14.77C13.41 13.67 13.86 12.63 14.97 11.62M13 16H7C7 14.9 6.1 14 5 14V10C6.1 10 7 9.1 7 8H17C17 9.1 17.9 10 19 10V10.05C19.67 10.06 20.34 10.18 21 10.4V6H3V18H13.32C13.1 17.33 13 16.66 13 16Z"
     id="path1" />
</svg>
