<?xml version="1.0" encoding="UTF-8" standalone="no"?>
<svg
   id="mdi-centos"
   viewBox="0 0 24 24"
   version="1.1"
   sodipodi:docname="centos-black-white.svg"
   xml:space="preserve"
   inkscape:version="1.4 (e7c3feb1, 2024-10-09)"
   xmlns:inkscape="http://www.inkscape.org/namespaces/inkscape"
   xmlns:sodipodi="http://sodipodi.sourceforge.net/DTD/sodipodi-0.dtd"
   xmlns="http://www.w3.org/2000/svg"
   xmlns:svg="http://www.w3.org/2000/svg"><defs
     id="defs1" /><sodipodi:namedview
     id="namedview1"
     pagecolor="#ffffff"
     bordercolor="#000000"
     borderopacity="0.25"
     inkscape:showpageshadow="2"
     inkscape:pageopacity="0.0"
     inkscape:pagecheckerboard="0"
     inkscape:deskcolor="#d1d1d1"
     inkscape:zoom="19.85"
     inkscape:cx="11.612091"
     inkscape:cy="9.4206549"
     inkscape:window-width="1488"
     inkscape:window-height="829"
     inkscape:window-x="0"
     inkscape:window-y="38"
     inkscape:window-maximized="0"
     inkscape:current-layer="mdi-centos" /><path
     style="display:inline;fill:#efa724;fill-opacity:1;stroke:none;stroke-width:0.175439;stroke-linejoin:bevel;stroke-miterlimit:1"
     d="M 11.775188,2.4233143 C 10.923786,3.1866382 10.42902,3.7618957 9.6496101,4.5946924 9.2425476,5.1237198 9.9123643,5.3195916 10.465094,5.1506818 c 0.607065,-0.090973 1.0627,0.3455362 0.860989,1.0633396 0.0525,1.4235971 -0.225547,2.6088032 -0.01274,4.0197436 0.171638,0.575219 0.522493,1.200928 0.988162,0.593575 0.524347,-0.328137 0.514859,-0.727852 0.436427,-1.2988312 V 5.2374623 C 13.324219,5.1614483 14.127904,5.5819425 14.471443,4.9405427 14.591412,4.1946157 13.746362,4.0620929 13.367033,3.53894 12.837506,3.0796723 12.726756,2.6165497 12.09107,2.3019977 Z"
     id="path2"
     sodipodi:nodetypes="cccccccccccc" /><path
     style="display:inline;fill:#efa724;fill-opacity:1;stroke:none;stroke-width:0.175439;stroke-linejoin:bevel;stroke-miterlimit:1"
     d="m 14.017431,12.563325 c -0.519764,0.426683 0.105621,0.797599 0.504397,1.111089 0.938388,0.92569 1.577814,1.642479 2.572212,2.495167 0.667701,0.332278 0.824143,-0.440917 1.282371,-0.78175 0.445329,-0.336956 0.612833,-0.523267 0.487409,-1.100064 -0.0967,-0.634128 0.378178,-1.296008 -0.296921,-1.683261 -1.532673,-0.06378 -2.496335,-0.04696 -4.027184,-0.0085 -0.08731,0.02766 -0.536214,-0.0025 -0.623528,0.02513 z"
     id="path3"
     sodipodi:nodetypes="ccccccccc" /><path
     style="display:inline;fill:#efa724;fill-opacity:1;stroke:none;stroke-width:0.175439;stroke-linejoin:bevel;stroke-miterlimit:1"
     d="m 13.31214,12.67217 c -0.852893,-0.04449 -1.039596,0.541964 -0.531184,1.04914 1.036156,1.205439 2.525786,2.475572 3.631068,3.616515 -0.359308,0.469769 -1.462532,0.705433 -1.249555,1.401491 0.443945,0.60992 1.292552,0.02282 1.930438,0.124504 0.681816,-0.04984 1.02057,0.171525 1.675589,-0.05163 0.489164,-0.523192 0.01115,-1.099539 0.10636,-1.744227 -0.07554,-0.611093 0.343981,-1.42718 -0.01,-1.954415 -0.514633,-0.514801 -0.949442,0.669402 -1.282937,1.051383 -0.288886,0.48493 -0.659389,-0.371588 -0.927442,-0.600061 -1.035807,-0.989959 -2.07581,-1.908072 -3.016435,-2.968185 -0.218194,-0.161601 -0.06176,0.06243 -0.325932,0.07548 z"
     id="path4"
     sodipodi:nodetypes="cccccccccccc" /><path
     style="display:inline;fill:#efa724;fill-opacity:1;stroke:none;stroke-width:0.175439;stroke-linejoin:bevel;stroke-miterlimit:1"
     d="m 12.679595,14.371909 c -0.381508,0.650801 -0.0084,0.916503 -0.110039,1.554389 0.05007,1.023075 -0.06024,1.773923 0.12287,2.776429 0.34248,0.60326 1.030887,0.0702 1.599833,0.161093 0.554358,0.0593 1.076375,0.03613 1.215043,-0.626913 0.304639,-0.467151 0.986843,-0.504073 0.657689,-1.18297 -0.895216,-1.122945 -1.853294,-1.791947 -2.847245,-2.826552 -0.228665,-0.16305 -0.25028,-0.517129 -0.39227,-0.274914 z"
     id="path5"
     sodipodi:nodetypes="sccccccss" /><path
     style="display:inline;fill:#262577;fill-opacity:1;stroke:none;stroke-width:0.175439;stroke-linejoin:bevel;stroke-miterlimit:1"
     d="m 18.938305,9.5141139 c -0.575111,0.3852277 -0.01993,1.1328151 -0.09729,1.7107251 -1.629205,0.01772 -3.385069,0.05138 -5.007444,0.11327 -0.579535,0.15275 -1.042887,0.59757 -0.507691,1.136243 0.577574,0.555825 1.422776,0.165528 2.142153,0.24354 1.140842,0.02822 2.223586,-0.03408 3.330873,0.08453 0.06848,0.560313 -0.387482,1.514964 0.351936,1.71007 0.667924,0.09558 0.767217,-0.769335 1.240536,-1.111462 0.421026,-0.525617 1.130038,-0.753049 1.28966,-1.42131 -0.08121,-0.666475 -0.862825,-0.856798 -1.23844,-1.365202 -0.532037,-0.418825 -0.661325,-0.97688 -1.33318,-1.1375567 l -0.142187,-0.00624 z"
     id="path6"
     sodipodi:nodetypes="ccccccccccccc" /><path
     style="display:inline;fill:#262577;fill-opacity:1;stroke:none;stroke-width:0.175439;stroke-linejoin:bevel;stroke-miterlimit:1"
     d="m 10.541818,14.309015 c -1.035578,1.084161 -1.8391088,1.780258 -2.8026922,2.917181 -0.3183316,0.665041 0.601728,0.727249 0.9410191,1.183233 0.3352582,0.444906 0.3628063,0.607499 0.9370049,0.483317 0.6100792,-0.08497 1.4040202,0.418755 1.7691022,-0.239066 0.06381,-1.534503 0.04695,-2.991742 0.0085,-4.524423 -0.04659,-0.478841 -0.314118,-0.382012 -0.650405,-0.06612 z"
     id="path7"
     sodipodi:nodetypes="cccccccc" /><path
     style="display:inline;fill:#262577;fill-opacity:1;stroke:none;stroke-width:0.175439;stroke-linejoin:bevel;stroke-miterlimit:1"
     d="M 10.576192,12.555948 C 9.7553329,12.706441 9.6906472,13.42852 9.0816286,13.92844 8.3613165,14.642686 7.5307576,15.535969 6.8131408,16.252927 6.3078202,15.876183 5.9733365,15.013044 5.2371505,15.21887 c -0.6100477,0.443978 0.1071182,1.292645 0.0055,1.930609 0.052855,0.710704 -0.3795647,0.949967 -0.1508636,1.633481 0.536479,0.493229 1.114595,0.06709 1.7729372,0.165755 0.6253036,-0.07847 1.254436,0.322361 1.7958807,-0.03694 0.5154077,-0.513393 -0.2189662,-0.906126 -0.6012261,-1.23876 -0.3290884,-0.202189 -0.00854,-0.846285 0.2930647,-1.041969 1.0276768,-1.102813 1.7805116,-1.746745 2.8893846,-2.763614 0.38638,-0.577223 0.208206,-1.41901 -0.665632,-1.311482 z"
     id="path8"
     sodipodi:nodetypes="cccccccccccc" /><path
     style="display:inline;fill:#262577;fill-opacity:1;stroke:none;stroke-width:0.175439;stroke-linejoin:bevel;stroke-miterlimit:1"
     d="m 5.1363385,12.967787 c -0.038576,0.732938 0.075873,0.80808 -0.023862,1.472389 -0.099321,0.504587 0.01175,0.769547 0.4647855,0.912596 0.4798568,0.320956 0.5724501,1.193601 1.280544,0.841386 1.1037489,-0.960408 2.1294799,-2.040722 3.149109,-3.082446 0.418744,-0.526044 -0.063095,-0.604484 -0.6203907,-0.434298 -1.3835119,0.03284 -2.3401719,-0.190638 -3.7101881,-0.06959 -0.059471,0.01874 -0.5222567,0.02289 -0.5255339,0.08516 z"
     id="path9"
     sodipodi:nodetypes="sccccccss" /><path
     style="display:inline;fill:#932279;fill-opacity:1;stroke:none;stroke-width:0.175439;stroke-linejoin:bevel;stroke-miterlimit:1"
     d="M 4.4591488,9.7189385 C 3.7029902,10.527378 3.1603048,10.95926 2.4760125,11.820333 c -0.3213592,0.657887 0.450812,0.790815 0.7840919,1.239364 0.535728,0.450549 0.9820494,1.281592 1.6478178,1.543537 0.6616994,0.02031 0.3391881,-0.848674 0.2735504,-1.341865 -0.042536,-0.322036 0.055664,-0.690949 0.4455662,-0.602059 1.3861919,-0.01641 2.6490698,-0.107929 4.0068839,0.05996 0.6204043,0.223596 1.1802183,-0.175875 1.3138603,-0.721105 -0.06002,-0.588804 -0.52355,-0.843366 -1.1373766,-0.72994 L 5.194072,11.297152 C 5.1180582,10.710869 5.5674791,9.7191597 4.9260793,9.3756203 4.6885469,9.3440797 4.6473142,9.5523849 4.4591488,9.7189385 Z"
     id="path10"
     sodipodi:nodetypes="cccccccccccc" /><path
     style="display:inline;fill:#932279;fill-opacity:1;stroke:none;stroke-width:0.175439;stroke-linejoin:bevel;stroke-miterlimit:1"
     d="m 17.287606,7.6690516 c -1.103558,1.0095217 -2.018588,1.8960018 -3.046915,2.9786494 -0.406433,0.529156 -0.08387,0.883485 0.468639,0.71471 1.317344,-0.03538 2.497443,0.02718 3.801152,-0.09637 0.688474,-0.246619 0.243884,-0.956221 0.362266,-1.520238 C 19.032885,9.1420879 18.751269,8.9761902 18.292434,8.6226043 17.862448,8.278518 17.939894,7.4489547 17.287606,7.6690516 Z"
     id="path11"
     sodipodi:nodetypes="ccccccc" /><path
     style="display:inline;fill:#932279;fill-opacity:1;stroke:none;stroke-width:0.175439;stroke-linejoin:bevel;stroke-miterlimit:1"
     d="m 15.079468,5.1351734 c -0.527772,0.4339515 0.277468,0.6814949 0.688208,0.9873168 0.67886,0.3726984 0.318034,0.8764872 -0.178273,1.2502864 -0.959852,1.0348839 -2.103208,1.8224825 -2.90927,2.9875064 -0.341009,0.582871 0.0073,1.160212 0.683758,1.01496 0.893463,-0.127623 1.114839,-0.952079 1.737716,-1.5009315 0.682668,-0.7098488 1.493396,-1.6133416 2.243242,-2.2527553 0.527715,0.2755051 0.710981,1.6339208 1.411167,1.2682354 C 19.3151,8.4493645 18.814738,7.4761763 18.91801,6.8593508 18.838605,6.1974864 19.149445,5.762982 18.78656,5.184507 18.257828,4.7706057 17.730379,5.1774235 17.105263,5.0835493 16.426716,5.1353921 15.728621,4.9086245 15.079468,5.1351734 Z"
     id="path12"
     sodipodi:nodetypes="cccccccccccc" /><path
     style="display:inline;fill:#932279;fill-opacity:1;stroke:none;stroke-width:0.175439;stroke-linejoin:bevel;stroke-miterlimit:1"
     d="m 14.625822,5.1080764 c -0.623391,0.2623709 -1.379771,-0.2738847 -1.939838,0.098806 -0.412458,0.5291779 -0.0064,1.1857382 -0.100088,1.8106619 0.05995,0.9277631 -0.15827,1.8940619 0.08055,2.794168 0.431967,0.5257747 0.77969,-0.028625 1.088616,-0.4350476 0.797106,-0.8270546 1.798487,-1.6299363 2.493379,-2.547272 C 16.567796,6.0029784 15.420643,5.9010791 15.191996,5.2376747 15.054833,4.9960574 14.908894,5.0886632 14.625822,5.1080764 Z"
     id="path13"
     sodipodi:nodetypes="cccccccc" /><path
     style="display:inline;fill:#9ccd2a;fill-opacity:1;stroke:none;stroke-width:0.175439;stroke-linejoin:bevel;stroke-miterlimit:1"
     d="M 5.1210184,5.12071 C 4.6302416,5.6501929 5.1959749,6.1909218 5.0980127,6.8421053 5.1500208,7.5235856 4.9517419,8.1959017 5.1785637,8.850353 5.6116801,9.377254 5.8589336,8.545297 6.1659826,8.1362381 6.5255827,7.5116202 7.17383,8.1069513 7.5327924,8.5624482 c 1.014218,0.9353937 1.8190203,1.9734808 2.9578946,2.7611708 0.597903,0.357314 1.059799,-0.0982 0.898677,-0.847211 C 11.220106,9.601742 10.42579,9.4993878 9.8910717,8.8503488 9.2280387,8.184069 8.389169,7.3031086 7.7250376,6.6379112 8.0952568,6.1510632 9.0521086,5.9378914 8.8436917,5.2223445 8.3995643,4.6126889 7.7825497,5.2430581 7.1446683,5.1414029 6.4378299,5.1941369 5.7982865,4.8921888 5.1210184,5.12071 Z"
     id="path14"
     sodipodi:nodetypes="cccccccccccc" /><path
     style="display:inline;fill:#9ccd2a;fill-opacity:1;stroke:none;stroke-width:0.175439;stroke-linejoin:bevel;stroke-miterlimit:1"
     d="M 6.5943668,7.6704701 C 5.9222313,7.7679811 5.7720996,8.5763645 5.2111089,8.8874931 4.6813018,9.3403814 5.2009233,9.9041303 5.085427,10.469706 c -0.1071605,0.510879 -0.1061752,1.058582 0.5150835,0.950559 1.312169,-0.03561 2.7909241,0.08523 4.0894639,-0.03852 C 10.289117,11.235786 9.9913583,10.567215 9.5314655,10.308597 8.6306661,9.4562183 7.9178675,8.4491024 6.8954427,7.7401007 6.7820498,7.6948719 6.7160756,7.6616214 6.5943668,7.6704701 Z"
     id="path15"
     sodipodi:nodetypes="cccccccc" /><path
     style="display:inline;fill:#9ccd2a;fill-opacity:1;stroke:none;stroke-width:0.175439;stroke-linejoin:bevel;stroke-miterlimit:1"
     d="M 9.4071993,4.9702954 C 8.7519108,5.0718716 8.6097511,5.8153317 8.0844867,6.1452376 7.5406825,6.4770639 7.6689128,6.9512901 8.1523028,7.2534088 9.03163,8.1185 9.6943996,9.0821871 10.627851,9.8764416 11.15268,10.209863 11.566972,9.6621749 11.424249,9.149391 11.379271,7.9180232 11.585343,6.63855 11.33139,5.426189 11.050216,4.7386204 10.329292,5.1572468 9.7874829,5.0649672 9.6313191,4.9974748 9.5798971,4.9560919 9.4071993,4.9702954 Z"
     id="path16"
     sodipodi:nodetypes="cccccccc" /><path
     style="display:inline;fill:#9ccd2a;fill-opacity:1;stroke:none;stroke-width:0.175439;stroke-linejoin:bevel;stroke-miterlimit:1"
     d="m 11.973413,13.033166 c -0.781686,0.112154 -0.773164,0.740019 -0.725913,1.393203 -0.03003,1.392394 0.165262,3.083015 0.107444,4.455351 -0.567548,0.0994 -1.7954818,-0.569878 -1.9654116,0.168527 -0.021013,0.684766 0.9229826,0.949655 1.2831516,1.451403 0.456857,0.391863 0.618241,0.848217 1.15935,1.112186 0.679716,0.190374 0.705718,-0.562869 1.175571,-0.902566 0.469391,-0.533901 1.277624,-1.005703 1.60294,-1.645025 0.06546,-0.679017 -0.596796,-0.298297 -1.103011,-0.225427 -0.255402,-0.03128 -0.935078,0.116589 -0.848462,-0.286079 -0.04029,-1.527129 -0.176044,-3.278696 0.04347,-4.775028 -0.06322,-0.494706 -0.197268,-0.772711 -0.729126,-0.746545 z"
     id="path17"
     sodipodi:nodetypes="ccccccccccccc" /><path
     style="display:inline;fill:#932279;fill-opacity:1;stroke:none;stroke-width:0.0578369;stroke-linejoin:bevel;stroke-miterlimit:1"
     d="m 11.543827,10.608383 c -0.22532,0.02834 -0.187511,0.503637 -0.265334,0.718648 -0.392357,0.112624 -0.553295,0.282663 -0.369332,0.630635 -0.03476,0.172962 -0.365363,0.375973 -0.282378,0.560875 0.06056,0.192271 0.406065,0.171535 0.565672,0.269133 0.08542,0.38094 0.269627,0.633904 0.627884,0.465749 0.1497,-0.101443 0.311396,0.05466 0.479696,0.0055 0.269453,-0.02886 0.349183,-0.257011 0.431254,-0.507094 0.328162,-0.143662 0.660542,-0.319411 0.287461,-0.760488 0.202307,-0.319581 0.221741,-0.529759 -0.134106,-0.684761 -0.190792,-0.03723 -0.0152,-0.495412 -0.185681,-0.577379 -0.202782,-0.161067 -0.488411,0.09582 -0.70667,0.188395 -0.143094,-0.05174 -0.294783,-0.326325 -0.448462,-0.309245 z m 0.41947,0.401735 c 0.0037,-0.0015 0.01829,-0.0029 0,0 z"
     id="path18"
     sodipodi:nodetypes="cccccccccccccccc" /><path
     d="M 19.07,14.93 22,12 19.07,9.07 V 4.93 H 14.93 L 12,2 9.07,4.93 H 4.93 V 9.07 L 2,12 4.93,14.93 v 4.14 H 9.07 L 12,22 14.93,19.07 h 4.14 V 14.93 M 21.41,12 19.07,14.34 V 12.46 H 13.69 L 13.23,12 13.69,11.54 h 5.38 V 9.66 L 21.41,12 m -2.75,2.76 -1.34,1.33 -3.21,-3.22 h 4.55 v 1.89 M 12.46,13.1 12,12.65 11.54,13.1 V 12.46 H 10.9 L 11.36,12 10.9,11.54 h 0.64 V 10.9 L 12,11.36 12.46,10.9 v 0.64 H 13.1 L 12.65,12 13.1,12.46 h -0.64 v 0.64 m 1.65,-1.97 3.21,-3.22 1.34,1.33 v 1.89 h -4.55 m 4.55,-5.78 v 3.3 L 17.32,7.32 13.5,11.13 H 12.87 V 10.5 L 16.68,6.68 15.35,5.35 h 3.31 M 12.87,9.89 V 5.35 h 1.89 l 1.33,1.33 -3.22,3.21 M 12,2.59 14.34,4.93 h -1.88 v 5.38 L 12,10.77 11.54,10.31 V 4.93 H 9.66 L 12,2.59 M 11.13,9.89 7.91,6.68 9.24,5.35 h 1.89 V 9.89 M 5.35,5.35 h 3.3 l -1.33,1.33 3.81,3.82 v 0.63 H 10.5 L 6.68,7.32 5.35,8.65 v -3.3 m 0,3.89 1.33,-1.33 3.21,3.22 H 5.35 V 9.24 M 2.59,12 4.93,9.66 v 1.88 h 5.38 L 10.77,12 10.31,12.46 H 4.93 v 1.88 L 2.59,12 m 7.3,0.87 -3.21,3.22 -1.33,-1.33 v -1.89 h 4.54 m -4.54,5.79 v -3.31 l 1.33,1.33 3.82,-3.81 h 0.63 v 0.63 l -3.81,3.82 1.33,1.33 h -3.3 m 5.78,-4.54 v 4.55 H 9.24 L 7.91,17.32 11.13,14.11 M 12,21.41 9.66,19.07 h 1.88 v -5.38 l 0.46,-0.46 0.46,0.46 v 5.38 h 1.88 L 12,21.41 m 0.87,-7.3 3.22,3.21 -1.33,1.34 h -1.89 v -4.55 m 2.48,4.55 1.33,-1.34 -3.81,-3.82 v -0.63 h 0.63 l 3.82,3.81 1.33,-1.33 v 3.31 z"
     id="path1"
     style="display:inline;fill:#f9f9f9" /></svg>
