<?xml version="1.0" encoding="UTF-8" standalone="no"?>
<svg
   id="mdi-chat-alert-outline"
   viewBox="0 0 24 24"
   version="1.1"
   sodipodi:docname="chat-alert-outline-orange.svg"
   inkscape:version="1.4 (e7c3feb1, 2024-10-09)"
   xmlns:inkscape="http://www.inkscape.org/namespaces/inkscape"
   xmlns:sodipodi="http://sodipodi.sourceforge.net/DTD/sodipodi-0.dtd"
   xmlns="http://www.w3.org/2000/svg"
   xmlns:svg="http://www.w3.org/2000/svg">
  <defs
     id="defs1" />
  <sodipodi:namedview
     id="namedview1"
     pagecolor="#ffffff"
     bordercolor="#000000"
     borderopacity="0.25"
     inkscape:showpageshadow="2"
     inkscape:pageopacity="0.0"
     inkscape:pagecheckerboard="0"
     inkscape:deskcolor="#d1d1d1"
     inkscape:zoom="14.06"
     inkscape:cx="12.019915"
     inkscape:cy="11.913229"
     inkscape:window-width="1488"
     inkscape:window-height="808"
     inkscape:window-x="0"
     inkscape:window-y="38"
     inkscape:window-maximized="0"
     inkscape:current-layer="mdi-chat-alert-outline" />
  <ellipse
     style="fill:#ff6600;stroke-width:2;stroke-linejoin:bevel;stroke-miterlimit:1"
     id="path2"
     cx="12.019915"
     cy="10.81081"
     rx="8.9615936"
     ry="6.9701281" />
  <path
     d="M12 3C6.5 3 2 6.58 2 11C2.05 13.15 3.06 15.17 4.75 16.5C4.75 17.1 4.33 18.67 2 21C4.37 20.89 6.64 20 8.47 18.5C9.61 18.83 10.81 19 12 19C17.5 19 22 15.42 22 11S17.5 3 12 3M12 17C7.58 17 4 14.31 4 11S7.58 5 12 5 20 7.69 20 11 16.42 17 12 17M11 13V15H13V13H11M11 11H13V7H11V11Z"
     id="path1" />
</svg>
