<?xml version="1.0" encoding="UTF-8" standalone="no"?>
<svg
   id="mdi-cheese-off"
   viewBox="0 0 24 24"
   version="1.1"
   sodipodi:docname="cheese-off-color.svg"
   inkscape:version="1.4 (e7c3feb1, 2024-10-09)"
   xmlns:inkscape="http://www.inkscape.org/namespaces/inkscape"
   xmlns:sodipodi="http://sodipodi.sourceforge.net/DTD/sodipodi-0.dtd"
   xmlns="http://www.w3.org/2000/svg"
   xmlns:svg="http://www.w3.org/2000/svg">
  <defs
     id="defs1" />
  <sodipodi:namedview
     id="namedview1"
     pagecolor="#ffffff"
     bordercolor="#000000"
     borderopacity="0.25"
     inkscape:showpageshadow="2"
     inkscape:pageopacity="0.0"
     inkscape:pagecheckerboard="0"
     inkscape:deskcolor="#d1d1d1"
     inkscape:zoom="10.64"
     inkscape:cx="11.889098"
     inkscape:cy="11.889098"
     inkscape:window-width="1408"
     inkscape:window-height="748"
     inkscape:window-x="0"
     inkscape:window-y="38"
     inkscape:window-maximized="0"
     inkscape:current-layer="mdi-cheese-off" />
  <path
     d="M3.5 1.7L2.2 3L6.1 6.9V9C7.2 9.2 8.1 10.2 8.1 11.5S7.2 13.7 6.1 14V21L12.1 17.5C12.1 16.7 12.8 16 13.6 16C13.9 16 14.2 16.1 14.4 16.2L15.1 15.8L20.3 21L21.6 19.7L3.5 1.7M10.1 16C9.6 16 9.1 15.5 9.1 15S9.6 14 10.1 14 11.1 14.5 11.1 15 10.6 16 10.1 16M13.8 9.5L9.9 5.6C10.2 5.9 10.6 6 11.1 6C12.1 6 12.9 5.2 13.1 4.2C15.4 5.2 17.6 6.6 19.3 8.4C19.2 8.6 19.1 8.7 19.1 8.9C19.1 9.4 19.6 9.9 20.1 9.9C20.3 9.9 20.4 9.9 20.5 9.8C21 10.4 21.4 11.1 21.8 11.8L18.3 13.8L16.6 12.1C16.9 11.8 17.1 11.3 17.1 10.8C17.1 9.7 16.2 8.8 15.1 8.8C14.6 9 14.1 9.2 13.8 9.5M9.5 5.2L7.3 3C8 3 8.6 3.1 9.2 3.2C9.1 3.5 9.1 3.7 9.1 4C9.1 4.4 9.2 4.9 9.5 5.2Z"
     id="path1"
     style="fill:#ffcc00" />
  <path
     d="M 3.5,1.7 2.2,3 20.3,21 21.6,19.7 3.5,1.7"
     id="path2"
     sodipodi:nodetypes="ccccc"
     style="fill:#ff0000" />
</svg>
