<?xml version="1.0" encoding="UTF-8" standalone="no"?>
<svg
   id="mdi-cheese"
   viewBox="0 0 24 24"
   version="1.1"
   sodipodi:docname="cheese-color.svg"
   inkscape:version="1.4 (e7c3feb1, 2024-10-09)"
   xmlns:inkscape="http://www.inkscape.org/namespaces/inkscape"
   xmlns:sodipodi="http://sodipodi.sourceforge.net/DTD/sodipodi-0.dtd"
   xmlns="http://www.w3.org/2000/svg"
   xmlns:svg="http://www.w3.org/2000/svg">
  <defs
     id="defs1" />
  <sodipodi:namedview
     id="namedview1"
     pagecolor="#ffffff"
     bordercolor="#000000"
     borderopacity="0.25"
     inkscape:showpageshadow="2"
     inkscape:pageopacity="0.0"
     inkscape:pagecheckerboard="0"
     inkscape:deskcolor="#d1d1d1"
     inkscape:zoom="1.0833333"
     inkscape:cx="11.538462"
     inkscape:cy="12"
     inkscape:window-width="1256"
     inkscape:window-height="521"
     inkscape:window-x="0"
     inkscape:window-y="38"
     inkscape:window-maximized="0"
     inkscape:current-layer="mdi-cheese" />
  <path
     d="M11 17.5C11 16.67 11.67 16 12.5 16C12.79 16 13.06 16.09 13.29 16.23L20.75 11.93C20.35 11.22 19.9 10.55 19.41 9.9C19.29 9.96 19.15 10 19 10C18.45 10 18 9.55 18 9C18 8.8 18.08 8.62 18.18 8.46C16.45 6.64 14.34 5.2 12 4.25C11.85 5.24 11 6 10 6C8.9 6 8 5.11 8 4C8 3.72 8.06 3.45 8.16 3.21C7.3 3.08 6.41 3 5.5 3C5.33 3 5.17 3 5 3.03V9.05C6.14 9.28 7 10.29 7 11.5S6.14 13.72 5 13.95V21L11 17.54C11 17.53 11 17.5 11 17.5M14 9C15.11 9 16 9.9 16 11S15.11 13 14 13 12 12.11 12 11 12.9 9 14 9M9 16C8.45 16 8 15.55 8 15S8.45 14 9 14 10 14.45 10 15 9.55 16 9 16M9 10C8.45 10 8 9.55 8 9S8.45 8 9 8 10 8.45 10 9 9.55 10 9 10Z"
     id="path1"
     style="fill:#ffcc00" />
</svg>
