<?xml version="1.0" encoding="UTF-8" standalone="no"?>
<svg
   id="mdi-chili-mild-outline"
   viewBox="0 0 24 24"
   version="1.1"
   sodipodi:docname="chili-mild-outline-color.svg"
   inkscape:version="1.4 (e7c3feb1, 2024-10-09)"
   xmlns:inkscape="http://www.inkscape.org/namespaces/inkscape"
   xmlns:sodipodi="http://sodipodi.sourceforge.net/DTD/sodipodi-0.dtd"
   xmlns="http://www.w3.org/2000/svg"
   xmlns:svg="http://www.w3.org/2000/svg">
  <defs
     id="defs1" />
  <sodipodi:namedview
     id="namedview1"
     pagecolor="#ffffff"
     bordercolor="#000000"
     borderopacity="0.25"
     inkscape:showpageshadow="2"
     inkscape:pageopacity="0.0"
     inkscape:pagecheckerboard="0"
     inkscape:deskcolor="#d1d1d1"
     inkscape:zoom="15.05"
     inkscape:cx="11.860465"
     inkscape:cy="11.860465"
     inkscape:window-width="1448"
     inkscape:window-height="790"
     inkscape:window-x="0"
     inkscape:window-y="38"
     inkscape:window-maximized="0"
     inkscape:current-layer="mdi-chili-mild-outline" />
  <path
     d="M 10.25,7.5 8.73,6.63 C 9.26,5.7 10.03,5 10.94,4.69 10.8,4.29 10.44,4 10,4 V 2 c 1.54,0 2.79,1.16 2.97,2.65 0.94,0.29 1.75,1.01 2.3,1.98 L 13.75,7.5 12,6.5 l -1.75,1"
     id="path1"
     style="fill:#008000" />
  <path
     style="fill:#ff0000;stroke-width:0.13289;stroke-linejoin:bevel;stroke-miterlimit:1"
     d="m 11.71875,9.8220774 c -0.703774,0.4372756 -1.51089,0.7362446 -2.1439999,1.2680936 -0.2361667,0.512019 -0.041743,1.122431 -0.00768,1.673014 0.3961353,2.616604 1.8668399,5.101012 4.1064939,6.545889 0.48371,0.219444 0.964088,-0.259017 0.880133,-0.748501 0.04367,-2.376659 0.0482,-4.760593 0.01507,-7.133569 -0.139594,-0.605558 -0.888016,-0.717555 -1.3279,-1.060569 C 12.756848,10.16132 12.281382,9.5909751 11.71875,9.8220774 Z"
     id="path2" />
  <path
     id="path3"
     d="M 12 8 L 10.25 9 L 9 8.2792969 C 8.4 8.6292969 8 9.27 8 10 L 8 11 C 8 20 16 22 16 22 L 16 10 C 16 9.27 15.6 8.6292969 15 8.2792969 L 13.75 9 L 12 8 z M 12 10.300781 L 14 11.449219 L 14 18.869141 C 12.23 17.689141 10.17 15.439687 10 11.429688 L 12 10.300781 z " />
</svg>
