<?xml version="1.0" encoding="UTF-8" standalone="no"?>
<svg
   id="mdi-chili-mild"
   viewBox="0 0 24 24"
   version="1.1"
   sodipodi:docname="chili-mild-color.svg"
   inkscape:version="1.4 (e7c3feb1, 2024-10-09)"
   xmlns:inkscape="http://www.inkscape.org/namespaces/inkscape"
   xmlns:sodipodi="http://sodipodi.sourceforge.net/DTD/sodipodi-0.dtd"
   xmlns="http://www.w3.org/2000/svg"
   xmlns:svg="http://www.w3.org/2000/svg">
  <defs
     id="defs1" />
  <sodipodi:namedview
     id="namedview1"
     pagecolor="#ffffff"
     bordercolor="#000000"
     borderopacity="0.25"
     inkscape:showpageshadow="2"
     inkscape:pageopacity="0.0"
     inkscape:pagecheckerboard="0"
     inkscape:deskcolor="#d1d1d1"
     inkscape:zoom="11.4"
     inkscape:cx="11.885965"
     inkscape:cy="12.017544"
     inkscape:window-width="1416"
     inkscape:window-height="715"
     inkscape:window-x="0"
     inkscape:window-y="38"
     inkscape:window-maximized="0"
     inkscape:current-layer="mdi-chili-mild" />
  <path
     d="m 12,6.5 1.75,1 1.52,-0.87 C 14.72,5.66 13.91,4.94 12.97,4.65 12.79,3.16 11.54,2 10,2 v 2 c 0.44,0 0.8,0.29 0.94,0.69 C 10.03,5 9.26,5.7 8.73,6.63 l 1.52,0.87 z"
     id="path2"
     style="fill:#008000" />
  <path
     d="M 16,10 V 22 C 16,22 8,20 8,11 V 10 C 8,9.27 8.4,8.63 9,8.28 L 10.25,9 12,8 13.75,9 15,8.28 c 0.6,0.35 1,0.99 1,1.72"
     id="path1"
     style="fill:#ff0000" />
</svg>
