<?xml version="1.0" encoding="UTF-8" standalone="no"?>
<svg
   id="mdi-circular-saw"
   viewBox="0 0 24 24"
   version="1.1"
   sodipodi:docname="circular-saw-green.svg"
   inkscape:version="1.4 (e7c3feb1, 2024-10-09)"
   xmlns:inkscape="http://www.inkscape.org/namespaces/inkscape"
   xmlns:sodipodi="http://sodipodi.sourceforge.net/DTD/sodipodi-0.dtd"
   xmlns="http://www.w3.org/2000/svg"
   xmlns:svg="http://www.w3.org/2000/svg">
  <defs
     id="defs1" />
  <sodipodi:namedview
     id="namedview1"
     pagecolor="#ffffff"
     bordercolor="#000000"
     borderopacity="0.25"
     inkscape:showpageshadow="2"
     inkscape:pageopacity="0.0"
     inkscape:pagecheckerboard="0"
     inkscape:deskcolor="#d1d1d1"
     inkscape:zoom="9.26"
     inkscape:cx="11.825054"
     inkscape:cy="11.825054"
     inkscape:window-width="1384"
     inkscape:window-height="690"
     inkscape:window-x="0"
     inkscape:window-y="38"
     inkscape:window-maximized="0"
     inkscape:current-layer="mdi-circular-saw" />
  <path
     d="M 7.4,15.4 6,14 h 5.79 c 0.24,0.42 0.71,0.7 1.21,0.7 0.5,0 0.97,-0.28 1.21,-0.7 H 20 v 1.4 c -1.61,-0.98 -1.54,0.35 -1.54,0.35 v 1.96 L 16.5,19.67 C 16,17.92 15.1,18.9 15.1,18.9 l -1.4,1.4 h -2.8 c 0.98,-1.61 -0.35,-1.54 -0.35,-1.54 H 8.59 L 6.63,16.8 C 8.38,16.31 7.4,15.4 7.4,15.4 Z"
     id="path4"
     style="fill:#666666" />
  <path
     id="path3"
     d="M 4.5 4 C 3.14 5.66 2.2507813 7.73 2.0507812 10 L 2 10 L 2 12 L 10 12 A 3 3 0 0 1 13 9 A 3 3 0 0 1 16 12 L 22 12 L 22 10 L 19.929688 10 C 19.439687 6.61 16.5 4 13 4 C 10.97 4 9.139375 4.87 7.859375 6.25 L 4.5 4 z M 5.0605469 6.7695312 L 6.7304688 7.890625 C 6.4004687 8.540625 6.1803125 9.25 6.0703125 10 L 4.0605469 10 C 4.1805469 8.84 4.5305469 7.7495313 5.0605469 6.7695312 z "
     style="fill:#00ff00" />
  <path
     d="m 13,11 a 1,1 0 0 1 1,1 1,1 0 0 1 -1,1 1,1 0 0 1 -1,-1 1,1 0 0 1 1,-1"
     id="path1" />
</svg>
