<?xml version="1.0" encoding="UTF-8" standalone="no"?>
<svg
   id="mdi-clipboard-alert"
   viewBox="0 0 24 24"
   version="1.1"
   sodipodi:docname="clipboard-alert-orange.svg"
   inkscape:version="1.4 (e7c3feb1, 2024-10-09)"
   xmlns:inkscape="http://www.inkscape.org/namespaces/inkscape"
   xmlns:sodipodi="http://sodipodi.sourceforge.net/DTD/sodipodi-0.dtd"
   xmlns="http://www.w3.org/2000/svg"
   xmlns:svg="http://www.w3.org/2000/svg">
  <defs
     id="defs1" />
  <sodipodi:namedview
     id="namedview1"
     pagecolor="#ffffff"
     bordercolor="#000000"
     borderopacity="0.25"
     inkscape:showpageshadow="2"
     inkscape:pageopacity="0.0"
     inkscape:pagecheckerboard="0"
     inkscape:deskcolor="#d1d1d1"
     inkscape:zoom="8.08"
     inkscape:cx="12.00495"
     inkscape:cy="12.00495"
     inkscape:window-width="1432"
     inkscape:window-height="809"
     inkscape:window-x="0"
     inkscape:window-y="38"
     inkscape:window-maximized="0"
     inkscape:current-layer="mdi-clipboard-alert" />
  <path
     d="M12,5A1,1 0 0,1 11,4A1,1 0 0,1 12,3A1,1 0 0,1 13,4A1,1 0 0,1 12,5M13,14H11V8H13M13,18H11V16H13M19,3H14.82C14.4,1.84 13.3,1 12,1C10.7,1 9.6,1.84 9.18,3H5A2,2 0 0,0 3,5V19A2,2 0 0,0 5,21H19A2,2 0 0,0 21,19V5A2,2 0 0,0 19,3Z"
     id="path1"
     style="fill:#ff6600" />
</svg>
