<?xml version="1.0" encoding="UTF-8" standalone="no"?>
<svg
   id="mdi-close-octagon-outline"
   viewBox="0 0 24 24"
   version="1.1"
   sodipodi:docname="close-octagon-outline-red.svg"
   inkscape:version="1.4 (e7c3feb1, 2024-10-09)"
   xmlns:inkscape="http://www.inkscape.org/namespaces/inkscape"
   xmlns:sodipodi="http://sodipodi.sourceforge.net/DTD/sodipodi-0.dtd"
   xmlns="http://www.w3.org/2000/svg"
   xmlns:svg="http://www.w3.org/2000/svg">
  <defs
     id="defs1" />
  <sodipodi:namedview
     id="namedview1"
     pagecolor="#ffffff"
     bordercolor="#000000"
     borderopacity="0.25"
     inkscape:showpageshadow="2"
     inkscape:pageopacity="0.0"
     inkscape:pagecheckerboard="0"
     inkscape:deskcolor="#d1d1d1"
     inkscape:zoom="13.12"
     inkscape:cx="11.928354"
     inkscape:cy="12.042683"
     inkscape:window-width="1432"
     inkscape:window-height="773"
     inkscape:window-x="0"
     inkscape:window-y="38"
     inkscape:window-maximized="0"
     inkscape:current-layer="mdi-close-octagon-outline" />
  <path
     style="fill:#ff0000;stroke-width:0.152439;stroke-linejoin:bevel;stroke-miterlimit:1"
     d="M 8.7426162,4.5666206 C 7.3535486,5.933973 5.9538187,7.3067928 4.6082118,8.7117011 4.3129943,9.2788529 4.5398315,9.973154 4.4686666,10.59347 c 0.028605,1.469404 -0.057492,2.955543 0.043554,4.414378 0.2503065,0.576011 0.865909,0.926217 1.2634308,1.410167 1.0349286,0.994978 2.0004568,2.083076 3.0793081,3.019185 0.5844074,0.230273 1.2675135,0.04232 1.8909495,0.103279 1.419238,-0.02893 2.855401,0.05814 4.264022,-0.04355 0.576095,-0.250439 0.926029,-0.866487 1.409888,-1.264307 0.99446,-1.035432 2.082029,-2.001534 3.017628,-3.080842 0.229835,-0.584392 0.04214,-1.267291 0.103032,-1.890624 -0.02861,-1.442408 0.05752,-2.901557 -0.04355,-4.333394 C 19.246685,8.3517892 18.631314,8.0014392 18.233945,7.5174393 17.25063,6.5537347 16.302789,5.5425242 15.297459,4.6083351 14.73035,4.3128844 14.03589,4.5398764 13.415527,4.4686666 11.94413,4.483266 10.464209,4.4394469 8.9981217,4.4904436 8.9129532,4.515836 8.8277848,4.5412283 8.7426162,4.5666206 Z m 1.3895178,4.9277701 c 0.594138,0.5221353 1.060911,1.2153043 1.750071,1.6098393 0.695024,0.01224 1.016665,-0.760383 1.51696,-1.1326189 0.48818,-0.4876696 0.976356,-0.9753415 1.464533,-1.4630126 0.330923,0.3380409 0.906255,0.6760184 0.259778,1.0143126 -0.69775,0.7392339 -1.489191,1.4086849 -2.128032,2.1917959 -0.34329,0.636849 0.492545,1.039968 0.826622,1.468765 0.559493,0.560077 1.118987,1.120151 1.678482,1.680226 -0.338041,0.330923 -0.676018,0.906255 -1.014312,0.259778 -0.739235,-0.69775 -1.408685,-1.489191 -2.191797,-2.128032 -0.636849,-0.34329 -1.039968,0.492545 -1.468764,0.826622 -0.560077,0.559493 -1.1201519,1.118987 -1.6802268,1.678482 C 8.8145255,15.162507 8.2391935,14.82453 8.8856702,14.486236 9.5834198,13.747001 10.374861,13.077551 11.013702,12.294439 11.356991,11.657554 10.52123,11.254317 10.187075,10.825531 9.615187,10.253088 9.0433608,9.6805835 8.4715308,9.1080829 8.8094726,8.7771304 9.1473435,8.2022721 9.4855696,8.8485786 9.7010909,9.0638493 9.9166123,9.27912 10.132134,9.4943907 Z"
     id="path2" />
  <path
     d="M8.27,3L3,8.27V15.73L8.27,21H15.73C17.5,19.24 21,15.73 21,15.73V8.27L15.73,3M9.1,5H14.9L19,9.1V14.9L14.9,19H9.1L5,14.9V9.1M9.12,7.71L7.71,9.12L10.59,12L7.71,14.88L9.12,16.29L12,13.41L14.88,16.29L16.29,14.88L13.41,12L16.29,9.12L14.88,7.71L12,10.59"
     id="path1" />
</svg>
