<?xml version="1.0" encoding="UTF-8" standalone="no"?>
<svg
   id="mdi-close-box-multiple-outline"
   viewBox="0 0 24 24"
   version="1.1"
   sodipodi:docname="close-box-multiple-outline-red.svg"
   inkscape:version="1.4 (e7c3feb1, 2024-10-09)"
   xmlns:inkscape="http://www.inkscape.org/namespaces/inkscape"
   xmlns:sodipodi="http://sodipodi.sourceforge.net/DTD/sodipodi-0.dtd"
   xmlns="http://www.w3.org/2000/svg"
   xmlns:svg="http://www.w3.org/2000/svg">
  <defs
     id="defs1" />
  <sodipodi:namedview
     id="namedview1"
     pagecolor="#ffffff"
     bordercolor="#000000"
     borderopacity="0.25"
     inkscape:showpageshadow="2"
     inkscape:pageopacity="0.0"
     inkscape:pagecheckerboard="0"
     inkscape:deskcolor="#d1d1d1"
     inkscape:zoom="4.32"
     inkscape:cx="11.921296"
     inkscape:cy="12.037037"
     inkscape:window-width="1384"
     inkscape:window-height="707"
     inkscape:window-x="0"
     inkscape:window-y="38"
     inkscape:window-maximized="0"
     inkscape:current-layer="mdi-close-box-multiple-outline" />
  <path
     style="fill:#ff0000;stroke-width:0.462963;stroke-linejoin:bevel;stroke-miterlimit:1"
     d="M 7.7813043,3.6390516 C 7.4024647,6.9164343 7.724549,10.327976 7.6176396,13.657407 c -0.014044,1.185904 -0.4009052,3.335331 1.5258789,2.799027 3.6139785,-0.06088 7.2782435,0.121907 10.8607185,-0.09164 0.851362,-0.968871 0.166499,-2.713903 0.387383,-3.980539 -0.06161,-2.8422203 0.123664,-5.735392 -0.09164,-8.5459 C 19.331112,2.9869933 17.58608,3.6718566 16.319444,3.4509729 13.493818,3.571762 10.53884,3.2064748 7.7813043,3.6390516 Z m 4.4108077,3.7299262 c 0.810299,1.0617477 2.1469,2.2826109 3.057017,0.5621095 0.484885,-1.2624871 2.905464,-1.8448033 1.813137,-0.2577468 -0.586374,0.8973778 -2.882357,1.8716114 -1.538638,3.0179205 0.407563,0.854489 2.624474,1.702302 1.739827,2.562862 -0.563874,0.686911 -1.157416,-0.664323 -1.663746,-0.930956 -0.791302,-1.317883 -2.173944,-1.727876 -3.004151,-0.18406 -0.511538,0.410046 -1.030599,1.214568 -1.610134,1.331578 C 9.6541209,12.72596 11.522872,11.917288 12.026892,11.154189 13.733201,10.239994 12.45337,8.9322604 11.415835,8.1371167 9.6871088,7.2013218 11.2192,5.5939775 12.192112,7.3689778 Z"
     id="path2" />
  <path
     d="M20 2H8C6.9 2 6 2.9 6 4V16C6 17.11 6.9 18 8 18H20C21.11 18 22 17.11 22 16V4C22 2.9 21.11 2 20 2M20 16H8V4H20V16M4 6V20H18V22H4C2.9 22 2 21.11 2 20V6H4M9.77 12.84L12.6 10L9.77 7.15L11.17 5.75L14 8.6L16.84 5.77L18.24 7.17L15.4 10L18.23 12.84L16.83 14.24L14 11.4L11.17 14.24L9.77 12.84Z"
     id="path1" />
</svg>
