<?xml version="1.0" encoding="UTF-8" standalone="no"?>
<svg
   id="mdi-close-circle-multiple"
   viewBox="0 0 24 24"
   version="1.1"
   sodipodi:docname="close-circle-multiple-red.svg"
   inkscape:version="1.4 (e7c3feb1, 2024-10-09)"
   xmlns:inkscape="http://www.inkscape.org/namespaces/inkscape"
   xmlns:sodipodi="http://sodipodi.sourceforge.net/DTD/sodipodi-0.dtd"
   xmlns="http://www.w3.org/2000/svg"
   xmlns:svg="http://www.w3.org/2000/svg">
  <defs
     id="defs1" />
  <sodipodi:namedview
     id="namedview1"
     pagecolor="#ffffff"
     bordercolor="#000000"
     borderopacity="0.25"
     inkscape:showpageshadow="2"
     inkscape:pageopacity="0.0"
     inkscape:pagecheckerboard="0"
     inkscape:deskcolor="#d1d1d1"
     inkscape:zoom="4.96"
     inkscape:cx="11.895161"
     inkscape:cy="11.794355"
     inkscape:window-width="1432"
     inkscape:window-height="684"
     inkscape:window-x="0"
     inkscape:window-y="38"
     inkscape:window-maximized="0"
     inkscape:current-layer="mdi-close-circle-multiple" />
  <path
     id="path2"
     style="fill:#ff0000"
     d="M 15 3 C 10.04 3 6 7.04 6 12 C 6 16.96 10.04 21 15 21 C 19.96 21 24 16.96 24 12 C 24 7.04 19.96 3 15 3 z M 11.410156 7 L 15 10.589844 L 18.589844 7 L 20 8.4101562 L 16.410156 12 L 20 15.589844 L 18.589844 17 L 15 13.410156 L 11.410156 17 L 10 15.589844 L 13.589844 12 L 10 8.4101562 L 11.410156 7 z " />
  <path
     d="M 2,12 C 2,9.21 3.64,6.8 6,5.68 V 3.5 C 2.5,4.76 0,8.09 0,12 c 0,3.91 2.5,7.24 6,8.5 V 18.32 C 3.64,17.2 2,14.79 2,12"
     id="path1" />
</svg>
