<?xml version="1.0" encoding="UTF-8" standalone="no"?>
<svg
   id="mdi-close-network-outline"
   viewBox="0 0 24 24"
   version="1.1"
   sodipodi:docname="close-network-outline-red.svg"
   inkscape:version="1.4 (e7c3feb1, 2024-10-09)"
   xmlns:inkscape="http://www.inkscape.org/namespaces/inkscape"
   xmlns:sodipodi="http://sodipodi.sourceforge.net/DTD/sodipodi-0.dtd"
   xmlns="http://www.w3.org/2000/svg"
   xmlns:svg="http://www.w3.org/2000/svg">
  <defs
     id="defs1" />
  <sodipodi:namedview
     id="namedview1"
     pagecolor="#ffffff"
     bordercolor="#000000"
     borderopacity="0.25"
     inkscape:showpageshadow="2"
     inkscape:pageopacity="0.0"
     inkscape:pagecheckerboard="0"
     inkscape:deskcolor="#d1d1d1"
     inkscape:zoom="11.42"
     inkscape:cx="11.952715"
     inkscape:cy="11.996497"
     inkscape:window-width="1456"
     inkscape:window-height="821"
     inkscape:window-x="0"
     inkscape:window-y="38"
     inkscape:window-maximized="0"
     inkscape:current-layer="mdi-close-network-outline" />
  <path
     style="fill:#ff0000;stroke-width:0.175131;stroke-linejoin:bevel;stroke-miterlimit:1"
     d="M 6.65978,4.5881335 C 6.1692084,5.1167733 6.5030737,5.9170233 6.4052923,6.5674256 c 0.017713,2.8285552 -0.035323,5.6680344 0.02641,8.4897924 0.1705968,0.782475 1.1405014,0.44596 1.7119051,0.516474 2.9745166,-0.01759 5.9599006,0.0352 8.9276216,-0.02641 0.782474,-0.170597 0.445959,-1.140502 0.516473,-1.711905 -0.01772,-2.945309 0.03531,-5.9015413 -0.02641,-8.8400559 C 17.390695,4.2128468 16.420791,4.5493619 15.849387,4.4788474 12.874871,4.4964416 9.8894869,4.4436506 6.921766,4.5052577 6.8344373,4.532883 6.7471086,4.5605082 6.65978,4.5881335 Z m 3.838694,3.2997893 c 0.498192,0.3879911 0.845408,1.0957118 1.482679,1.2265417 0.672406,-0.087728 0.998474,-0.8461036 1.513367,-1.2265417 0.364008,-0.4248823 0.728066,-0.876509 1.089807,-0.2040336 0.449501,0.3656992 -0.520301,0.7303401 -0.700451,1.0955763 -0.35913,0.4610002 -1.24982,0.8918019 -0.890599,1.5777965 0.550355,0.616072 1.168725,1.17478 1.74495,1.769045 -0.357841,0.389726 -0.715606,0.90363 -1.074114,0.207258 -0.528587,-0.459886 -0.933442,-1.089233 -1.565684,-1.407182 -0.710166,0.02277 -1.035671,0.809882 -1.55583,1.193938 -0.297221,0.168154 -0.6019681,0.943291 -0.9004824,0.394377 C 9.03673,12.179051 9.5002696,11.842668 9.8746257,11.507971 10.260302,11.018131 10.956918,10.673577 11.087466,10.04552 11.001404,9.3725319 10.241734,9.0467137 9.861571,8.5314963 9.43469,8.1664237 8.9840804,7.8013732 9.6556768,7.4355535 9.9151428,6.9398588 10.228109,7.7704359 10.498474,7.8879228 Z"
     id="path2" />
  <path
     d="M15,20A1,1 0 0,0 14,19H13V17H17A2,2 0 0,0 19,15V5A2,2 0 0,0 17,3H7A2,2 0 0,0 5,5V15A2,2 0 0,0 7,17H11V19H10A1,1 0 0,0 9,20H2V22H9A1,1 0 0,0 10,23H14A1,1 0 0,0 15,22H22V20H15M7,15V5H17V15H7M15.54,12.12L13.41,10L15.53,7.87L14.12,6.46L12,8.59L9.88,6.46L8.47,7.87L10.59,10L8.47,12.13L9.88,13.54L12,11.41L14.12,13.54L15.54,12.12Z"
     id="path1" />
</svg>
