<?xml version="1.0" encoding="UTF-8" standalone="no"?>
<svg
   id="mdi-close-box-outline"
   viewBox="0 0 24 24"
   version="1.1"
   sodipodi:docname="close-box-outline-red.svg"
   inkscape:version="1.4 (e7c3feb1, 2024-10-09)"
   xmlns:inkscape="http://www.inkscape.org/namespaces/inkscape"
   xmlns:sodipodi="http://sodipodi.sourceforge.net/DTD/sodipodi-0.dtd"
   xmlns="http://www.w3.org/2000/svg"
   xmlns:svg="http://www.w3.org/2000/svg">
  <defs
     id="defs1" />
  <sodipodi:namedview
     id="namedview1"
     pagecolor="#ffffff"
     bordercolor="#000000"
     borderopacity="0.25"
     inkscape:showpageshadow="2"
     inkscape:pageopacity="0.0"
     inkscape:pagecheckerboard="0"
     inkscape:deskcolor="#d1d1d1"
     inkscape:zoom="7.52"
     inkscape:cx="11.901596"
     inkscape:cy="11.968085"
     inkscape:window-width="1440"
     inkscape:window-height="765"
     inkscape:window-x="0"
     inkscape:window-y="38"
     inkscape:window-maximized="0"
     inkscape:current-layer="mdi-close-box-outline" />
  <path
     style="fill:#ff0000;stroke-width:0.265957;stroke-linejoin:bevel;stroke-miterlimit:1"
     d="m 4.6625665,4.5978952 c -0.4630268,0.8938662 -0.088887,2.0014318 -0.2093376,2.981892 0.030757,3.8065448 -0.061535,7.6351418 0.046183,11.4278938 0.3157175,0.844231 1.4617709,0.337719 2.1495246,0.47526 4.1168265,-0.03076 8.2557105,0.06154 12.3587445,-0.04618 0.844231,-0.315717 0.337719,-1.46177 0.47526,-2.149524 -0.03076,-4.116827 0.06154,-8.2557106 -0.04618,-12.3587441 -0.315717,-0.8442314 -1.46177,-0.33772 -2.149524,-0.475261 -4.116827,0.030762 -8.2557103,-0.061541 -12.3587438,0.046183 -0.088641,0.032828 -0.1772823,0.065656 -0.2659234,0.098484 z m 5.1212392,4.5051737 c 0.7549083,0.640257 1.3180553,1.5564671 2.2092133,2.0006541 0.961625,-0.3078 1.481324,-1.3589005 2.261677,-1.9700066 0.558016,-0.2805277 1.115353,-1.7542911 1.673921,-1.0635701 0.70717,0.5589287 -0.790472,1.1191119 -1.060453,1.6785967 -0.626129,0.744916 -1.536732,1.292155 -1.965592,2.17415 0.298328,0.950116 1.333841,1.462754 1.933906,2.232848 0.492514,0.496084 0.960356,0.973316 1.43082,1.492374 -0.292811,0.274856 -0.623166,0.866905 -0.943467,0.323048 -1.137706,-0.972905 -2.045255,-2.258329 -3.294464,-3.061208 -0.935033,0.239136 -1.429085,1.284864 -2.1794407,1.857167 -0.5122699,0.423462 -1.0264847,1.18855 -1.5509631,1.39213 C 7.3516608,15.63644 8.3169685,15.110484 8.7989834,14.588792 9.535432,13.73188 10.566507,13.080474 11.103464,12.084441 10.786964,11.109803 9.7234864,10.577525 9.1030689,9.7838057 8.8001055,9.2022209 7.2857973,8.6200761 8.0387197,8.0389794 8.5904911,7.2652943 9.1432995,8.7348043 9.695558,9.0149843 Z"
     id="path2" />
  <path
     d="M19,3H5A2,2 0 0,0 3,5V19A2,2 0 0,0 5,21H19A2,2 0 0,0 21,19V5A2,2 0 0,0 19,3M19,19H5V5H19V19M17,8.4L13.4,12L17,15.6L15.6,17L12,13.4L8.4,17L7,15.6L10.6,12L7,8.4L8.4,7L12,10.6L15.6,7L17,8.4Z"
     id="path1" />
</svg>
