<?xml version="1.0" encoding="UTF-8" standalone="no"?>
<svg
   id="mdi-close-box-multiple"
   viewBox="0 0 24 24"
   version="1.1"
   sodipodi:docname="close-box-multiple-red.svg"
   inkscape:version="1.4 (e7c3feb1, 2024-10-09)"
   xmlns:inkscape="http://www.inkscape.org/namespaces/inkscape"
   xmlns:sodipodi="http://sodipodi.sourceforge.net/DTD/sodipodi-0.dtd"
   xmlns="http://www.w3.org/2000/svg"
   xmlns:svg="http://www.w3.org/2000/svg">
  <defs
     id="defs1" />
  <sodipodi:namedview
     id="namedview1"
     pagecolor="#ffffff"
     bordercolor="#000000"
     borderopacity="0.25"
     inkscape:showpageshadow="2"
     inkscape:pageopacity="0.0"
     inkscape:pagecheckerboard="0"
     inkscape:deskcolor="#d1d1d1"
     inkscape:zoom="9.26"
     inkscape:cx="11.87905"
     inkscape:cy="11.987041"
     inkscape:window-width="1408"
     inkscape:window-height="745"
     inkscape:window-x="0"
     inkscape:window-y="38"
     inkscape:window-maximized="0"
     inkscape:current-layer="mdi-close-box-multiple" />
  <path
     id="path2"
     style="fill:#ff0000"
     d="M 7.7792969 2 C 6.7992969 2 6 2.7992969 6 3.7792969 L 6 16.220703 C 6 17.200703 6.7992969 18 7.7792969 18 L 20.220703 18 C 21.200703 18 22 17.200703 22 16.220703 L 22 3.7792969 C 22 2.7992969 21.200703 2 20.220703 2 L 7.7792969 2 z M 10.400391 5 L 14 8.5996094 L 17.599609 5 L 19 6.4003906 L 15.400391 10 L 19 13.599609 L 17.599609 15 L 14 11.400391 L 10.400391 15 L 9 13.599609 L 12.599609 10 L 9 6.4003906 L 10.400391 5 z " />
  <path
     d="m 4,20 h 14 v 2 H 4 C 2.9,22 2,21.11 2,20 V 6 h 2 v 14"
     id="path1" />
</svg>
