<?xml version="1.0" encoding="UTF-8" standalone="no"?>
<svg
   id="mdi-close-box-multiple"
   viewBox="0 0 24 24"
   version="1.1"
   sodipodi:docname="close-box-multiple-red.svg"
   inkscape:version="1.4 (e7c3feb1, 2024-10-09)"
   xmlns:inkscape="http://www.inkscape.org/namespaces/inkscape"
   xmlns:sodipodi="http://sodipodi.sourceforge.net/DTD/sodipodi-0.dtd"
   xmlns="http://www.w3.org/2000/svg"
   xmlns:svg="http://www.w3.org/2000/svg">
  <defs
     id="defs1" />
  <sodipodi:namedview
     id="namedview1"
     pagecolor="#ffffff"
     bordercolor="#000000"
     borderopacity="0.25"
     inkscape:showpageshadow="2"
     inkscape:pageopacity="0.0"
     inkscape:pagecheckerboard="0"
     inkscape:deskcolor="#d1d1d1"
     inkscape:zoom="9.26"
     inkscape:cx="11.825054"
     inkscape:cy="11.987041"
     inkscape:window-width="1408"
     inkscape:window-height="745"
     inkscape:window-x="0"
     inkscape:window-y="38"
     inkscape:window-maximized="0"
     inkscape:current-layer="mdi-close-box-multiple" />
  <path
     d="M 20.22,2 H 7.78 C 6.8,2 6,2.8 6,3.78 V 16.22 C 6,17.2 6.8,18 7.78,18 H 20.22 C 21.2,18 22,17.2 22,16.22 V 3.78 C 22,2.8 21.2,2 20.22,2"
     id="path2"
     style="fill:#ff0000" />
  <path
     d="M 19,13.6 17.6,15 14,11.4 10.4,15 9,13.6 12.6,10 9,6.4 10.4,5 14,8.6 17.6,5 19,6.4 15.4,10 Z"
     id="path3"
     style="fill:#f9f9f9" />
  <path
     d="m 4,20 h 14 v 2 H 4 C 2.9,22 2,21.11 2,20 V 6 h 2 v 14"
     id="path1" />
</svg>
