<?xml version="1.0" encoding="UTF-8" standalone="no"?>
<svg
   id="mdi-close-circle-outline"
   viewBox="0 0 24 24"
   version="1.1"
   sodipodi:docname="close-circle-outline-red.svg"
   inkscape:version="1.4 (e7c3feb1, 2024-10-09)"
   xmlns:inkscape="http://www.inkscape.org/namespaces/inkscape"
   xmlns:sodipodi="http://sodipodi.sourceforge.net/DTD/sodipodi-0.dtd"
   xmlns="http://www.w3.org/2000/svg"
   xmlns:svg="http://www.w3.org/2000/svg">
  <defs
     id="defs1" />
  <sodipodi:namedview
     id="namedview1"
     pagecolor="#ffffff"
     bordercolor="#000000"
     borderopacity="0.25"
     inkscape:showpageshadow="2"
     inkscape:pageopacity="0.0"
     inkscape:pagecheckerboard="0"
     inkscape:deskcolor="#d1d1d1"
     inkscape:zoom="7.52"
     inkscape:cx="11.901596"
     inkscape:cy="11.968085"
     inkscape:window-width="1512"
     inkscape:window-height="871"
     inkscape:window-x="0"
     inkscape:window-y="38"
     inkscape:window-maximized="0"
     inkscape:current-layer="mdi-close-circle-outline" />
  <path
     style="fill:#ff0000;stroke-width:0.265957;stroke-linejoin:bevel;stroke-miterlimit:1"
     d="M 11.849651,3.5522461 C 8.5775246,3.482897 5.4974911,5.626875 4.2391737,8.6134574 2.8725394,11.364322 3.3992081,14.785704 5.2898001,17.155814 c 2.0445882,2.768077 5.8526389,4.07363 9.1436199,2.985259 3.913139,-1.11396 6.656311,-5.301609 5.977515,-9.337331 C 19.835493,6.7405262 16.03553,3.2768285 11.849651,3.5522461 Z m -2.4167325,5.223051 c 0.8763045,0.7224158 1.5228055,1.7577609 2.5219205,2.2975189 0.943761,-0.298547 1.459124,-1.3190442 2.220172,-1.9238261 0.357976,-0.8783754 1.555962,0.4944617 0.594148,0.7631697 -0.6,0.6946684 -1.443631,1.2199244 -1.846588,2.0517704 0.297121,0.935673 1.304334,1.445259 1.907673,2.200122 0.380774,0.271747 0.508286,0.525179 0.06961,0.805924 -0.53387,0.574972 -1.075678,-0.77382 -1.613003,-1.066928 -0.460698,-0.49296 -1.240061,-1.477302 -1.864282,-0.637961 -0.661347,0.658991 -1.32271,1.317966 -1.9841924,1.97682 C 8.5997541,14.734282 8.8914536,14.225617 9.605385,13.71638 10.054313,13.103194 11.01109,12.67776 11.061994,11.884971 10.61967,10.96631 9.6290497,10.375528 8.9731146,9.5850709 8.4548245,9.3960424 9.2854439,8.8736914 9.4329185,8.7752971 Z"
     id="path2" />
  <path
     d="M12,20C7.59,20 4,16.41 4,12C4,7.59 7.59,4 12,4C16.41,4 20,7.59 20,12C20,16.41 16.41,20 12,20M12,2C6.47,2 2,6.47 2,12C2,17.53 6.47,22 12,22C17.53,22 22,17.53 22,12C22,6.47 17.53,2 12,2M14.59,8L12,10.59L9.41,8L8,9.41L10.59,12L8,14.59L9.41,16L12,13.41L14.59,16L16,14.59L13.41,12L16,9.41L14.59,8Z"
     id="path1" />
</svg>
