<?xml version="1.0" encoding="UTF-8" standalone="no"?>
<svg
   id="mdi-close-circle-multiple"
   viewBox="0 0 24 24"
   version="1.1"
   sodipodi:docname="close-circle-multiple-red.svg"
   inkscape:version="1.4 (e7c3feb1, 2024-10-09)"
   xmlns:inkscape="http://www.inkscape.org/namespaces/inkscape"
   xmlns:sodipodi="http://sodipodi.sourceforge.net/DTD/sodipodi-0.dtd"
   xmlns="http://www.w3.org/2000/svg"
   xmlns:svg="http://www.w3.org/2000/svg">
  <defs
     id="defs1" />
  <sodipodi:namedview
     id="namedview1"
     pagecolor="#ffffff"
     bordercolor="#000000"
     borderopacity="0.25"
     inkscape:showpageshadow="2"
     inkscape:pageopacity="0.0"
     inkscape:pagecheckerboard="0"
     inkscape:deskcolor="#d1d1d1"
     inkscape:zoom="4.96"
     inkscape:cx="11.794355"
     inkscape:cy="11.794355"
     inkscape:window-width="1432"
     inkscape:window-height="684"
     inkscape:window-x="0"
     inkscape:window-y="38"
     inkscape:window-maximized="0"
     inkscape:current-layer="mdi-close-circle-multiple" />
  <path
     d="m 15,3 c -4.96,0 -9,4.04 -9,9 0,4.96 4.04,9 9,9 4.96,0 9,-4.04 9,-9 0,-4.96 -4.04,-9 -9,-9"
     id="path2"
     style="fill:#ff0000" />
  <path
     d="M 20,15.59 18.59,17 15,13.41 11.41,17 10,15.59 13.59,12 10,8.41 11.41,7 15,10.59 18.59,7 20,8.41 16.41,12 Z"
     id="path3"
     style="fill:#f9f9f9" />
  <path
     d="M 2,12 C 2,9.21 3.64,6.8 6,5.68 V 3.5 C 2.5,4.76 0,8.09 0,12 c 0,3.91 2.5,7.24 6,8.5 V 18.32 C 3.64,17.2 2,14.79 2,12"
     id="path1" />
</svg>
