<?xml version="1.0" encoding="UTF-8" standalone="no"?>
<svg
   id="mdi-close-outline"
   viewBox="0 0 24 24"
   version="1.1"
   sodipodi:docname="close-outline-red.svg"
   inkscape:version="1.4 (e7c3feb1, 2024-10-09)"
   xmlns:inkscape="http://www.inkscape.org/namespaces/inkscape"
   xmlns:sodipodi="http://sodipodi.sourceforge.net/DTD/sodipodi-0.dtd"
   xmlns="http://www.w3.org/2000/svg"
   xmlns:svg="http://www.w3.org/2000/svg">
  <defs
     id="defs1" />
  <sodipodi:namedview
     id="namedview1"
     pagecolor="#ffffff"
     bordercolor="#000000"
     borderopacity="0.25"
     inkscape:showpageshadow="2"
     inkscape:pageopacity="0.0"
     inkscape:pagecheckerboard="0"
     inkscape:deskcolor="#d1d1d1"
     inkscape:zoom="15.07"
     inkscape:cx="11.911082"
     inkscape:cy="11.911082"
     inkscape:window-width="1448"
     inkscape:window-height="800"
     inkscape:window-x="0"
     inkscape:window-y="38"
     inkscape:window-maximized="0"
     inkscape:current-layer="mdi-close-outline" />
  <path
     style="fill:#ff0000;stroke-width:0.132714;stroke-linejoin:bevel;stroke-miterlimit:1"
     d="M 7.0862019,5.3339623 C 6.4727711,5.7361422 6.0269654,6.3520162 5.4822288,6.8417697 5.0925506,7.2761011 5.4928778,7.780633 5.8575391,8.0657173 c 1.3146645,1.3150938 2.6293266,2.6301897 3.943986,3.9452887 -1.4455838,1.462513 -2.9296071,2.895871 -4.3512059,4.376599 -0.4089662,0.540426 0.2505132,1.001313 0.5937359,1.353944 0.4168081,0.328699 0.7329699,0.977752 1.3329265,0.917695 0.5324717,-0.181664 0.8346025,-0.732209 1.2622402,-1.075348 1.1283659,-1.116722 2.2476892,-2.242527 3.3708772,-3.364446 1.463196,1.445895 2.897265,2.9302 4.378672,4.352113 0.541007,0.409282 1.001776,-0.251307 1.353751,-0.595615 0.342591,-0.438068 1.050663,-0.758842 0.94475,-1.401213 C 18.178005,15.849392 17.447965,15.297226 16.850091,14.641388 15.973297,13.764594 15.096503,12.8878 14.219709,12.011006 15.665472,10.547808 17.149707,9.1137982 18.571563,7.632463 18.980845,7.0914556 18.320256,6.6306867 17.975948,6.2787118 17.537985,5.936168 17.217249,5.228284 16.574994,5.3342216 15.8339,5.8589674 15.266238,6.6047927 14.594571,7.2180392 13.733125,8.0792034 12.871676,8.9403632 12.010228,9.8015251 10.547419,8.3556754 9.1138163,6.8713356 7.6328518,5.449412 7.4692229,5.31136 7.2881573,5.3135021 7.0862019,5.3339623 Z"
     id="path2"
     inkscape:label="path2" />
  <path
     d="M3,16.74L7.76,12L3,7.26L7.26,3L12,7.76L16.74,3L21,7.26L16.24,12L21,16.74L16.74,21L12,16.24L7.26,21L3,16.74M12,13.41L16.74,18.16L18.16,16.74L13.41,12L18.16,7.26L16.74,5.84L12,10.59L7.26,5.84L5.84,7.26L10.59,12L5.84,16.74L7.26,18.16L12,13.41Z"
     id="path1" />
</svg>
