<?xml version="1.0" encoding="UTF-8" standalone="no"?>
<svg
   id="mdi-close-box"
   viewBox="0 0 24 24"
   version="1.1"
   sodipodi:docname="close-box-red.svg"
   inkscape:version="1.4 (e7c3feb1, 2024-10-09)"
   xmlns:inkscape="http://www.inkscape.org/namespaces/inkscape"
   xmlns:sodipodi="http://sodipodi.sourceforge.net/DTD/sodipodi-0.dtd"
   xmlns="http://www.w3.org/2000/svg"
   xmlns:svg="http://www.w3.org/2000/svg">
  <defs
     id="defs1" />
  <sodipodi:namedview
     id="namedview1"
     pagecolor="#ffffff"
     bordercolor="#000000"
     borderopacity="0.25"
     inkscape:showpageshadow="2"
     inkscape:pageopacity="0.0"
     inkscape:pagecheckerboard="0"
     inkscape:deskcolor="#d1d1d1"
     inkscape:zoom="1.0833333"
     inkscape:cx="11.538462"
     inkscape:cy="12"
     inkscape:window-width="1104"
     inkscape:window-height="245"
     inkscape:window-x="0"
     inkscape:window-y="38"
     inkscape:window-maximized="0"
     inkscape:current-layer="mdi-close-box" />
  <path
     d="M19,3H16.3H7.7H5A2,2 0 0,0 3,5V7.7V16.4V19A2,2 0 0,0 5,21H7.7H16.4H19A2,2 0 0,0 21,19V16.3V7.7V5A2,2 0 0,0 19,3M15.6,17L12,13.4L8.4,17L7,15.6L10.6,12L7,8.4L8.4,7L12,10.6L15.6,7L17,8.4L13.4,12L17,15.6L15.6,17Z"
     id="path1"
     style="fill:#ff0000" />
</svg>
