<?xml version="1.0" encoding="UTF-8" standalone="no"?>
<svg
   id="mdi-cloud-alert-outline"
   viewBox="0 0 24 24"
   version="1.1"
   sodipodi:docname="cloud-alert-outline-red.svg"
   inkscape:version="1.4 (e7c3feb1, 2024-10-09)"
   xmlns:inkscape="http://www.inkscape.org/namespaces/inkscape"
   xmlns:sodipodi="http://sodipodi.sourceforge.net/DTD/sodipodi-0.dtd"
   xmlns="http://www.w3.org/2000/svg"
   xmlns:svg="http://www.w3.org/2000/svg">
  <defs
     id="defs1" />
  <sodipodi:namedview
     id="namedview1"
     pagecolor="#ffffff"
     bordercolor="#000000"
     borderopacity="0.25"
     inkscape:showpageshadow="2"
     inkscape:pageopacity="0.0"
     inkscape:pagecheckerboard="0"
     inkscape:deskcolor="#d1d1d1"
     inkscape:zoom="9.92"
     inkscape:cx="11.844758"
     inkscape:cy="11.844758"
     inkscape:window-width="1392"
     inkscape:window-height="758"
     inkscape:window-x="0"
     inkscape:window-y="38"
     inkscape:window-maximized="0"
     inkscape:current-layer="mdi-cloud-alert-outline" />
  <path
     style="fill:#ff0000;stroke-width:0.201613;stroke-linejoin:bevel;stroke-miterlimit:1"
     d="m 11.8674,5.46875 c -2.7208722,0.00349 -5.1616285,2.3304728 -5.365187,5.024178 -2.0472309,-0.07194 -4.046041,1.717138 -3.9743731,3.808987 -0.1044948,0.986427 0.1828363,1.971962 0.8318501,2.7265 0.8451415,1.145193 2.3206974,1.576458 3.6925785,1.485211 4.0577345,0.01504 8.1207585,0.09584 12.1755775,-0.0692 1.391899,-0.352247 2.507489,-1.817238 2.269524,-3.279556 -0.123216,-1.452409 -1.401757,-2.651683 -2.85778,-2.69034 -0.399598,-0.133955 -1.223344,0.192702 -1.062948,-0.472181 C 17.575928,10.283187 17.31471,8.3850073 15.974476,7.1623771 14.913151,6.0652248 13.396782,5.4255683 11.8674,5.46875 Z m 0.128568,2.0868117 c 0.828124,-0.2048442 0.319679,0.9268816 0.458551,1.4112903 0,1.145755 0,2.291509 0,3.437264 -0.774125,0.166005 -1.101966,-0.114274 -0.917102,-0.907258 0,-1.313766 0,-2.627531 0,-3.9412963 0.15285,0 0.3057,0 0.458551,0 z m 0,7.9637093 c 0.665112,-0.349789 0.684612,1.202187 0.05532,0.917103 -0.684096,0.389795 -0.73959,-1.052948 -0.211457,-0.917103 h 0.100806 z"
     id="path2" />
  <path
     d="M21.86 12.5C21.1 11.63 20.15 11.13 19 11C19 9.05 18.32 7.4 16.96 6.04C15.6 4.68 13.95 4 12 4C10.42 4 9 4.47 7.75 5.43S5.67 7.62 5.25 9.15C4 9.43 2.96 10.08 2.17 11.1S1 13.28 1 14.58C1 16.09 1.54 17.38 2.61 18.43C3.69 19.5 5 20 6.5 20H18.5C19.75 20 20.81 19.56 21.69 18.69C22.56 17.81 23 16.75 23 15.5C23 14.35 22.62 13.35 21.86 12.5M20.27 17.27C19.79 17.76 19.2 18 18.5 18H6.5C5.53 18 4.71 17.66 4.03 17C3.34 16.29 3 15.47 3 14.5S3.34 12.71 4.03 12.03C4.71 11.34 5.53 11 6.5 11H7C7 9.62 7.5 8.44 8.46 7.46C9.44 6.5 10.62 6 12 6S14.56 6.5 15.54 7.46C16.5 8.44 17 9.62 17 11V13H18.5C19.2 13 19.79 13.24 20.27 13.73S21 14.8 21 15.5 20.76 16.79 20.27 17.27M11 15H13V17H11V15M11 7H13V13H11V7Z"
     id="path1" />
</svg>
