<?xml version="1.0" encoding="UTF-8" standalone="no"?>
<svg
   id="mdi-clover"
   viewBox="0 0 24 24"
   version="1.1"
   sodipodi:docname="clover-green.svg"
   inkscape:version="1.4 (e7c3feb1, 2024-10-09)"
   xmlns:inkscape="http://www.inkscape.org/namespaces/inkscape"
   xmlns:sodipodi="http://sodipodi.sourceforge.net/DTD/sodipodi-0.dtd"
   xmlns="http://www.w3.org/2000/svg"
   xmlns:svg="http://www.w3.org/2000/svg">
  <defs
     id="defs1" />
  <sodipodi:namedview
     id="namedview1"
     pagecolor="#ffffff"
     bordercolor="#000000"
     borderopacity="0.25"
     inkscape:showpageshadow="2"
     inkscape:pageopacity="0.0"
     inkscape:pagecheckerboard="0"
     inkscape:deskcolor="#d1d1d1"
     inkscape:zoom="1.16"
     inkscape:cx="11.637931"
     inkscape:cy="12.068966"
     inkscape:window-width="1448"
     inkscape:window-height="711"
     inkscape:window-x="0"
     inkscape:window-y="38"
     inkscape:window-maximized="0"
     inkscape:current-layer="mdi-clover" />
  <path
     d="M12,11.18C15.3,8.18 17,6.64 17,4.69C17,3.19 15.75,2 14.25,2C13.39,2 12.57,2.36 12,3C11.43,2.36 10.61,2 9.69,2C8.19,2 7,3.25 7,4.75C7,6.64 8.7,8.18 12,11.18M11.18,12C8.18,8.7 6.64,7 4.69,7C3.19,7 2,8.25 2,9.75C2,10.61 2.36,11.43 3,12C2.36,12.57 2,13.39 2,14.31C2,15.81 3.25,17 4.75,17C6.64,17 8.18,15.3 11.18,12M12.83,12C15.82,15.3 17.36,17 19.31,17C20.81,17 22,15.75 22,14.25C22,13.39 21.64,12.57 21,12C21.64,11.43 22,10.61 22,9.69C22,8.19 20.75,7 19.25,7C17.36,7 15.82,8.7 12.83,12M12,12.82C8.7,15.82 7,17.36 7,19.31C7,20.81 8.25,22 9.75,22C10.61,22 11.43,21.64 12,21C12.57,21.64 13.39,22 14.31,22C15.81,22 17,20.75 17,19.25C17,17.36 15.3,15.82 12,12.82Z"
     id="path1"
     style="fill:#00ff00" />
</svg>
