<?xml version="1.0" encoding="UTF-8" standalone="no"?>
<svg
   id="mdi-clover-outline"
   viewBox="0 0 24 24"
   version="1.1"
   sodipodi:docname="clover-outline-green.svg"
   inkscape:version="1.4 (e7c3feb1, 2024-10-09)"
   xmlns:inkscape="http://www.inkscape.org/namespaces/inkscape"
   xmlns:sodipodi="http://sodipodi.sourceforge.net/DTD/sodipodi-0.dtd"
   xmlns="http://www.w3.org/2000/svg"
   xmlns:svg="http://www.w3.org/2000/svg">
  <defs
     id="defs1" />
  <sodipodi:namedview
     id="namedview1"
     pagecolor="#ffffff"
     bordercolor="#000000"
     borderopacity="0.25"
     inkscape:showpageshadow="2"
     inkscape:pageopacity="0.0"
     inkscape:pagecheckerboard="0"
     inkscape:deskcolor="#d1d1d1"
     inkscape:zoom="19.85"
     inkscape:cx="11.86398"
     inkscape:cy="11.86398"
     inkscape:window-width="1440"
     inkscape:window-height="812"
     inkscape:window-x="0"
     inkscape:window-y="38"
     inkscape:window-maximized="0"
     inkscape:current-layer="mdi-clover-outline" />
  <path
     style="fill:#008000;stroke-width:0.100756;stroke-linejoin:bevel;stroke-miterlimit:1"
     d="m 11.620848,15.091999 c -0.920891,0.937666 -1.9522657,1.792407 -2.6989533,2.884327 -0.3952554,0.578613 -0.7436663,1.421278 -0.2361461,2.041287 0.5068342,0.743638 1.6848874,0.69404 2.2242994,0.01879 0.374655,-0.380819 0.733427,-0.792715 1.087453,-1.181223 0.520075,0.521857 0.952618,1.157087 1.578144,1.559352 0.761721,0.387407 1.882811,-0.0488 1.973985,-0.955211 0.08897,-0.931489 -0.589572,-1.695416 -1.148452,-2.358112 -0.652747,-0.714363 -1.347004,-1.402066 -2.082163,-2.026089 -0.208164,-0.16175 -0.487924,-0.115588 -0.698167,0.01688 z"
     id="path5" />
  <path
     style="fill:#008000;stroke-width:0.100756;stroke-linejoin:bevel;stroke-miterlimit:1"
     d="m 4.7096387,8.430514 c -0.8695893,-0.00496 -1.5152261,0.9745238 -1.2084776,1.778574 0.3134508,0.748446 1.0479818,1.193844 1.6019755,1.750089 -1.71e-5,0.191369 -0.3949262,0.382166 -0.5455689,0.573127 -0.5011945,0.453412 -1.1664411,0.950599 -1.1013728,1.711635 -0.083344,0.836652 0.8286034,1.488411 1.6077613,1.281781 1.0686549,-0.2548 1.8090078,-1.148116 2.5805923,-1.863698 0.4384886,-0.478649 0.97193,-0.889368 1.3251659,-1.436148 C 9.1570776,11.675805 8.587194,11.342725 8.2884747,10.980284 7.4113386,10.112378 6.56831,9.1441797 5.4438563,8.5915853 5.2129918,8.4909187 4.9630836,8.424046 4.7096387,8.430514 Z"
     id="path2" />
  <path
     style="fill:#008000;stroke-width:0.100756;stroke-linejoin:bevel;stroke-miterlimit:1"
     d="M 14.178015,3.4317931 C 13.357385,3.4580221 12.875502,4.2194658 12.358859,4.748659 12.161153,4.9865301 11.962295,5.3053094 11.763972,4.8861459 11.238011,4.3636241 10.798405,3.629748 10.028141,3.4550142 9.1687136,3.2468615 8.2813829,4.0723094 8.4445844,4.9452928 8.6365387,5.968361 9.4540616,6.7081706 10.127615,7.4422488 10.645511,7.9437813 11.131667,8.4894183 11.698849,8.9335881 12.16003,9.1865627 12.549022,8.7524805 12.848731,8.4572313 13.75171,7.522883 14.802255,6.667266 15.379802,5.4769167 15.679291,4.9072598 15.623464,4.1171299 15.062579,3.7272709 14.814547,3.5284482 14.496449,3.4185991 14.178015,3.4317931 Z"
     id="path3" />
  <path
     style="fill:#008000;stroke-width:0.100756;stroke-linejoin:bevel;stroke-miterlimit:1"
     d="m 19.214519,8.4184115 c -1.109004,0.1390316 -1.905247,1.0222362 -2.682718,1.7399045 -0.49138,0.510877 -1.066372,0.970518 -1.432029,1.584049 -0.22587,0.513524 0.271664,0.923648 0.589578,1.25118 0.872619,0.855488 1.69224,1.828434 2.801381,2.38606 0.670015,0.360395 1.659162,0.179527 1.951551,-0.586036 0.249357,-0.604335 0.061,-1.341418 -0.456156,-1.744923 -0.364329,-0.365279 -0.768316,-0.71283 -1.128384,-1.048193 0.526377,-0.517095 1.168398,-0.951423 1.551676,-1.592511 C 20.701186,9.7865777 20.551082,8.9106983 19.877401,8.6045734 19.675545,8.4928739 19.448378,8.4093785 19.214519,8.4184115 Z"
     id="path4" />
  <path
     d="M10.61 12.62L10.65 12.58L11.16 12.03L11.18 12L11.16 11.97C11 11.78 10.82 11.6 10.66 11.42L10.61 11.38C8.42 8.97 7.03 7.53 5.58 7.12C5.29 7.04 5 7 4.69 7C3.19 7 2 8.25 2 9.75C2 10.38 2.19 11 2.55 11.5C2.68 11.68 2.83 11.85 3 12C2.83 12.15 2.68 12.32 2.55 12.5C2.19 13 2 13.64 2 14.31C2 15.81 3.25 17 4.75 17C5.03 17 5.31 16.96 5.58 16.89C7 16.5 8.4 15.05 10.61 12.62M8.47 12C7.57 12.97 6.88 13.69 6.26 14.21C5.43 14.91 5 15 4.75 15C4.3 15 4 14.65 4 14.31C4 13.93 4.14 13.66 4.33 13.5L6 12L4.33 10.5C4.13 10.33 4 10.05 4 9.75C4 9.3 4.35 9 4.69 9C5 9 5.43 9.1 6.26 9.8C6.88 10.31 7.57 11.03 8.47 12M7.12 18.43C7.04 18.72 7 19 7 19.31C7 20.81 8.25 22 9.75 22C10.38 22 11 21.81 11.5 21.45C11.68 21.32 11.85 21.17 12 21C12.15 21.17 12.32 21.32 12.5 21.45C13 21.81 13.64 22 14.31 22C15.81 22 17 20.75 17 19.25C17 18.97 16.96 18.69 16.89 18.42C16.5 17 15.05 15.6 12.62 13.39L12.58 13.35L12.03 12.85L12 12.82L11.97 12.85L11.42 13.35L11.38 13.38C8.97 15.58 7.53 16.97 7.12 18.43M12 15.53C12.97 16.43 13.69 17.12 14.21 17.74C14.91 18.57 15 19 15 19.25C15 19.7 14.65 20 14.31 20C13.93 20 13.66 19.86 13.5 19.67L12 18L10.5 19.67C10.33 19.87 10.05 20 9.75 20C9.3 20 9 19.65 9 19.31C9 19 9.1 18.57 9.8 17.74C10.31 17.12 11.03 16.43 12 15.53M13.39 12.62C15.59 15.03 16.97 16.47 18.43 16.88C18.72 16.96 19 17 19.31 17C20.81 17 22 15.75 22 14.25C22 13.62 21.81 13 21.45 12.5C21.32 12.32 21.17 12.15 21 12C21.17 11.85 21.32 11.68 21.45 11.5C21.81 11 22 10.37 22 9.69C22 8.19 20.75 7 19.25 7C18.97 7 18.69 7.04 18.42 7.11C17 7.5 15.6 8.95 13.39 11.38L13.36 11.42L12.83 12L12.83 12L12.83 12L13.36 12.58L13.39 12.62M15.54 12C16.43 11.03 17.13 10.31 17.74 9.79C18.58 9.09 19 9 19.25 9C19.7 9 20 9.35 20 9.69C20 10.07 19.86 10.34 19.67 10.5L18 12L19.67 13.5C19.87 13.68 20 13.95 20 14.25C20 14.7 19.65 15 19.31 15C19 15 18.57 14.9 17.74 14.2C17.13 13.69 16.43 12.97 15.54 12M12.62 10.62C15.03 8.42 16.47 7.03 16.88 5.58C16.96 5.29 17 5 17 4.69C17 3.19 15.75 2 14.25 2C13.62 2 13 2.19 12.5 2.55C12.32 2.68 12.15 2.83 12 3C11.85 2.83 11.68 2.68 11.5 2.55C11 2.19 10.37 2 9.69 2C8.19 2 7 3.25 7 4.75C7 5.03 7.04 5.31 7.11 5.58C7.5 7 8.95 8.4 11.38 10.62L11.42 10.65L11.97 11.15L12 11.18L12.03 11.16L12.59 10.65L12.62 10.61M12 8.47C11.03 7.57 10.31 6.88 9.79 6.26C9.09 5.43 9 5 9 4.75C9 4.3 9.35 4 9.69 4C10.07 4 10.34 4.14 10.5 4.33L12 6L13.5 4.33C13.68 4.13 13.95 4 14.25 4C14.7 4 15 4.35 15 4.69C15 5 14.9 5.43 14.2 6.26C13.69 6.88 12.97 7.57 12 8.47Z"
     id="path1" />
</svg>
