<?xml version="1.0" encoding="UTF-8" standalone="no"?>
<svg
   id="mdi-coach-lamp-variant"
   viewBox="0 0 24 24"
   version="1.1"
   sodipodi:docname="coach-lamp-variant-yellow.svg"
   inkscape:version="1.4 (e7c3feb1, 2024-10-09)"
   xmlns:inkscape="http://www.inkscape.org/namespaces/inkscape"
   xmlns:sodipodi="http://sodipodi.sourceforge.net/DTD/sodipodi-0.dtd"
   xmlns="http://www.w3.org/2000/svg"
   xmlns:svg="http://www.w3.org/2000/svg">
  <defs
     id="defs1" />
  <sodipodi:namedview
     id="namedview1"
     pagecolor="#ffffff"
     bordercolor="#000000"
     borderopacity="0.25"
     inkscape:showpageshadow="2"
     inkscape:pageopacity="0.0"
     inkscape:pagecheckerboard="0"
     inkscape:deskcolor="#d1d1d1"
     inkscape:zoom="9.26"
     inkscape:cx="11.825054"
     inkscape:cy="11.987041"
     inkscape:window-width="1416"
     inkscape:window-height="781"
     inkscape:window-x="0"
     inkscape:window-y="38"
     inkscape:window-maximized="0"
     inkscape:current-layer="mdi-coach-lamp-variant" />
  <path
     style="fill:#ffff00;stroke-width:0.215983;stroke-linejoin:bevel;stroke-miterlimit:1"
     d="m 8.7165058,8.5983903 c -0.5261198,0.6721987 0.165095,1.5151957 0.2390724,2.2524247 0.6096147,2.1127 1.1327678,4.265275 1.7962138,6.352983 0.467372,0.653687 1.445692,0.228617 2.137356,0.349734 0.744153,-0.101118 1.650345,0.227463 2.281164,-0.218352 0.566241,-1.317576 0.800363,-2.787115 1.237836,-4.163609 0.335997,-1.387694 0.857642,-2.756004 1.075896,-4.1559918 -0.149503,-0.8467203 -1.248739,-0.4564457 -1.860942,-0.5443741 -2.211166,0.023846 -4.43825,-0.047372 -6.6395853,0.035181 -0.089004,0.030668 -0.1780073,0.061336 -0.2670109,0.092004 z"
     id="path2" />
  <path
     d="M12.5 2L12 4L10 6.31L5 9H7L9.5 18L12 20L12.5 22H13.5L14 20L16.5 18L19 9H21L16 6.31L14 4L13.5 2M9 9H17L14.78 17H11.22M3 14V22H11.5L11 20H8L5 17V14Z"
     id="path1" />
</svg>
