<?xml version="1.0" encoding="UTF-8" standalone="no"?>
<svg
   id="mdi-coach-lamp"
   viewBox="0 0 24 24"
   version="1.1"
   sodipodi:docname="coach-lamp-grey.svg"
   inkscape:version="1.4 (e7c3feb1, 2024-10-09)"
   xmlns:inkscape="http://www.inkscape.org/namespaces/inkscape"
   xmlns:sodipodi="http://sodipodi.sourceforge.net/DTD/sodipodi-0.dtd"
   xmlns="http://www.w3.org/2000/svg"
   xmlns:svg="http://www.w3.org/2000/svg">
  <defs
     id="defs1" />
  <sodipodi:namedview
     id="namedview1"
     pagecolor="#ffffff"
     bordercolor="#000000"
     borderopacity="0.25"
     inkscape:showpageshadow="2"
     inkscape:pageopacity="0.0"
     inkscape:pagecheckerboard="0"
     inkscape:deskcolor="#d1d1d1"
     inkscape:zoom="4.96"
     inkscape:cx="12.096774"
     inkscape:cy="11.794355"
     inkscape:window-width="1424"
     inkscape:window-height="794"
     inkscape:window-x="0"
     inkscape:window-y="38"
     inkscape:window-maximized="0"
     inkscape:current-layer="mdi-coach-lamp" />
  <path
     style="fill:#4d4d4d;stroke-width:0.403226;stroke-linejoin:bevel;stroke-miterlimit:1"
     d="M 12.522839,7.5703282 C 11.598391,7.7996274 10.193946,7.1349165 9.5970892,8.0940493 10.054591,11.046991 10.69401,14.007535 11.387191,16.916189 c 1.010314,0.945053 2.637959,0.286 3.882544,0.441053 1.518814,0.404953 1.60583,-1.223158 1.786483,-2.277136 0.414253,-2.287331 1.073607,-4.567618 1.334693,-6.8627029 -0.460254,-1.0171787 -1.975483,-0.4339719 -2.879318,-0.6399869 -0.996163,-0.01754 -1.992498,-0.010792 -2.988754,-0.00709 z"
     id="path2" />
  <path
     d="M16 5L15 2H13L12 5L6 8H8L8.6 11H4V7H2V17H4V13H9L10 18L12 20L13 22H15L16 20L18 18L20 8H22M16.16 17H11.84L10 8H18Z"
     id="path1" />
</svg>
