<?xml version="1.0" encoding="UTF-8" standalone="no"?>
<svg
   id="mdi-comment-remove"
   viewBox="0 0 24 24"
   version="1.1"
   sodipodi:docname="comment-remove-red.svg"
   inkscape:version="1.4 (e7c3feb1, 2024-10-09)"
   xmlns:inkscape="http://www.inkscape.org/namespaces/inkscape"
   xmlns:sodipodi="http://sodipodi.sourceforge.net/DTD/sodipodi-0.dtd"
   xmlns="http://www.w3.org/2000/svg"
   xmlns:svg="http://www.w3.org/2000/svg">
  <defs
     id="defs1" />
  <sodipodi:namedview
     id="namedview1"
     pagecolor="#ffffff"
     bordercolor="#000000"
     borderopacity="0.25"
     inkscape:showpageshadow="2"
     inkscape:pageopacity="0.0"
     inkscape:pagecheckerboard="0"
     inkscape:deskcolor="#d1d1d1"
     inkscape:zoom="6.11"
     inkscape:cx="11.947627"
     inkscape:cy="11.865794"
     inkscape:window-width="1448"
     inkscape:window-height="814"
     inkscape:window-x="0"
     inkscape:window-y="38"
     inkscape:window-maximized="0"
     inkscape:current-layer="mdi-comment-remove" />
  <path
     d="M9,22A1,1 0 0,1 8,21V18H4A2,2 0 0,1 2,16V4C2,2.89 2.9,2 4,2H20A2,2 0 0,1 22,4V16A2,2 0 0,1 20,18H13.9L10.2,21.71C10,21.9 9.75,22 9.5,22V22H9M9.41,6L8,7.41L10.59,10L8,12.59L9.41,14L12,11.41L14.59,14L16,12.59L13.41,10L16,7.41L14.59,6L12,8.59L9.41,6Z"
     id="path1"
     style="fill:#ff0000" />
</svg>
