<?xml version="1.0" encoding="UTF-8" standalone="no"?>
<svg
   id="mdi-comment-remove-outline"
   viewBox="0 0 24 24"
   version="1.1"
   sodipodi:docname="comment-remove-outline-red.svg"
   inkscape:version="1.4 (e7c3feb1, 2024-10-09)"
   xmlns:inkscape="http://www.inkscape.org/namespaces/inkscape"
   xmlns:sodipodi="http://sodipodi.sourceforge.net/DTD/sodipodi-0.dtd"
   xmlns="http://www.w3.org/2000/svg"
   xmlns:svg="http://www.w3.org/2000/svg">
  <defs
     id="defs1" />
  <sodipodi:namedview
     id="namedview1"
     pagecolor="#ffffff"
     bordercolor="#000000"
     borderopacity="0.25"
     inkscape:showpageshadow="2"
     inkscape:pageopacity="0.0"
     inkscape:pagecheckerboard="0"
     inkscape:deskcolor="#d1d1d1"
     inkscape:zoom="8.06"
     inkscape:cx="11.848635"
     inkscape:cy="11.848635"
     inkscape:window-width="1400"
     inkscape:window-height="782"
     inkscape:window-x="0"
     inkscape:window-y="38"
     inkscape:window-maximized="0"
     inkscape:current-layer="mdi-comment-remove-outline" />
  <path
     style="fill:#ff0000;stroke-width:0.248139;stroke-linejoin:bevel;stroke-miterlimit:1"
     d="m 3.7104529,3.6331517 c -0.4661111,0.8351321 -0.099893,1.8915591 -0.2161523,2.8184612 0.028322,3.1794849 -0.056528,6.3788101 0.042205,9.5459511 0.315606,0.854865 1.4740511,0.34542 2.1706908,0.483322 1.2474799,0 2.4949597,0 3.7424395,0 0.076285,0.934712 -0.1640537,1.924932 0.1388512,2.819914 0.8114669,0.637448 1.3713439,-0.594051 1.9389029,-1.010635 0.658405,-0.572775 1.217778,-1.385341 1.937783,-1.809279 2.206385,-0.02838 4.432625,0.05649 6.626683,-0.04221 0.854866,-0.315606 0.345421,-1.474051 0.483323,-2.170691 -0.02836,-3.427616 0.0565,-6.8750835 -0.0422,-10.2903677 -0.315612,-0.85486 -1.474056,-0.3454152 -2.170696,-0.4833167 -4.792423,0.028121 -9.6045681,-0.056252 -14.3846607,0.042205 -0.089057,0.032215 -0.178113,0.064431 -0.2671694,0.096646 z M 10.307944,7.62058 c 0.601235,0.4466257 1.018569,1.3644029 1.792978,1.4397899 0.884328,-0.3898192 1.434668,-1.34926 2.186484,-1.9637736 0.319988,-0.6664787 0.658009,-0.01041 0.964659,0.2731793 -0.72191,0.8988193 -1.764639,1.5547335 -2.326061,2.5577213 0.265641,0.9180351 1.255387,1.4138061 1.832602,2.1531161 0.299481,0.282536 0.678017,0.588316 0.165595,0.866473 -0.291564,0.575036 -0.603693,0.0628 -0.894798,-0.208254 -0.687599,-0.575328 -1.191806,-1.407899 -2.007264,-1.798182 -0.88137,0.245447 -1.354341,1.189445 -2.0518303,1.749994 -0.294313,0.310346 -0.6002649,0.76457 -0.8953049,0.191015 C 8.4194387,12.3577 9.8176323,11.831935 10.073196,11.307255 10.555741,10.843916 11.555781,10.084496 10.729378,9.4502922 10.062824,8.7814962 9.3962671,8.1127027 8.7296933,7.4439264 9.4504583,6.4369366 9.6059242,6.9120689 10.307944,7.62058 Z"
     id="path2" />
  <path
     d="M9,22A1,1 0 0,1 8,21V18H4A2,2 0 0,1 2,16V4C2,2.89 2.9,2 4,2H20A2,2 0 0,1 22,4V16A2,2 0 0,1 20,18H13.9L10.2,21.71C10,21.9 9.75,22 9.5,22V22H9M10,16V19.08L13.08,16H20V4H4V16H10M9.41,6L12,8.59L14.59,6L16,7.41L13.41,10L16,12.59L14.59,14L12,11.41L9.41,14L8,12.59L10.59,10L8,7.41L9.41,6Z"
     id="path1" />
</svg>
