<?xml version="1.0" encoding="UTF-8" standalone="no"?>
<svg
   id="mdi-content-save-alert-outline"
   viewBox="0 0 24 24"
   version="1.1"
   sodipodi:docname="content-save-alert-outline-yellow.svg"
   inkscape:version="1.4 (e7c3feb1, 2024-10-09)"
   xmlns:inkscape="http://www.inkscape.org/namespaces/inkscape"
   xmlns:sodipodi="http://sodipodi.sourceforge.net/DTD/sodipodi-0.dtd"
   xmlns="http://www.w3.org/2000/svg"
   xmlns:svg="http://www.w3.org/2000/svg">
  <defs
     id="defs1" />
  <sodipodi:namedview
     id="namedview1"
     pagecolor="#ffffff"
     bordercolor="#000000"
     borderopacity="0.25"
     inkscape:showpageshadow="2"
     inkscape:pageopacity="0.0"
     inkscape:pagecheckerboard="0"
     inkscape:deskcolor="#d1d1d1"
     inkscape:zoom="7.02"
     inkscape:cx="11.965812"
     inkscape:cy="11.894587"
     inkscape:window-width="1424"
     inkscape:window-height="776"
     inkscape:window-x="0"
     inkscape:window-y="38"
     inkscape:window-maximized="0"
     inkscape:current-layer="mdi-content-save-alert-outline" />
  <path
     style="fill:#ffff00;stroke-width:0.2849;stroke-linejoin:bevel;stroke-miterlimit:1"
     d="M 2.6653757,4.6073718 C 2.2171393,5.6616469 2.5793144,6.9136373 2.4625512,8.048433 c 0.033835,3.650026 -0.067584,7.324814 0.050467,10.959422 0.4070816,0.861464 1.6300993,0.311571 2.4015116,0.466916 4.0298794,-0.03391 8.0845422,0.06755 12.0990232,-0.05047 0.861464,-0.407081 0.311571,-1.630099 0.466916,-2.401511 -0.03382,-3.102301 0.0675,-6.229341 -0.05047,-9.3162369 C 16.666136,6.5515598 15.463995,5.6802425 14.532975,4.6335248 13.324983,4.2330441 11.959584,4.5656755 10.689047,4.4568532 8.1055979,4.4904851 5.4974913,4.3894337 2.9294673,4.5073203 l -0.1332108,0.050467 z m 5.8104078,1.904436 c 1.3194259,0 2.6388515,0 3.9582775,0 0,0.9769335 0,1.9538668 0,2.9308003 -2.6388516,0 -5.2777035,0 -7.9165552,0 0,-0.9769335 0,-1.9538668 0,-2.9308003 1.3194258,0 2.6388517,0 3.9582777,0 z m 1.4634527,6.0310382 c 1.4983418,-0.08406 2.7543028,1.336395 2.4606038,2.824241 -0.08725,2.039739 -3.0646872,2.785715 -4.2623756,1.239484 C 6.7787463,15.123587 7.8804823,12.45124 9.9392362,12.542846 Z"
     id="path2" />
  <path
     d="M15 3H3C1.9 3 1 3.9 1 5V19C1 20.1 1.9 21 3 21H17C18.1 21 19 20.1 19 19V7L15 3M17 19H3V5H14.2L17 7.8V19M10 12C8.3 12 7 13.3 7 15S8.3 18 10 18 13 16.7 13 15 11.7 12 10 12M4 6H13V10H4V6M23 13H21V7H23V13M23 17H21V15H23V17Z"
     id="path1" />
</svg>
