<?xml version="1.0" encoding="UTF-8" standalone="no"?>
<svg
   id="mdi-content-save-alert"
   viewBox="0 0 24 24"
   version="1.1"
   sodipodi:docname="content-save-alert-orange.svg"
   inkscape:version="1.4 (e7c3feb1, 2024-10-09)"
   xmlns:inkscape="http://www.inkscape.org/namespaces/inkscape"
   xmlns:sodipodi="http://sodipodi.sourceforge.net/DTD/sodipodi-0.dtd"
   xmlns="http://www.w3.org/2000/svg"
   xmlns:svg="http://www.w3.org/2000/svg">
  <defs
     id="defs1" />
  <sodipodi:namedview
     id="namedview1"
     pagecolor="#ffffff"
     bordercolor="#000000"
     borderopacity="0.25"
     inkscape:showpageshadow="2"
     inkscape:pageopacity="0.0"
     inkscape:pagecheckerboard="0"
     inkscape:deskcolor="#d1d1d1"
     inkscape:zoom="5.32"
     inkscape:cx="12.030075"
     inkscape:cy="12.030075"
     inkscape:window-width="1432"
     inkscape:window-height="813"
     inkscape:window-x="0"
     inkscape:window-y="38"
     inkscape:window-maximized="0"
     inkscape:current-layer="mdi-content-save-alert" />
  <path
     id="path4"
     d="M 23,13 H 21 V 7 h 2 v 6 m 0,4 h -2 v -2 h 2 z" />
  <path
     id="path3"
     style="fill:#ff6600"
     d="M 3 3 C 1.9 3 1 3.9 1 5 L 1 19 C 1 20.1 1.9 21 3 21 L 17 21 C 18.1 21 19 20.1 19 19 L 19 7 L 15 3 L 3 3 z M 3 5 L 13 5 L 13 9 L 3 9 L 3 5 z M 10 13 C 11.7 13 13 14.3 13 16 C 13 17.7 11.7 19 10 19 C 8.3 19 7 17.7 7 16 C 7 14.3 8.3 13 10 13 z " />
</svg>
