<?xml version="1.0" encoding="UTF-8" standalone="no"?>
<svg
   id="mdi-content-save-alert"
   viewBox="0 0 24 24"
   version="1.1"
   sodipodi:docname="content-save-alert-orange.svg"
   inkscape:version="1.4 (e7c3feb1, 2024-10-09)"
   xmlns:inkscape="http://www.inkscape.org/namespaces/inkscape"
   xmlns:sodipodi="http://sodipodi.sourceforge.net/DTD/sodipodi-0.dtd"
   xmlns="http://www.w3.org/2000/svg"
   xmlns:svg="http://www.w3.org/2000/svg">
  <defs
     id="defs1" />
  <sodipodi:namedview
     id="namedview1"
     pagecolor="#ffffff"
     bordercolor="#000000"
     borderopacity="0.25"
     inkscape:showpageshadow="2"
     inkscape:pageopacity="0.0"
     inkscape:pagecheckerboard="0"
     inkscape:deskcolor="#d1d1d1"
     inkscape:zoom="5.32"
     inkscape:cx="11.93609"
     inkscape:cy="12.030075"
     inkscape:window-width="1432"
     inkscape:window-height="813"
     inkscape:window-x="0"
     inkscape:window-y="38"
     inkscape:window-maximized="0"
     inkscape:current-layer="mdi-content-save-alert" />
  <path
     d="m 23,17 h -2 v -2 h 2 z"
     id="path5" />
  <path
     d="M 23,13 H 21 V 7 h 2 v 6"
     id="path4" />
  <path
     d="M 15,3 H 3 C 1.9,3 1,3.9 1,5 v 14 c 0,1.1 0.9,2 2,2 h 14 c 1.1,0 2,-0.9 2,-2 V 7 L 15,3"
     id="path3"
     style="fill:#ff6600" />
  <path
     d="m 10,19 c -1.7,0 -3,-1.3 -3,-3 0,-1.7 1.3,-3 3,-3 1.7,0 3,1.3 3,3 0,1.7 -1.3,3 -3,3"
     id="path2"
     style="fill:#f9f9f9" />
  <path
     d="M 13,9 H 3 V 5 h 10"
     id="path1"
     style="fill:#f9f9f9" />
</svg>
