<?xml version="1.0" encoding="UTF-8" standalone="no"?>
<svg
   id="mdi-delete-forever-outline"
   viewBox="0 0 24 24"
   version="1.1"
   sodipodi:docname="delete-forever-outline-red.svg"
   inkscape:version="1.4 (e7c3feb1, 2024-10-09)"
   xmlns:inkscape="http://www.inkscape.org/namespaces/inkscape"
   xmlns:sodipodi="http://sodipodi.sourceforge.net/DTD/sodipodi-0.dtd"
   xmlns="http://www.w3.org/2000/svg"
   xmlns:svg="http://www.w3.org/2000/svg">
  <defs
     id="defs1" />
  <sodipodi:namedview
     id="namedview1"
     pagecolor="#ffffff"
     bordercolor="#000000"
     borderopacity="0.25"
     inkscape:showpageshadow="2"
     inkscape:pageopacity="0.0"
     inkscape:pagecheckerboard="0"
     inkscape:deskcolor="#d1d1d1"
     inkscape:zoom="7.52"
     inkscape:cx="11.901596"
     inkscape:cy="11.968085"
     inkscape:window-width="1440"
     inkscape:window-height="691"
     inkscape:window-x="0"
     inkscape:window-y="38"
     inkscape:window-maximized="0"
     inkscape:current-layer="mdi-delete-forever-outline" />
  <path
     style="fill:#ff0000;stroke-width:0.265957;stroke-linejoin:bevel;stroke-miterlimit:1"
     d="m 7.7210771,8.5872569 c -0.4630268,0.8938662 -0.088886,2.0014321 -0.2093376,2.9818921 0.030715,2.476765 -0.061479,4.975558 0.046183,7.438531 0.3157175,0.844232 1.4617709,0.33772 2.1495246,0.475261 2.1220629,-0.03122 4.2664679,0.06221 6.3747009,-0.04618 0.844232,-0.315718 0.33772,-1.461771 0.475261,-2.149525 -0.03073,-2.787045 0.0615,-5.596129 -0.04618,-8.3693824 -0.315718,-0.8442314 -1.461771,-0.33772 -2.149525,-0.475261 -2.122063,0.031225 -4.266468,-0.062209 -6.3747012,0.046183 -0.088641,0.032828 -0.1772823,0.065656 -0.2659234,0.098484 z M 10.545836,11.85978 c 0.555136,0.438904 1.216432,1.722444 2.000137,0.97213 0.570826,-0.441565 1.143815,-1.384453 1.713076,-1.516693 0.357876,0.320362 0.811232,0.676591 0.159363,1.006694 -0.454191,0.594455 -1.362654,1.007879 -1.416849,1.781296 0.335388,0.813983 1.222133,1.301021 1.771282,1.987478 -0.55303,1.035553 -1.108653,0.323105 -1.664188,-0.304597 -0.412879,-0.583481 -1.277703,-1.215501 -1.787168,-0.367655 -0.477971,0.444587 -0.939064,1.019514 -1.4454813,1.371429 -0.838122,-0.471116 -0.4857734,-0.977692 0.1779633,-1.459635 0.494777,-0.473786 1.549114,-1.253577 0.68948,-1.906651 -0.34217,-0.570508 -1.5964684,-1.144639 -1.3284678,-1.712667 0.4750781,-0.717687 0.6550378,-0.354146 1.1308528,0.148871 z"
     id="path2" />
  <path
     d="M14.12,10.47L12,12.59L9.87,10.47L8.46,11.88L10.59,14L8.47,16.12L9.88,17.53L12,15.41L14.12,17.53L15.53,16.12L13.41,14L15.53,11.88L14.12,10.47M15.5,4L14.5,3H9.5L8.5,4H5V6H19V4H15.5M6,19A2,2 0 0,0 8,21H16A2,2 0 0,0 18,19V7H6V19M8,9H16V19H8V9Z"
     id="path1" />
</svg>
