<?xml version="1.0" encoding="UTF-8" standalone="no"?>
<svg
   id="mdi-egg-fried"
   viewBox="0 0 24 24"
   version="1.1"
   sodipodi:docname="egg-fried-color.svg"
   inkscape:version="1.4 (e7c3feb1, 2024-10-09)"
   xmlns:inkscape="http://www.inkscape.org/namespaces/inkscape"
   xmlns:sodipodi="http://sodipodi.sourceforge.net/DTD/sodipodi-0.dtd"
   xmlns="http://www.w3.org/2000/svg"
   xmlns:svg="http://www.w3.org/2000/svg">
  <defs
     id="defs1" />
  <sodipodi:namedview
     id="namedview1"
     pagecolor="#ffffff"
     bordercolor="#000000"
     borderopacity="0.25"
     inkscape:showpageshadow="2"
     inkscape:pageopacity="0.0"
     inkscape:pagecheckerboard="0"
     inkscape:deskcolor="#d1d1d1"
     inkscape:zoom="7.02"
     inkscape:cx="12.108262"
     inkscape:cy="11.965812"
     inkscape:window-width="1392"
     inkscape:window-height="795"
     inkscape:window-x="0"
     inkscape:window-y="38"
     inkscape:window-maximized="0"
     inkscape:current-layer="mdi-egg-fried" />
  <path
     d="M 12,3 C 9,3 9,6 6,7 3.88,7.71 3,10 3,12 c 0,3 1,7 5,7 2,0 2,2 5,2 3,0 4,-1 6,-3 2,-2 2,-3 2,-6 C 21,9 20,9 18,7 16,5 16,3 12,3"
     id="path2" />
  <path
     d="m 12,4.5 c 2.17,0 2.58,0.57 3.5,1.82 0.38,0.53 0.82,1.12 1.44,1.74 0.49,0.49 0.92,0.87 1.27,1.18 1.09,0.95 1.29,1.12 1.29,2.76 0,2.93 0,3.38 -1.56,4.94 C 16,18.86 15.38,19.5 13,19.5 11.88,19.5 11.5,19.18 10.89,18.69 10.27,18.19 9.43,17.5 8,17.5 4.96,17.5 4.5,14.05 4.5,12 4.5,10.65 5,8.91 6.47,8.42 8.25,7.83 9.2,6.71 9.96,5.81 10.75,4.88 11.11,4.5 12,4.5"
     id="path1"
     style="fill:#f9f9f9" />
  <path
     id="path3"
     style="fill:#ffcc00"
     d="M 12 8 C 9.79 8 8 9.79 8 12 C 8 14.21 9.79 16 12 16 C 14.21 16 16 14.21 16 12 C 16 9.79 14.21 8 12 8 z M 12 9 L 12 10 C 10.9 10 10 10.9 10 12 L 9 12 C 9 10.35 10.35 9 12 9 z " />
</svg>
