<?xml version="1.0" encoding="UTF-8" standalone="no"?>
<svg
   id="mdi-email-alert-outline"
   viewBox="0 0 24 24"
   version="1.1"
   sodipodi:docname="email-alert-outline-red.svg"
   inkscape:version="1.4 (e7c3feb1, 2024-10-09)"
   xmlns:inkscape="http://www.inkscape.org/namespaces/inkscape"
   xmlns:sodipodi="http://sodipodi.sourceforge.net/DTD/sodipodi-0.dtd"
   xmlns="http://www.w3.org/2000/svg"
   xmlns:svg="http://www.w3.org/2000/svg">
  <defs
     id="defs1" />
  <sodipodi:namedview
     id="namedview1"
     pagecolor="#ffffff"
     bordercolor="#000000"
     borderopacity="0.25"
     inkscape:showpageshadow="2"
     inkscape:pageopacity="0.0"
     inkscape:pagecheckerboard="0"
     inkscape:deskcolor="#d1d1d1"
     inkscape:zoom="8.64"
     inkscape:cx="12.037037"
     inkscape:cy="11.863426"
     inkscape:window-width="1456"
     inkscape:window-height="828"
     inkscape:window-x="0"
     inkscape:window-y="38"
     inkscape:window-maximized="0"
     inkscape:current-layer="mdi-email-alert-outline" />
  <path
     style="fill:#ff0000;stroke-width:0.231481;stroke-linejoin:bevel;stroke-miterlimit:1"
     d="M 1.6741717,7.8577112 C 1.3494946,8.829436 1.5772799,9.9220345 1.4909921,10.939516 c 0.0097,2.367818 -0.055186,4.752678 0.030909,7.109441 0.2859413,0.842824 1.3962646,0.3666 2.0660618,0.490811 4.818111,-0.0258 9.6538751,0.05145 14.4609941,-0.03852 0.842823,-0.285941 0.3666,-1.396265 0.49081,-2.066062 -0.02385,-2.773874 0.05596,-5.55298 -0.07844,-8.3236127 C 18.234045,7.3439708 17.360012,7.6989768 16.931067,8.0726449 14.608458,9.4812058 12.346866,10.951857 10.009314,12.324354 7.4430123,10.825381 4.9684159,9.1735693 2.404333,7.6721191 2.0994987,7.59637 1.9077544,7.6499281 1.6741717,7.8577112 Z"
     id="path2" />
  <path
     style="fill:#ff0000;stroke-width:0.231481;stroke-linejoin:bevel;stroke-miterlimit:1"
     d="M 7.8981752,5.436424 C 5.9847941,5.467497 4.0536112,5.4125055 2.151952,5.5158158 1.313123,5.7307011 1.7846039,6.7501 2.4367617,6.8921496 4.8685999,8.4004647 7.2678459,9.9646431 9.7328469,11.417643 10.525559,11.569426 11.102166,10.786086 11.781673,10.502473 13.904855,9.1723715 16.077631,7.8891765 18.147639,6.4947735 18.750763,5.872295 17.813928,5.250049 17.183675,5.4719196 14.088564,5.4437531 10.993428,5.4255674 7.8981752,5.436424 Z"
     id="path3" />
  <path
     d="M24 7H22V13H24V7M24 15H22V17H24V15M20 6C20 4.9 19.1 4 18 4H2C.9 4 0 4.9 0 6V18C0 19.1 .9 20 2 20H18C19.1 20 20 19.1 20 18V6M18 6L10 11L2 6H18M18 18H2V8L10 13L18 8V18Z"
     id="path1" />
</svg>
