<?xml version="1.0" encoding="UTF-8" standalone="no"?>
<svg
   id="mdi-fan-alert"
   viewBox="0 0 24 24"
   version="1.1"
   sodipodi:docname="fan-alert-yellow.svg"
   inkscape:version="1.4 (e7c3feb1, 2024-10-09)"
   xmlns:inkscape="http://www.inkscape.org/namespaces/inkscape"
   xmlns:sodipodi="http://sodipodi.sourceforge.net/DTD/sodipodi-0.dtd"
   xmlns="http://www.w3.org/2000/svg"
   xmlns:svg="http://www.w3.org/2000/svg">
  <defs
     id="defs1" />
  <sodipodi:namedview
     id="namedview1"
     pagecolor="#ffffff"
     bordercolor="#000000"
     borderopacity="0.25"
     inkscape:showpageshadow="2"
     inkscape:pageopacity="0.0"
     inkscape:pagecheckerboard="0"
     inkscape:deskcolor="#d1d1d1"
     inkscape:zoom="7.52"
     inkscape:cx="11.968085"
     inkscape:cy="11.901596"
     inkscape:window-width="1464"
     inkscape:window-height="794"
     inkscape:window-x="0"
     inkscape:window-y="38"
     inkscape:window-maximized="0"
     inkscape:current-layer="mdi-fan-alert" />
  <path
     id="path3"
     d="M 22,13 V 7 h 2 v 6 h -2 m 0,4 v -2 h 2 v 2 z" />
  <path
     id="path2"
     style="fill:#ffff00"
     d="M 10.5 2 C 6.93 2 6.1408594 5.9603906 8.1308594 9.6503906 C 7.7208594 9.9703906 7.4009375 10.389141 7.2109375 10.869141 C 6.2809375 10.679141 5.2304688 10.249766 4.7304688 9.2597656 C 3.5604687 6.8897656 2.4702462e-17 7 0 11.5 C -5.9211895e-16 15.07 3.950625 15.849141 7.640625 13.869141 C 7.960625 14.269141 8.3908594 14.589063 8.8808594 14.789062 C 8.6808594 15.709063 8.2397656 16.750234 7.2597656 17.240234 C 4.8997656 18.420234 5 22 9.5 22 C 13.06 22 13.849375 18.029844 11.859375 14.339844 C 12.259375 13.999844 12.569531 13.589375 12.769531 13.109375 C 13.699531 13.299375 14.759766 13.740469 15.259766 14.730469 C 16.429766 17.100469 20 17 20 12.5 C 20 8.92 16.030078 8.1308594 12.330078 10.130859 C 12.000078 9.7308594 11.589375 9.4207031 11.109375 9.2207031 C 11.299375 8.2907031 11.740469 7.24 12.730469 6.75 C 15.090469 5.57 15 2 10.5 2 z M 10 11 C 10.54 11 11 11.45 11 12 C 11 12.55 10.54 13 10 13 C 9.43 13 9 12.55 9 12 C 9 11.45 9.43 11 10 11 z " />
</svg>
