<?xml version="1.0" encoding="UTF-8" standalone="no"?>
<svg
   id="mdi-fan-alert"
   viewBox="0 0 24 24"
   version="1.1"
   sodipodi:docname="fan-alert-orange.svg"
   inkscape:version="1.4 (e7c3feb1, 2024-10-09)"
   xmlns:inkscape="http://www.inkscape.org/namespaces/inkscape"
   xmlns:sodipodi="http://sodipodi.sourceforge.net/DTD/sodipodi-0.dtd"
   xmlns="http://www.w3.org/2000/svg"
   xmlns:svg="http://www.w3.org/2000/svg">
  <defs
     id="defs1" />
  <sodipodi:namedview
     id="namedview1"
     pagecolor="#ffffff"
     bordercolor="#000000"
     borderopacity="0.25"
     inkscape:showpageshadow="2"
     inkscape:pageopacity="0.0"
     inkscape:pagecheckerboard="0"
     inkscape:deskcolor="#d1d1d1"
     inkscape:zoom="7.52"
     inkscape:cx="11.968085"
     inkscape:cy="11.901596"
     inkscape:window-width="1464"
     inkscape:window-height="794"
     inkscape:window-x="0"
     inkscape:window-y="38"
     inkscape:window-maximized="0"
     inkscape:current-layer="mdi-fan-alert" />
  <path
     d="m 22,17 v -2 h 2 v 2 z"
     id="path4" />
  <path
     d="M 22,13 V 7 h 2 v 6 h -2"
     id="path3" />
  <path
     d="m 10.5,2 c 4.5,0 4.59,3.57 2.23,4.75 -0.99,0.49 -1.43,1.54 -1.62,2.47 0.48,0.2 0.89,0.51 1.22,0.91 3.7,-2 7.67,-1.21 7.67,2.37 0,4.5 -3.57,4.6 -4.74,2.23 C 14.76,13.74 13.7,13.3 12.77,13.11 12.57,13.59 12.26,14 11.86,14.34 13.85,18.03 13.06,22 9.5,22 5,22 4.9,18.42 7.26,17.24 8.24,16.75 8.68,15.71 8.88,14.79 8.39,14.59 7.96,14.27 7.64,13.87 3.95,15.85 0,15.07 0,11.5 0,7 3.56,6.89 4.73,9.26 5.23,10.25 6.28,10.68 7.21,10.87 7.4,10.39 7.72,9.97 8.13,9.65 6.14,5.96 6.93,2 10.5,2"
     id="path2"
     style="fill:#ff6600" />
  <path
     d="m 10,11 c -0.57,0 -1,0.45 -1,1 0,0.55 0.43,1 1,1 0.54,0 1,-0.45 1,-1 0,-0.55 -0.46,-1 -1,-1"
     id="path1"
     style="fill:#f9f9f9" />
</svg>
