<?xml version="1.0" encoding="UTF-8" standalone="no"?>
<svg
   id="mdi-file-document-alert-outline"
   viewBox="0 0 24 24"
   version="1.1"
   sodipodi:docname="file-document-alert-outline-orange.svg"
   inkscape:version="1.4 (e7c3feb1, 2024-10-09)"
   xmlns:inkscape="http://www.inkscape.org/namespaces/inkscape"
   xmlns:sodipodi="http://sodipodi.sourceforge.net/DTD/sodipodi-0.dtd"
   xmlns="http://www.w3.org/2000/svg"
   xmlns:svg="http://www.w3.org/2000/svg">
  <defs
     id="defs1" />
  <sodipodi:namedview
     id="namedview1"
     pagecolor="#ffffff"
     bordercolor="#000000"
     borderopacity="0.25"
     inkscape:showpageshadow="2"
     inkscape:pageopacity="0.0"
     inkscape:pagecheckerboard="0"
     inkscape:deskcolor="#d1d1d1"
     inkscape:zoom="6.11"
     inkscape:cx="11.947627"
     inkscape:cy="11.947627"
     inkscape:window-width="1432"
     inkscape:window-height="723"
     inkscape:window-x="0"
     inkscape:window-y="38"
     inkscape:window-maximized="0"
     inkscape:current-layer="mdi-file-document-alert-outline" />
  <path
     style="fill:#ff6600;stroke-width:0.327332;stroke-linejoin:bevel;stroke-miterlimit:1"
     d="M 3.6818484,3.5715656 C 3.2429155,4.8882399 3.6143428,6.3866313 3.4916505,7.7741408 3.531894,11.858139 3.411189,15.972751 3.5517378,20.037671 c 0.4999542,0.874455 1.8184192,0.268208 2.6675748,0.447766 3.2657188,-0.03998 6.5618624,0.08 9.8085384,-0.06009 0.874456,-0.499954 0.268208,-1.818419 0.447765,-2.667575 -0.03995,-2.93839 0.07998,-5.907193 -0.06009,-8.8265413 C 15.915575,8.0567769 14.59711,8.6630249 13.747954,8.4834671 12.945246,8.2859583 11.164562,9.066425 11.565633,7.6651365 11.467881,6.318434 11.768537,4.8959512 11.403884,3.6000154 10.08721,3.1610824 8.5888188,3.5325098 7.2013093,3.4098174 6.04251,3.4987015 4.786807,3.2204213 3.6818484,3.5715656 Z m 6.301785,8.8942304 c 1.1638836,0 2.3277666,0 3.4916506,0 0.437386,1.401269 -0.825875,1.101891 -1.800328,1.091321 -1.7276573,0 -3.4553152,0 -5.182973,0 -0.4373861,-1.401269 0.8258743,-1.101891 1.8003273,-1.091321 0.5637743,0 1.1275488,0 1.6913231,0 z m -1.4729951,4.091653 c 0.8544537,0.12765 2.4680987,-0.503892 2.0186557,0.927655 -1.3457706,0 -2.6915408,0 -4.037311,0 -0.4067905,-1.542553 1.1143353,-0.726416 2.0186553,-0.927655 z"
     id="path2" />
  <path
     d="M20 17H22V15H20V17M20 7V13H22V7M6 16H11V18H6M6 12H14V14H6M4 2C2.89 2 2 2.89 2 4V20C2 21.11 2.89 22 4 22H16C17.11 22 18 21.11 18 20V8L12 2M4 4H11V9H16V20H4Z"
     id="path1" />
</svg>
