<?xml version="1.0" encoding="UTF-8" standalone="no"?>
<svg
   id="mdi-file-document-alert"
   viewBox="0 0 24 24"
   version="1.1"
   sodipodi:docname="file-document-alert-yellow.svg"
   inkscape:version="1.4 (e7c3feb1, 2024-10-09)"
   xmlns:inkscape="http://www.inkscape.org/namespaces/inkscape"
   xmlns:sodipodi="http://sodipodi.sourceforge.net/DTD/sodipodi-0.dtd"
   xmlns="http://www.w3.org/2000/svg"
   xmlns:svg="http://www.w3.org/2000/svg">
  <defs
     id="defs1" />
  <sodipodi:namedview
     id="namedview1"
     pagecolor="#ffffff"
     bordercolor="#000000"
     borderopacity="0.25"
     inkscape:showpageshadow="2"
     inkscape:pageopacity="0.0"
     inkscape:pagecheckerboard="0"
     inkscape:deskcolor="#d1d1d1"
     inkscape:zoom="5.32"
     inkscape:cx="12.030075"
     inkscape:cy="11.93609"
     inkscape:window-width="1456"
     inkscape:window-height="782"
     inkscape:window-x="0"
     inkscape:window-y="38"
     inkscape:window-maximized="0"
     inkscape:current-layer="mdi-file-document-alert" />
  <g
     id="g1">
    <path
       id="path4"
       style="fill:#ffff00"
       d="M 4 2 C 2.89 2 2 2.89 2 4 L 2 20 C 2 21.1 2.89 22 4 22 L 16 22 C 17.11 22 18 21.11 18 20 L 18 8 L 12 2 L 4 2 z M 11 3.5 L 16.5 9 L 11 9 L 11 3.5 z M 4 12 L 16 12 L 16 14 L 4 14 L 4 12 z M 4 16 L 13 16 L 13 18 L 4 18 L 4 16 z " />
    <path
       id="path1"
       d="m 20,17 h 2 v -2 h -2 v 2 M 20,7 v 6 h 2 V 7 h -2" />
  </g>
</svg>
