<?xml version="1.0" encoding="UTF-8" standalone="no"?>
<svg
   id="mdi-filter-remove-outline"
   viewBox="0 0 24 24"
   version="1.1"
   sodipodi:docname="filter-remove-outline-yellow.svg"
   inkscape:version="1.4 (e7c3feb1, 2024-10-09)"
   xmlns:inkscape="http://www.inkscape.org/namespaces/inkscape"
   xmlns:sodipodi="http://sodipodi.sourceforge.net/DTD/sodipodi-0.dtd"
   xmlns="http://www.w3.org/2000/svg"
   xmlns:svg="http://www.w3.org/2000/svg">
  <defs
     id="defs1" />
  <sodipodi:namedview
     id="namedview1"
     pagecolor="#ffffff"
     bordercolor="#000000"
     borderopacity="0.25"
     inkscape:showpageshadow="2"
     inkscape:pageopacity="0.0"
     inkscape:pagecheckerboard="0"
     inkscape:deskcolor="#d1d1d1"
     inkscape:zoom="4.96"
     inkscape:cx="12.096774"
     inkscape:cy="12.096774"
     inkscape:window-width="1344"
     inkscape:window-height="763"
     inkscape:window-x="0"
     inkscape:window-y="38"
     inkscape:window-maximized="0"
     inkscape:current-layer="mdi-filter-remove-outline" />
  <path
     style="fill:#ffff00;stroke-width:0.403226;stroke-linejoin:bevel;stroke-miterlimit:1"
     d="M 9.3620054,4.563067 C 7.9052804,4.6692466 6.3535464,4.3999139 4.964324,4.8304404 4.5695958,6.0201341 6.1836789,6.8352942 6.6631571,7.8369218 c 0.7204566,1.191079 2.2759921,2.0951193 1.9099127,3.6597392 0.1056094,1.468006 -0.2189494,3.020412 0.1718899,4.432333 0.8380492,0.523752 1.4267233,2.247951 2.5666263,1.750331 0.428437,-2.17054 0.122358,-4.495905 0.26909,-6.725788 C 11.448071,9.430131 13.077692,8.5252847 13.76422,7.2894702 14.172648,6.5459765 16.010615,5.2278431 14.609848,4.6422158 12.860832,4.5972697 11.111807,4.5481269 9.3620054,4.563067 Z"
     id="path2" />
  <path
     d="M14.73,20.83L17.58,18L14.73,15.17L16.15,13.76L19,16.57L21.8,13.76L23.22,15.17L20.41,18L23.22,20.83L21.8,22.24L19,19.4L16.15,22.24L14.73,20.83M13,19.88C13.04,20.18 12.94,20.5 12.71,20.71C12.32,21.1 11.69,21.1 11.3,20.71L7.29,16.7C7.06,16.47 6.96,16.16 7,15.87V10.75L2.21,4.62C1.87,4.19 1.95,3.56 2.38,3.22C2.57,3.08 2.78,3 3,3V3H17V3C17.22,3 17.43,3.08 17.62,3.22C18.05,3.56 18.13,4.19 17.79,4.62L13,10.75V19.88M5.04,5L9,10.06V15.58L11,17.58V10.05L14.96,5H5.04Z"
     id="path1" />
</svg>
