<?xml version="1.0" encoding="UTF-8" standalone="no"?>
<svg
   id="mdi-filter-remove"
   viewBox="0 0 24 24"
   version="1.1"
   sodipodi:docname="filter-remove-red.svg"
   inkscape:version="1.4 (e7c3feb1, 2024-10-09)"
   xmlns:inkscape="http://www.inkscape.org/namespaces/inkscape"
   xmlns:sodipodi="http://sodipodi.sourceforge.net/DTD/sodipodi-0.dtd"
   xmlns="http://www.w3.org/2000/svg"
   xmlns:svg="http://www.w3.org/2000/svg">
  <defs
     id="defs1" />
  <sodipodi:namedview
     id="namedview1"
     pagecolor="#ffffff"
     bordercolor="#000000"
     borderopacity="0.25"
     inkscape:showpageshadow="2"
     inkscape:pageopacity="0.0"
     inkscape:pagecheckerboard="0"
     inkscape:deskcolor="#d1d1d1"
     inkscape:zoom="5.32"
     inkscape:cx="12.030075"
     inkscape:cy="12.030075"
     inkscape:window-width="1400"
     inkscape:window-height="815"
     inkscape:window-x="0"
     inkscape:window-y="38"
     inkscape:window-maximized="0"
     inkscape:current-layer="mdi-filter-remove" />
  <path
     d="m 12,12 v 7.88 c 0.04,0.3 -0.06,0.62 -0.29,0.83 -0.39,0.39 -1.02,0.39 -1.41,0 L 8.29,18.7 C 8.06,18.47 7.96,18.16 8,17.87 V 12 H 7.97 L 2.21,4.62 C 1.87,4.19 1.95,3.56 2.38,3.22 2.57,3.08 2.78,3 3,3 v 0 h 14 v 0 c 0.22,0 0.43,0.08 0.62,0.22 0.43,0.34 0.51,0.97 0.17,1.4 L 12.03,12 Z"
     id="path2"
     style="fill:#ff0000" />
  <path
     d="M 14.76,20.83 17.6,18 14.76,15.17 16.17,13.76 19,16.57 21.83,13.76 23.24,15.17 20.43,18 23.24,20.83 21.83,22.24 19,19.4 16.17,22.24 14.76,20.83"
     id="path1" />
</svg>
