<?xml version="1.0" encoding="UTF-8" standalone="no"?>
<svg
   id="mdi-floor-lamp-torchiere-outline"
   viewBox="0 0 24 24"
   version="1.1"
   sodipodi:docname="floor-lamp-torchiere-outline-yellow.svg"
   inkscape:version="1.4 (e7c3feb1, 2024-10-09)"
   xmlns:inkscape="http://www.inkscape.org/namespaces/inkscape"
   xmlns:sodipodi="http://sodipodi.sourceforge.net/DTD/sodipodi-0.dtd"
   xmlns="http://www.w3.org/2000/svg"
   xmlns:svg="http://www.w3.org/2000/svg">
  <defs
     id="defs1" />
  <sodipodi:namedview
     id="namedview1"
     pagecolor="#ffffff"
     bordercolor="#000000"
     borderopacity="0.25"
     inkscape:showpageshadow="2"
     inkscape:pageopacity="0.0"
     inkscape:pagecheckerboard="0"
     inkscape:deskcolor="#d1d1d1"
     inkscape:zoom="9.92"
     inkscape:cx="11.995968"
     inkscape:cy="11.844758"
     inkscape:window-width="1496"
     inkscape:window-height="778"
     inkscape:window-x="0"
     inkscape:window-y="38"
     inkscape:window-maximized="0"
     inkscape:current-layer="mdi-floor-lamp-torchiere-outline" />
  <path
     style="fill:#ffcc00;stroke-width:0.201613;stroke-linejoin:bevel;stroke-miterlimit:1"
     d="M 11.741195,3.4427766 C 11.063103,3.5213864 10.245326,3.2847472 9.6823365,3.7001527 9.2617433,4.370998 10.013901,5.0863989 10.17141,5.7538432 c 0.382788,0.6009364 0.38616,1.7466469 1.263625,1.8017185 0.663966,-0.04161 1.690906,0.2421967 1.89475,-0.6399483 0.354373,-0.9991659 0.992004,-1.9273487 1.151692,-2.9753018 -0.381554,-0.755919 -1.378492,-0.3919901 -2.07342,-0.4962479 -0.222279,-0.00235 -0.444575,-0.00236 -0.666862,-0.00129 z"
     id="path2" />
  <path
     d="M14 4L12.7 7H11.3L10 4H14M17 2H7L10 9H14L17 2M13 20H16V22H8V20H11V10H13V20Z"
     id="path1" />
</svg>
