<?xml version="1.0" encoding="UTF-8" standalone="no"?>
<svg
   id="mdi-floor-lamp-dual-outline"
   viewBox="0 0 24 24"
   version="1.1"
   sodipodi:docname="floor-lamp-dual-outline-yellow.svg"
   inkscape:version="1.4 (e7c3feb1, 2024-10-09)"
   xmlns:inkscape="http://www.inkscape.org/namespaces/inkscape"
   xmlns:sodipodi="http://sodipodi.sourceforge.net/DTD/sodipodi-0.dtd"
   xmlns="http://www.w3.org/2000/svg"
   xmlns:svg="http://www.w3.org/2000/svg">
  <defs
     id="defs1" />
  <sodipodi:namedview
     id="namedview1"
     pagecolor="#ffffff"
     bordercolor="#000000"
     borderopacity="0.25"
     inkscape:showpageshadow="2"
     inkscape:pageopacity="0.0"
     inkscape:pagecheckerboard="0"
     inkscape:deskcolor="#d1d1d1"
     inkscape:zoom="13.1"
     inkscape:cx="11.984733"
     inkscape:cy="11.870229"
     inkscape:window-width="1432"
     inkscape:window-height="774"
     inkscape:window-x="0"
     inkscape:window-y="38"
     inkscape:window-maximized="0"
     inkscape:current-layer="mdi-floor-lamp-dual-outline" />
  <path
     id="path3"
     style="fill:#ffcc00;stroke-width:0.152672;stroke-linejoin:bevel;stroke-miterlimit:1"
     d="m 15.632753,4.8351026 c -0.698051,0.1299479 -0.631747,1.0008325 -0.874104,1.5170721 -0.160378,0.6691612 -0.510303,1.3269559 -0.480262,2.0230042 0.165536,0.5963679 0.935426,0.6193993 1.328688,0.2376309 C 16.370073,8.1113724 17.184697,7.6647995 17.873032,7.0637524 18.217814,6.5883241 17.764029,6.1096461 17.364176,5.8716007 16.809184,5.5255429 16.30112,4.9238397 15.632753,4.8351026 Z m -7.6286678,0.01968 C 7.3601923,5.3757427 6.6154179,5.8083769 6.0580739,6.4173985 5.7275695,6.9660082 6.3954353,7.3551396 6.8039575,7.5863418 7.5109407,8.0004873 8.1555369,8.5672443 8.9187823,8.8630757 9.541561,9.0013348 9.8689478,8.2448376 9.6481393,7.7445134 9.3861921,6.8472676 9.1356956,5.9277364 8.7665363,5.0755671 8.6289632,4.7942505 8.2713202,4.7555433 8.0040852,4.8547829 Z" />
  <path
     d="M11.73 10.06L10.17 11.24L11 12.2V20H8V22H16V20H13V12.3L13.85 11.26L12.27 10.07L11.73 10.06M8.32 5.31L9.23 8.19L9 8.37L6.47 6.7L8.32 5.31M9.39 2L3 6.81L9.08 10.82L11.55 8.93L9.39 2M15.67 5.3L17.53 6.7L15 8.37L14.77 8.2L15.67 5.3M14.61 2L12.44 8.95L14.92 10.82L21 6.81L14.61 2Z"
     id="path1" />
</svg>
