<?xml version="1.0" encoding="UTF-8" standalone="no"?>
<svg
   id="mdi-floor-lamp-torchiere-variant-outline"
   viewBox="0 0 24 24"
   version="1.1"
   sodipodi:docname="floor-lamp-torchiere-variant-outline-grey.svg"
   inkscape:version="1.4 (e7c3feb1, 2024-10-09)"
   xmlns:inkscape="http://www.inkscape.org/namespaces/inkscape"
   xmlns:sodipodi="http://sodipodi.sourceforge.net/DTD/sodipodi-0.dtd"
   xmlns="http://www.w3.org/2000/svg"
   xmlns:svg="http://www.w3.org/2000/svg">
  <defs
     id="defs1" />
  <sodipodi:namedview
     id="namedview1"
     pagecolor="#ffffff"
     bordercolor="#000000"
     borderopacity="0.25"
     inkscape:showpageshadow="2"
     inkscape:pageopacity="0.0"
     inkscape:pagecheckerboard="0"
     inkscape:deskcolor="#d1d1d1"
     inkscape:zoom="15.04"
     inkscape:cx="12.034574"
     inkscape:cy="12.034574"
     inkscape:window-width="1424"
     inkscape:window-height="715"
     inkscape:window-x="0"
     inkscape:window-y="38"
     inkscape:window-maximized="0"
     inkscape:current-layer="mdi-floor-lamp-torchiere-variant-outline" />
  <path
     style="fill:#4d4d4d;stroke-width:0.132979;stroke-linejoin:bevel;stroke-miterlimit:1"
     d="m 11.625639,3.4569274 c -0.57291,0.041082 -1.18492,-0.065479 -1.7326678,0.113862 -0.4998143,0.2243302 -0.3435834,0.838351 -0.1290344,1.217094 0.3763762,0.8415591 0.6840282,1.7268817 1.1202992,2.5337479 0.37884,0.4551394 1.06141,0.1875952 1.580182,0.2597143 0.691082,0.095704 0.85699,-0.6696822 1.074706,-1.1560171 0.29127,-0.7479199 0.69589,-1.4699836 0.904756,-2.2404989 C 14.53189,3.6089016 13.884839,3.4181893 13.430791,3.473908 12.829277,3.455986 12.227372,3.45482 11.625639,3.4569274 Z"
     id="path2" />
  <path
     d="M13.97 4L12.68 7H11.32L10.03 4H13.97M17 2H7L10 9H14L17 2M15.92 22L13 15V22H11V15L8.08 22H5.92L10.92 10H13.08L18.08 22H15.92Z"
     id="path1" />
</svg>
