<?xml version="1.0" encoding="UTF-8" standalone="no"?>
<svg
   id="mdi-food-apple-outline"
   viewBox="0 0 24 24"
   version="1.1"
   sodipodi:docname="food-apple-outline-green.svg"
   inkscape:version="1.4 (e7c3feb1, 2024-10-09)"
   xmlns:inkscape="http://www.inkscape.org/namespaces/inkscape"
   xmlns:sodipodi="http://sodipodi.sourceforge.net/DTD/sodipodi-0.dtd"
   xmlns="http://www.w3.org/2000/svg"
   xmlns:svg="http://www.w3.org/2000/svg">
  <defs
     id="defs1" />
  <sodipodi:namedview
     id="namedview1"
     pagecolor="#ffffff"
     bordercolor="#000000"
     borderopacity="0.25"
     inkscape:showpageshadow="2"
     inkscape:pageopacity="0.0"
     inkscape:pagecheckerboard="0"
     inkscape:deskcolor="#d1d1d1"
     inkscape:zoom="8.64"
     inkscape:cx="12.037037"
     inkscape:cy="12.037037"
     inkscape:window-width="1480"
     inkscape:window-height="787"
     inkscape:window-x="0"
     inkscape:window-y="38"
     inkscape:window-maximized="0"
     inkscape:current-layer="mdi-food-apple-outline" />
  <path
     d="M 11,5 C 5.38,8.07 4.11,3.78 4.11,3.78 4.11,3.78 6.77,0.19 11,5 Z"
     id="path3" />
  <path
     d="M 20,10 C 18.58,7.57 15.5,6.69 13,8 V 3 H 11 V 8 C 8.5,6.69 5.42,7.57 4,10 c -2,3 3,12 5,12 2,0 2,-1 3,-1 1,0 1,1 3,1 2,0 7,-9 5,-12"
     id="path1" />
  <path
     d="m 18.25,13.38 c -0.62,2.47 -1.84,4.74 -3.55,6.62 -0.2,0 -0.43,-0.1 -0.6,-0.25 -1.23,-0.99 -2.97,-0.99 -4.2,0 C 9.73,19.9 9.5,20 9.3,20 7.59,18.13 6.36,15.85 5.75,13.39 5.5,12.66 5.45,11.87 5.66,11.12 6.24,10.09 7.32,9.43 8.5,9.4 9.06,9.41 9.61,9.54 10.11,9.79 L 11,10.24 h 2 l 0.89,-0.45 c 0.5,-0.25 1.05,-0.38 1.61,-0.39 1.18,0.03 2.26,0.68 2.84,1.71 0.21,0.75 0.16,1.54 -0.09,2.27"
     id="path2"
     style="fill:#55d400" />
</svg>
