<?xml version="1.0" encoding="UTF-8" standalone="no"?>
<svg
   id="mdi-food-apple"
   viewBox="0 0 24 24"
   version="1.1"
   sodipodi:docname="food-apple-color.svg"
   inkscape:version="1.4 (e7c3feb1, 2024-10-09)"
   xmlns:inkscape="http://www.inkscape.org/namespaces/inkscape"
   xmlns:sodipodi="http://sodipodi.sourceforge.net/DTD/sodipodi-0.dtd"
   xmlns="http://www.w3.org/2000/svg"
   xmlns:svg="http://www.w3.org/2000/svg">
  <defs
     id="defs1" />
  <sodipodi:namedview
     id="namedview1"
     pagecolor="#ffffff"
     bordercolor="#000000"
     borderopacity="0.25"
     inkscape:showpageshadow="2"
     inkscape:pageopacity="0.0"
     inkscape:pagecheckerboard="0"
     inkscape:deskcolor="#d1d1d1"
     inkscape:zoom="17.28"
     inkscape:cx="12.037037"
     inkscape:cy="12.037037"
     inkscape:window-width="1440"
     inkscape:window-height="865"
     inkscape:window-x="0"
     inkscape:window-y="38"
     inkscape:window-maximized="0"
     inkscape:current-layer="mdi-food-apple" />
  <path
     d="M20,10C22,13 17,22 15,22C13,22 13,21 12,21C11,21 11,22 9,22C7,22 2,13 4,10C6,7 9,7 11,8V5C5.38,8.07 4.11,3.78 4.11,3.78C4.11,3.78 6.77,0.19 11,5V3H13V8C15,7 18,7 20,10Z"
     id="path1"
     style="fill:#a05a2c" />
  <path
     d="m 20,10 c 2,3 -3,12 -5,12 -2,0 -2,-1 -3,-1 -1,0 -1,1 -3,1 C 7,22 2,13 4,10 6,7 9,7 11,8 h 2 c 2,-1 5,-1 7,2 z"
     id="path2"
     sodipodi:nodetypes="sssssccs"
     style="fill:#d40000" />
  <path
     d="M 11,5 C 5.38,8.07 4.11,3.78 4.11,3.78 4.11,3.78 6.77,0.19 11,5 V 3 Z"
     id="path3"
     sodipodi:nodetypes="ccccc"
     style="fill:#008000" />
</svg>
