<?xml version="1.0" encoding="UTF-8" standalone="no"?>
<svg
   id="mdi-french-fries"
   viewBox="0 0 24 24"
   version="1.1"
   sodipodi:docname="french-fries-color.svg"
   inkscape:version="1.4 (e7c3feb1, 2024-10-09)"
   xmlns:inkscape="http://www.inkscape.org/namespaces/inkscape"
   xmlns:sodipodi="http://sodipodi.sourceforge.net/DTD/sodipodi-0.dtd"
   xmlns="http://www.w3.org/2000/svg"
   xmlns:svg="http://www.w3.org/2000/svg">
  <defs
     id="defs1">
    <clipPath
       clipPathUnits="userSpaceOnUse"
       id="clipPath1">
      <g
         id="g5">
        <path
           d="M 15.86,11 C 15.7,11.61 15.4,12.16 15,12.62 L 17,11 h -1.14"
           id="path4"
           sodipodi:nodetypes="cccc"
           style="fill:#ff0000" />
        <path
           d="m 16.564954,11 c -5.200038,6.103018 -7.5704464,1.197869 -8.6012078,0 H 5 l 2,11 h 10 l 2,-11 h -0.521652"
           id="path5"
           sodipodi:nodetypes="ccccccc"
           style="fill:#ff0000" />
      </g>
    </clipPath>
  </defs>
  <sodipodi:namedview
     id="namedview1"
     pagecolor="#ffffff"
     bordercolor="#000000"
     borderopacity="0.25"
     inkscape:showpageshadow="2"
     inkscape:pageopacity="0.0"
     inkscape:pagecheckerboard="0"
     inkscape:deskcolor="#d1d1d1"
     inkscape:zoom="22.8"
     inkscape:cx="11.885965"
     inkscape:cy="11.864035"
     inkscape:window-width="1488"
     inkscape:window-height="856"
     inkscape:window-x="0"
     inkscape:window-y="38"
     inkscape:window-maximized="0"
     inkscape:current-layer="mdi-french-fries" />
  <path
     d="M 18,11 V 6 H 15 V 4 H 12 V 2 H 8 V 5 H 6 v 6 H 5 l 2,11 h 10 l 2,-11 h -1"
     id="path2" />
  <path
     id="path3"
     style="fill:#ffcc00"
     d="M 15.86,11 C 15.7,11.61 15.4,12.16 15,12.62 v -4 l 2,1 V 11 H 15.86 M 17,7 v 1.5 l -2,-1 V 7 h 2 M 12,5 h 2 v 3.5 l -2,1 V 5 m 0,5.62 2,-1 v 3.83 C 13.41,13.8 12.73,14 12,14 v -3.38 m -1,3.24 C 10.21,13.65 9.5,13.22 9,12.62 v -3 l 2,-1 v 5.24 M 7,6 H 9 V 8.5 L 8,9 v 2 H 7 Z M 9,3 h 2 V 7.5 L 10,8 V 5 H 9 V 3" />
  <path
     id="path17"
     clip-path="url(#clipPath1)"
     style="fill:#ff0000;fill-opacity:1"
     d="m 16.564954,11 c -5.200038,6.103018 -7.5704464,1.197869 -8.6012078,0 H 5 L 7,22 H 17 L 19,11 H 18.478348 M 15.86,11 C 15.7,11.61 15.4,12.16 15,12.62 L 17,11 h -1.14 m 0.704954,0 c -5.200038,6.103018 -7.5704464,1.197869 -8.6012078,0 H 5 l 2,11 h 10 l 2,-11 h -0.521652" />
</svg>
