<?xml version="1.0" encoding="UTF-8" standalone="no"?>
<svg
   id="mdi-french-fries"
   viewBox="0 0 24 24"
   version="1.1"
   sodipodi:docname="french-fries-color.svg"
   inkscape:version="1.4 (e7c3feb1, 2024-10-09)"
   xmlns:inkscape="http://www.inkscape.org/namespaces/inkscape"
   xmlns:sodipodi="http://sodipodi.sourceforge.net/DTD/sodipodi-0.dtd"
   xmlns="http://www.w3.org/2000/svg"
   xmlns:svg="http://www.w3.org/2000/svg">
  <defs
     id="defs1">
    <clipPath
       clipPathUnits="userSpaceOnUse"
       id="clipPath19">
      <g
         id="g21">
        <path
           d="M 15.86,11 C 15.7,11.61 15.4,12.16 15,12.62 L 17,11 h -1.14"
           id="path20"
           sodipodi:nodetypes="cccc"
           style="fill:#ff0000" />
        <path
           d="m 16.564954,11 c -5.200038,6.103018 -7.5704464,1.197869 -8.6012078,0 H 5 l 2,11 h 10 l 2,-11 h -0.521652"
           id="path21"
           sodipodi:nodetypes="ccccccc"
           style="fill:#ff0000" />
      </g>
    </clipPath>
  </defs>
  <sodipodi:namedview
     id="namedview1"
     pagecolor="#ffffff"
     bordercolor="#000000"
     borderopacity="0.25"
     inkscape:showpageshadow="2"
     inkscape:pageopacity="0.0"
     inkscape:pagecheckerboard="0"
     inkscape:deskcolor="#d1d1d1"
     inkscape:zoom="22.8"
     inkscape:cx="11.864035"
     inkscape:cy="11.864035"
     inkscape:window-width="1488"
     inkscape:window-height="856"
     inkscape:window-x="0"
     inkscape:window-y="38"
     inkscape:window-maximized="0"
     inkscape:current-layer="mdi-french-fries" />
  <path
     d="M 18,11 V 6 H 15 V 4 H 12 V 2 H 8 V 5 H 6 v 6 H 5 l 2,11 h 10 l 2,-11 h -1"
     id="path2" />
  <path
     d="m 9,3 h 2 V 7.5 L 10,8 V 5 H 9 V 3"
     id="path8"
     style="fill:#ffcc00" />
  <path
     d="M 7,6 H 9 V 8.5 L 8,9 v 2 H 7 Z"
     id="path9"
     style="fill:#ffd42a" />
  <path
     d="M 11,13.86 C 10.21,13.65 9.5,13.22 9,12.62 v -3 l 2,-1 v 5.24"
     id="path7"
     style="fill:#ffcc00" />
  <path
     d="m 12,10.62 2,-1 v 3.83 C 13.41,13.8 12.73,14 12,14 v -3.38"
     id="path6"
     style="fill:#ffcc00" />
  <path
     d="m 12,5 h 2 v 3.5 l -2,1 V 5"
     id="path5"
     style="fill:#ffcc00" />
  <path
     d="m 17,7 v 1.5 l -2,-1 V 7 h 2"
     id="path4"
     style="fill:#ffcc00" />
  <path
     d="M 15.86,11 C 15.7,11.61 15.4,12.16 15,12.62 v -4 l 2,1 V 11 h -1.14"
     id="path3"
     style="fill:#ffcc00" />
  <path
     d="M 8,11 H 7 Z"
     id="path16"
     sodipodi:nodetypes="ccc"
     style="fill:#ff0000" />
  <path
     d="m 16.564954,11 c -5.200038,6.103018 -7.5704464,1.197869 -8.6012078,0 H 5 l 2,11 h 10 l 2,-11 h -0.521652"
     id="path1"
     sodipodi:nodetypes="ccccccc"
     style="fill:#ff0000" />
  <g
     id="g17"
     clip-path="url(#clipPath19)"
     style="fill:#ff0000;fill-opacity:1">
    <path
       d="M 15.86,11 C 15.7,11.61 15.4,12.16 15,12.62 L 17,11 h -1.14"
       id="path10"
       sodipodi:nodetypes="cccc"
       style="fill:#ff0000;fill-opacity:1" />
    <path
       d="m 16.564954,11 c -5.200038,6.103018 -7.5704464,1.197869 -8.6012078,0 H 5 l 2,11 h 10 l 2,-11 h -0.521652"
       id="path17"
       sodipodi:nodetypes="ccccccc"
       style="fill:#ff0000;fill-opacity:1" />
  </g>
</svg>
