<?xml version="1.0" encoding="UTF-8" standalone="no"?>
<svg
   id="mdi-fruit-watermelon"
   viewBox="0 0 24 24"
   version="1.1"
   sodipodi:docname="fruit-watermelon-color.svg"
   inkscape:version="1.4 (e7c3feb1, 2024-10-09)"
   xmlns:inkscape="http://www.inkscape.org/namespaces/inkscape"
   xmlns:sodipodi="http://sodipodi.sourceforge.net/DTD/sodipodi-0.dtd"
   xmlns="http://www.w3.org/2000/svg"
   xmlns:svg="http://www.w3.org/2000/svg">
  <defs
     id="defs1" />
  <sodipodi:namedview
     id="namedview1"
     pagecolor="#ffffff"
     bordercolor="#000000"
     borderopacity="0.25"
     inkscape:showpageshadow="2"
     inkscape:pageopacity="0.0"
     inkscape:pagecheckerboard="0"
     inkscape:deskcolor="#d1d1d1"
     inkscape:zoom="13.1"
     inkscape:cx="11.984733"
     inkscape:cy="11.984733"
     inkscape:window-width="1424"
     inkscape:window-height="845"
     inkscape:window-x="0"
     inkscape:window-y="38"
     inkscape:window-maximized="0"
     inkscape:current-layer="mdi-fruit-watermelon" />
  <path
     d="M 18.6,18.6 C 14,23.2 6.6,23.2 2,18.6 l 1.4,-1.4 c 3.8,3.8 9.9,3.8 13.7,0 3.8,-3.8 3.8,-9.9 0,-13.7 L 18.6,2 c 4.5,4.6 4.5,12 0,16.6 z"
     id="path7"
     style="fill:#008000" />
  <path
     d="M 16.4,16.4 C 19.8,13 19.8,7.5 16.4,4.2 L 4.2,16.4 c 3.3,3.4 8.8,3.4 12.2,0"
     id="path1"
     style="fill:#ff2a2a" />
  <path
     d="m 8,17 c -0.6,0 -1,-0.4 -1,-1 0,-0.6 0.4,-1 1,-1 0.6,0 1,0.4 1,1 0,0.6 -0.4,1 -1,1"
     id="path6"
     style="fill:#1a1a1a" />
  <path
     d="m 12,15 c 0.6,0 1,0.4 1,1 0,0.6 -0.4,1 -1,1 -0.6,0 -1,-0.4 -1,-1 0,-0.6 0.4,-1 1,-1"
     id="path5"
     style="fill:#1a1a1a" />
  <path
     d="m 12,11 c 0.6,0 1,0.4 1,1 0,0.6 -0.4,1 -1,1 -0.6,0 -1,-0.4 -1,-1 0,-0.6 0.4,-1 1,-1"
     id="path4"
     style="fill:#1a1a1a" />
  <path
     d="m 16,11 c 0.6,0 1,0.4 1,1 0,0.6 -0.4,1 -1,1 -0.6,0 -1,-0.4 -1,-1 0,-0.6 0.4,-1 1,-1"
     id="path3"
     style="fill:#1a1a1a" />
  <path
     d="m 16,7 c 0.6,0 1,0.4 1,1 0,0.6 -0.4,1 -1,1 -0.6,0 -1,-0.4 -1,-1 0,-0.6 0.4,-1 1,-1"
     id="path2"
     style="fill:#1a1a1a" />
</svg>
