<?xml version="1.0" encoding="UTF-8" standalone="no"?>
<svg
   id="mdi-fruit-grapes"
   viewBox="0 0 24 24"
   version="1.1"
   sodipodi:docname="fruit-grapes-green.svg"
   inkscape:version="1.4 (e7c3feb1, 2024-10-09)"
   xmlns:inkscape="http://www.inkscape.org/namespaces/inkscape"
   xmlns:sodipodi="http://sodipodi.sourceforge.net/DTD/sodipodi-0.dtd"
   xmlns="http://www.w3.org/2000/svg"
   xmlns:svg="http://www.w3.org/2000/svg">
  <defs
     id="defs1" />
  <sodipodi:namedview
     id="namedview1"
     pagecolor="#ffffff"
     bordercolor="#000000"
     borderopacity="0.25"
     inkscape:showpageshadow="2"
     inkscape:pageopacity="0.0"
     inkscape:pagecheckerboard="0"
     inkscape:deskcolor="#d1d1d1"
     inkscape:zoom="13.1"
     inkscape:cx="11.984733"
     inkscape:cy="11.984733"
     inkscape:window-width="1288"
     inkscape:window-height="817"
     inkscape:window-x="0"
     inkscape:window-y="38"
     inkscape:window-maximized="0"
     inkscape:current-layer="mdi-fruit-grapes" />
  <path
     d="M 14.4,2.2 13.6,1 c -2.2,1 -2.4,4.6 -2.4,5 h 1.5 c 0.1,-0.8 0.4,-3.3 1.7,-3.8 z"
     id="path9"
     style="fill:#008000" />
  <path
     d="m 12,18 c -1.1,0 -2,0.9 -2,2 0,1.1 0.9,2 2,2 1.1,0 2,-0.9 2,-2 0,-1.1 -0.9,-2 -2,-2"
     id="path8"
     style="fill:#8dd35f" />
  <path
     d="m 9.5,14 c -1.1,0 -2,0.9 -2,2 0,1.1 0.9,2 2,2 1.1,0 2,-0.9 2,-2 0,-1.1 -0.9,-2 -2,-2"
     id="path7"
     style="fill:#8dd35f" />
  <path
     d="m 14.5,14 c -1.1,0 -2,0.9 -2,2 0,1.1 0.9,2 2,2 1.1,0 2,-0.9 2,-2 0,-1.1 -0.9,-2 -2,-2"
     id="path6"
     style="fill:#8dd35f" />
  <path
     d="m 9.5,6 c -1.1,0 -2,0.9 -2,2 0,1.1 0.9,2 2,2 1.1,0 2,-0.9 2,-2 0,-1.1 -0.9,-2 -2,-2"
     id="path5"
     style="fill:#8dd35f" />
  <path
     d="m 14.5,6 c -1.1,0 -2,0.9 -2,2 0,1.1 0.9,2 2,2 1.1,0 2,-0.9 2,-2 0,-1.1 -0.9,-2 -2,-2"
     id="path4"
     style="fill:#8dd35f" />
  <path
     d="m 17,10 c -1.1,0 -2,0.9 -2,2 0,1.1 0.9,2 2,2 1.1,0 2,-0.9 2,-2 0,-1.1 -0.9,-2 -2,-2"
     id="path3"
     style="fill:#8dd35f" />
  <path
     d="m 7,10 c -1.1,0 -2,0.9 -2,2 0,1.1 0.9,2 2,2 1.1,0 2,-0.9 2,-2 0,-1.1 -0.9,-2 -2,-2"
     id="path2"
     style="fill:#8dd35f" />
  <path
     d="m 14,12 c 0,1.1 -0.9,2 -2,2 -1.1,0 -2,-0.9 -2,-2 0,-1.1 0.9,-2 2,-2 1.1,0 2,0.9 2,2"
     id="path1"
     style="fill:#8dd35f" />
</svg>
