<?xml version="1.0" encoding="UTF-8" standalone="no"?>
<svg
   id="mdi-fruit-grapes-outline"
   viewBox="0 0 24 24"
   version="1.1"
   sodipodi:docname="fruit-grapes-outline-green.svg"
   inkscape:version="1.4 (e7c3feb1, 2024-10-09)"
   xmlns:inkscape="http://www.inkscape.org/namespaces/inkscape"
   xmlns:sodipodi="http://sodipodi.sourceforge.net/DTD/sodipodi-0.dtd"
   xmlns="http://www.w3.org/2000/svg"
   xmlns:svg="http://www.w3.org/2000/svg">
  <defs
     id="defs1" />
  <sodipodi:namedview
     id="namedview1"
     pagecolor="#ffffff"
     bordercolor="#000000"
     borderopacity="0.25"
     inkscape:showpageshadow="2"
     inkscape:pageopacity="0.0"
     inkscape:pagecheckerboard="0"
     inkscape:deskcolor="#d1d1d1"
     inkscape:zoom="11.4"
     inkscape:cx="12.017544"
     inkscape:cy="12.017544"
     inkscape:window-width="1432"
     inkscape:window-height="831"
     inkscape:window-x="0"
     inkscape:window-y="38"
     inkscape:window-maximized="0"
     inkscape:current-layer="mdi-fruit-grapes-outline" />
  <path
     d="M 19,12 C 19,10.61 18.05,9.47 16.78,9.12 16.92,8.78 17,8.4 17,8 17,6.34 15.66,5 14,5 13.57,5 13.17,5.1 12.81,5.26 13,4.19 13.39,2.59 14.4,2.2 L 13.6,1 C 11.9,1.77 11.4,4.09 11.26,5.29 10.87,5.11 10.45,5 10,5 8.34,5 7,6.34 7,8 7,8.4 7.08,8.77 7.22,9.12 5.94,9.46 5,10.62 5,12 5,13.39 5.95,14.54 7.23,14.88 7.09,15.22 7,15.6 7,16 7,17.39 7.94,18.54 9.22,18.88 9.08,19.23 9,19.61 9,20 c 0,1.66 1.34,3 3,3 1.66,0 3,-1.34 3,-3 0,-0.39 -0.08,-0.77 -0.22,-1.12 C 16.06,18.54 17,17.39 17,16 17,15.6 16.92,15.23 16.77,14.88 18.05,14.54 19,13.39 19,12"
     id="path1" />
  <path
     id="path3"
     style="fill:#8dd35f"
     d="m 14,6.5 c 0.83,0 1.5,0.67 1.5,1.5 0,0.83 -0.67,1.5 -1.5,1.5 C 13.17,9.5 12.5,8.83 12.5,8 12.5,7.17 13.17,6.5 14,6.5 M 13.5,12 c 0,0.83 -0.67,1.5 -1.5,1.5 -0.83,0 -1.5,-0.67 -1.5,-1.5 0,-0.83 0.67,-1.5 1.5,-1.5 0.83,0 1.5,0.67 1.5,1.5 M 10,6.5 c 0.83,0 1.5,0.67 1.5,1.5 0,0.83 -0.67,1.5 -1.5,1.5 C 9.17,9.5 8.5,8.83 8.5,8 8.5,7.17 9.17,6.5 10,6.5 M 6.5,12 c 0,-0.83 0.67,-1.5 1.5,-1.5 0.83,0 1.5,0.67 1.5,1.5 0,0.83 -0.67,1.5 -1.5,1.5 -0.83,0 -1.5,-0.67 -1.5,-1.5 m 2,4 c 0,-0.83 0.67,-1.5 1.5,-1.5 0.83,0 1.5,0.67 1.5,1.5 0,0.83 -0.67,1.5 -1.5,1.5 -0.83,0 -1.5,-0.67 -1.5,-1.5 m 3.5,5.5 c -0.83,0 -1.5,-0.67 -1.5,-1.5 0,-0.83 0.67,-1.5 1.5,-1.5 0.83,0 1.5,0.67 1.5,1.5 0,0.83 -0.67,1.5 -1.5,1.5 m 2,-4 c -0.83,0 -1.5,-0.67 -1.5,-1.5 0,-0.83 0.67,-1.5 1.5,-1.5 0.83,0 1.5,0.67 1.5,1.5 0,0.83 -0.67,1.5 -1.5,1.5 m 2,-4 c -0.83,0 -1.5,-0.67 -1.5,-1.5 0,-0.83 0.67,-1.5 1.5,-1.5 0.83,0 1.5,0.67 1.5,1.5 0,0.83 -0.67,1.5 -1.5,1.5 z" />
</svg>
