<?xml version="1.0" encoding="UTF-8" standalone="no"?>
<svg
   id="mdi-gitlab"
   viewBox="0 0 24 24"
   version="1.1"
   sodipodi:docname="gitlab-color.svg"
   xml:space="preserve"
   inkscape:version="1.4 (e7c3feb1, 2024-10-09)"
   xmlns:inkscape="http://www.inkscape.org/namespaces/inkscape"
   xmlns:sodipodi="http://sodipodi.sourceforge.net/DTD/sodipodi-0.dtd"
   xmlns="http://www.w3.org/2000/svg"
   xmlns:svg="http://www.w3.org/2000/svg"><defs
     id="defs1" /><sodipodi:namedview
     id="namedview1"
     pagecolor="#ffffff"
     bordercolor="#000000"
     borderopacity="0.25"
     inkscape:showpageshadow="2"
     inkscape:pageopacity="0.0"
     inkscape:pagecheckerboard="0"
     inkscape:deskcolor="#d1d1d1"
     inkscape:zoom="9.95"
     inkscape:cx="11.909548"
     inkscape:cy="12.060302"
     inkscape:window-width="1424"
     inkscape:window-height="861"
     inkscape:window-x="0"
     inkscape:window-y="38"
     inkscape:window-maximized="0"
     inkscape:current-layer="layer32" /><g
     inkscape:groupmode="layer"
     id="layer32"
     inkscape:label="Layer 1"><path
       style="fill:#e24329;stroke-width:0.201005;stroke-linejoin:bevel;stroke-miterlimit:1;fill-opacity:1"
       d="M 5.676429,3.8363693 C 5.1339583,4.5243192 5.0407687,5.4748281 4.7060178,6.2748915 4.4012946,7.3087078 3.9844167,8.3200353 3.7456815,9.366952 3.8761959,10.228618 4.9556373,9.9905334 5.5692525,10.045933 6.399197,9.9740089 7.3273876,10.217558 8.0894708,9.818428 8.6386944,9.2471551 7.9622674,8.4865002 7.8680333,7.8525387 7.4239907,6.5667547 7.0791693,5.2380253 6.5328596,3.9918342 6.343508,3.7158412 5.9514857,3.6814028 5.676429,3.8363693 Z"
       id="path2" /><path
       style="fill:#e24329;fill-opacity:1;stroke-width:0.201005;stroke-linejoin:bevel;stroke-miterlimit:1"
       d="m 17.760678,3.7439149 c -0.608361,0.4491497 -0.613123,1.3361323 -0.93039,1.9808843 -0.389726,1.1900883 -0.835586,2.3667118 -1.143259,3.580909 -0.01765,0.8482068 0.970466,0.7184198 1.54362,0.7349768 C 18.139416,9.9833091 19.11971,10.2053 19.980763,9.8643609 20.629658,9.3451732 19.933812,8.5312128 19.840448,7.9182823 19.402603,6.6180018 19.025474,5.2942425 18.526814,4.0159783 18.321443,3.7433481 18.094583,3.6512685 17.760678,3.7439149 Z"
       id="path3" /><path
       style="fill:#e24329;fill-opacity:1;stroke-width:0.201005;stroke-linejoin:bevel;stroke-miterlimit:1"
       d="m 11.458661,9.8535647 c -0.819707,0.059168 -1.6951238,-0.091694 -2.4804806,0.1497583 -0.6808359,0.458065 -0.040077,1.290365 0.06644,1.891114 0.8096225,2.439818 1.5426276,4.908059 2.4071696,7.328043 0.326997,0.650042 1.223588,0.262433 1.238419,-0.386111 0.900162,-2.733013 1.803029,-5.465389 2.670972,-8.208817 0.143777,-0.8151137 -0.812067,-0.8381713 -1.377787,-0.7753614 -0.841578,5.264e-4 -1.683159,-0.00128 -2.524733,0.00137 z"
       id="path4" /><path
       style="fill:#fc6d26;fill-opacity:1;stroke-width:0.201005;stroke-linejoin:bevel;stroke-miterlimit:1"
       d="m 4.2705716,9.973304 c -0.6324279,0.68076 0.3554878,1.317989 0.6906621,1.878435 1.7138724,2.147923 3.3295112,4.386933 5.1262923,6.461974 0.608434,0.397416 1.195608,-0.406129 0.845067,-0.957008 C 10.183175,14.960394 9.4419357,12.546804 8.6080748,10.186683 8.15732,9.5736566 7.245748,9.9619311 6.5893923,9.8521906 5.8222515,9.9120842 5.0042885,9.7180132 4.2705716,9.973304 Z"
       id="path5" /><path
       style="fill:#fc6d26;fill-opacity:1;stroke-width:0.201005;stroke-linejoin:bevel;stroke-miterlimit:1"
       d="m 15.557082,9.973304 c -0.588419,1.022822 -0.777732,2.24707 -1.205967,3.350735 -0.444559,1.486334 -1.034497,2.943378 -1.381384,4.451361 0.02461,0.724495 1.048546,0.768913 1.303398,0.156473 1.872544,-2.371722 3.768745,-4.730178 5.562573,-7.160634 0.265945,-0.660831 -0.480324,-0.9950134 -1.019355,-0.9025597 -1.078877,0.031897 -2.21501,-0.1518147 -3.259265,0.1046247 z"
       id="path6" /><path
       style="fill:#fca326;fill-opacity:1;stroke-width:0.201005;stroke-linejoin:bevel;stroke-miterlimit:1"
       d="m 3.5434987,10.535686 c -0.616167,0.502823 -0.5942997,1.425642 -0.902071,2.125164 -0.2522826,0.583173 -0.2469241,1.364074 0.4138879,1.67018 1.8897757,1.384317 3.7466778,2.826381 5.7048916,4.109807 0.6307022,0.266432 1.1390989,-0.630598 0.648948,-1.076476 C 7.6778569,15.119331 5.9485349,12.854812 4.1576984,10.666912 3.9803747,10.480105 3.7780785,10.51062 3.5434987,10.535686 Z"
       id="path7" /><path
       style="fill:#fca326;fill-opacity:1;stroke-width:0.201005;stroke-linejoin:bevel;stroke-miterlimit:1"
       d="m 20.016292,10.593004 c -0.779375,0.589854 -1.257836,1.513857 -1.911253,2.239657 -1.206251,1.601869 -2.540136,3.119964 -3.643081,4.793556 -0.285805,0.632434 0.595162,1.142123 1.045945,0.658018 1.956614,-1.40272 3.952071,-2.765999 5.830233,-4.269434 0.520002,-0.717947 -0.135955,-1.596709 -0.281878,-2.337273 -0.175521,-0.48915 -0.327479,-1.260227 -1.039966,-1.084524 z"
       id="path8" /></g><path
     d="M21.94 13.11L20.89 9.89C20.89 9.86 20.88 9.83 20.87 9.8L18.76 3.32C18.65 3 18.33 2.75 17.96 2.75C17.6 2.75 17.28 3 17.17 3.33L15.17 9.5H8.84L6.83 3.33C6.72 3 6.4 2.75 6.04 2.75H6.04C5.67 2.75 5.35 3 5.24 3.33L3.13 9.82C3.13 9.82 3.13 9.83 3.13 9.83L2.06 13.11C1.9 13.61 2.07 14.15 2.5 14.45L11.72 21.16C11.89 21.28 12.11 21.28 12.28 21.15L21.5 14.45C21.93 14.15 22.1 13.61 21.94 13.11M8.15 10.45L10.72 18.36L4.55 10.45M13.28 18.37L15.75 10.78L15.85 10.45H19.46L13.87 17.61M17.97 3.94L19.78 9.5H16.16M14.86 10.45L13.07 15.96L12 19.24L9.14 10.45M6.03 3.94L7.84 9.5H4.23M3.05 13.69C2.96 13.62 2.92 13.5 2.96 13.4L3.75 10.97L9.57 18.42M20.95 13.69L14.44 18.42L14.46 18.39L20.25 10.97L21.04 13.4C21.08 13.5 21.04 13.62 20.95 13.69"
     id="path1" /></svg>
