<?xml version="1.0" encoding="UTF-8" standalone="no"?>
<svg
   id="mdi-google-maps"
   viewBox="0 0 24 24"
   version="1.1"
   sodipodi:docname="google-maps-color.svg"
   xml:space="preserve"
   inkscape:version="1.4 (e7c3feb1, 2024-10-09)"
   xmlns:inkscape="http://www.inkscape.org/namespaces/inkscape"
   xmlns:sodipodi="http://sodipodi.sourceforge.net/DTD/sodipodi-0.dtd"
   xmlns="http://www.w3.org/2000/svg"
   xmlns:svg="http://www.w3.org/2000/svg"><defs
     id="defs1" /><sodipodi:namedview
     id="namedview1"
     pagecolor="#ffffff"
     bordercolor="#000000"
     borderopacity="0.25"
     inkscape:showpageshadow="2"
     inkscape:pageopacity="0.0"
     inkscape:pagecheckerboard="0"
     inkscape:deskcolor="#d1d1d1"
     inkscape:zoom="4.97"
     inkscape:cx="11.971831"
     inkscape:cy="11.971831"
     inkscape:window-width="1472"
     inkscape:window-height="840"
     inkscape:window-x="0"
     inkscape:window-y="38"
     inkscape:window-maximized="0"
     inkscape:current-layer="mdi-google-maps" /><path
     d="M 9.89,6.89 13.8,2.24 13.76,2.23 C 13.18,2.08 12.59,2 12,2 10.03,2 8.17,2.85 6.85,4.31 L 6.83,4.32 Z"
     id="path5"
     style="fill:#1b74e8;fill-opacity:1" /><path
     d="M 14.22,2.36 11,6.17 11.04,6.16 c 1.34,-0.46 2.84,0.12 3.52,1.34 0.15,0.28 0.27,0.58 0.31,0.88 0.06,0.38 0.08,0.65 0.01,1.02 v 0.01 l 3.2,-3.8 C 17.24,4.09 15.87,2.93 14.23,2.37 L 14.22,2.36"
     id="path4"
     style="fill:#4385f5;fill-opacity:1" /><path
     d="M 6.58,4.62 6.57,4.63 C 4.95,6.68 4.67,9.53 5.64,11.94 L 9.63,7.2 9.58,7.15 6.58,4.62"
     id="path3"
     style="fill:#eb4436;fill-opacity:1" /><path
     d="m 9.12,8.42 -3.3,3.92 c 0.61,1.29 1.52,2.39 2.39,3.49 0.21,0.25 0.42,0.51 0.62,0.78 L 13,11.67 12.96,11.68 C 11.5,12.18 9.88,11.44 9.3,10 9.22,9.83 9.16,9.63 9.12,9.43 9.07,9.06 9.06,8.79 9.12,8.43 V 8.42"
     id="path2"
     style="fill:#fcbd03;fill-opacity:1" /><path
     d="m 18.27,6 c 1.01,2.17 0.78,4.73 -0.33,6.81 -0.94,1.69 -2.29,3.12 -3.44,4.69 -0.5,0.7 -1,1.45 -1.37,2.26 -0.13,0.27 -0.22,0.55 -0.32,0.83 -0.1,0.28 -0.19,0.56 -0.28,0.84 C 12.44,21.69 12.33,22 12,22 v 0 C 11.61,22 11.5,21.56 11.42,21.26 11.18,20.53 10.94,19.83 10.57,19.16 10.15,18.37 9.62,17.64 9.08,16.93 L 18.27,6"
     id="path1"
     style="fill:#32a855;fill-opacity:1" /></svg>
