<?xml version="1.0" encoding="UTF-8" standalone="no"?>
<svg
   id="mdi-google-chrome"
   viewBox="0 0 24 24"
   version="1.1"
   sodipodi:docname="google-chrome-color.svg"
   xml:space="preserve"
   inkscape:version="1.4 (e7c3feb1, 2024-10-09)"
   xmlns:inkscape="http://www.inkscape.org/namespaces/inkscape"
   xmlns:sodipodi="http://sodipodi.sourceforge.net/DTD/sodipodi-0.dtd"
   xmlns="http://www.w3.org/2000/svg"
   xmlns:svg="http://www.w3.org/2000/svg"><defs
     id="defs1" /><sodipodi:namedview
     id="namedview1"
     pagecolor="#ffffff"
     bordercolor="#000000"
     borderopacity="0.25"
     inkscape:showpageshadow="2"
     inkscape:pageopacity="0.0"
     inkscape:pagecheckerboard="0"
     inkscape:deskcolor="#d1d1d1"
     inkscape:zoom="10.72"
     inkscape:cx="11.940299"
     inkscape:cy="12.266791"
     inkscape:window-width="1424"
     inkscape:window-height="806"
     inkscape:window-x="0"
     inkscape:window-y="38"
     inkscape:window-maximized="0"
     inkscape:current-layer="mdi-google-chrome" /><path
     style="fill:#347dc2;fill-opacity:1;stroke:#000000;stroke-width:0.100756;stroke-linejoin:bevel;stroke-miterlimit:1"
     d="M 11.974969,8.4435021 C 10.317881,8.410904 8.792268,9.7132115 8.4972253,11.331766 c -0.3877813,1.769273 0.8432564,3.654747 2.5714337,4.118978 1.350903,0.37183 2.879582,-0.150821 3.733175,-1.260528 C 15.843696,12.930653 15.806963,10.9163 14.703046,9.7054078 14.02807,8.9064639 13.02907,8.414788 11.974969,8.4435021 Z"
     id="path2" /><path
     style="fill:#4bb847;fill-opacity:1;stroke:#000000;stroke-width:0.100503;stroke-linejoin:bevel;stroke-miterlimit:1"
     d="M 4.9463136,7.5264016 C 4.4119122,7.6714634 4.3076562,8.3004673 4.0845831,8.7305669 2.8755693,11.542208 3.3877041,14.97668 5.3149158,17.34473 c 1.3353177,1.659717 3.3091848,2.812318 5.4200092,3.119505 0.573297,0.04224 0.77627,-0.598477 1.048252,-0.979783 0.661758,-1.127537 1.351039,-2.244094 1.929919,-3.416613 0.178561,-0.479437 -0.341945,-0.952958 -0.809025,-0.778011 -1.118292,0.295237 -2.390398,0.0392 -3.2251861,-0.787915 C 9.0183136,13.854494 8.6625644,12.975206 8.1652115,12.208173 7.2872346,10.726468 6.4579802,9.2147208 5.5420658,7.7561636 5.398844,7.5816188 5.1677305,7.5026251 4.9463136,7.5264016 Z"
     id="path3" /><path
     style="fill:#fcd207;fill-opacity:1;stroke:#000000;stroke-width:0.214362;stroke-linejoin:bevel;stroke-miterlimit:1"
     d="m 14.400372,8.5832831 c -0.652636,0.7194147 0.446844,1.2403254 0.681814,1.8802749 0.532662,1.047681 0.459546,2.307334 -0.161609,3.300844 -1.050705,2.052701 -2.32909,3.995651 -3.372921,6.041588 -0.229645,0.723001 0.677229,0.916146 1.199131,0.704933 3.000416,-0.364723 5.857569,-2.229385 7.054719,-5.058836 0.850368,-1.86177 0.906627,-4.051908 0.344388,-6.0025494 -0.05678,-0.6808717 -0.596379,-1.1655067 -1.288085,-0.9926947 -1.426703,0.046471 -2.884381,-0.092747 -4.291757,0.069582 l -0.101377,0.034791 z"
     id="path4" /><path
     style="fill:#df2025;fill-opacity:1;stroke:#000000;stroke-width:0.186567;stroke-linejoin:bevel;stroke-miterlimit:1"
     d="M 11.859769,3.4669791 C 9.320125,3.5064489 6.7798438,4.740345 5.2752594,6.7976767 5.0082785,7.4707009 5.7350753,8.0181589 5.9501308,8.6055828 6.5623924,9.5725506 7.0117061,10.671574 7.7386103,11.546399 8.3050796,11.902461 8.7231645,11.228596 8.8058244,10.725608 9.224659,9.6579079 10.257599,8.7908983 11.377675,8.6195174 c 2.520003,-0.036759 5.052823,0.0039 7.564868,-0.080914 C 19.66709,8.3993826 19.441942,7.5290059 19.01956,7.165215 17.535911,5.0323924 15.083053,3.5895466 12.471213,3.4784573 12.267611,3.4674426 12.06364,3.4636518 11.859769,3.4669791 Z"
     id="path5" /><path
     d="M12,20L15.46,14H15.45C15.79,13.4 16,12.73 16,12C16,10.8 15.46,9.73 14.62,9H19.41C19.79,9.93 20,10.94 20,12A8,8 0 0,1 12,20M4,12C4,10.54 4.39,9.18 5.07,8L8.54,14H8.55C9.24,15.19 10.5,16 12,16C12.45,16 12.88,15.91 13.29,15.77L10.89,19.91C7,19.37 4,16.04 4,12M15,12A3,3 0 0,1 12,15A3,3 0 0,1 9,12A3,3 0 0,1 12,9A3,3 0 0,1 15,12M12,4C14.96,4 17.54,5.61 18.92,8H12C10.06,8 8.45,9.38 8.08,11.21L5.7,7.08C7.16,5.21 9.44,4 12,4M12,2A10,10 0 0,0 2,12A10,10 0 0,0 12,22A10,10 0 0,0 22,12A10,10 0 0,0 12,2Z"
     id="path1" /></svg>
