<?xml version="1.0" encoding="UTF-8" standalone="no"?>
<svg
   id="mdi-halloween"
   viewBox="0 0 24 24"
   version="1.1"
   sodipodi:docname="halloween-color.svg"
   inkscape:version="1.4 (e7c3feb1, 2024-10-09)"
   xmlns:inkscape="http://www.inkscape.org/namespaces/inkscape"
   xmlns:sodipodi="http://sodipodi.sourceforge.net/DTD/sodipodi-0.dtd"
   xmlns="http://www.w3.org/2000/svg"
   xmlns:svg="http://www.w3.org/2000/svg">
  <defs
     id="defs1" />
  <sodipodi:namedview
     id="namedview1"
     pagecolor="#ffffff"
     bordercolor="#000000"
     borderopacity="0.25"
     inkscape:showpageshadow="2"
     inkscape:pageopacity="0.0"
     inkscape:pagecheckerboard="0"
     inkscape:deskcolor="#d1d1d1"
     inkscape:zoom="11.4"
     inkscape:cx="12.105263"
     inkscape:cy="11.885965"
     inkscape:window-width="1456"
     inkscape:window-height="860"
     inkscape:window-x="0"
     inkscape:window-y="38"
     inkscape:window-maximized="0"
     inkscape:current-layer="mdi-halloween" />
  <path
     d="M6.5,6C7.47,6 8.37,6.5 9.11,7.38C9.66,6.79 10.31,6.36 11,6.15V4A2,2 0 0,1 13,2H15V4H13V6.15C13.69,6.36 14.34,6.79 14.89,7.38C15.63,6.5 16.53,6 17.5,6C20,6 22,9.36 22,13.5C22,17.64 20,21 17.5,21C16.53,21 15.63,20.5 14.89,19.62C14.08,20.5 13.08,21 12,21C10.92,21 9.92,20.5 9.11,19.62C8.37,20.5 7.47,21 6.5,21C4,21 2,17.64 2,13.5C2,9.36 4,6 6.5,6M9,10L7.75,12.25H10.25L9,10M15,10L13.75,12.25H16.25L15,10M8,17H10L11,16L12,17H14L15,16L16,17L17.5,14L13.92,14.62L13,16L12,15H10L9,16L8,15L6,14L8,17Z"
     id="path1"
     style="fill:#008000" />
  <path
     d="M 6.5,6 C 7.47,6 8.37,6.5 9.11,7.38 9.66,6.79 10.31,6.36 11,6.15 h 2 c 0.69,0.21 1.34,0.64 1.89,1.23 C 15.63,6.5 16.53,6 17.5,6 20,6 22,9.36 22,13.5 22,17.64 20,21 17.5,21 16.53,21 15.63,20.5 14.89,19.62 14.08,20.5 13.08,21 12,21 10.92,21 9.92,20.5 9.11,19.62 8.37,20.5 7.47,21 6.5,21 4,21 2,17.64 2,13.5 2,9.36 4,6 6.5,6"
     id="path2"
     sodipodi:nodetypes="cccccssscscssc"
     style="fill:#ff6600" />
  <path
     id="path4"
     style="fill:#ffcc00"
     d="m 15,10 -1.25,2.25 h 2.5 L 15,10 m -6,0 -1.25,2.25 h 2.5 L 9,10 m -1,7 h 2 l 1,-1 1,1 h 2 l 1,-1 1,1 1.5,-3 -3.58,0.62 L 13,16 12,15 H 10 L 9,16 8,15 6,14 Z" />
</svg>
