<?xml version="1.0" encoding="UTF-8" standalone="no"?>
<svg
   id="mdi-hard-hat"
   viewBox="0 0 24 24"
   version="1.1"
   sodipodi:docname="hard-hat-yellow.svg"
   inkscape:version="1.4 (e7c3feb1, 2024-10-09)"
   xmlns:inkscape="http://www.inkscape.org/namespaces/inkscape"
   xmlns:sodipodi="http://sodipodi.sourceforge.net/DTD/sodipodi-0.dtd"
   xmlns="http://www.w3.org/2000/svg"
   xmlns:svg="http://www.w3.org/2000/svg">
  <defs
     id="defs1" />
  <sodipodi:namedview
     id="namedview1"
     pagecolor="#ffffff"
     bordercolor="#000000"
     borderopacity="0.25"
     inkscape:showpageshadow="2"
     inkscape:pageopacity="0.0"
     inkscape:pagecheckerboard="0"
     inkscape:deskcolor="#d1d1d1"
     inkscape:zoom="1.0833333"
     inkscape:cx="12"
     inkscape:cy="12"
     inkscape:window-width="1104"
     inkscape:window-height="245"
     inkscape:window-x="0"
     inkscape:window-y="38"
     inkscape:window-maximized="0"
     inkscape:current-layer="mdi-hard-hat" />
  <path
     d="M9.87,12.15L9,6.46C10.95,5.84 13.05,5.84 15,6.46L14.13,12.15C14.06,12.64 13.63,13 13.13,13H10.86C10.37,13 9.94,12.64 9.87,12.15M22,16V16C22,15.21 21.53,14.5 20.8,14.17C20.32,11.86 18.96,9.83 17,8.5L15.24,13.34C15.1,13.74 14.72,14 14.3,14H9.7C9.28,14 8.9,13.74 8.76,13.34L7,8.5C5.04,9.83 3.68,11.86 3.2,14.16C2.47,14.5 2,15.2 2,16L8.45,17.84C8.81,17.94 9.18,18 9.55,18H14.43C14.8,18 15.17,17.94 15.53,17.84L22,16Z"
     id="path1"
     style="fill:#ffff00" />
</svg>
