<?xml version="1.0" encoding="UTF-8" standalone="no"?>
<svg
   id="mdi-ladybug"
   viewBox="0 0 24 24"
   version="1.1"
   sodipodi:docname="ladybug-color.svg"
   inkscape:version="1.4 (e7c3feb1, 2024-10-09)"
   xmlns:inkscape="http://www.inkscape.org/namespaces/inkscape"
   xmlns:sodipodi="http://sodipodi.sourceforge.net/DTD/sodipodi-0.dtd"
   xmlns="http://www.w3.org/2000/svg"
   xmlns:svg="http://www.w3.org/2000/svg">
  <defs
     id="defs1" />
  <sodipodi:namedview
     id="namedview1"
     pagecolor="#ffffff"
     bordercolor="#000000"
     borderopacity="0.25"
     inkscape:showpageshadow="2"
     inkscape:pageopacity="0.0"
     inkscape:pagecheckerboard="0"
     inkscape:deskcolor="#d1d1d1"
     inkscape:zoom="5.32"
     inkscape:cx="12.030075"
     inkscape:cy="12.030075"
     inkscape:window-width="1416"
     inkscape:window-height="747"
     inkscape:window-x="0"
     inkscape:window-y="38"
     inkscape:window-maximized="0"
     inkscape:current-layer="mdi-ladybug" />
  <path
     id="path2"
     style="fill:#ff0000"
     d="m 20,13 c 0,4.17 -3.18,7.59 -7.25,7.97 V 10.5 H 19.6 C 19.86,11.29 20,12.13 20,13 M 4,13 c 0,-0.87 0.14,-1.71 0.4,-2.5 h 6.85 V 20.97 C 7.18,20.59 4,17.17 4,13 Z" />
  <path
     d="m 12,5 c 0.74,0 1.47,0.1 2.15,0.29 L 15.78,2.46 C 16.06,2 16.67,1.82 17.15,2.1 17.63,2.37 17.79,3 17.5,3.46 L 16,6.07 C 17.22,6.78 18.23,7.79 18.93,9 H 5.07 C 5.77,7.79 6.78,6.78 8,6.07 L 6.5,3.46 C 6.21,3 6.37,2.37 6.85,2.1 7.33,1.82 7.94,2 8.22,2.46 L 9.85,5.29 C 10.53,5.1 11.26,5 12,5"
     id="path1" />
</svg>
