<?xml version="1.0" encoding="UTF-8" standalone="no"?>
<svg
   id="mdi-lamp-outline"
   viewBox="0 0 24 24"
   version="1.1"
   sodipodi:docname="lamp-outline-yellow.svg"
   inkscape:version="1.4 (e7c3feb1, 2024-10-09)"
   xmlns:inkscape="http://www.inkscape.org/namespaces/inkscape"
   xmlns:sodipodi="http://sodipodi.sourceforge.net/DTD/sodipodi-0.dtd"
   xmlns="http://www.w3.org/2000/svg"
   xmlns:svg="http://www.w3.org/2000/svg">
  <defs
     id="defs1" />
  <sodipodi:namedview
     id="namedview1"
     pagecolor="#ffffff"
     bordercolor="#000000"
     borderopacity="0.25"
     inkscape:showpageshadow="2"
     inkscape:pageopacity="0.0"
     inkscape:pagecheckerboard="0"
     inkscape:deskcolor="#d1d1d1"
     inkscape:zoom="8.06"
     inkscape:cx="12.034739"
     inkscape:cy="11.848635"
     inkscape:window-width="1400"
     inkscape:window-height="728"
     inkscape:window-x="0"
     inkscape:window-y="38"
     inkscape:window-maximized="0"
     inkscape:current-layer="mdi-lamp-outline" />
  <path
     style="fill:#ffcc00;stroke-width:0.248139;stroke-linejoin:bevel;stroke-miterlimit:1"
     d="M 11.975855,3.5228947 C 11.009837,3.6125956 9.9838931,3.3852627 9.0604645,3.7002753 8.243582,5.5218635 7.7573476,7.5063086 7.0713716,9.3921939 6.8974271,10.25488 6.2789473,11.084121 6.3772197,11.97222 c 0.4908834,0.799655 1.6252683,0.407544 2.4019031,0.530285 2.8020352,-0.01443 5.6125802,0.07541 8.4093462,-0.09362 0.909124,-0.382889 0.156066,-1.435098 0.02923,-2.079998 C 16.479625,8.156647 15.821829,5.9372154 15.009952,3.8025451 14.483547,3.182011 13.493465,3.6343884 12.772765,3.5123769 c -0.265637,0.00351 -0.531273,0.00701 -0.79691,0.010518 z"
     id="path2" />
  <path
     d="M14.56 4L17.23 12H6.78L9.44 4H14.56M16 2H8L4 14H20L16 2M11 15H13V20H18V22H6V20H11V15Z"
     id="path1" />
</svg>
