<?xml version="1.0" encoding="UTF-8" standalone="no"?>
<svg
   id="mdi-leaf-circle"
   viewBox="0 0 24 24"
   version="1.1"
   sodipodi:docname="leaf-circle-green.svg"
   inkscape:version="1.4 (e7c3feb1, 2024-10-09)"
   xmlns:inkscape="http://www.inkscape.org/namespaces/inkscape"
   xmlns:sodipodi="http://sodipodi.sourceforge.net/DTD/sodipodi-0.dtd"
   xmlns="http://www.w3.org/2000/svg"
   xmlns:svg="http://www.w3.org/2000/svg">
  <defs
     id="defs1" />
  <sodipodi:namedview
     id="namedview1"
     pagecolor="#ffffff"
     bordercolor="#000000"
     borderopacity="0.25"
     inkscape:showpageshadow="2"
     inkscape:pageopacity="0.0"
     inkscape:pagecheckerboard="0"
     inkscape:deskcolor="#d1d1d1"
     inkscape:zoom="8.06"
     inkscape:cx="12.034739"
     inkscape:cy="12.034739"
     inkscape:window-width="1344"
     inkscape:window-height="593"
     inkscape:window-x="0"
     inkscape:window-y="38"
     inkscape:window-maximized="0"
     inkscape:current-layer="mdi-leaf-circle" />
  <ellipse
     style="fill:#008000;stroke:none;stroke-width:2.27094;stroke-linejoin:bevel;stroke-miterlimit:1"
     id="path2"
     cx="11.91067"
     cy="11.91067"
     rx="8.684864"
     ry="8.5607939" />
  <path
     d="M12 2C6.5 2 2 6.5 2 12S6.5 22 12 22 22 17.5 22 12 17.5 2 12 2M9.6 17.2C9.38 17.2 9.08 17.12 8.8 17L8.23 18.4L7.09 18L7.25 17.61C8.45 14.59 9.83 11.15 15 10C15 10 9 10 7.05 15.55C7.05 15.55 6 14.5 6 13.3S7.2 9.55 10.2 8.95C11.05 8.78 12 8.65 12.94 8.5C15.3 8.18 17.57 7.86 18 7C18 7 16.2 17.2 9.6 17.2Z"
     id="path1" />
</svg>
