<?xml version="1.0" encoding="UTF-8" standalone="no"?>
<svg
   id="mdi-leaf-off"
   viewBox="0 0 24 24"
   version="1.1"
   sodipodi:docname="leaf-off-green.svg"
   inkscape:version="1.4 (e7c3feb1, 2024-10-09)"
   xmlns:inkscape="http://www.inkscape.org/namespaces/inkscape"
   xmlns:sodipodi="http://sodipodi.sourceforge.net/DTD/sodipodi-0.dtd"
   xmlns="http://www.w3.org/2000/svg"
   xmlns:svg="http://www.w3.org/2000/svg">
  <defs
     id="defs1" />
  <sodipodi:namedview
     id="namedview1"
     pagecolor="#ffffff"
     bordercolor="#000000"
     borderopacity="0.25"
     inkscape:showpageshadow="2"
     inkscape:pageopacity="0.0"
     inkscape:pagecheckerboard="0"
     inkscape:deskcolor="#d1d1d1"
     inkscape:zoom="14.04"
     inkscape:cx="12.037037"
     inkscape:cy="12.037037"
     inkscape:window-width="1448"
     inkscape:window-height="851"
     inkscape:window-x="0"
     inkscape:window-y="38"
     inkscape:window-maximized="0"
     inkscape:current-layer="mdi-leaf-off" />
  <path
     d="M20.84 22.73L15.14 17.03C13.26 18.79 10.92 20 8 20C7.64 20 7.14 19.87 6.66 19.7L5.71 22L3.82 21.34C5.15 18.03 6.5 14.32 9.66 11.55L8.77 10.66C6.76 12.03 4.86 14.1 3.75 17.25C3.75 17.25 2 15.5 2 13.5C2 12 3.12 9.32 5.72 7.61L1.11 3L2.39 1.73C2.39 1.73 16.39 15.74 16.39 15.74L22.11 21.46L20.84 22.73M17 8C15.35 8.37 13.93 8.88 12.7 9.5L17.5 14.29C20.87 9.35 22 3 22 3C21.03 4.95 14.35 5.24 9.38 6.18L12.15 8.95C14.81 8 17 8 17 8Z"
     id="path1"
     style="fill:#008000" />
  <path
     d="M 20.84,22.73 1.11,3 2.39,1.73 l 14,14.01 5.72,5.72 -1.27,1.27"
     id="path2"
     sodipodi:nodetypes="cccccc" />
</svg>
