<?xml version="1.0" encoding="UTF-8" standalone="no"?>
<svg
   id="mdi-leaf-circle-outline"
   viewBox="0 0 24 24"
   version="1.1"
   sodipodi:docname="leaf-circle-outline-green.svg"
   inkscape:version="1.4 (e7c3feb1, 2024-10-09)"
   xmlns:inkscape="http://www.inkscape.org/namespaces/inkscape"
   xmlns:sodipodi="http://sodipodi.sourceforge.net/DTD/sodipodi-0.dtd"
   xmlns="http://www.w3.org/2000/svg"
   xmlns:svg="http://www.w3.org/2000/svg">
  <defs
     id="defs1" />
  <sodipodi:namedview
     id="namedview1"
     pagecolor="#ffffff"
     bordercolor="#000000"
     borderopacity="0.25"
     inkscape:showpageshadow="2"
     inkscape:pageopacity="0.0"
     inkscape:pagecheckerboard="0"
     inkscape:deskcolor="#d1d1d1"
     inkscape:zoom="9.26"
     inkscape:cx="11.987041"
     inkscape:cy="11.987041"
     inkscape:window-width="1432"
     inkscape:window-height="817"
     inkscape:window-x="0"
     inkscape:window-y="38"
     inkscape:window-maximized="0"
     inkscape:current-layer="mdi-leaf-circle-outline" />
  <path
     d="M 12,2 C 6.5,2 2,6.5 2,12 2,17.5 6.5,22 12,22 17.5,22 22,17.5 22,12 22,6.5 17.5,2 12,2 Z"
     id="path3" />
  <path
     d="m 12,4 c 4.41,0 8,3.59 8,8 0,4.41 -3.59,8 -8,8 C 7.59,20 4,16.41 4,12 4,7.59 7.59,4 12,4"
     id="path2"
     style="fill:#008000" />
  <path
     d="m 8.04,16.34 c 1.01,-2.51 2.15,-5.38 6.46,-6.34 0,0 -5,0 -6.62,4.63 0,0 -0.88,-0.88 -0.88,-1.88 0,-1 1,-3.12 3.5,-3.62 C 11.21,9 12,8.87 12.78,8.76 14.75,8.5 16.64,8.22 17,7.5 17,7.5 15.5,16 10,16 9.82,16 9.57,15.94 9.33,15.85 L 8.86,17 7.91,16.67 8.04,16.34"
     id="path1" />
</svg>
