<?xml version="1.0" encoding="UTF-8" standalone="no"?>
<svg
   id="mdi-palm-tree"
   viewBox="0 0 24 24"
   version="1.1"
   sodipodi:docname="palm-tree-color.svg"
   inkscape:version="1.4 (e7c3feb1, 2024-10-09)"
   xmlns:inkscape="http://www.inkscape.org/namespaces/inkscape"
   xmlns:sodipodi="http://sodipodi.sourceforge.net/DTD/sodipodi-0.dtd"
   xmlns="http://www.w3.org/2000/svg"
   xmlns:svg="http://www.w3.org/2000/svg">
  <defs
     id="defs1" />
  <sodipodi:namedview
     id="namedview1"
     pagecolor="#ffffff"
     bordercolor="#000000"
     borderopacity="0.25"
     inkscape:showpageshadow="2"
     inkscape:pageopacity="0.0"
     inkscape:pagecheckerboard="0"
     inkscape:deskcolor="#d1d1d1"
     inkscape:zoom="12.22"
     inkscape:cx="11.824877"
     inkscape:cy="11.824877"
     inkscape:window-width="1440"
     inkscape:window-height="804"
     inkscape:window-x="0"
     inkscape:window-y="38"
     inkscape:window-maximized="0"
     inkscape:current-layer="mdi-palm-tree" />
  <path
     d="m 15.66,7.16 c 0.17,0.21 0.34,0.43 0.47,0.66 1.71,2.71 1.37,6.13 -0.63,8.44 0.84,-2.05 0.72,-4.47 -0.55,-6.49 C 14.87,9.64 14.78,9.53 14.7,9.41 14.11,8.58 13.36,7.92 12.54,7.43 9.66,8.35 7.58,11.04 7.58,14.22 c 0,0.74 0.11,1.45 0.31,2.11 C 7.05,15.16 6.56,13.73 6.56,12.19 6.56,9.84 7.7,7.76 9.45,6.46 8,6.35 6.46,6.67 5.12,7.5 4.5,7.91 3.96,8.38 3.5,8.91 4.05,7.58 5,6.39 6.3,5.57 7.8,4.63 9.5,4.32 11.14,4.56 10.73,4 10.23,3.47 9.63,3 9.05,2.58 8.42,2.24 7.76,2 9.2,2.04 10.64,2.5 11.87,3.43 12.5,3.9 13,4.47 13.4,5.07 c 0.1,0 0.19,-0.01 0.29,-0.01 3.2,0 5.91,2.11 6.81,5.02 C 19.38,8.5 17.65,7.43 15.66,7.16 Z"
     id="path2"
     style="fill:#008000" />
  <path
     d="m 12,9 c 1.59,7.61 -2,13 -2,13 h 3 c 1.88,-5.8 1,-9.91 0.5,-12"
     id="path1"
     style="fill:#784421" />
</svg>
