<?xml version="1.0" encoding="UTF-8" standalone="no"?>
<svg
   id="mdi-pig-variant-outline"
   viewBox="0 0 24 24"
   version="1.1"
   sodipodi:docname="pig-variant-outline-color.svg"
   inkscape:version="1.4 (e7c3feb1, 2024-10-09)"
   xmlns:inkscape="http://www.inkscape.org/namespaces/inkscape"
   xmlns:sodipodi="http://sodipodi.sourceforge.net/DTD/sodipodi-0.dtd"
   xmlns="http://www.w3.org/2000/svg"
   xmlns:svg="http://www.w3.org/2000/svg">
  <defs
     id="defs1" />
  <sodipodi:namedview
     id="namedview1"
     pagecolor="#ffffff"
     bordercolor="#000000"
     borderopacity="0.25"
     inkscape:showpageshadow="2"
     inkscape:pageopacity="0.0"
     inkscape:pagecheckerboard="0"
     inkscape:deskcolor="#d1d1d1"
     inkscape:zoom="10.64"
     inkscape:cx="12.030075"
     inkscape:cy="12.030075"
     inkscape:window-width="1416"
     inkscape:window-height="819"
     inkscape:window-x="0"
     inkscape:window-y="38"
     inkscape:window-maximized="0"
     inkscape:current-layer="mdi-pig-variant-outline" />
  <path
     style="fill:#ffaaaa;stroke-width:0.18797;stroke-linejoin:bevel;stroke-miterlimit:1"
     d="M 15.578008,3.629802 C 14.616835,3.8293958 13.789175,4.5313978 13.357796,5.407623 11.099545,5.475422 8.8278539,5.344608 6.577846,5.5590637 4.5290936,6.0416247 3.1031493,8.2677966 3.5194798,10.335592 c 0.3985644,3.009512 1.1831001,5.965419 1.992003,8.879077 0.4065988,0.655866 1.3273269,0.26563 1.9735383,0.370366 0.5699836,0.127926 1.2578878,-0.213138 1.1037727,-0.882027 0.066521,-0.516664 -0.2852409,-1.45161 0.5639098,-1.185642 1.4169944,0 2.8339894,0 4.2509834,0 0.10278,0.672809 -0.294115,1.631782 0.417058,2.039032 0.819216,0.0021 1.688446,0.143784 2.481791,-0.08683 0.526564,-0.810218 0.609212,-1.840143 0.955536,-2.739569 0.245341,-0.810663 0.490673,-1.621327 0.73601,-2.43199 0.780953,-0.339193 1.686276,-0.447461 2.377526,-0.95325 0.243108,-1.118598 0.07498,-2.304504 0.152847,-3.4501186 C 20.669908,9.2615829 20.062757,8.8369914 19.479668,8.9863942 18.943701,8.909553 18.657726,8.2320576 18.219871,7.9194815 17.500608,7.1953275 16.781336,6.4711826 16.062067,5.7470336 16.058895,5.186574 16.274251,4.625467 16.235104,4.0827513 16.171302,3.7964041 15.862824,3.6056902 15.578008,3.629802 Z m 0.460195,5.9258253 c 0.577046,0.071906 0.456143,1.0177837 -0.139141,0.8616517 -0.513041,-0.118038 -0.393631,-0.8911791 0.139141,-0.8616517 z"
     id="path2" />
  <path
     d="M15 10C15 9.45 15.45 9 16 9C16.55 9 17 9.45 17 10S16.55 11 16 11 15 10.55 15 10M22 7.5V14.47L19.18 15.41L17.5 21H12V19H10V21H4.5C4.5 21 2 12.54 2 9.5S4.46 4 7.5 4H12.5C13.41 2.79 14.86 2 16.5 2C17.33 2 18 2.67 18 3.5C18 3.71 17.96 3.9 17.88 4.08C17.74 4.42 17.62 4.81 17.56 5.23L19.83 7.5H22M20 9.5H19L15.5 6C15.5 5.35 15.59 4.71 15.76 4.09C14.79 4.34 14 5.06 13.67 6H7.5C5.57 6 4 7.57 4 9.5C4 11.38 5.22 16.15 6 19H8V17H14V19H16L17.56 13.85L20 13.03V9.5Z"
     id="path1" />
</svg>
