<?xml version="1.0" encoding="UTF-8" standalone="no"?>
<svg
   id="mdi-piggy-bank-outline"
   viewBox="0 0 24 24"
   version="1.1"
   sodipodi:docname="piggy-bank-outline-color.svg"
   inkscape:version="1.4 (e7c3feb1, 2024-10-09)"
   xmlns:inkscape="http://www.inkscape.org/namespaces/inkscape"
   xmlns:sodipodi="http://sodipodi.sourceforge.net/DTD/sodipodi-0.dtd"
   xmlns="http://www.w3.org/2000/svg"
   xmlns:svg="http://www.w3.org/2000/svg">
  <defs
     id="defs1" />
  <sodipodi:namedview
     id="namedview1"
     pagecolor="#ffffff"
     bordercolor="#000000"
     borderopacity="0.25"
     inkscape:showpageshadow="2"
     inkscape:pageopacity="0.0"
     inkscape:pagecheckerboard="0"
     inkscape:deskcolor="#d1d1d1"
     inkscape:zoom="12.22"
     inkscape:cx="12.02946"
     inkscape:cy="12.02946"
     inkscape:window-width="1456"
     inkscape:window-height="837"
     inkscape:window-x="0"
     inkscape:window-y="38"
     inkscape:window-maximized="0"
     inkscape:current-layer="mdi-piggy-bank-outline" />
  <path
     style="fill:#ffaaaa;stroke-width:0.163666;stroke-linejoin:bevel;stroke-miterlimit:1"
     d="M 15.617808,3.5608569 C 14.648535,3.8185475 13.802431,4.5313197 13.335752,5.4147274 11.141924,5.4508412 8.9361427,5.3313691 6.7496292,5.5259692 4.7539737,5.901251 3.2253753,7.9087183 3.47327,9.9388809 c 0.3093208,3.0413421 1.1629807,5.9955441 1.926753,8.9461751 0.1069443,0.72566 0.9438106,0.655411 1.4905745,0.658576 0.5587492,-0.04193 1.4897011,0.218903 1.6357951,-0.539329 0.082715,-0.443638 -0.1075274,-1.115627 0.09325,-1.42394 1.6185474,0 3.2370944,0 4.8556414,0 0.08571,0.588851 -0.209777,1.34328 0.231466,1.80867 0.523439,0.336807 1.228658,0.05972 1.826204,0.125397 0.522126,0.08885 1.073044,-0.177817 1.11581,-0.750184 0.455389,-1.496665 0.902586,-2.991477 1.367296,-4.48214 0.784944,-0.333969 1.681044,-0.448713 2.389461,-0.928293 0.263885,-0.764346 0.07363,-1.611266 0.147062,-2.410213 C 20.489998,10.355685 20.732611,9.6673212 20.407702,9.1507059 20.014943,8.6563037 19.218512,9.2456047 18.902405,8.644108 17.955857,7.6967954 17.009315,6.7494764 16.062775,5.8021558 16.050019,5.2075741 16.272133,4.6365362 16.275669,4.0510562 16.2092,3.7687601 15.916106,3.5249842 15.617808,3.5608569 Z m -5.143176,4.0358723 c 0.645607,0 1.291215,0 1.936822,0 0.02113,0.4940184 0.124343,1.0701118 -0.572831,0.8458215 -1.100271,0 -2.2005425,0 -3.3008136,0 -0.021134,-0.4940185 -0.1243431,-1.0701118 0.5728314,-0.8458215 0.4546637,0 0.9093272,0 1.3639912,0 z m 5.655271,2.0063485 c 0.464342,0.074702 0.345881,0.8988403 -0.141289,0.8001103 -0.516546,0.08143 -0.569292,-0.8441471 -0.03996,-0.8010052 0.06042,-0.00152 0.120835,5.966e-4 0.181252,8.949e-4 z"
     id="path2" />
  <path
     d="M15 10C15 9.45 15.45 9 16 9C16.55 9 17 9.45 17 10S16.55 11 16 11 15 10.55 15 10M8 9H13V7H8V9M22 7.5V14.47L19.18 15.41L17.5 21H12V19H10V21H4.5C4.5 21 2 12.54 2 9.5S4.46 4 7.5 4H12.5C13.41 2.79 14.86 2 16.5 2C17.33 2 18 2.67 18 3.5C18 3.71 17.96 3.9 17.88 4.08C17.74 4.42 17.62 4.81 17.56 5.23L19.83 7.5H22M20 9.5H19L15.5 6C15.5 5.35 15.59 4.71 15.76 4.09C14.79 4.34 14 5.06 13.67 6H7.5C5.57 6 4 7.57 4 9.5C4 11.38 5.22 16.15 6 19H8V17H14V19H16L17.56 13.85L20 13.03V9.5Z"
     id="path1" />
</svg>
