<?xml version="1.0" encoding="UTF-8" standalone="no"?>
<svg
   id="mdi-post-lamp"
   viewBox="0 0 24 24"
   version="1.1"
   sodipodi:docname="post-lamp-grey.svg"
   inkscape:version="1.4 (e7c3feb1, 2024-10-09)"
   xmlns:inkscape="http://www.inkscape.org/namespaces/inkscape"
   xmlns:sodipodi="http://sodipodi.sourceforge.net/DTD/sodipodi-0.dtd"
   xmlns="http://www.w3.org/2000/svg"
   xmlns:svg="http://www.w3.org/2000/svg">
  <defs
     id="defs1" />
  <sodipodi:namedview
     id="namedview1"
     pagecolor="#ffffff"
     bordercolor="#000000"
     borderopacity="0.25"
     inkscape:showpageshadow="2"
     inkscape:pageopacity="0.0"
     inkscape:pagecheckerboard="0"
     inkscape:deskcolor="#d1d1d1"
     inkscape:zoom="11.4"
     inkscape:cx="12.017544"
     inkscape:cy="12.017544"
     inkscape:window-width="1448"
     inkscape:window-height="817"
     inkscape:window-x="0"
     inkscape:window-y="38"
     inkscape:window-maximized="0"
     inkscape:current-layer="mdi-post-lamp" />
  <path
     style="fill:#4d4d4d;stroke-width:0.175439;stroke-linejoin:bevel;stroke-miterlimit:1"
     d="m 8.6756442,5.5182634 c -0.5025561,0.4978734 -0.032445,1.2385143 -0.068315,1.8459974 0.2484462,1.8849052 0.401411,3.7878022 0.704808,5.6623922 0.3178572,0.700532 1.2512718,0.427141 1.8597308,0.508201 1.060872,-0.03678 2.150611,0.09944 3.191015,-0.07575 0.557523,-0.335492 0.353846,-1.136298 0.506653,-1.69097 0.207642,-1.9058103 0.504922,-3.809706 0.631937,-5.7199589 -0.177504,-0.7785946 -1.141695,-0.5987998 -1.734502,-0.6351905 -1.608521,0.00879 -3.22773,-0.037463 -4.8293843,0.022291 -0.087314,0.027662 -0.1746286,0.055324 -0.2619429,0.082985 z"
     id="path2" />
  <path
     d="M14 3L13 1H11L10 3L5 6H7L8 14L10 16L10.5 17H9V23H15V17H13.5L14 16L16 14L17 6H19L14 3M14.16 13H9.84L9 6H15L14.16 13Z"
     id="path1" />
</svg>
