<?xml version="1.0" encoding="UTF-8" standalone="no"?>
<svg
   id="mdi-propane-tank"
   viewBox="0 0 24 24"
   version="1.1"
   sodipodi:docname="propane-tank-color.svg"
   inkscape:version="1.4 (e7c3feb1, 2024-10-09)"
   xmlns:inkscape="http://www.inkscape.org/namespaces/inkscape"
   xmlns:sodipodi="http://sodipodi.sourceforge.net/DTD/sodipodi-0.dtd"
   xmlns="http://www.w3.org/2000/svg"
   xmlns:svg="http://www.w3.org/2000/svg">
  <defs
     id="defs1" />
  <sodipodi:namedview
     id="namedview1"
     pagecolor="#ffffff"
     bordercolor="#000000"
     borderopacity="0.25"
     inkscape:showpageshadow="2"
     inkscape:pageopacity="0.0"
     inkscape:pagecheckerboard="0"
     inkscape:deskcolor="#d1d1d1"
     inkscape:zoom="16.12"
     inkscape:cx="12.034739"
     inkscape:cy="11.879653"
     inkscape:window-width="1392"
     inkscape:window-height="828"
     inkscape:window-x="0"
     inkscape:window-y="38"
     inkscape:window-maximized="0"
     inkscape:current-layer="mdi-propane-tank" />
  <path
     d="M4 15V18C4 20.21 5.79 22 8 22H16C18.21 22 20 20.21 20 18V15H4M20 13V10C20 8.14 18.72 6.59 17 6.14V4C17 2.9 16.1 2 15 2H9C7.9 2 7 2.9 7 4V6.14C5.28 6.59 4 8.14 4 10V13H20M9 4H15V6H13C13 5.45 12.55 5 12 5S11 5.45 11 6H9V4Z"
     id="path1" />
  <path
     d="M 20,13 V 10 C 20,8.14 18.591406,6.0254962 16.961832,6.0254962 H 6.9618321 C 5.3322582,6.0254962 4,8.14 4,10 v 3 h 16"
     id="path3"
     style="fill:#999999"
     sodipodi:nodetypes="csssscc" />
  <path
     d="m 4,15 v 3 c 0,2.21 1.79,4 4,4 h 8 c 2.21,0 4,-1.79 4,-4 V 15 H 4"
     id="path2"
     style="fill:#999999" />
  <path
     d="m 9,4 h 6 V 6 H 13 C 13,5.45 12.55,5 12,5 11.45,5 11,5.45 11,6 H 9 Z"
     id="path4"
     style="fill:#f9f9f9" />
</svg>
