<?xml version="1.0" encoding="UTF-8" standalone="no"?>
<svg
   id="mdi-redhat"
   viewBox="0 0 24 24"
   version="1.1"
   sodipodi:docname="redhat-color.svg"
   xml:space="preserve"
   inkscape:version="1.4 (e7c3feb1, 2024-10-09)"
   xmlns:inkscape="http://www.inkscape.org/namespaces/inkscape"
   xmlns:sodipodi="http://sodipodi.sourceforge.net/DTD/sodipodi-0.dtd"
   xmlns="http://www.w3.org/2000/svg"
   xmlns:svg="http://www.w3.org/2000/svg"><defs
     id="defs1" /><sodipodi:namedview
     id="namedview1"
     pagecolor="#ffffff"
     bordercolor="#000000"
     borderopacity="0.25"
     inkscape:showpageshadow="2"
     inkscape:pageopacity="0.0"
     inkscape:pagecheckerboard="0"
     inkscape:deskcolor="#d1d1d1"
     inkscape:zoom="1.0833333"
     inkscape:cx="11.538462"
     inkscape:cy="12"
     inkscape:window-width="1440"
     inkscape:window-height="779"
     inkscape:window-x="0"
     inkscape:window-y="38"
     inkscape:window-maximized="0"
     inkscape:current-layer="mdi-redhat" /><path
     d="M15.34 13.16C16.66 13.16 18.56 12.89 18.56 11.32C18.57 11.2 18.56 11.08 18.53 10.96L17.75 7.56C17.57 6.81 17.41 6.47 16.09 5.81C15.07 5.29 12.85 4.43 12.19 4.43C11.58 4.43 11.4 5.22 10.67 5.22C9.97 5.22 9.45 4.63 8.79 4.63C8.16 4.63 7.75 5.06 7.43 5.94C7.43 5.94 6.55 8.44 6.43 8.8C6.42 8.87 6.41 8.93 6.41 9C6.41 9.97 10.23 13.15 15.34 13.15M18.77 11.96C18.95 12.82 18.95 12.91 18.95 13C18.95 14.5 17.29 15.31 15.12 15.31C10.2 15.31 5.89 12.43 5.89 10.53C5.89 10.26 5.95 10 6.05 9.76C4.28 9.84 2 10.16 2 12.18C2 15.5 9.84 19.57 16.05 19.57C20.81 19.57 22 17.42 22 15.72C22 14.38 20.85 12.86 18.77 11.96"
     id="path1"
     style="fill:#ee2434;fill-opacity:1" /></svg>
