<?xml version="1.0" encoding="UTF-8" standalone="no"?>
<svg
   id="mdi-sprout-outline"
   viewBox="0 0 24 24"
   version="1.1"
   sodipodi:docname="sprout-outline-color.svg"
   inkscape:version="1.4 (e7c3feb1, 2024-10-09)"
   xmlns:inkscape="http://www.inkscape.org/namespaces/inkscape"
   xmlns:sodipodi="http://sodipodi.sourceforge.net/DTD/sodipodi-0.dtd"
   xmlns="http://www.w3.org/2000/svg"
   xmlns:svg="http://www.w3.org/2000/svg">
  <defs
     id="defs1" />
  <sodipodi:namedview
     id="namedview1"
     pagecolor="#ffffff"
     bordercolor="#000000"
     borderopacity="0.25"
     inkscape:showpageshadow="2"
     inkscape:pageopacity="0.0"
     inkscape:pagecheckerboard="0"
     inkscape:deskcolor="#d1d1d1"
     inkscape:zoom="10.64"
     inkscape:cx="11.889098"
     inkscape:cy="11.889098"
     inkscape:window-width="1384"
     inkscape:window-height="740"
     inkscape:window-x="0"
     inkscape:window-y="38"
     inkscape:window-maximized="0"
     inkscape:current-layer="mdi-sprout-outline" />
  <path
     style="fill:#008000;stroke-width:0.18797;stroke-linejoin:bevel;stroke-miterlimit:1"
     d="M 19.001851,3.5060797 C 16.407159,3.5359267 13.503477,4.204036 11.872944,6.3977694 11.592928,6.7749059 11.367804,7.1922596 11.204036,7.6324233 9.8964997,5.9928485 7.6892481,5.4181729 5.6701201,5.5133561 5.0317335,5.5812325 4.2836686,5.3739958 3.7193708,5.7206019 3.2185346,6.2320446 3.6016579,7.0309588 3.6406323,7.6516976 4.0305426,9.7504999 4.963842,12.063913 7.0442831,12.985528 c 0.9008371,0.358008 1.937291,0.44938 2.8837964,0.250382 0.7478045,-0.3475 0.3692005,-1.309199 0.2160555,-1.904114 -0.1659546,-0.465967 -0.1850701,-0.582096 0.01487,-0.106467 0.486822,1.430187 0.264988,2.970809 0.330519,4.447765 0.06178,0.889242 -0.132067,1.819203 0.116094,2.678755 0.602244,0.482211 1.459561,0.14666 2.176339,0.246344 0.734892,0.09933 0.883021,-0.698149 0.788042,-1.257967 0.005,-1.350111 -0.01383,-2.701328 0.02056,-4.038967 0.433371,0.550797 1.271426,0.259435 1.897322,0.28067 C 17.816356,13.393856 19.6206,11.518021 20.446872,9.4397982 21.159191,7.7232021 21.589408,5.8303742 21.459429,3.976162 21.166281,3.2365776 20.1779,3.6269463 19.556034,3.5082824 c -0.184726,-0.00317 -0.369435,-0.00424 -0.55418,-0.0022 z"
     id="path2" />
  <path
     d="M23,4.1V2.3L21.2,2.1C21.1,2.1 20.5,2 19.5,2C15.4,2 12.4,3.2 10.7,5.3C9.4,4.5 7.6,4 5.5,4C4.5,4 3.8,4.1 3.8,4.1L1.9,4.4L2,6.1C2.1,9.1 3.6,14.8 8.8,14.8C8.9,14.8 8.9,14.8 9,14.8V18.2C5.2,18.7 2,20 2,20V22H22V20C22,20 18.8,18.7 15,18.2V15C21.3,14.9 23,7.8 23,4.1M12,18C11.7,18 11.3,18 11,18V12.4C11,12.4 10.8,9 8,9C8,9 9.5,9.8 9.9,12.7C9.5,12.8 9.1,12.8 8.8,12.8C4.2,12.8 4,6.1 4,6.1C4,6.1 4.6,6 5.5,6C7.4,6 10.5,6.4 11.4,9.1C11.9,4.6 17,4 19.5,4C20.4,4 21,4.1 21,4.1C21,4.1 21,13.1 14.7,13.1C14.5,13.1 14.2,13.1 14,13.1C14,11.1 16,8.1 16,8.1C13,9.1 13,13 13,13V18C12.7,18 12.3,18 12,18Z"
     id="path1" />
</svg>
