<?xml version="1.0" encoding="UTF-8" standalone="no"?>
<svg
   id="mdi-sprout"
   viewBox="0 0 24 24"
   version="1.1"
   sodipodi:docname="sprout-color.svg"
   inkscape:version="1.4 (e7c3feb1, 2024-10-09)"
   xmlns:inkscape="http://www.inkscape.org/namespaces/inkscape"
   xmlns:sodipodi="http://sodipodi.sourceforge.net/DTD/sodipodi-0.dtd"
   xmlns="http://www.w3.org/2000/svg"
   xmlns:svg="http://www.w3.org/2000/svg">
  <defs
     id="defs1" />
  <sodipodi:namedview
     id="namedview1"
     pagecolor="#ffffff"
     bordercolor="#000000"
     borderopacity="0.25"
     inkscape:showpageshadow="2"
     inkscape:pageopacity="0.0"
     inkscape:pagecheckerboard="0"
     inkscape:deskcolor="#d1d1d1"
     inkscape:zoom="9.92"
     inkscape:cx="11.844758"
     inkscape:cy="11.995968"
     inkscape:window-width="1392"
     inkscape:window-height="709"
     inkscape:window-x="0"
     inkscape:window-y="38"
     inkscape:window-maximized="0"
     inkscape:current-layer="mdi-sprout" />
  <path
     d="M 11.3,9.1 C 10.1,5.2 4,6.1 4,6.1 4,6.1 4.2,13.9 9.9,12.7 9.5,9.8 8,9 8,9 c 2.8,0 3,3.4 3,3.4 V 17 c 0.3,0 0.7,0 1,0 0.3,0 0.7,0 1,0 v -4.2 c 0,0 0,-3.9 3,-4.9 0,0 -2,3 -2,5 7,0.7 7,-8.9 7,-8.9 0,0 -8.9,-1 -9.7,5.1 z"
     id="path2"
     style="fill:#008000" />
  <path
     d="m 2,22 v -2 c 0,0 5,-2 10,-2 5,0 10,2 10,2 v 2 H 2"
     id="path1"
     style="fill:#784421" />
</svg>
