<?xml version="1.0" encoding="UTF-8" standalone="no"?>
<svg
   id="mdi-wall-sconce-outline"
   viewBox="0 0 24 24"
   version="1.1"
   sodipodi:docname="wall-sconce-outline-yellow.svg"
   inkscape:version="1.4 (e7c3feb1, 2024-10-09)"
   xmlns:inkscape="http://www.inkscape.org/namespaces/inkscape"
   xmlns:sodipodi="http://sodipodi.sourceforge.net/DTD/sodipodi-0.dtd"
   xmlns="http://www.w3.org/2000/svg"
   xmlns:svg="http://www.w3.org/2000/svg">
  <defs
     id="defs1" />
  <sodipodi:namedview
     id="namedview1"
     pagecolor="#ffffff"
     bordercolor="#000000"
     borderopacity="0.25"
     inkscape:showpageshadow="2"
     inkscape:pageopacity="0.0"
     inkscape:pagecheckerboard="0"
     inkscape:deskcolor="#d1d1d1"
     inkscape:zoom="14.04"
     inkscape:cx="11.858974"
     inkscape:cy="11.858974"
     inkscape:window-width="1392"
     inkscape:window-height="716"
     inkscape:window-x="0"
     inkscape:window-y="38"
     inkscape:window-maximized="0"
     inkscape:current-layer="mdi-wall-sconce-outline" />
  <path
     style="fill:#ffcc00;stroke-width:0.14245;stroke-linejoin:bevel;stroke-miterlimit:1"
     d="m 12.985499,5.4360588 c -0.492042,-0.016579 -1.143996,-0.021764 -1.292529,0.5694385 -0.69105,1.5865936 -1.434226,3.1583734 -2.0955559,4.7531097 -0.17729,0.542638 0.4394519,0.889937 0.9137089,0.774429 1.79842,-0.01319 3.60431,0.02637 5.398064,-0.01977 0.574334,-0.06301 0.622745,-0.760125 0.337974,-1.152883 C 15.555098,8.815895 14.901839,7.2462343 14.178271,5.7207522 13.930241,5.2927939 13.390301,5.4490301 12.985499,5.4360588 Z"
     id="path2" />
  <path
     d="M13.7 6L15.92 11H10.08L12.3 6H13.7M15 4H11L7 13H19L15 4M4 14V22H6V19H14V14H12V17H6V14H4Z"
     id="path1" />
</svg>
