<?xml version="1.0" encoding="UTF-8" standalone="no"?>
<svg
   id="mdi-waze"
   viewBox="0 0 24 24"
   version="1.1"
   sodipodi:docname="waze-color.svg"
   xml:space="preserve"
   inkscape:version="1.4 (e7c3feb1, 2024-10-09)"
   xmlns:inkscape="http://www.inkscape.org/namespaces/inkscape"
   xmlns:sodipodi="http://sodipodi.sourceforge.net/DTD/sodipodi-0.dtd"
   xmlns="http://www.w3.org/2000/svg"
   xmlns:svg="http://www.w3.org/2000/svg"><defs
     id="defs1" /><sodipodi:namedview
     id="namedview1"
     pagecolor="#ffffff"
     bordercolor="#000000"
     borderopacity="0.25"
     inkscape:showpageshadow="2"
     inkscape:pageopacity="0.0"
     inkscape:pagecheckerboard="0"
     inkscape:deskcolor="#d1d1d1"
     inkscape:zoom="4.63"
     inkscape:cx="11.771058"
     inkscape:cy="11.771058"
     inkscape:window-width="1352"
     inkscape:window-height="670"
     inkscape:window-x="0"
     inkscape:window-y="38"
     inkscape:window-maximized="0"
     inkscape:current-layer="mdi-waze" /><path
     style="fill:#40c3ff;stroke-width:0.431965;stroke-linejoin:bevel;stroke-miterlimit:1;fill-opacity:1"
     d="M 12.674221,3.7240146 C 9.0945067,3.6786976 5.677594,6.5384508 5.280187,10.142751 c -0.3320337,1.31351 -0.012933,3.285533 -1.4410098,3.988931 -1.5335388,0.09582 -1.0588439,1.564413 -0.032482,2.05521 1.115629,0.910549 2.627214,2.040176 4.0901728,1.186218 1.1951064,-0.17111 1.8934557,1.274307 3.154107,1.025918 1.268262,0.09249 2.638776,0.06205 3.616867,-0.855916 0.713085,-0.491248 1.382589,-0.07695 2.040025,0.125709 1.954372,-0.461901 3.278639,-2.344487 4.199007,-4.017616 C 22.147442,10.582792 20.860445,6.876092 18.076741,5.1194654 16.516444,3.9171048 14.605379,3.5637747 12.674221,3.7240146 Z M 10.983481,8.7106 C 11.916125,8.691619 11.180956,10.48591 10.505535,9.6795693 10.378542,9.2689203 10.299995,8.5261287 10.983481,8.7106 Z m 4.616208,0.00211 c 0.852665,-0.00156 0.526505,1.320434 -0.179282,1.084132 -0.67885,-0.3052121 -0.453708,-0.9832616 0.179282,-1.084132 z m -5.31984,3.372621 c 0.909651,2.14966 4.192645,2.771563 5.578429,0.758471 0.08952,-0.243868 0.70813,-1.017931 0.315538,-0.307101 -1.186598,1.920564 -4.335209,2.27146 -5.605427,0.244246 -0.1314,-0.163132 -0.421227,-0.573461 -0.28854,-0.695616 z"
     id="path2" /><path
     d="M20.54,6.63C21.23,7.57 21.69,8.67 21.89,9.82C22.1,11.07 22,12.34 21.58,13.54C21.18,14.71 20.5,15.76 19.58,16.6C18.91,17.24 18.15,17.77 17.32,18.18C17.73,19.25 17.19,20.45 16.12,20.86C15.88,20.95 15.63,21 15.38,21C14.27,21 13.35,20.11 13.31,19C13.05,19 10.73,19 10.24,19C10.13,20.14 9.11,21 7.97,20.87C6.91,20.77 6.11,19.89 6.09,18.83C6.1,18.64 6.13,18.44 6.19,18.26C4.6,17.73 3.21,16.74 2.19,15.41C1.86,14.97 1.96,14.34 2.42,14C2.6,13.86 2.82,13.78 3.05,13.78C3.77,13.78 4.05,13.53 4.22,13.15C4.46,12.43 4.6,11.68 4.61,10.92C4.64,10.39 4.7,9.87 4.78,9.35C5.13,7.62 6.1,6.07 7.5,5C9.16,3.7 11.19,3 13.29,3C14.72,3 16.13,3.35 17.4,4C18.64,4.62 19.71,5.5 20.54,6.63M16.72,17.31C18.5,16.5 19.9,15.04 20.59,13.21C22.21,8.27 18,4.05 13.29,4.05C12.94,4.05 12.58,4.07 12.23,4.12C9.36,4.5 6.4,6.5 5.81,9.5C5.43,11.5 6,14.79 3.05,14.79C4,16 5.32,16.93 6.81,17.37C7.66,16.61 8.97,16.69 9.74,17.55C9.85,17.67 9.94,17.8 10,17.94C10.59,17.94 13.2,17.94 13.55,17.94C14.07,16.92 15.33,16.5 16.35,17.04C16.5,17.12 16.6,17.21 16.72,17.31M10.97,10.31C10.39,10.34 9.88,9.9 9.85,9.31C9.82,8.73 10.27,8.23 10.85,8.19C11.43,8.16 11.94,8.61 11.97,9.25C12,9.8 11.56,10.27 11,10.29L10.97,10.31M15.66,10.31C15.08,10.34 14.57,9.9 14.54,9.31C14.5,8.73 14.96,8.23 15.54,8.19C16.12,8.16 16.63,8.61 16.66,9.25C16.68,9.8 16.25,10.27 15.66,10.29V10.31M9.71,12.07C9.65,11.79 9.84,11.5 10.12,11.45C10.4,11.4 10.68,11.58 10.74,11.86V11.86C11.09,12.97 12.16,13.69 13.32,13.6C14.46,13.66 15.5,12.96 15.89,11.88C16.03,11.62 16.35,11.5 16.6,11.65C16.78,11.75 16.89,11.92 16.89,12.12C16.7,12.83 16.26,13.45 15.66,13.88C14.97,14.36 14.16,14.63 13.32,14.64H13.21C11.58,14.71 10.11,13.64 9.68,12.06L9.71,12.07Z"
     id="path1" /></svg>
