<?xml version="1.0" encoding="UTF-8" standalone="no"?>
<svg
   id="mdi-webhook"
   viewBox="0 0 24 24"
   version="1.1"
   sodipodi:docname="webhook-color.svg"
   xml:space="preserve"
   inkscape:version="1.4 (e7c3feb1, 2024-10-09)"
   xmlns:inkscape="http://www.inkscape.org/namespaces/inkscape"
   xmlns:sodipodi="http://sodipodi.sourceforge.net/DTD/sodipodi-0.dtd"
   xmlns="http://www.w3.org/2000/svg"
   xmlns:svg="http://www.w3.org/2000/svg"><defs
     id="defs1" /><sodipodi:namedview
     id="namedview1"
     pagecolor="#ffffff"
     bordercolor="#000000"
     borderopacity="0.25"
     inkscape:showpageshadow="2"
     inkscape:pageopacity="0.0"
     inkscape:pagecheckerboard="0"
     inkscape:deskcolor="#d1d1d1"
     inkscape:zoom="2.32"
     inkscape:cx="11.853448"
     inkscape:cy="12.068966"
     inkscape:window-width="1360"
     inkscape:window-height="645"
     inkscape:window-x="0"
     inkscape:window-y="38"
     inkscape:window-maximized="0"
     inkscape:current-layer="mdi-webhook" /><path
     d="m 8.25,9.14 c -1,-2.35 0.06,-5.04 2.37,-6.02 2.32,-0.98 5,0.13 6,2.48 0.59,1.37 0.47,2.87 -0.2,4.07 L 15.18,8.95 C 15.6,8.14 15.67,7.15 15.27,6.22 14.59,4.62 12.78,3.85 11.23,4.5 9.67,5.16 8.97,7 9.65,8.6 c 0.28,0.66 0.75,1.17 1.32,1.51 l 0.39,0.21 -3.07,4.99 c 0.03,0.05 0.07,0.11 0.1,0.19 0.49,0.91 0.15,2.06 -0.77,2.55 C 6.71,18.54 5.56,18.18 5.06,17.24 4.57,16.31 4.91,15.16 5.83,14.67 6.22,14.46 6.65,14.41 7.06,14.5 L 9.37,10.73 C 8.9,10.3 8.5,9.76 8.25,9.14 Z"
     id="path3"
     style="fill:#c73a63;fill-opacity:1" /><path
     d="m 17.74,11.86 c 2.53,0.31 4.33,2.58 4.02,5.07 -0.31,2.5 -2.61,4.27 -5.14,3.96 -1.49,-0.18 -2.72,-1.03 -3.43,-2.21 l 1.24,-0.72 c 0.49,0.77 1.32,1.32 2.32,1.45 1.75,0.21 3.3,-0.98 3.51,-2.65 0.21,-1.67 -1.03,-3.2 -2.76,-3.41 -0.54,-0.06 -1.06,0.01 -1.53,0.18 L 15.12,13.97 12.54,9.2 H 12.32 C 11.26,9.16 10.44,8.29 10.47,7.25 10.5,6.21 11.4,5.4 12.45,5.44 13.5,5.5 14.33,6.35 14.3,7.39 14.28,7.83 14.11,8.23 13.84,8.54 l 1.9,3.51 c 0.62,-0.2 1.3,-0.27 2,-0.19"
     id="path2"
     style="fill:#4b4b4b;fill-opacity:1" /><path
     d="M 10.46,19 C 9,21.07 6.15,21.59 4.09,20.15 2.04,18.71 1.56,15.84 3,13.75 3.87,12.5 5.21,11.83 6.58,11.77 l 0.05,1.43 c -0.91,0.07 -1.79,0.54 -2.36,1.36 -1,1.44 -0.69,3.38 0.68,4.35 1.38,0.96 3.31,0.59 4.31,-0.84 0.31,-0.45 0.49,-0.94 0.56,-1.44 v -1.01 l 5.58,-0.04 0.07,-0.11 c 0.53,-0.92 1.68,-1.24 2.58,-0.72 0.9,0.52 1.21,1.68 0.68,2.6 -0.53,0.91 -1.69,1.23 -2.59,0.71 -0.41,-0.23 -0.7,-0.6 -0.83,-1.02 l -4.07,0.02 c -0.11,0.67 -0.37,1.32 -0.78,1.94"
     id="path1"
     style="fill:#4a4a4a;fill-opacity:1" /></svg>
