<?xml version="1.0" encoding="UTF-8" standalone="no"?>
<svg
   id="mdi-whatsapp"
   viewBox="0 0 24 24"
   version="1.1"
   sodipodi:docname="whatsapp-black.svg"
   xml:space="preserve"
   inkscape:version="1.4 (e7c3feb1, 2024-10-09)"
   xmlns:inkscape="http://www.inkscape.org/namespaces/inkscape"
   xmlns:sodipodi="http://sodipodi.sourceforge.net/DTD/sodipodi-0.dtd"
   xmlns="http://www.w3.org/2000/svg"
   xmlns:svg="http://www.w3.org/2000/svg"><defs
     id="defs1" /><sodipodi:namedview
     id="namedview1"
     pagecolor="#ffffff"
     bordercolor="#000000"
     borderopacity="0.25"
     inkscape:showpageshadow="2"
     inkscape:pageopacity="0.0"
     inkscape:pagecheckerboard="0"
     inkscape:deskcolor="#d1d1d1"
     inkscape:zoom="8.06"
     inkscape:cx="11.848635"
     inkscape:cy="12.034739"
     inkscape:window-width="1392"
     inkscape:window-height="635"
     inkscape:window-x="0"
     inkscape:window-y="38"
     inkscape:window-maximized="0"
     inkscape:current-layer="mdi-whatsapp" /><path
     style="fill:#36c14a;stroke-width:0.248139;stroke-linejoin:bevel;stroke-miterlimit:1;fill-opacity:1"
     d="M 11.576022,3.1981816 C 9.0792572,3.209264 6.6945994,4.6038629 5.1648767,6.5310949 3.2264764,8.8847079 2.8154627,12.313608 3.9072193,15.126299 c 0.2268534,0.779102 1.0587544,1.455654 0.5728026,2.292223 -0.1133407,0.791634 -0.6895784,1.691673 -0.2473625,2.455131 0.669959,0.496408 1.5199368,-0.14895 2.2452488,-0.213648 0.5595617,-0.196739 1.105319,-0.36948 1.5892734,0.05686 3.2406394,1.721565 7.4974484,1.017248 10.0808874,-1.562258 2.645437,-2.514365 3.413039,-6.77015 1.756596,-10.0318991 -1.46601,-3.089619 -4.874912,-5.242994 -8.328643,-4.9245313 z m -2.7225015,4.727241 c 0.4321052,0.086247 0.4295706,0.7868074 0.669397,1.1252649 0.1326434,0.4037451 0.5349335,0.8606223 0.044729,1.1918295 -0.5942076,0.524309 -0.5907284,1.396609 -0.057915,1.961849 1.0154565,1.23286 2.3130485,2.437649 3.9033425,2.786959 0.681248,-0.157978 0.917224,-1.532226 1.634699,-1.137144 0.462245,0.278299 1.19604,0.382412 1.485212,0.826001 -0.111804,1.320331 -1.815289,1.734567 -2.869591,1.269046 C 11.070807,15.20256 8.9951687,13.217716 7.8163772,10.838874 7.3922274,9.9227799 7.4854012,8.6202703 8.3187132,7.9806723 8.492832,7.9354777 8.6741599,7.9225739 8.8535205,7.9254226 Z"
     id="path2" /><path
     d="M12.04 2C6.58 2 2.13 6.45 2.13 11.91C2.13 13.66 2.59 15.36 3.45 16.86L2.05 22L7.3 20.62C8.75 21.41 10.38 21.83 12.04 21.83C17.5 21.83 21.95 17.38 21.95 11.92C21.95 9.27 20.92 6.78 19.05 4.91C17.18 3.03 14.69 2 12.04 2M12.05 3.67C14.25 3.67 16.31 4.53 17.87 6.09C19.42 7.65 20.28 9.72 20.28 11.92C20.28 16.46 16.58 20.15 12.04 20.15C10.56 20.15 9.11 19.76 7.85 19L7.55 18.83L4.43 19.65L5.26 16.61L5.06 16.29C4.24 15 3.8 13.47 3.8 11.91C3.81 7.37 7.5 3.67 12.05 3.67M8.53 7.33C8.37 7.33 8.1 7.39 7.87 7.64C7.65 7.89 7 8.5 7 9.71C7 10.93 7.89 12.1 8 12.27C8.14 12.44 9.76 14.94 12.25 16C12.84 16.27 13.3 16.42 13.66 16.53C14.25 16.72 14.79 16.69 15.22 16.63C15.7 16.56 16.68 16.03 16.89 15.45C17.1 14.87 17.1 14.38 17.04 14.27C16.97 14.17 16.81 14.11 16.56 14C16.31 13.86 15.09 13.26 14.87 13.18C14.64 13.1 14.5 13.06 14.31 13.3C14.15 13.55 13.67 14.11 13.53 14.27C13.38 14.44 13.24 14.46 13 14.34C12.74 14.21 11.94 13.95 11 13.11C10.26 12.45 9.77 11.64 9.62 11.39C9.5 11.15 9.61 11 9.73 10.89C9.84 10.78 10 10.6 10.1 10.45C10.23 10.31 10.27 10.2 10.35 10.04C10.43 9.87 10.39 9.73 10.33 9.61C10.27 9.5 9.77 8.26 9.56 7.77C9.36 7.29 9.16 7.35 9 7.34C8.86 7.34 8.7 7.33 8.53 7.33Z"
     id="path1" /></svg>
