<?xml version="1.0" encoding="UTF-8" standalone="no"?>
<svg
   id="mdi-window-open"
   viewBox="0 0 24 24"
   version="1.1"
   sodipodi:docname="window-open-color.svg"
   inkscape:version="1.4 (e7c3feb1, 2024-10-09)"
   xmlns:inkscape="http://www.inkscape.org/namespaces/inkscape"
   xmlns:sodipodi="http://sodipodi.sourceforge.net/DTD/sodipodi-0.dtd"
   xmlns="http://www.w3.org/2000/svg"
   xmlns:svg="http://www.w3.org/2000/svg">
  <defs
     id="defs1" />
  <sodipodi:namedview
     id="namedview1"
     pagecolor="#ffffff"
     bordercolor="#000000"
     borderopacity="0.25"
     inkscape:showpageshadow="2"
     inkscape:pageopacity="0.0"
     inkscape:pagecheckerboard="0"
     inkscape:deskcolor="#d1d1d1"
     inkscape:zoom="8.64"
     inkscape:cx="12.037037"
     inkscape:cy="12.037037"
     inkscape:window-width="1464"
     inkscape:window-height="845"
     inkscape:window-x="0"
     inkscape:window-y="38"
     inkscape:window-maximized="0"
     inkscape:current-layer="mdi-window-open" />
  <path
     style="fill:#2a7fff;stroke-width:0.231481;stroke-linejoin:bevel;stroke-miterlimit:1"
     d="m 5.6997794,16.546857 c -0.4764381,0.758925 -0.1088275,1.750979 -0.2233435,2.608236 -0.099652,0.587551 0.041482,1.491196 0.8314345,1.352267 3.9307576,-0.02585 7.8791856,0.05146 11.7989576,-0.03852 0.830211,-0.271076 0.374189,-1.355055 0.49081,-2.008192 -0.09861,-0.677482 0.336708,-1.861486 -0.599953,-2.046712 -4.007919,0.02584 -8.0335036,-0.05145 -12.0304385,0.03852 -0.089156,0.03147 -0.1783114,0.06293 -0.2674671,0.0944 z"
     id="path2" />
  <path
     id="path4"
     style="fill:#b7bec8;stroke-width:0.231481;stroke-linejoin:bevel;stroke-miterlimit:1"
     d="M 5.6997794,3.583894 C 5.2249143,4.3238709 5.5913863,5.2964928 5.4764359,6.1342593 c 0.1024609,0.7446342 -0.2338861,1.6708 0.2314025,2.289267 0.7522923,0.3671761 1.6856695,0.064965 2.5097542,0.1625378 0.7371919,-0.1327297 1.8568534,0.358392 2.2646304,-0.4726834 0.189567,-0.5328345 -0.398318,-1.7848611 0.476526,-1.6106499 0.834599,0 1.669199,0 2.503798,0 0.103218,0.6884834 -0.344946,1.8911746 0.599953,2.0833333 1.38042,-0.049444 2.794929,0.1001279 4.15347,-0.077042 0.712011,-0.4177687 0.250108,-1.4535755 0.381668,-2.1432818 -0.06714,-0.8932309 0.147206,-1.8346771 -0.13292,-2.6914243 -0.739977,-0.474865 -1.7126,-0.1083931 -2.550366,-0.2233435 -3.313474,0.025847 -6.6446342,-0.051559 -9.9471055,0.038521 -0.089156,0.031467 -0.1783114,0.062933 -0.2674671,0.0944 z m 0,6.0185185 C 5.2249143,10.342389 5.5913863,11.315011 5.4764359,12.152778 c 0.072325,1.046663 -0.1546337,2.144591 0.132921,3.154387 0.7399769,0.474865 1.7125989,0.108393 2.5503653,0.223344 3.3134738,-0.02585 6.6446338,0.05156 9.9471058,-0.03852 0.842822,-0.285942 0.366599,-1.396265 0.49081,-2.066062 -0.07655,-1.23884 0.160611,-2.531418 -0.13292,-3.7330911 -0.739977,-0.474865 -1.7126,-0.1083931 -2.550366,-0.2233434 -3.313474,0.025847 -6.6446342,-0.051559 -9.9471055,0.038521 -0.089156,0.031467 -0.1783114,0.062933 -0.2674671,0.094399 z" />
  <path
     d="M6,8H10V6H14V8H18V4H6V8M18,10H6V15H18V10M6,20H18V17H6V20M6,2H18A2,2 0 0,1 20,4V20A2,2 0 0,1 18,22H6A2,2 0 0,1 4,20V4A2,2 0 0,1 6,2Z"
     id="path1" />
</svg>
