<?xml version="1.0" encoding="UTF-8" standalone="no"?>
<svg
   id="mdi-wordpress"
   viewBox="0 0 24 24"
   version="1.1"
   sodipodi:docname="wordpress-black.svg"
   xml:space="preserve"
   inkscape:version="1.4 (e7c3feb1, 2024-10-09)"
   xmlns:inkscape="http://www.inkscape.org/namespaces/inkscape"
   xmlns:sodipodi="http://sodipodi.sourceforge.net/DTD/sodipodi-0.dtd"
   xmlns="http://www.w3.org/2000/svg"
   xmlns:svg="http://www.w3.org/2000/svg"><defs
     id="defs1" /><sodipodi:namedview
     id="namedview1"
     pagecolor="#ffffff"
     bordercolor="#000000"
     borderopacity="0.25"
     inkscape:showpageshadow="2"
     inkscape:pageopacity="0.0"
     inkscape:pagecheckerboard="0"
     inkscape:deskcolor="#d1d1d1"
     inkscape:zoom="14.97"
     inkscape:cx="11.857047"
     inkscape:cy="12.024048"
     inkscape:window-width="1352"
     inkscape:window-height="581"
     inkscape:window-x="0"
     inkscape:window-y="38"
     inkscape:window-maximized="0"
     inkscape:current-layer="mdi-wordpress" /><path
     style="fill:#1a1a1a;fill-opacity:1;stroke-width:0.133601;stroke-linejoin:bevel;stroke-miterlimit:1"
     d="M 11.875965,1.8967623 C 8.2871145,1.933275 4.7974631,4.0232282 3.1240867,7.2068617 2.315781,8.7080171 1.8524453,10.407652 1.9346331,12.12007 c -0.076586,3.808002 2.378404,7.453681 5.8139718,9.024024 1.5723791,0.74345 3.3344801,1.086651 5.0693491,0.899864 4.414148,-0.254549 8.335104,-3.851504 9.10549,-8.182798 C 22.340126,11.511597 21.947587,9.0106259 20.72613,6.9487914 18.961623,3.813961 15.462312,1.8529823 11.875965,1.8967623 Z m 0.07659,2.1212999 c 1.643985,-0.056963 3.298096,0.4959276 4.661145,1.4272033 -1.022796,0.6485534 -1.154743,2.1256895 -0.548623,3.1032117 0.50958,0.9697386 1.237388,1.9322388 1.129603,3.0925128 -0.06544,1.155158 -0.549982,2.234804 -0.840222,3.34458 -0.107326,0.701264 -0.237942,-0.135397 -0.358795,-0.393813 C 15.317149,12.561728 14.592574,10.494482 13.95121,8.4851996 14.542242,8.4551347 15.256969,7.9661232 15.028364,7.3000167 14.844685,6.698088 14.162013,6.5690348 13.616649,6.6517172 12.308444,6.7732665 11.025553,6.6869908 9.6829071,6.6424516 9.1229653,6.5743639 8.5550024,7.0280492 8.6537659,7.6194055 c 0.00281,0.6477684 0.7078253,0.8955149 1.2519829,0.8959324 0.2934172,0.1911781 0.3062772,0.7445358 0.4909642,1.0760756 0.231023,0.7128875 0.583005,1.4239215 0.739986,2.1378555 -0.421897,1.261071 -0.840965,2.523092 -1.2663069,3.783006 C 9.0939172,13.178057 8.2521664,10.800623 7.5244238,8.4891136 8.0827874,8.4978104 8.672852,8.0717908 8.5801812,7.4637556 8.5810004,6.8208123 7.8703668,6.5770568 7.3311989,6.651454 6.8911365,6.6545618 6.3902493,6.7188969 5.9949326,6.7069034 7.1116434,5.4397777 8.6331325,4.5231391 10.309291,4.1771042 10.846512,4.0436746 11.401338,4.0179796 11.952551,4.0180622 Z M 4.5612057,11.252844 c 0.8802873,2.382948 1.754131,4.762933 2.6202144,7.151413 -1.286983,-1.026856 -2.3440337,-2.391107 -2.8123956,-3.986098 -0.4212807,-1.341786 -0.49753,-2.796333 -0.180439,-4.168754 0.1242068,0.33448 0.2484135,0.66896 0.3726202,1.003439 z M 19.900347,10.711919 c 0.43299,2.561029 -0.499257,5.377471 -2.462868,7.162241 0.811703,-2.402002 1.704675,-4.778457 2.456606,-7.199555 z m -7.650718,3.972267 c 0.624239,1.675771 1.242131,3.354081 1.831398,5.042507 -1.230224,0.333009 -2.543214,0.354157 -3.772389,0.103201 0.603899,-1.79111 1.230126,-3.574629 1.861666,-5.356155 0.02644,0.07015 0.05288,0.140298 0.07933,0.210447 z"
     id="path2" /><path
     d="M3.42,12C3.42,10.76 3.69,9.58 4.16,8.5L8.26,19.72C5.39,18.33 3.42,15.4 3.42,12M17.79,11.57C17.79,12.3 17.5,13.15 17.14,14.34L16.28,17.2L13.18,8L14.16,7.9C14.63,7.84 14.57,7.16 14.11,7.19C14.11,7.19 12.72,7.3 11.82,7.3L9.56,7.19C9.1,7.16 9.05,7.87 9.5,7.9L10.41,8L11.75,11.64L9.87,17.27L6.74,8L7.73,7.9C8.19,7.84 8.13,7.16 7.67,7.19C7.67,7.19 6.28,7.3 5.38,7.3L4.83,7.29C6.37,4.96 9,3.42 12,3.42C14.23,3.42 16.27,4.28 17.79,5.67H17.68C16.84,5.67 16.24,6.4 16.24,7.19C16.24,7.9 16.65,8.5 17.08,9.2C17.41,9.77 17.79,10.5 17.79,11.57M12.15,12.75L14.79,19.97L14.85,20.09C13.96,20.41 13,20.58 12,20.58C11.16,20.58 10.35,20.46 9.58,20.23L12.15,12.75M19.53,7.88C20.2,9.11 20.58,10.5 20.58,12C20.58,15.16 18.86,17.93 16.31,19.41L18.93,11.84C19.42,10.62 19.59,9.64 19.59,8.77L19.53,7.88M12,2A10,10 0 0,1 22,12A10,10 0 0,1 12,22A10,10 0 0,1 2,12A10,10 0 0,1 12,2M12,21.54C17.26,21.54 21.54,17.26 21.54,12C21.54,6.74 17.26,2.46 12,2.46C6.74,2.46 2.46,6.74 2.46,12C2.46,17.26 6.74,21.54 12,21.54Z"
     id="path1"
     style="fill:#21759b;fill-opacity:1" /></svg>
