<?xml version="1.0" encoding="UTF-8" standalone="no"?>
<svg
   id="mdi-youtube-tv"
   viewBox="0 0 24 24"
   version="1.1"
   sodipodi:docname="youtube-tv-color.svg"
   xml:space="preserve"
   inkscape:version="1.4 (e7c3feb1, 2024-10-09)"
   xmlns:inkscape="http://www.inkscape.org/namespaces/inkscape"
   xmlns:sodipodi="http://sodipodi.sourceforge.net/DTD/sodipodi-0.dtd"
   xmlns="http://www.w3.org/2000/svg"
   xmlns:svg="http://www.w3.org/2000/svg"><defs
     id="defs1" /><sodipodi:namedview
     id="namedview1"
     pagecolor="#ffffff"
     bordercolor="#000000"
     borderopacity="0.25"
     inkscape:showpageshadow="2"
     inkscape:pageopacity="0.0"
     inkscape:pagecheckerboard="0"
     inkscape:deskcolor="#d1d1d1"
     inkscape:zoom="9.26"
     inkscape:cx="11.825054"
     inkscape:cy="11.987041"
     inkscape:window-width="1376"
     inkscape:window-height="681"
     inkscape:window-x="0"
     inkscape:window-y="38"
     inkscape:window-maximized="0"
     inkscape:current-layer="mdi-youtube-tv" /><path
     style="fill:#1a1a1a;fill-opacity:1"
     d="M 17.25,21 H 6.65 c -0.3,0 -0.5,-0.2 -0.5,-0.5 0,-0.3 0.2,-0.5 0.5,-0.5 h 10.7 c 0.3,0 0.5,0.2 0.5,0.5 0,0.3 -0.3,0.5 -0.6,0.5 z"
     id="path3" /><path
     style="fill:#ff0000;fill-opacity:1"
     d="m 2.5,4.5 h 19 C 22.34,4.5 23,5.15 23,6 V 17.5 C 23,18.35 22.34,19 21.5,19 H 2.5 C 1.65,19 1,18.35 1,17.5 V 6 C 1,5.15 1.65,4.5 2.5,4.5"
     id="path1" /><path
     style="fill:#f9f9f9;fill-opacity:1"
     d="M 9.71,8.5 V 15 L 15.42,11.7 9.71,8.5"
     id="path2" /></svg>
