<?xml version="1.0" encoding="UTF-8" standalone="no"?>
<svg
   id="mdi-zigbee"
   viewBox="0 0 24 24"
   version="1.1"
   sodipodi:docname="zigbee-logo.svg"
   xml:space="preserve"
   inkscape:version="1.4 (e7c3feb1, 2024-10-09)"
   xmlns:inkscape="http://www.inkscape.org/namespaces/inkscape"
   xmlns:sodipodi="http://sodipodi.sourceforge.net/DTD/sodipodi-0.dtd"
   xmlns="http://www.w3.org/2000/svg"
   xmlns:svg="http://www.w3.org/2000/svg"><defs
     id="defs1" /><sodipodi:namedview
     id="namedview1"
     pagecolor="#ffffff"
     bordercolor="#000000"
     borderopacity="0.25"
     inkscape:showpageshadow="2"
     inkscape:pageopacity="0.0"
     inkscape:pagecheckerboard="0"
     inkscape:deskcolor="#d1d1d1"
     inkscape:zoom="1.0833333"
     inkscape:cx="68.769231"
     inkscape:cy="-4.6153846"
     inkscape:window-width="1432"
     inkscape:window-height="681"
     inkscape:window-x="0"
     inkscape:window-y="38"
     inkscape:window-maximized="0"
     inkscape:current-layer="mdi-zigbee" /><path
     d="M4.06,6.15C3.97,6.17 3.88,6.22 3.8,6.28C2.66,7.9 2,9.87 2,12A10,10 0 0,0 12,22C15,22 17.68,20.68 19.5,18.6L17,18.85C14.25,19.15 11.45,19.19 8.66,18.96C7.95,18.94 7.24,18.76 6.59,18.45C5.73,18.06 5.15,17.23 5.07,16.29C5.06,16.13 5.12,16 5.23,15.87L7.42,13.6L15.03,5.7V5.6H10.84C8.57,5.64 6.31,5.82 4.06,6.15M20.17,17.5C20.26,17.47 20.35,17.44 20.43,17.39C21.42,15.83 22,14 22,12A10,10 0 0,0 12,2C9.22,2 6.7,3.13 4.89,4.97H5.17C8.28,4.57 11.43,4.47 14.56,4.65C15.5,4.64 16.45,4.82 17.33,5.17C18.25,5.53 18.89,6.38 19,7.37C19,7.53 18.93,7.7 18.82,7.82L9.71,17.19L9,17.95V18.06H13.14C15.5,18 17.84,17.81 20.17,17.5Z"
     id="path1"
     style="fill:#ec0444;fill-opacity:1" /></svg>
